<?xml version="1.0" encoding="utf-8"?>
<!-- Generator: Adobe Illustrator 16.0.0, SVG Export Plug-In . SVG Version: 6.00 Build 0)  -->
<!DOCTYPE svg PUBLIC "-//W3C//DTD SVG 1.1//EN" "http://www.w3.org/Graphics/SVG/1.1/DTD/svg11.dtd">
<svg version="1.1" id="Layer_1" xmlns="http://www.w3.org/2000/svg" xmlns:xlink="http://www.w3.org/1999/xlink" x="0px" y="0px"
	 width="512px" height="512px" viewBox="0 0 512 512" enable-background="new 0 0 512 512" xml:space="preserve">
<path fill="#DBB7AD" d="M399.032,232.877h-1.6c-3.313,0-6-2.686-6-6c0-3.313,2.687-6,6-6h1.6c16.728-0.018,30.282-13.573,30.3-30.3
	c0-3.314,2.687-6,6-6c3.314,0,6,2.686,6,6C441.307,213.928,422.384,232.852,399.032,232.877z"/>
<path fill="#F8D2C5" d="M232.65,85.92c-11.704-0.005-23.386,1.022-34.91,3.07L197.72,89c-13.517-22.992-38.199-37.105-64.87-37.09
	l1.851,6.02c4.38,14.314,5.763,29.377,4.06,44.25h-0.01c-33.696,12.529-62.354,35.763-81.58,66.14l-9.33,14.74h-24.3
	c-6.928,0.005-12.541,5.623-12.54,12.55v79.64c-0.001,6.928,5.612,12.545,12.54,12.55H48.7c5.759,12.081,13.27,23.244,22.289,33.13
	c17.984,20.039,27.896,46.035,27.82,72.961c0.003,10.215,8.284,18.496,18.5,18.5h25.73c10.217,0,18.5-8.283,18.5-18.5l0,0
	c0.008-10.209,8.281-18.482,18.489-18.49h48.021c10.214-0.004,18.497,8.273,18.5,18.488c0,0,0,0,0,0.002
	c0.003,10.215,8.284,18.496,18.5,18.5h48.229l84.98-153.601c0.928-7.166,1.393-14.384,1.39-21.61
	C399.65,153.64,324.88,85.92,232.65,85.92L232.65,85.92z"/>
<path fill="#F2CD7D" d="M399.43,256.96c56.248-0.158,101.974,45.312,102.132,101.56s-45.312,101.974-101.56,102.132
	S298.029,415.34,297.87,359.092c-0.157-55.791,44.604-101.324,100.39-102.121C398.65,256.96,399.039,256.96,399.43,256.96z"/>
<path fill="#DBB7AD" d="M129.81,393.891c0.076-26.926-9.836-52.922-27.819-72.961c-9.021-9.886-16.531-21.049-22.29-33.13H54.54
	c-6.928-0.005-12.541-5.622-12.54-12.55v-79.64c-0.001-6.927,5.612-12.545,12.54-12.55h24.3l9.33-14.74
	c19.227-30.376,47.884-53.61,81.58-66.14h0.01c1.629-14.255,0.424-28.692-3.544-42.48c-10.371-5.138-21.792-7.805-33.366-7.79
	l1.851,6.02c4.38,14.314,5.763,29.377,4.06,44.25h-0.01c-33.696,12.529-62.354,35.763-81.58,66.14l-9.33,14.74h-24.3
	c-6.928,0.005-12.541,5.623-12.54,12.55v79.64c-0.001,6.928,5.612,12.545,12.54,12.55H48.7c5.759,12.081,13.27,23.244,22.29,33.13
	c17.983,20.039,27.896,46.035,27.819,72.961c0.003,10.215,8.284,18.496,18.5,18.5h25.73c0.882-0.008,1.762-0.078,2.634-0.209
	C136.568,410.887,129.804,403.088,129.81,393.891z"/>
<path fill="#D1AF6B" d="M343.76,411.471c-29.24-47.873-14.136-110.386,33.737-139.625c11.461-7.001,24.196-11.658,37.47-13.705
	c-5.142-0.787-10.336-1.182-15.537-1.181c-0.391,0-0.78,0-1.17,0.011c-56.088,0.696-100.991,46.729-100.294,102.817
	c0.696,56.088,46.73,100.991,102.818,100.294c4.751-0.059,9.492-0.451,14.188-1.174C385.406,454.355,359.352,436.999,343.76,411.471
	L343.76,411.471z"/>
<path fill="#C1A099" d="M128.158,202.229c-15.086-0.017-27.311-12.243-27.326-27.329c0-3.313,2.686-6,6-6c3.313,0,6,2.687,6,6
	c0,8.464,6.861,15.326,15.326,15.326c8.464,0,15.325-6.862,15.325-15.326c0-3.313,2.687-6,6-6c3.314,0,6,2.687,6,6
	C155.468,189.985,143.243,202.211,128.158,202.229z"/>
<g>
	<path fill="#F4F8FC" d="M321.649,244.474c-3.313,0.008-6.007-2.672-6.015-5.985c-0.005-2.152,1.142-4.141,3.007-5.215
		c3.091-1.787,6.3-3.463,9.531-4.983c3.024-1.352,6.573,0.004,7.926,3.029c1.316,2.945,0.068,6.405-2.826,7.831
		c-2.928,1.376-5.832,2.894-8.631,4.512C323.733,244.192,322.7,244.472,321.649,244.474z"/>
	<path fill="#F4F8FC" d="M267.03,311.4c-3.313,0-6-2.686-6.001-5.999c0-0.644,0.104-1.283,0.307-1.895
		c4.066-12.234,9.973-23.778,17.515-34.235c5.784-8.021,12.475-15.347,19.939-21.833c2.503-2.173,6.292-1.906,8.465,0.597
		c2.173,2.502,1.905,6.292-0.597,8.464l0,0c-6.767,5.877-12.83,12.518-18.071,19.788c-6.831,9.468-12.18,19.921-15.863,31
		C271.909,309.742,269.615,311.398,267.03,311.4L267.03,311.4z"/>
</g>
<g>
	<path fill="#B28A44" d="M356.465,344.355h13.822l6.094-22.145h9.265l6.094,22.145h22.938l6.094-22.145h9.81l5.896,22.145
		l13.377,0.001v8.324h-11.196l3.121,11.74h8.075v8.324h-5.846l5.846,22.096h-9.859l-5.004-22.097h-20.163l-6.045,22.096h-11.593
		l-5.697-22.096h-20.064l-5.302,22.096h-9.66l6.044-22.096h-6.044v-8.324h8.323l3.22-11.74h-11.543V344.355z M417.105,364.42
		l16.003,0.001l-2.626-11.74l-10.156-0.001L417.105,364.42z M422.604,344.355h5.995l-2.725-11.988L422.604,344.355z M394.018,352.68
		l3.271,11.74h11.89l3.221-11.74H394.018z M399.567,372.744l3.666,13.326l3.666-13.326H399.567z M373.458,364.42h15.903
		l-3.022-11.74h-10.106L373.458,364.42z M378.264,344.355h5.945l-3.072-11.988L378.264,344.355z"/>
</g>
</svg>
