<?xml version="1.0" encoding="utf-8"?>
<!-- Generator: Adobe Illustrator 16.0.0, SVG Export Plug-In . SVG Version: 6.00 Build 0)  -->
<!DOCTYPE svg PUBLIC "-//W3C//DTD SVG 1.1//EN" "http://www.w3.org/Graphics/SVG/1.1/DTD/svg11.dtd">
<svg version="1.1" id="Layer_1" xmlns="http://www.w3.org/2000/svg" xmlns:xlink="http://www.w3.org/1999/xlink" x="0px" y="0px"
	 width="512px" height="512px" viewBox="0 0 512 512" enable-background="new 0 0 512 512" xml:space="preserve">
<path id="Shape" fill="#F3D55B" d="M26.483,8.828C26.483,3.952,30.435,0,35.311,0h370.758c4.875,0,8.828,3.952,8.828,8.828v224.062
	c-0.002,3.059-1.587,5.898-4.188,7.505s-5.85,1.754-8.586,0.387l-18.591-9.287c-2.483-1.241-5.407-1.241-7.892,0l-27.418,13.7
	c-2.484,1.242-5.408,1.242-7.893,0l-27.418-13.7c-2.484-1.241-5.408-1.241-7.892,0l-27.419,13.7c-2.484,1.242-5.407,1.242-7.892,0
	l-27.419-13.7c-2.483-1.241-5.407-1.241-7.892,0l-27.418,13.7c-2.484,1.242-5.408,1.242-7.893,0l-27.418-13.7
	c-2.484-1.241-5.408-1.241-7.892,0l-27.419,13.7c-2.484,1.242-5.407,1.242-7.892,0l-27.419-13.7c-2.484-1.241-5.407-1.241-7.892,0
	l-27.418,13.7c-2.484,1.242-5.408,1.242-7.893,0l-26.482-13.241c-2.99-1.494-4.88-4.549-4.882-7.892V8.828z"/>
<path id="Shape_1_" fill="#F0C419" d="M476.69,353.104h-61.793v-56.32c0.023-3.355-1.858-6.435-4.855-7.945l-26.482-13.24
	c-2.505-1.236-5.441-1.236-7.945,0l-27.365,13.771c-2.505,1.235-5.441,1.235-7.945,0l-27.365-13.771
	c-2.504-1.236-5.44-1.236-7.945,0l-27.365,13.771c-2.504,1.235-5.44,1.235-7.944,0l-27.365-13.771c-2.505-1.236-5.441-1.236-7.945,0
	l-27.365,13.771c-2.504,1.235-5.44,1.235-7.945,0l-27.365-13.771c-2.504-1.236-5.44-1.236-7.944,0l-27.366,13.771
	c-2.504,1.235-5.44,1.235-7.944,0l-27.366-13.771c-2.504-1.236-5.44-1.236-7.944,0l-27.365,13.771c-2.505,1.235-5.441,1.235-7.945,0
	l-18.538-9.356c-2.746-1.385-6.015-1.24-8.628,0.383c-2.612,1.621-4.193,4.486-4.172,7.562v188.733
	c0,19.502,15.809,35.311,35.311,35.311h388.325c1.147,0,2.384-0.088,3.531-0.177c18.42-2.279,32.161-18.076,31.867-36.635V361.932
	C485.517,357.056,481.565,353.104,476.69,353.104L476.69,353.104z"/>
<path id="Shape_2_" fill="#F3D55B" d="M450.118,512H61.793c-19.502,0-35.311-15.809-35.311-35.311V287.956
	c-0.021-3.075,1.56-5.94,4.172-7.562c2.613-1.623,5.882-1.768,8.628-0.383l18.538,9.356c2.504,1.235,5.44,1.235,7.945,0
	l27.365-13.771c2.504-1.236,5.44-1.236,7.944,0l27.366,13.771c2.504,1.235,5.44,1.235,7.944,0l27.365-13.771
	c2.505-1.236,5.441-1.236,7.945,0l27.365,13.771c2.505,1.235,5.441,1.235,7.945,0l27.365-13.771c2.504-1.236,5.44-1.236,7.945,0
	l27.365,13.771c2.504,1.235,5.44,1.235,7.944,0l27.365-13.771c2.505-1.236,5.441-1.236,7.945,0l27.365,13.771
	c2.504,1.235,5.44,1.235,7.945,0l27.365-13.771c2.504-1.236,5.44-1.236,7.945,0l26.482,13.241c2.997,1.51,4.879,4.589,4.855,7.944
	v179.906C414.897,496.156,430.652,511.951,450.118,512z"/>
<path id="Shape_4_" fill="#4FBA6F" d="M141.241,79.448c0-19.501-15.809-35.311-35.311-35.311H79.448
	c-9.751,0-17.655,7.905-17.655,17.655v88.276c0,9.751,7.904,17.655,17.655,17.655h26.482c14.725,0.065,27.931-9.051,33.089-22.843
	c5.157-13.792,1.176-29.336-9.979-38.95C136.758,99.292,141.209,89.628,141.241,79.448z M123.586,132.414
	c0,9.751-7.904,17.655-17.655,17.655H79.448v-35.31h26.482C115.682,114.759,123.586,122.663,123.586,132.414z M79.448,97.104V61.793
	h26.482c9.751,0,17.655,7.905,17.655,17.655c0,9.751-7.904,17.655-17.655,17.655H79.448z"/>
<path id="Shape_5_" fill="#4FBA6F" d="M203.034,61.793c4.875,0,8.827-3.952,8.827-8.828c0-4.875-3.952-8.828-8.827-8.828h-35.311
	c-4.875,0-8.827,3.953-8.827,8.828c0,4.875,3.952,8.828,8.827,8.828h8.828v88.276h-8.828c-4.875,0-8.827,3.952-8.827,8.828
	s3.952,8.828,8.827,8.828h35.311c4.875,0,8.827-3.952,8.827-8.828s-3.952-8.828-8.827-8.828h-8.827V61.793H203.034z"/>
<path id="Shape_6_" fill="#4FBA6F" d="M291.311,150.069H256V52.965c0-4.875-3.952-8.828-8.828-8.828
	c-4.875,0-8.827,3.953-8.827,8.828v105.931c0,4.875,3.952,8.828,8.827,8.828h44.139c4.875,0,8.827-3.952,8.827-8.828
	S296.186,150.069,291.311,150.069z"/>
<path id="Shape_7_" fill="#4FBA6F" d="M370.758,150.069h-35.31V52.965c0-4.875-3.953-8.828-8.828-8.828s-8.827,3.953-8.827,8.828
	v105.931c0,4.875,3.952,8.828,8.827,8.828h44.138c4.876,0,8.828-3.952,8.828-8.828S375.634,150.069,370.758,150.069z"/>
<path id="Shape_8_" fill="#547580" d="M238.345,344.275H70.62c-4.875,0-8.827-3.951-8.827-8.827s3.952-8.827,8.827-8.827h167.725
	c4.875,0,8.827,3.951,8.827,8.827S243.22,344.275,238.345,344.275z"/>
<path id="Shape_9_" fill="#547580" d="M238.345,388.414H70.62c-4.875,0-8.827-3.953-8.827-8.828s3.952-8.827,8.827-8.827h167.725
	c4.875,0,8.827,3.952,8.827,8.827S243.22,388.414,238.345,388.414z"/>
<path id="Shape_10_" fill="#547580" d="M238.345,432.552H70.62c-4.875,0-8.827-3.952-8.827-8.827c0-4.876,3.952-8.828,8.827-8.828
	h167.725c4.875,0,8.827,3.952,8.827,8.828C247.172,428.6,243.22,432.552,238.345,432.552z"/>
<path id="Shape_11_" fill="#547580" d="M158.897,476.689H70.62c-4.875,0-8.827-3.952-8.827-8.827c0-4.876,3.952-8.828,8.827-8.828
	h88.276c4.875,0,8.827,3.952,8.827,8.828C167.724,472.737,163.772,476.689,158.897,476.689z"/>
<rect x="572.5" y="428.5" fill="none" width="161" height="115"/>
<g>
	<path fill="#4FBA6F" d="M264.465,379.015h19.097l8.421-30.598h12.801l8.42,30.598h31.693l8.42-30.598h13.554l8.147,30.598H393.5
		v11.502h-15.47l4.313,16.222H393.5v11.501h-8.077l8.077,30.529h-13.623l-6.913-30.53h-27.859l-8.353,30.529h-16.018l-7.871-30.529
		h-27.722l-7.325,30.529h-13.348l8.351-30.529h-8.351v-11.502h11.499l4.45-16.22h-15.949v-11.502H264.465z M348.25,406.738
		l22.11,0.001l-3.628-16.22l-14.032-0.003L348.25,406.738z M355.848,379.015h8.283l-3.766-16.563L355.848,379.015z M316.351,390.517
		l4.52,16.222h16.429l4.45-16.222H316.351z M324.018,418.239l5.065,18.413l5.065-18.413H324.018z M287.943,406.738h21.974
		l-4.175-16.222h-13.964L287.943,406.738z M294.584,379.015h8.215l-4.245-16.563L294.584,379.015z"/>
</g>
</svg>
