<?xml version="1.0" encoding="utf-8"?>
<!-- Generator: Adobe Illustrator 16.0.0, SVG Export Plug-In . SVG Version: 6.00 Build 0)  -->
<!DOCTYPE svg PUBLIC "-//W3C//DTD SVG 1.1//EN" "http://www.w3.org/Graphics/SVG/1.1/DTD/svg11.dtd">
<svg version="1.1" id="Layer_1" xmlns="http://www.w3.org/2000/svg" xmlns:xlink="http://www.w3.org/1999/xlink" x="0px" y="0px"
	 width="512px" height="512px" viewBox="0 0 512 512" enable-background="new 0 0 512 512" xml:space="preserve">
<path id="XMLID_1094_" fill="#00DDC1" d="M150.588,481.883c-10.541,5.22-19.576,9.838-30.117,15.059
	c-10.542-5.221-19.577-9.839-30.118-15.059c0-1.808,0-31.122,0-30.118c0-12.448,7.63-23.291,18.572-27.809
	c19.678-8.132,41.663,6.325,41.663,27.809c0,8.634,15.059,15.059,15.059,15.059S150.588,473.349,150.588,481.883z"/>
<path id="XMLID_1331_" fill="#009884" d="M323.765,391.529c-20.781,0-37.647,16.866-37.647,37.647
	c0,8.733-15.059,26.403-15.059,26.403s15.059,17.568,15.059,26.402c13.151,5.221,24.496,9.839,37.647,15.06
	c13.151-5.221,24.495-9.839,37.646-15.06c0-18.673,0-34.032,0-52.705C361.411,408.396,344.546,391.529,323.765,391.529
	L323.765,391.529z"/>
<path id="XMLID_1320_" fill="#00B9A0" d="M225.882,429.177c0-20.781-16.865-37.647-37.646-37.647
	c-20.882,0-37.647,16.967-37.647,37.647v52.706c13.151,5.22,24.496,9.838,37.647,15.059c13.151-5.221,24.495-9.839,37.646-15.059
	c0-8.734,15.06-26.403,15.06-26.403S225.882,437.91,225.882,429.177z"/>
<path id="XMLID_1329_" fill="#0A617D" d="M225.882,120.471v361.412l15.06,15.059L256,481.883l15.059-180.707L256,120.471
	l-15.059-15.059L225.882,120.471z"/>
<path id="XMLID_1328_" fill="#08475E" d="M286.117,120.471l-15.059-15.059L256,120.471v361.412l15.059,15.059l15.059-15.059
	C286.117,471.643,286.117,130.71,286.117,120.471z"/>
<g>
	<path id="XMLID_1319_" fill="#FF6B6B" d="M52.313,43.001c1.454,4.361,24.977,74.931,26.431,79.293
		c-1.454,4.36-24.977,74.931-26.431,79.292h205.896l19.824-79.292l-19.824-79.293C246.844,43.001,63.678,43.001,52.313,43.001z"/>
	<path id="XMLID_1311_" fill="#C44E46" d="M489.479,122.294c-28.678-21.542-88.807-66.606-105.724-79.293
		c-7.003,0-118.542,0-125.546,0v158.584h125.546C412.432,180.045,472.564,134.981,489.479,122.294z"/>
</g>
<path id="XMLID_1102_" fill="#D8BB85" d="M45.176,481.883V512H256l15.059-15.059L256,481.883
	C244.254,481.883,56.922,481.883,45.176,481.883z"/>
<path id="XMLID_1_" fill="#C4A178" d="M256,481.883V512h210.823c0-10.541,0-19.576,0-30.117
	C455.077,481.883,267.746,481.883,256,481.883z"/>
</svg>
