<?xml version="1.0" encoding="utf-8"?>
<!-- Generator: Adobe Illustrator 16.0.0, SVG Export Plug-In . SVG Version: 6.00 Build 0)  -->
<!DOCTYPE svg PUBLIC "-//W3C//DTD SVG 1.1//EN" "http://www.w3.org/Graphics/SVG/1.1/DTD/svg11.dtd">
<svg version="1.1" id="Capa_1" xmlns="http://www.w3.org/2000/svg" xmlns:xlink="http://www.w3.org/1999/xlink" x="0px" y="0px"
	 width="256px" height="256px" viewBox="0 0 256 256" enable-background="new 0 0 256 256" xml:space="preserve">
<g>
	<g>
		<g>
			<path d="M254.83,124.919c-0.199-0.24-0.42-0.461-0.66-0.661L181.66,50.19c-2.195-2.368-5.895-2.508-8.264-0.313
				c-1.174,1.089-1.852,2.611-1.871,4.212v38.983h-93.95c-3.509,0-7.407,0.779-7.407,3.898v62.373
				c0.463,3.955,3.48,7.131,7.407,7.797h93.95v35.084c0.057,2.333,1.41,4.438,3.508,5.457h2.34c1.629-0.063,3.168-0.764,4.287-1.948
				l72.51-73.679C256.323,130.267,256.619,127.071,254.83,124.919z"/>
			<path d="M52.627,91.123c-3.229,0-5.848,2.618-5.848,5.848v62.373c0,3.229,2.618,5.848,5.848,5.848s5.848-2.618,5.848-5.848
				V96.971C58.475,93.74,55.857,91.123,52.627,91.123z"/>
			<path d="M29.238,91.123c-3.229,0-5.848,2.618-5.848,5.848v62.373c0,3.229,2.618,5.848,5.848,5.848
				c3.229,0,5.848-2.618,5.848-5.848V96.971C35.084,93.74,32.467,91.123,29.238,91.123z"/>
			<path d="M5.848,91.123C2.618,91.123,0,93.741,0,96.971v62.373c0,3.229,2.618,5.848,5.848,5.848s5.848-2.618,5.848-5.848V96.971
				C11.695,93.74,9.077,91.123,5.848,91.123z"/>
		</g>
	</g>
</g>
</svg>
