<?xml version="1.0" encoding="iso-8859-1"?>
<!-- Generator: Adobe Illustrator 19.0.0, SVG Export Plug-In . SVG Version: 6.00 Build 0)  -->
<svg version="1.1" id="Capa_1" xmlns="http://www.w3.org/2000/svg" xmlns:xlink="http://www.w3.org/1999/xlink" x="0px" y="0px"
	 viewBox="0 0 512 512" style="enable-background:new 0 0 512 512;" xml:space="preserve">
<g>
	<g>
		<path d="M501.333,149.333c-4.844,0-9.5-0.49-13.896-1.375c2.031-9.188,3.229-19.385,3.229-30.625c0-17.646-14.354-32-32-32
			s-32,14.354-32,32c0,17.531,14.031,34.073,34.156,43.958c-3.085,7.167-6.755,13.173-10.548,18.332
			c-25.497-42.189-74.785-75.344-136.806-88.29c-5.01-1.094-10.156,1.656-12.083,6.479l-23.292,58.229c-1.125,2.823-1,6,0.365,8.729
			l17.896,35.792l-26.615,26.615l7.042-21.135c1.281-3.833,0.281-8.063-2.573-10.917l-40.385-40.385l-11.427-57.125
			c-1.115-5.625-6.417-9.396-12.198-8.427c-33.177,5.469-64.156,16.813-90.135,32.958c-13.01-10.031-28.844-15.479-45.396-15.479
			c-5.896,0-10.667,4.771-10.667,10.667c0,14.719,4.51,29.125,12.833,41.427c-14.302,16.698-24.406,35.292-29.656,54.573h-4.51
			C19.135,213.333,0,232.469,0,256c0,23.74,12.031,45.406,32.177,57.979l74.49,46.406V416c0,5.896,4.771,10.667,10.667,10.667H160
			c4.042,0,7.729-2.281,9.542-5.896l12.625-25.25c47.208,13.021,100.458,13.021,147.667,0l12.625,25.25
			c1.813,3.615,5.5,5.896,9.542,5.896h42.667c5.896,0,10.667-4.771,10.667-10.667v-56.479c40.75-29.979,64-71.323,64-114.188
			c0-15.405-3.135-30.384-8.719-44.669c7.249-8.069,14.707-18.59,20.396-32.279c6.542,1.479,13.375,2.281,20.323,2.281
			c5.896,0,10.667-4.771,10.667-10.667S507.229,149.333,501.333,149.333z M106.667,234.667c-11.76,0-21.333-9.573-21.333-21.333
			c0-11.76,9.573-21.333,21.333-21.333c11.76,0,21.333,9.573,21.333,21.333C128,225.094,118.427,234.667,106.667,234.667z
			 M467.177,140.49C455.323,133.75,448,124.448,448,117.333c0-5.885,4.781-10.667,10.667-10.667s10.667,4.781,10.667,10.667
			C469.333,125.76,468.542,133.469,467.177,140.49z"/>
	</g>
</g>
<g>
</g>
<g>
</g>
<g>
</g>
<g>
</g>
<g>
</g>
<g>
</g>
<g>
</g>
<g>
</g>
<g>
</g>
<g>
</g>
<g>
</g>
<g>
</g>
<g>
</g>
<g>
</g>
<g>
</g>
</svg>
