<?xml version="1.0" encoding="utf-8"?>
<!-- Generator: Adobe Illustrator 16.0.0, SVG Export Plug-In . SVG Version: 6.00 Build 0)  -->
<!DOCTYPE svg PUBLIC "-//W3C//DTD SVG 1.1//EN" "http://www.w3.org/Graphics/SVG/1.1/DTD/svg11.dtd">
<svg version="1.1" id="Layer_1" xmlns="http://www.w3.org/2000/svg" xmlns:xlink="http://www.w3.org/1999/xlink" x="0px" y="0px"
	 width="512px" height="512px" viewBox="0 0 512 512" enable-background="new 0 0 512 512" xml:space="preserve">
<g id="_11-dice">
	<g id="Glyph">
		<path d="M259.661,175.4c10.759-10.809,24.234-18.516,39.005-22.309V42.667C298.666,19.103,279.564,0,256,0H64
			C40.436,0,21.333,19.103,21.333,42.667v192c0,23.564,19.103,42.667,42.667,42.667h93.728L259.661,175.4z M213.333,64
			c11.782,0,21.333,9.551,21.333,21.333c0,11.782-9.551,21.333-21.333,21.333S192,97.115,192,85.333
			C192,73.551,201.551,64,213.333,64z M213.333,149.333c11.782,0,21.333,9.551,21.333,21.333c0,11.782-9.551,21.333-21.333,21.333
			S192,182.449,192,170.667C192,158.885,201.551,149.333,213.333,149.333z M106.666,64C118.448,64,128,73.551,128,85.333
			c0,11.782-9.552,21.333-21.334,21.333c-11.781,0-21.333-9.551-21.333-21.333C85.333,73.551,94.885,64,106.666,64z
			 M106.666,213.333c-11.781,0-21.333-9.551-21.333-21.333s9.552-21.333,21.333-21.333c11.782,0,21.334,9.551,21.334,21.333
			S118.448,213.333,106.666,213.333z"/>
		<path d="M470.848,296.08L361.685,186.915c-3.609-3.621-7.841-6.563-12.493-8.685c-27.016-12.248-55.584-6.611-74.445,12.267
			L165.581,299.648c-3.621,3.609-6.563,7.841-8.686,12.492c-12.248,27.017-6.61,55.584,12.267,74.446l109.163,109.165
			c3.609,3.621,7.841,6.563,12.493,8.686c27.016,12.248,55.584,6.61,74.445-12.267l109.165-109.163
			c3.622-3.609,6.563-7.842,8.686-12.493C495.352,343.51,489.714,314.934,470.848,296.08L470.848,296.08z M320,362.666
			c-11.782,0-21.334-9.551-21.334-21.332c0-11.783,9.552-21.334,21.334-21.334c11.781,0,21.333,9.551,21.333,21.334
			C341.333,353.115,331.781,362.666,320,362.666z"/>
	</g>
</g>
<g>
	<path fill="#FFFFFF" stroke="#000000" stroke-width="26" stroke-miterlimit="10" d="M401.5,360.372v81.919H117.099v-64.698
		l136.722-127.869c13.229-12.506,22.083-23.208,26.625-32.083c4.502-8.875,6.774-17.815,6.774-26.881
		c0-11.806-3.991-21.042-11.997-27.646c-8.004-6.604-19.661-9.916-34.971-9.916c-13.568,0-26.011,3.058-37.308,9.13
		c-11.318,6.094-20.617,14.863-27.921,26.351l-76.695-42.785c14.248-23.655,34.249-42.277,60.006-55.845
		c25.735-13.568,56.183-20.341,91.324-20.341c27.816,0,52.425,4.523,73.829,13.567c21.403,9.046,38.094,21.999,50.09,38.88
		c12.018,16.88,18.006,36.436,18.006,58.689c0,19.832-4.268,38.539-12.783,56.098c-8.534,17.582-24.97,37.499-49.303,59.752
		l-68.881,63.679H401.5z"/>
</g>
</svg>
