<?xml version="1.0" encoding="utf-8"?>
<!-- Generator: Adobe Illustrator 16.0.0, SVG Export Plug-In . SVG Version: 6.00 Build 0)  -->
<!DOCTYPE svg PUBLIC "-//W3C//DTD SVG 1.1//EN" "http://www.w3.org/Graphics/SVG/1.1/DTD/svg11.dtd">
<svg version="1.1" id="Layer_1" xmlns="http://www.w3.org/2000/svg" xmlns:xlink="http://www.w3.org/1999/xlink" x="0px" y="0px"
	 width="512px" height="512px" viewBox="0 0 512 512" enable-background="new 0 0 512 512" xml:space="preserve">
<rect x="109.231" y="233.856" width="140.312" height="42.227"/>
<path d="M250.012,247.735c-10.226,10.273,6.968,111.598-7.071,115.203v104.95c0,22.396,18.155,40.551,40.551,40.551h182.481
	c22.396,0,40.552-18.155,40.552-40.551V285.407c0-22.396-18.155-40.552-40.552-40.552h-89.081L250.012,247.735z M324.043,447.612
	c-11.197,0-20.275-9.077-20.275-20.275s9.078-20.276,20.275-20.276c11.198,0,20.275,9.078,20.275,20.276
	S335.241,447.612,324.043,447.612z M324.043,366.509c-11.197,0-20.275-9.077-20.275-20.275c0-11.197,9.078-20.275,20.275-20.275
	c11.198,0,20.275,9.078,20.275,20.275C344.319,357.432,335.241,366.509,324.043,366.509z M425.422,447.612
	c-11.198,0-20.276-9.077-20.276-20.275s9.078-20.276,20.276-20.275c11.197,0,20.275,9.078,20.275,20.275
	C445.698,438.535,436.619,447.612,425.422,447.612z M425.422,305.683c11.197,0,20.275,9.077,20.275,20.275
	s-9.078,20.275-20.275,20.275s-20.276-9.077-20.276-20.275S414.225,305.683,425.422,305.683z"/>
<path d="M241.453,179.369c10.226-10.273,23.032-17.598,37.071-21.204V53.216c0-22.396-18.155-40.551-40.551-40.551H55.492
	c-22.396,0-40.552,18.155-40.552,40.551v182.482c0,22.395,18.155,40.551,40.552,40.551h89.081L241.453,179.369z M197.422,73.492
	c11.198,0,20.276,9.078,20.276,20.276c0,11.198-9.078,20.276-20.276,20.276c-11.198,0-20.275-9.078-20.275-20.276
	C177.146,82.569,186.224,73.492,197.422,73.492z M197.422,154.595c11.198,0,20.276,9.078,20.276,20.275
	c0,11.198-9.078,20.276-20.276,20.276c-11.198,0-20.275-9.078-20.275-20.276C177.146,163.673,186.224,154.595,197.422,154.595z
	 M96.043,73.492c11.198,0,20.277,9.078,20.277,20.276c0,11.198-9.079,20.276-20.277,20.276c-11.197,0-20.275-9.078-20.275-20.276
	C75.768,82.569,84.846,73.492,96.043,73.492z M96.043,215.422c-11.197,0-20.275-9.078-20.275-20.276s9.078-20.276,20.275-20.276
	c11.198,0,20.277,9.078,20.277,20.276S107.241,215.422,96.043,215.422z"/>
<rect x="242.941" y="244.855" width="42.227" height="140.312"/>
<rect x="270.231" y="244.856" width="140.312" height="42.227"/>
<g>
	<path fill="#FFFFFF" stroke="#000000" stroke-width="13" stroke-miterlimit="10" d="M306.966,390.244l-52.043-76.188
		l-55.791,76.188H88.614l110.519-145.389L91.83,99.466h114.812l51.504,73.495l53.644-73.495h107.841L312.329,241.1l111.057,149.144
		H306.966z"/>
</g>
</svg>
