<?xml version="1.0" encoding="utf-8"?>
<!-- Generator: Adobe Illustrator 16.0.0, SVG Export Plug-In . SVG Version: 6.00 Build 0)  -->
<!DOCTYPE svg PUBLIC "-//W3C//DTD SVG 1.1//EN" "http://www.w3.org/Graphics/SVG/1.1/DTD/svg11.dtd">
<svg version="1.1" id="Layer_1" xmlns="http://www.w3.org/2000/svg" xmlns:xlink="http://www.w3.org/1999/xlink" x="0px" y="0px"
	 width="512px" height="512px" viewBox="0 0 512 512" enable-background="new 0 0 512 512" xml:space="preserve">
<g>
	<path d="M0.003,38.489c-0.371,149.839,36.323,269.451,184.85,283.792l-14.581,9.606c-34.104,12.953-64.844,15.334-93.925,7.282
		c-7.274-2.014-14.962,1.294-18.503,7.952c-34.914,65.636,23.131,126.871,96.037,150.185c4.643,1.484,9.584,0.757,13.517-1.736
		c30.706-19.466,65.954-46.271,72.956-81.984c43.322,13.102,80.336,11.889,110.269-3.658
		c45.676-23.723,40.496-112.453,75.116-140.114c17.964-12.28,36.799-11.855,62.858,1.39c12.062,6.132,25.88-4.517,23.022-17.745
		c-10.197-47.193-29.476-75.598-57.3-84.424c-32.231-10.224-72.043,6.436-121.604,50.923
		c-58.813-1.556-186.574-119.291-308.103-195.083C13.912,18.201,0.035,25.901,0.003,38.489L0.003,38.489z"/>
	<path d="M347.74,166.802l-36.034-140.77c-3.05-11.919-17.854-16.144-26.732-7.62c-30.818,29.575-52.707,65.463-61.008,107.893
		c25.405,18.172,70.086,49.676,99.354,59.21C331.637,178.571,339.774,172.337,347.74,166.802z"/>
</g>
</svg>
