<?xml version="1.0" encoding="utf-8"?>
<!-- Generator: Adobe Illustrator 16.0.0, SVG Export Plug-In . SVG Version: 6.00 Build 0)  -->
<!DOCTYPE svg PUBLIC "-//W3C//DTD SVG 1.1//EN" "http://www.w3.org/Graphics/SVG/1.1/DTD/svg11.dtd">
<svg version="1.1" id="Capa_1" xmlns="http://www.w3.org/2000/svg" xmlns:xlink="http://www.w3.org/1999/xlink" x="0px" y="0px"
	 width="256px" height="256px" viewBox="0 0 256 256" enable-background="new 0 0 256 256" xml:space="preserve">
<g>
	<path d="M115.837,178.336c-2.575,0-4.664,2.088-4.664,4.663v49.742c0,2.575,2.089,4.663,4.664,4.663
		c2.576,0,4.663-2.088,4.663-4.663v-49.742C120.5,180.423,118.413,178.336,115.837,178.336z"/>
	<path d="M97.184,178.336c-2.575,0-4.663,2.088-4.663,4.663v49.742c0,2.575,2.088,4.663,4.663,4.663s4.664-2.088,4.664-4.663
		v-49.742C101.847,180.423,99.759,178.336,97.184,178.336z"/>
	<path d="M78.531,178.336c-2.575,0-4.663,2.088-4.663,4.663v49.742c0,2.575,2.088,4.663,4.663,4.663
		c2.576,0,4.664-2.088,4.664-4.663v-49.742C83.194,180.423,81.106,178.336,78.531,178.336z"/>
</g>
<path d="M158.75,60.906c-1.688,0-3.36,0.058-5.023,0.151h-14.16c-0.313-0.101-0.633-0.19-0.965-0.246H65.621V33.558
	c-0.044-1.813-1.095-3.448-2.725-4.24h-1.818c-1.265,0.049-2.461,0.593-3.33,1.514L1.422,88.066
	c-1.673,1.389-1.903,3.872-0.513,5.543c0.154,0.187,0.326,0.359,0.513,0.514l56.326,57.536c1.706,1.841,4.579,1.949,6.419,0.244
	c0.912-0.846,1.438-2.028,1.453-3.271v-30.283h72.981h23.148v0.148c15.574,1.508,27.75,14.632,27.75,30.602
	s-12.176,29.094-27.75,30.603v0.413H128v57.29h34v-0.179c47.199-1.711,84.942-40.51,84.942-88.127
	C246.942,100.392,207.456,60.906,158.75,60.906z"/>
</svg>
