<?xml version="1.0" encoding="utf-8"?>
<!-- Generator: Adobe Illustrator 16.0.0, SVG Export Plug-In . SVG Version: 6.00 Build 0)  -->
<!DOCTYPE svg PUBLIC "-//W3C//DTD SVG 1.1//EN" "http://www.w3.org/Graphics/SVG/1.1/DTD/svg11.dtd">
<svg version="1.1" id="Capa_1" xmlns="http://www.w3.org/2000/svg" xmlns:xlink="http://www.w3.org/1999/xlink" x="0px" y="0px"
	 width="579px" height="579px" viewBox="-159.5 -163.5 579 579" enable-background="new -159.5 -163.5 579 579"
	 xml:space="preserve">
<g>
	<g>
		<g>
			<path d="M331.349-125.539c-30.088-19.269-64.772-27.867-100.291-24.859c-30.183,2.551-59.371,13.753-83.456,31.835
				l-47.266-30.265l-20.911,32.656c-10.117-4.914-24.824-10.617-42.528-13.277c-31.264-4.7-78.173-0.713-124.086,44.966
				c-45.92,45.675-50.149,92.562-45.616,123.849c2.566,17.716,8.193,32.454,13.052,42.6l-32.763,20.735l30.016,47.426
				c-18.209,23.982-29.564,53.121-32.276,83.289c-3.189,35.5,5.224,70.225,24.332,100.418c22.998,36.35,58.781,61.561,100.749,71
				c11.706,2.633,23.508,3.946,35.222,3.979c16.82,0.043,33.474-2.572,49.447-7.737l-29.512-67.899
				c-35.314,8.196-73.474-6.181-93.955-38.551c-25.311-39.998-14.247-92.634,24.46-119.191l12.213-94.042l-24.885-39.323
				l-35.068,22.191c-3.287-7.51-6.818-17.695-8.543-29.598c-5.023-34.672,7.183-66.926,36.28-95.87
				C-13.03-111.94,37.888-99.018,61.63-88.366L39.198-53.332l36.636,23.458l95.464-10.767
				c27.167-39.256,80.731-50.263,121.264-24.312c33.051,21.167,47.406,60.494,38.409,96.583l66.369,29.263
				C420.024-7.357,394.621-85.031,331.349-125.539z M-88.885,98.686c7.803-4.938,18.125-2.615,23.062,5.181
				c4.938,7.803,2.614,18.128-5.185,23.067c-7.799,4.937-18.125,2.612-23.06-5.189C-99.003,113.946-96.682,103.624-88.885,98.686z
				 M118.805-62.251c-7.802,4.936-18.126,2.615-23.062-5.184c-4.937-7.804-2.612-18.127,5.184-23.064
				c7.803-4.936,18.125-2.615,23.061,5.186C128.926-77.511,126.605-67.19,118.805-62.251z"/>
		</g>
	</g>
	<g>
		<g>
			<path d="M317.295,61.473c-27.298,38.716-80.513,49.452-120.813,23.645c-31.391-20.087-45.92-56.571-39.608-91.096L83.728,2.27
				c-1.004,21.458,2.215,43.139,9.65,63.4c12.191,33.229,34.431,60.902,64.312,80.038c26.697,17.087,56.575,25.287,86.153,25.365
				c53.263,0.142,105.515-26.077,136.298-74.165c1.293-2.016,2.518-4.047,3.708-6.097L317.295,61.473z"/>
		</g>
	</g>
	<g>
		<g>
			<path d="M141.705,161.603c-18.969-29.98-46.526-52.364-79.693-64.729C42.392,89.554,21.411,86.19,0.58,86.811l-9.665,74.413
				c33.833-5.739,69.348,8.773,88.842,39.583c25.282,39.941,14.286,92.479-24.274,119.074l29.523,67.934
				c2.269-1.286,4.523-2.615,6.74-4.02c36.349-22.996,61.564-58.779,71.005-100.744
				C172.183,241.085,164.708,197.956,141.705,161.603z"/>
		</g>
	</g>
</g>
</svg>
