<?xml version="1.0" encoding="utf-8"?>
<!-- Generator: Adobe Illustrator 16.0.0, SVG Export Plug-In . SVG Version: 6.00 Build 0)  -->
<!DOCTYPE svg PUBLIC "-//W3C//DTD SVG 1.1//EN" "http://www.w3.org/Graphics/SVG/1.1/DTD/svg11.dtd">
<svg version="1.1" id="Layer_1" xmlns="http://www.w3.org/2000/svg" xmlns:xlink="http://www.w3.org/1999/xlink" x="0px" y="0px"
	 width="512px" height="512px" viewBox="0 0 512 512" enable-background="new 0 0 512 512" xml:space="preserve">
<path d="M362.271,289.92H149.628c-8.285,0-15.002,6.717-15.002,15.002v1.85c0,66.898,54.425,121.323,121.324,121.323
	c66.897,0,121.323-54.425,121.323-121.323v-1.85C377.274,296.636,370.556,289.92,362.271,289.92z M255.95,398.09
	c-12.409,0-24.238-2.507-35.034-7.01c6.912-6.252,19.122-11.262,34.562-11.262c15.744,0,28.033,5.155,34.863,11.524
	C279.718,395.68,268.113,398.09,255.95,398.09L255.95,398.09z M316.225,375.307c-12.526-15.509-35.354-25.492-60.747-25.492
	c-25.078,0-47.733,9.686-60.36,24.984c-15.602-13.967-26.401-33.193-29.543-54.875h180.749
	C343.146,341.866,332.131,361.303,316.225,375.307z"/>
<path d="M390.707,185.255c-14.273-16.732-35.074-26.33-57.068-26.33c-21.986,0-42.782,9.592-57.055,26.315
	c-5.379,6.302-4.631,15.771,1.672,21.15c6.302,5.378,15.771,4.631,21.148-1.672c8.564-10.035,21.043-15.79,34.234-15.79
	c13.196,0,25.677,5.758,34.24,15.797c2.968,3.479,7.181,5.267,11.421,5.266c3.442,0,6.903-1.179,9.729-3.588
	C395.333,201.028,396.084,191.559,390.707,185.255z"/>
<path d="M144.099,204.719c8.564-10.035,21.042-15.79,34.234-15.79c13.195,0,25.676,5.758,34.24,15.797
	c2.968,3.479,7.181,5.267,11.421,5.266c3.442,0,6.904-1.179,9.729-3.588c6.304-5.377,7.054-14.846,1.677-21.149
	c-14.273-16.732-35.073-26.33-57.067-26.33c-21.985,0-42.781,9.592-57.056,26.315c-5.379,6.302-4.631,15.771,1.671,21.15
	C129.249,211.769,138.719,211.021,144.099,204.719z"/>
<g>
	<path d="M254.751,31c30.219,0,59.519,5.912,87.083,17.571c26.641,11.268,50.572,27.405,71.131,47.964
		c20.56,20.559,36.696,44.491,47.965,71.131c11.658,27.565,17.57,56.864,17.57,87.084s-5.912,59.519-17.57,87.084
		c-11.269,26.641-27.405,50.572-47.965,71.131c-20.559,20.559-44.49,36.696-71.131,47.965c-27.564,11.659-56.864,17.57-87.083,17.57
		c-30.22,0-59.519-5.911-87.084-17.57c-26.64-11.269-50.572-27.406-71.131-47.965c-20.559-20.559-36.696-44.49-47.964-71.131
		c-11.659-27.565-17.571-56.864-17.571-87.084s5.912-59.519,17.571-87.084c11.268-26.64,27.405-50.572,47.964-71.131
		c20.559-20.559,44.491-36.697,71.131-47.964C195.232,36.912,224.531,31,254.751,31 M254.751,0
		C114.056,0,0.001,114.056,0.001,254.75S114.056,509.5,254.751,509.5c140.694,0,254.75-114.056,254.75-254.75S395.445,0,254.751,0
		L254.751,0z"/>
</g>
</svg>
