<?xml version="1.0" encoding="utf-8"?>
<!-- Generator: Adobe Illustrator 16.0.0, SVG Export Plug-In . SVG Version: 6.00 Build 0)  -->
<!DOCTYPE svg PUBLIC "-//W3C//DTD SVG 1.1//EN" "http://www.w3.org/Graphics/SVG/1.1/DTD/svg11.dtd">
<svg version="1.1" id="Capa_1" xmlns="http://www.w3.org/2000/svg" xmlns:xlink="http://www.w3.org/1999/xlink" x="0px" y="0px"
	 width="512px" height="512px" viewBox="0 0 512 512" enable-background="new 0 0 512 512" xml:space="preserve">
<path d="M295.999,0c-78.849,0-142.995,64.146-142.995,142.995s64.146,142.995,142.995,142.995
	c78.848,0,142.994-64.146,142.994-142.995S374.846,0,295.999,0z"/>
<path d="M433.564,292.139l-145.645,42.898c4.61,11.28,7.08,23.56,7.08,36.27v5.27c0,37.369-38.606,62.229-72.598,46.938
	l-76.347-34.358c-7.55-3.4-10.92-12.28-7.521-19.83c3.4-7.56,12.28-10.93,19.83-7.529l76.347,34.358
	c14.111,6.358,30.289-3.86,30.289-19.579v-5.27c0-25.775-15.611-48.543-38.695-58.932l-65.971-29.686
	c-25.68-11.56-55.078-11.42-80.567,0.35L8.8,315.338c-5.351,2.43-8.79,7.77-8.79,13.65V488.6c0,11.281,10.769,18.034,20.339,14.401
	l99.877-38.048l118.795,41.578c27.009,9.45,56.678,6.588,81.417-8.08l161.604-95.166c18.469-10.949,29.948-31.089,29.948-52.568
	C511.99,310.07,472.936,280.535,433.564,292.139L433.564,292.139z"/>
<g>
	<path fill="#FFFFFF" d="M215.744,117.704h23.757l10.474-38.063h15.922l10.475,38.063h39.424l10.475-38.063h16.859l10.133,38.063
		h22.991v14.305h-19.244l5.364,20.181h13.88v14.306h-10.048l10.048,37.977h-16.945l-8.6-37.977h-34.657l-10.389,37.977h-19.926
		l-9.791-37.977h-34.487l-9.11,37.977h-16.604l10.388-37.977h-10.388v-14.306h14.305l5.535-20.181h-19.84V117.704z M319.968,152.189
		h27.504l-4.513-20.181h-17.457L319.968,152.189z M329.42,117.704h10.303l-4.684-20.607L329.42,117.704z M280.287,132.009
		l5.62,20.181h20.437l5.535-20.181H280.287z M289.824,166.495l6.301,22.906l6.302-22.906H289.824z M244.95,152.189h27.333
		l-5.194-20.181h-17.371L244.95,152.189z M253.21,117.704h10.218l-5.279-20.607L253.21,117.704z"/>
</g>
</svg>
