<?xml version="1.0" encoding="utf-8"?>
<!-- Generator: Adobe Illustrator 16.0.0, SVG Export Plug-In . SVG Version: 6.00 Build 0)  -->
<!DOCTYPE svg PUBLIC "-//W3C//DTD SVG 1.1//EN" "http://www.w3.org/Graphics/SVG/1.1/DTD/svg11.dtd">
<svg version="1.1" id="Layer_1" xmlns="http://www.w3.org/2000/svg" xmlns:xlink="http://www.w3.org/1999/xlink" x="0px" y="0px"
	 width="512px" height="512px" viewBox="0 0 512 512" enable-background="new 0 0 512 512" xml:space="preserve">
<polygon points="464,136 464,113.12 290.16,136 "/>
<rect x="48" y="448" width="160" height="32"/>
<polygon points="448,74.32 249.52,125.2 448,99.12 "/>
<path d="M128,152v140.24l56.88-58.88c11.226-11.204,27.982-14.775,42.8-9.12c13.147-42.154,57.979-65.667,100.131-52.52
	c42.154,13.147,65.668,57.978,52.521,100.131c-13.147,42.154-57.979,65.668-100.132,52.52
	c-17.131-5.343-31.967-16.294-42.119-31.092L187.28,344H480V152H128z M200,176h-17.017c-2.932,11.259-11.725,20.052-22.983,22.984
	V216h-16v-24c0-4.418,3.581-8,8-8c8.836,0,16-7.164,16-16c0-4.418,3.581-8,8-8h24V176z M464,296c0,4.418-3.582,8-8,8
	c-8.837,0-16,7.164-16,16c0,4.418-3.582,8-8,8h-24v-16h17.016c2.932-11.26,11.725-20.053,22.984-22.984V272h16V296z M464,224h-16
	v-17.016c-11.26-2.932-20.053-11.725-22.984-22.984H408v-16h24c4.418,0,8,3.582,8,8c0,8.836,7.163,16,16,16c4.418,0,8,3.582,8,8V224
	z"/>
<path d="M304,312c35.346,0.045,64.036-28.572,64.081-63.918c0.045-35.346-28.571-64.037-63.918-64.082
	c-29.768-0.038-55.631,20.453-62.403,49.44c5.643,5.74,9.433,13.042,10.88,20.96c0.32,2.56,0.561,4.64,0.64,6.8
	c-0.134,6.456-1.72,12.8-4.64,18.56C259.905,299.728,281.074,312.057,304,312z"/>
<path d="M200,432v-20.08c0.047-10.637-4.192-20.845-11.76-28.32l-25.921-25.92l0.08-0.08c-0.763-0.717-1.363-1.59-1.76-2.56
	c-1.253-2.979-0.59-6.419,1.68-8.72l67.921-67.92c4.454-4.528,6.979-10.608,7.039-16.961c-0.079-1.279-0.239-2.879-0.399-4.479
	c-2.574-13.034-15.227-21.514-28.261-18.94c-4.655,0.919-8.935,3.195-12.3,6.54l-70.56,72.959c-2.26,2.388-5.751,3.149-8.8,1.92
	c-2.992-1.266-4.942-4.191-4.96-7.439V144c0-4.418,3.581-8,8-8h19.439l37.04-64.16c2.088-3.626,3.191-7.735,3.2-11.92
	c-0.022-13.308-10.828-24.078-24.137-24.056c-2.032,0.004-4.056,0.264-6.023,0.776c-6.152,1.643-11.394,5.675-14.56,11.2
	L35.28,220.56c-2.159,3.629-3.293,7.777-3.279,12v98.959c0.012,2.242,0.308,4.473,0.88,6.641L59.68,432H200z"/>
<g>
	<path fill="#FFFFFF" d="M263.499,231.71h11.989l5.285-19.208h8.035l5.287,19.208h19.895l5.286-19.208h8.509l5.113,19.208h11.603
		v7.219h-9.712l2.707,10.185h7.005v7.22h-5.071l5.071,19.164h-8.552l-4.34-19.164H314.12l-5.243,19.164h-10.057l-4.94-19.164
		h-17.403l-4.598,19.164H263.5l5.242-19.164H263.5v-7.22h7.219l2.793-10.185H263.5L263.499,231.71L263.499,231.71z M316.096,249.114
		h13.88l-2.277-10.185h-8.81L316.096,249.114z M320.866,231.71h5.199l-2.364-10.399L320.866,231.71z M296.071,238.929l2.836,10.185
		h10.314l2.793-10.185H296.071z M300.884,256.332l3.18,11.561l3.181-11.561H300.884z M278.239,249.114h13.793l-2.621-10.185h-8.766
		L278.239,249.114z M282.406,231.71h5.156l-2.664-10.399L282.406,231.71z"/>
</g>
</svg>
