<?xml version="1.0" encoding="utf-8"?>
<!-- Generator: Adobe Illustrator 16.0.0, SVG Export Plug-In . SVG Version: 6.00 Build 0)  -->
<!DOCTYPE svg PUBLIC "-//W3C//DTD SVG 1.1//EN" "http://www.w3.org/Graphics/SVG/1.1/DTD/svg11.dtd">
<svg version="1.1" id="Capa_1" xmlns="http://www.w3.org/2000/svg" xmlns:xlink="http://www.w3.org/1999/xlink" x="0px" y="0px"
	 width="512px" height="512px" viewBox="0 0 512 512" enable-background="new 0 0 512 512" xml:space="preserve">
<path d="M121,451v45l75-75l-75-75v45c-33.091,0-60-26.909-60-60v-72.664c-24.051-10.527-45.507-27.356-61-48.16V331
	C0,397.167,54.833,451,121,451z"/>
<path d="M391,61V16l-75,75l75,75v-45c33.091,0,60,26.909,60,60v56.367l61,60V181C512,114.833,457.166,61,391,61z"/>
<path d="M361,421h30v91h-30V421z"/>
<path d="M503.211,331L376,204.789L249.789,331H503.211z"/>
<path d="M241,512h90V391h90v121h91V361H241V512z"/>
<circle cx="120.5" cy="120.5" r="120.5"/>
<g>
	<path fill="#FFFFFF" d="M40.245,90.704h23.757l10.474-38.063h15.922l10.476,38.063h39.424l10.475-38.063h16.859l10.133,38.063
		h22.991v14.305h-19.244l5.364,20.181h13.88v14.307h-10.049l10.049,37.977H183.81l-8.6-37.977h-34.657l-10.39,37.977h-19.926
		l-9.791-37.977H65.96l-9.11,37.977H40.246l10.388-37.977H40.246v-14.307h14.305l5.535-20.181h-19.84L40.245,90.704L40.245,90.704z
		 M144.469,125.189h27.504l-4.513-20.182h-17.457L144.469,125.189z M153.921,90.704h10.303l-4.685-20.607L153.921,90.704z
		 M104.788,105.009l5.619,20.181h20.438l5.535-20.181H104.788z M114.325,139.495l6.301,22.905l6.302-22.905H114.325z
		 M69.451,125.189h27.333l-5.194-20.182H74.219L69.451,125.189z M77.711,90.704h10.218L82.65,70.097L77.711,90.704z"/>
</g>
</svg>
