<?xml version="1.0" encoding="utf-8"?>
<!-- Generator: Adobe Illustrator 16.0.0, SVG Export Plug-In . SVG Version: 6.00 Build 0)  -->
<!DOCTYPE svg PUBLIC "-//W3C//DTD SVG 1.1//EN" "http://www.w3.org/Graphics/SVG/1.1/DTD/svg11.dtd">
<svg version="1.1" id="Capa_1" xmlns="http://www.w3.org/2000/svg" xmlns:xlink="http://www.w3.org/1999/xlink" x="0px" y="0px"
	 width="512px" height="512px" viewBox="0 0 512 512" enable-background="new 0 0 512 512" xml:space="preserve">
<path d="M372.698,362.635l-98.283,28.948c3.111,7.611,4.778,15.899,4.778,24.476v3.557c0,25.217-26.052,41.992-48.991,31.674
	l-51.52-23.185c-5.095-2.295-7.369-8.287-5.075-13.382c2.294-5.102,8.286-7.376,13.381-5.081l51.52,23.186
	c9.522,4.29,20.439-2.604,20.439-13.212v-3.557c0-17.393-10.534-32.758-26.111-39.768l-44.518-20.032
	c-17.33-7.802-37.167-7.707-54.368,0.235L86.062,378.29c-3.611,1.64-5.932,5.243-5.932,9.212v107.707
	c0,7.613,7.267,12.17,13.725,9.719l67.398-25.676l80.165,28.058c18.225,6.377,38.248,4.445,54.941-5.452l109.052-64.22
	c12.464-7.389,20.21-20.979,20.21-35.474C425.62,374.735,399.267,354.805,372.698,362.635L372.698,362.635z"/>
<g>
	<path d="M252.876,165.496c-53.209,0-96.495,43.287-96.495,96.495c0,53.208,43.286,96.495,96.495,96.495
		c53.208,0,96.493-43.287,96.493-96.495C349.369,208.783,306.082,165.496,252.876,165.496z"/>
	<g>
		<path fill="#FFFFFF" d="M198.719,244.924h16.032l7.067-25.686h10.745l7.069,25.686h26.604l7.068-25.686h11.377l6.837,25.686
			h15.516v9.653h-12.986l3.619,13.618h9.367v9.654h-6.781l6.781,25.628h-11.436l-5.803-25.628h-23.387l-7.012,25.628h-13.446
			l-6.607-25.628h-23.271l-6.148,25.628H198.72l7.01-25.628h-7.01v-9.654h9.653l3.735-13.618H198.72L198.719,244.924
			L198.719,244.924z M269.051,268.195h18.56l-3.046-13.619h-11.779L269.051,268.195z M275.429,244.924h6.952l-3.16-13.906
			L275.429,244.924z M242.274,254.577l3.792,13.618h13.791l3.735-13.618H242.274z M248.709,277.849l4.252,15.458l4.252-15.458
			H248.709z M218.428,268.195h18.444l-3.505-13.619h-11.723L218.428,268.195z M224.002,244.924h6.895l-3.563-13.906L224.002,244.924
			z"/>
	</g>
</g>
<path d="M139.304,153.333l98.282-28.948c-3.109-7.611-4.777-15.899-4.777-24.476v-3.557c0-25.217,26.053-41.992,48.99-31.674
	l51.52,23.185c5.095,2.295,7.369,8.287,5.075,13.382c-2.294,5.102-8.286,7.376-13.381,5.081l-51.521-23.186
	c-9.521-4.29-20.439,2.604-20.439,13.212v3.557c0,17.393,10.535,32.758,26.112,39.768l44.518,20.032
	c17.33,7.802,37.168,7.707,54.368-0.235l47.889-21.796c3.611-1.64,5.932-5.243,5.932-9.212V20.759c0-7.613-7.267-12.17-13.725-9.719
	l-67.398,25.676L270.584,8.658c-18.227-6.377-38.248-4.445-54.941,5.452L106.591,78.33c-12.464,7.389-20.21,20.979-20.21,35.474
	C86.381,141.232,112.735,161.163,139.304,153.333L139.304,153.333z"/>
</svg>
