<?xml version="1.0" encoding="utf-8"?>
<!-- Generator: Adobe Illustrator 16.0.0, SVG Export Plug-In . SVG Version: 6.00 Build 0)  -->
<!DOCTYPE svg PUBLIC "-//W3C//DTD SVG 1.1//EN" "http://www.w3.org/Graphics/SVG/1.1/DTD/svg11.dtd">
<svg version="1.1" id="Capa_1" xmlns="http://www.w3.org/2000/svg" xmlns:xlink="http://www.w3.org/1999/xlink" x="0px" y="0px"
	 width="512px" height="512px" viewBox="0 0 512 512" enable-background="new 0 0 512 512" xml:space="preserve">
<g>
	<path d="M336.752,114.508c-28.904-59.02-89.367-98.04-157.188-98.04c-97.045,0-175.996,78.503-175.996,174.996
		c0,26.223,5.63,51.357,16.741,74.792L3.859,348.52c-2.094,10.473,7.144,19.729,17.617,17.656l83.277-16.465
		c11.213,5.318,22.813,9.363,34.731,12.15C112.768,235.323,208.682,116.546,336.752,114.508z"/>
	<g>
		<path d="M240.752,320.529c0,52.933,43.067,96,96,96c20.203,0,39.303-6.125,55.6-17.771L258.524,264.93
			C246.877,281.228,240.752,300.326,240.752,320.529z"/>
		<path d="M336.752,224.529c-20.203,0-39.303,6.125-55.6,17.771l133.828,133.828c11.646-16.298,17.771-35.396,17.771-55.6
			C432.752,267.597,389.685,224.529,336.752,224.529z"/>
		<path d="M511.704,477.571l-16.45-82.263c2.874-6.062,5.373-12.237,7.511-18.514h-0.549
			c37.447-109.915-41.304-225.436-157.563-231.061c-0.002-0.006-0.003-0.012-0.005-0.019
			c-100.033-4.61-183.144,75.484-183.144,174.8c0,96.412,78.359,174.854,174.738,174.993c26.143-0.035,51.2-5.663,74.566-16.747
			c91.205,18.032,84.092,16.75,86.188,16.75C506.475,495.512,513.556,486.826,511.704,477.571z M336.752,448.529
			c-70.578,0-128-57.422-128-128s57.422-128,128-128s128,57.422,128,128S407.33,448.529,336.752,448.529z"/>
	</g>
</g>
</svg>
