<?xml version="1.0" encoding="utf-8"?>
<!-- Generator: Adobe Illustrator 16.0.0, SVG Export Plug-In . SVG Version: 6.00 Build 0)  -->
<!DOCTYPE svg PUBLIC "-//W3C//DTD SVG 1.1//EN" "http://www.w3.org/Graphics/SVG/1.1/DTD/svg11.dtd">
<svg version="1.1" id="Layer_1" xmlns="http://www.w3.org/2000/svg" xmlns:xlink="http://www.w3.org/1999/xlink" x="0px" y="0px"
	 width="1920px" height="658.416px" viewBox="0 0 1920 658.416" enable-background="new 0 0 1920 658.416" xml:space="preserve">
<g>
	<polygon fill="#824D25" points="1854.914,25.236 1691.729,78.942 1839.854,254.243 	"/>
	<polygon fill="#9AD0F1" points="1650.119,99.63 1486.934,153.337 1635.059,328.637 	"/>
	<polygon fill="#D62788" points="1412.813,171.567 1249.627,225.274 1397.751,400.573 	"/>
	<polygon fill="#F09720" points="1185.099,248.243 1017.853,287.518 1150.129,475.063 	"/>
	<polygon fill="#DB1F29" points="941.568,310.675 773.595,346.709 902.223,536.777 	"/>
	<polygon fill="#E6E641" points="719.181,362.153 550.347,393.909 674.103,587.183 	"/>
	<polygon fill="#04A958" points="507.827,400.573 339.141,433.112 463.795,625.809 	"/>
	<polygon fill="#3F65AD" points="276.168,438.513 105.123,454.536 210.496,658.416 	"/>
	<path fill="none" stroke="#000000" stroke-width="10" stroke-miterlimit="10" d="M1920,0C1920,0,749.923,452.641,0,452.641"/>
</g>
</svg>
