<?xml version="1.0" encoding="utf-8"?>
<!-- Generator: Adobe Illustrator 16.0.0, SVG Export Plug-In . SVG Version: 6.00 Build 0)  -->
<!DOCTYPE svg PUBLIC "-//W3C//DTD SVG 1.1//EN" "http://www.w3.org/Graphics/SVG/1.1/DTD/svg11.dtd">
<svg version="1.1" id="Layer_1" xmlns="http://www.w3.org/2000/svg" xmlns:xlink="http://www.w3.org/1999/xlink" x="0px" y="0px"
	 width="1920px" height="658.416px" viewBox="0 0 1920 658.416" enable-background="new 0 0 1920 658.416" xml:space="preserve">
<g>
	<polygon fill="#824D25" points="65.085,25.236 228.271,78.942 80.146,254.243 	"/>
	<polygon fill="#9AD0F1" points="269.881,99.63 433.066,153.337 284.942,328.637 	"/>
	<polygon fill="#D62788" points="507.188,171.567 670.373,225.274 522.249,400.573 	"/>
	<polygon fill="#F09720" points="734.901,248.243 902.147,287.518 769.871,475.063 	"/>
	<polygon fill="#DB1F29" points="978.432,310.675 1146.405,346.709 1017.777,536.777 	"/>
	<polygon fill="#E6E641" points="1200.819,362.153 1369.653,393.909 1245.897,587.183 	"/>
	<polygon fill="#04A958" points="1412.173,400.573 1580.859,433.112 1456.205,625.809 	"/>
	<polygon fill="#3F65AD" points="1643.832,438.513 1814.877,454.536 1709.504,658.416 	"/>
	<path fill="none" stroke="#000000" stroke-width="10" stroke-miterlimit="10" d="M0,0c0,0,1170.077,452.641,1920,452.641"/>
</g>
</svg>
