<?xml version="1.0" encoding="utf-8"?>
<!-- Generator: Adobe Illustrator 16.0.0, SVG Export Plug-In . SVG Version: 6.00 Build 0)  -->
<!DOCTYPE svg PUBLIC "-//W3C//DTD SVG 1.1//EN" "http://www.w3.org/Graphics/SVG/1.1/DTD/svg11.dtd">
<svg version="1.1" id="Layer_1" xmlns="http://www.w3.org/2000/svg" xmlns:xlink="http://www.w3.org/1999/xlink" x="0px" y="0px"
	 width="256px" height="256px" viewBox="0 0 256 256" enable-background="new 0 0 256 256" xml:space="preserve">
<circle cx="127.742" cy="127.743" r="127.742"/>
<g>
	<g>
		<g>
			<path fill="#FFFFFF" d="M188.439,88.127l-45.288-45.289c-1.292-1.293-3.016-2.002-4.853-2.002c-1.839,0-3.562,0.71-4.854,2.002
				l-4.113,4.113c-1.291,1.291-2.002,3.015-2.002,4.853c0,1.837,0.712,3.62,2.002,4.911l26.421,26.478H71.815
				c-3.784,0-6.775,2.962-6.775,6.748v5.815c0,3.785,2.991,7.046,6.775,7.046h84.237l-26.719,26.627
				c-1.292,1.292-2.003,2.97-2.003,4.808c0,1.836,0.712,3.538,2.003,4.829l4.111,4.1c1.294,1.294,3.016,1.998,4.854,1.998
				c1.837,0,3.56-0.714,4.854-2.008l45.287-45.286c1.296-1.297,2.008-3.028,2.003-4.869
				C190.447,91.154,189.736,89.422,188.439,88.127z"/>
		</g>
	</g>
</g>
<g>
	<path fill="#FFFFFF" d="M45.047,159.352h14.312c5.321,0,9.395,1.182,12.224,3.559c2.826,2.375,4.243,5.618,4.243,9.742
		c0,3.073-0.768,5.637-2.303,7.695c-1.533,2.061-3.546,3.5-6.039,4.313v0.146c2.827,0.813,4.998,2.247,6.508,4.313
		c1.509,2.059,2.264,4.527,2.264,7.402c0,4.505-1.509,8.069-4.529,10.685c-3.02,2.611-6.855,3.916-11.505,3.916H45.047V159.352z
		 M52.958,181.999h5.176c2.972,0,5.345-0.85,7.119-2.552c1.773-1.697,2.66-3.898,2.66-6.578c0-2.012-0.706-3.692-2.122-5.032
		c-1.413-1.346-3.128-2.014-5.14-2.014h-7.693V181.999z M52.958,204.651h6.4c2.972,0,5.213-0.743,6.723-2.229
		c1.51-1.488,2.264-3.477,2.264-5.97c0-2.586-0.936-4.635-2.805-6.144c-1.87-1.512-4.41-2.271-7.623-2.271h-4.959V204.651z"/>
	<path fill="#FFFFFF" d="M76.901,210.041l28.766-51.989l27.396,52.784l-7.836,1.582l-10.501-20.635H95.168l-11.075,20.635
		L76.901,210.041z M111.85,185.31l-6.183-12.732l-7.049,12.732H111.85z"/>
	<path fill="#FFFFFF" d="M169.376,167.112c-2.299-1.147-4.936-1.722-7.908-1.722c-2.35,0-4.699,0.421-7.046,1.258
		c-2.35,0.838-4.494,2.114-6.438,3.81c-1.943,1.704-3.487,3.792-4.637,6.256c-1.15,2.47-1.727,5.262-1.727,8.374
		c0,2.786,0.526,5.396,1.582,7.842c1.054,2.447,2.528,4.576,4.422,6.402c1.894,1.819,4.135,3.23,6.724,4.241
		c2.589,1.008,5.37,1.512,8.342,1.512c2.061,0,4.29-0.312,6.686-0.938l-1.437,7.905c-1.773,0.248-3.813,0.365-6.111,0.365
		c-4.363,0-8.308-0.68-11.83-2.05c-3.522-1.369-6.495-3.283-8.915-5.753c-2.423-2.47-4.255-5.354-5.501-8.666
		c-1.25-3.305-1.87-6.828-1.87-10.567c0-3.841,0.635-7.422,1.905-10.75c1.27-3.331,3.093-6.244,5.466-8.738
		c2.372-2.493,5.237-4.423,8.593-5.792c3.354-1.363,7.022-2.05,11.002-2.05c1.39,0,2.733,0.088,4.026,0.258
		c1.293,0.163,2.373,0.422,3.235,0.75L169.376,167.112z"/>
	<path fill="#FFFFFF" d="M202.888,212.418l-20.567-26.534h-0.143v24.952l-7.913,0.574v-51.772l7.913-0.578v25.526h0.143
		l21.142-26.534l6.544,4.102l-18.482,23.156l18.913,23.801L202.888,212.418z"/>
</g>
</svg>
