<?xml version="1.0" encoding="utf-8"?>
<!-- Generator: Adobe Illustrator 16.0.0, SVG Export Plug-In . SVG Version: 6.00 Build 0)  -->
<!DOCTYPE svg PUBLIC "-//W3C//DTD SVG 1.1//EN" "http://www.w3.org/Graphics/SVG/1.1/DTD/svg11.dtd">
<svg version="1.1" id="Layer_1" xmlns="http://www.w3.org/2000/svg" xmlns:xlink="http://www.w3.org/1999/xlink" x="0px" y="0px"
	 width="256px" height="256px" viewBox="0 0 256 256" enable-background="new 0 0 256 256" xml:space="preserve">
<g>
	<path fill="#EE1C4E" stroke="#000000" stroke-width="4" stroke-miterlimit="10" d="M111.832,152.245
		c0-3.456,0.109-6.16,0.313-8.095c0.211-1.943,0.625-3.701,1.25-5.299c0.617-1.588,1.521-3.143,2.696-4.672
		c1.174-1.521,2.94-3.6,5.298-6.228c7.749-8.585,12.979-15.193,15.674-19.832c2.704-4.639,4.057-9.515,4.057-14.644
		c0-6.777-1.91-12.218-5.713-16.3c-3.811-4.081-8.416-6.126-13.815-6.126c-6.092,0-10.9,2.146-14.432,6.438
		c-3.523,4.293-5.915,11.078-7.166,20.348l-18.683-7.056c2.214-13.156,6.853-23.119,13.909-29.904
		c7.064-6.785,16.198-10.173,27.411-10.173c11.77,0,21.462,3.912,29.076,11.729c7.613,7.824,11.425,18.522,11.425,32.084
		c0,5.957-1.699,12.32-5.096,19.105c-3.389,6.785-7.994,13.494-13.807,20.145c-3.735,4.292-6.262,7.858-7.58,10.697
		s-1.969,6.126-1.969,9.861v16.4h-22.848V152.245z M111.832,179.454h22.848v22.84h-22.848V179.454z"/>
</g>
</svg>
