<?xml version="1.0" encoding="utf-8"?>
<!-- Generator: Adobe Illustrator 16.0.0, SVG Export Plug-In . SVG Version: 6.00 Build 0)  -->
<!DOCTYPE svg PUBLIC "-//W3C//DTD SVG 1.1//EN" "http://www.w3.org/Graphics/SVG/1.1/DTD/svg11.dtd">
<svg version="1.1" id="Layer_1" xmlns="http://www.w3.org/2000/svg" xmlns:xlink="http://www.w3.org/1999/xlink" x="0px" y="0px"
	 width="256px" height="256px" viewBox="0 0 256 256" enable-background="new 0 0 256 256" xml:space="preserve">
<g>
	<path fill="#D62788" d="M121.707,193.776c-4.711,0-12.154-1.718-20.896-9.887c-21.883-28.368,3.407-50.447,4.495-51.375
		c0.224-0.192,21.841-18.892,46.472-44.357c25.373-26.233,6.401-49.215-0.018-55.634c-3.136-3.136-12.885-7.775-23.851-7.775
		c-8.904,0-21.396,3.08-30.335,17.75c-5.761,9.455-7.463,17.909-5.059,25.129c2.173,6.524,7.137,10.304,10.126,12.069L81.589,93.731
		c-3.307-2.49-15.706-13.922-10.344-42.165C77.593,18.135,108.628,6,127.939,6c12.111,0,41.678,4.09,54.641,41.979
		c10.497,30.686-13.253,52.556-13.494,52.773l-52.739,46.833l-0.053,0.058c-0.227,0.248-5.526,6.201-2.433,16.208l0.029,0.095
		l0.042,0.091c3.394,7.353,8.499,8.896,12.184,8.896c3.731,0,7.337-1.517,9.979-3.007l-9.305,23.09
		C125.975,193.293,124.199,193.776,121.707,193.776z"/>
	<path d="M127.939,7.5c11.159,0,21.636,3.101,30.299,8.968c10.343,7.005,18.055,17.77,22.922,31.997
		c4.249,12.42,3.379,24.762-2.587,36.681c-4.522,9.036-10.434,14.439-10.477,14.478l-52.688,46.787l-0.117,0.104l-0.105,0.116
		c-0.251,0.274-6.103,6.845-2.759,17.662l0.059,0.19l0.083,0.181c3.726,8.073,9.422,9.768,13.545,9.768
		c2.519,0,4.973-0.633,7.149-1.496l-7.598,18.854c-0.848,0.228-2.203,0.488-3.96,0.488c-4.425,0-11.438-1.636-19.782-9.399
		c-8.728-11.366-10.719-23.007-5.918-34.604c3.696-8.927,10.208-14.562,10.288-14.63c0.216-0.187,21.885-18.93,46.562-44.444
		c26.324-27.217,6.629-51.074-0.035-57.737c-3.411-3.411-13.395-8.215-24.912-8.215c-9.289,0-22.314,3.204-31.617,18.47
		c-6.001,9.849-7.751,18.726-5.201,26.384c1.886,5.663,5.739,9.392,8.832,11.604l-18.239,12.16
		c-3.851-3.356-13.766-14.739-8.966-40.019c3.404-17.929,13.916-28.363,22.135-33.96C104.547,11.286,116.606,7.5,127.939,7.5
		 M127.939,4.5c-21.497,0-51.845,13.488-58.167,46.787c-6.322,33.299,11.802,44.258,11.802,44.258l24.025-16.017
		c0,0-23.183-9.273-6.744-36.249c7.958-13.058,19.079-17.031,29.055-17.031c10.632,0,19.963,4.509,22.791,7.336
		c5.479,5.479,24.868,27.819,0,53.531c-24.869,25.712-46.365,44.258-46.365,44.258s-27.819,23.604-4.637,53.53
		c9.079,8.52,16.911,10.374,22.009,10.374c3.928,0,6.232-1.101,6.232-1.101l11.38-28.24c0,0-6.495,5.495-13.204,5.495
		c-3.965,0-8.003-1.918-10.822-8.024c-2.875-9.301,2.107-14.753,2.107-14.753l52.688-46.787c0,0,24.869-22.339,13.91-54.374
		C173.039,15.459,149.436,4.5,127.939,4.5L127.939,4.5z"/>
</g>
<circle fill="#D62788" stroke="#000000" stroke-width="3" stroke-miterlimit="10" cx="119.93" cy="231.268" r="20.232"/>
</svg>
