<?xml version="1.0" encoding="utf-8"?>
<!-- Generator: Adobe Illustrator 16.0.0, SVG Export Plug-In . SVG Version: 6.00 Build 0)  -->
<!DOCTYPE svg PUBLIC "-//W3C//DTD SVG 1.1//EN" "http://www.w3.org/Graphics/SVG/1.1/DTD/svg11.dtd">
<svg version="1.1" id="Layer_1" xmlns:svgjs="http://svgjs.com/svgjs"
	 xmlns="http://www.w3.org/2000/svg" xmlns:xlink="http://www.w3.org/1999/xlink" x="0px" y="0px" width="512px" height="512px"
	 viewBox="0 0 512 512" enable-background="new 0 0 512 512" xml:space="preserve">
<g>
	<g>
		<path d="M504.823,45.458L469.454,10.51c-9.57-9.57-25.382-9.57-35.367,0L257.664,186.929L77.917,7.182
			c-9.574-9.574-25.386-9.574-35.368,0L7.182,42.549c-9.574,9.57-9.574,25.382,0,35.368l179.335,179.335L10.51,434.091
			c-9.569,9.57-9.569,25.382,0,35.368l35.368,35.367c9.57,9.57,25.382,9.57,35.368,0l176.418-176.422l176.423,176.422
			c9.569,9.57,25.381,9.57,35.367,0l35.368-35.367c9.569-9.57,9.569-25.382,0-35.368L327.984,257.668L504.406,81.25
			C514.392,71.255,514.392,55.444,504.823,45.458z"/>
	</g>
</g>
</svg>
