<?xml version="1.0" encoding="utf-8"?>
<!-- Generator: Adobe Illustrator 16.0.0, SVG Export Plug-In . SVG Version: 6.00 Build 0)  -->
<!DOCTYPE svg PUBLIC "-//W3C//DTD SVG 1.1//EN" "http://www.w3.org/Graphics/SVG/1.1/DTD/svg11.dtd">
<svg version="1.1" id="Layer_1" xmlns="http://www.w3.org/2000/svg" xmlns:xlink="http://www.w3.org/1999/xlink" x="0px" y="0px"
	 width="256px" height="256px" viewBox="0 0 256 256" enable-background="new 0 0 256 256" xml:space="preserve">
<path fill-rule="evenodd" clip-rule="evenodd" d="M129.05,228.631c-3.176,0-6.35,0-9.525,0c-0.337-1.534-1.851-1.179-2.754-1.463
	c-33.397-10.511-66.82-20.939-100.252-31.342c-6.232-1.939-6.992-3.185-7.054-9.862c-0.081-8.609,0.59-17.243-0.542-25.831
	c0.484-5.749,0.955-11.499-0.231-17.226c0-7.794,0-15.586,0-23.379c3.092-2.688,6.903-3.115,10.763-3.896
	c18.853-3.813,37.64-7.951,56.461-11.924c2.685-0.567,5.262-0.747,4.296-4.807c-0.292-1.225,1.004-2.91,1.755-4.285
	c3.229-5.924,6.466-11.845,9.809-17.705c8.883-15.569,17.41-31.344,26.885-46.571c6.061,0,12.123,0,18.184,0
	c3.099,1.666,6.591,1.303,9.859,1.525c28.994,1.967,58.002,3.735,87.012,5.443c2.726,0.161,4.563,1.223,6.167,3.25
	c4.083,5.16,7.156,10.942,10.395,16.625c0,1.443,0,2.887,0,4.33c-2.313,1.31-2.821,3.876-3.933,5.943
	c-11.291,20.997-25.354,40.345-36.473,61.441c-0.979,1.86-2.829,3.521-4.696,3.424c-3.69-0.189-3.308,1.889-3.302,4.249
	c0.038,17.01-0.038,34.02,0.063,51.028c0.023,4.097-1.546,7.172-5.217,8.622c-15.525,6.135-29.924,14.604-45.061,21.534
	C144.055,221.236,136.581,224.997,129.05,228.631z M228.708,83.151c10.769-4.188,11.134-15.154,0.799-23.998
	c-6.358,6.919-8.167,12.257-6.051,17.863c-2.581-1.839-4.203-1.243-5.823,1.567c-2.962,5.142-3.04,5.456,2.49,10.759
	c1.512,1.451,3.027,4.055,5.271,2.036C227.625,89.37,230.635,87.087,228.708,83.151z M66.638,141.18
	c-0.024-1.108,0.841-1.432,1.633-1.646c1.544-0.418,3.86-0.899,4.339,0.603c1.116,3.502,5.478,5.548,4.338,9.982
	c-0.588,2.292-2.368,4.65-0.873,6.971c1.52,2.359,1.624,4.595,0.539,6.93c-1.071,2.303-0.343,2.752,1.986,3.18
	c9.609,1.763,19.191,3.638,28.849,5.16c5.164,0.814,7.606,3.778,7.534,7.992c-0.155,8.92-0.493,17.837-0.611,26.756
	c-0.032,2.369-0.768,2.446-2.827,1.906c-13.341-3.499-26.383-7.972-39.537-12.071c-11.037-3.438-22.259-6.313-33.021-10.609
	c1.731-0.547,3.386-0.212,5.078,0.3c7.7,2.329,15.442,4.522,23.123,6.912c13.838,4.305,27.549,9.034,42.534,12.742
	c0-9.045-0.034-17.654,0.023-26.262c0.016-2.381-1.668-2.818-3.344-3.223c-9.923-2.39-19.886-4.623-29.77-7.166
	c-2.218-0.569-3.674-0.191-4.79,1.527c-5.39,8.299-19.888,4.276-22.216-4.6c-0.458-1.749-1.171-3.152-3.219-3.602
	c-5.333-1.171-10.642-2.46-15.952-3.735c-2.533-0.609-3.736,0.03-3.617,2.937c0.187,4.6,0.253,9.223-0.019,13.813
	c-0.218,3.682,0.783,6.374,4.262,7.901c-2.763-0.305-6.688,0.511-6.981-3.387c-0.582-7.735-0.433-15.53-0.428-23.302
	c0.001-1.887,0.951-3.44,3.32-2.771c7.035,1.984,14.5,2.405,21.157,5.737c1.688,0.846,2.317,0.505,3.052-1.257
	c0.916-2.199,0.489-5.148,3.242-6.444c1.495,0.658,0.232,1.465-0.054,1.92c-2.147,3.428-2.094,7.18-1.408,10.871
	c0.558,3,1.839,5.734,5.309,6.663c7.062,1.892,12.913-0.697,16.01-7.261c0.807-1.71,1.624-3.69-0.048-5.207
	c-2.057-1.866-2.919,0.995-4.371,1.74c-1.004-1.125,0-2.96-1.525-3.488c-1.353-0.47-3.043-0.573-3.782-1.844
	c-2.471-4.25-5.765-5.499-10.249-3.336c-0.01-2.007-1.661-1.647-2.819-1.901c-7.451-1.639-14.885-3.373-22.377-4.801
	c-4.028-0.767-5.585-3.191-5.689-6.91c-0.048-1.719,0.164-3.452,0.343-5.171c0.601-5.763-0.277-6.824-5.954-7.425
	c-2.176-0.23-3.126,0.358-3.115,2.762c0.084,19.034,0.274,38.063,1.173,57.081c0.103,2.167,0.677,3.319,2.921,3.998
	c33.572,10.152,66.872,21.151,100.102,32.362c3.169,1.069,4.202,0.415,4.34-3.075c0.545-13.84,0.479-27.68,0.501-41.521
	c0.014-8.367,0.101-16.734,0.086-25.103c-0.006-3.19-2.627-4.791-7.061-4.865c-3.79-0.063-2.086,2.682-2.278,4.284
	c-0.273,2.279-0.155,4.607-0.164,6.915c-0.021,5.791-0.783,6.377-6.669,4.979c-7.278-1.727-14.5-3.752-21.847-5.106
	c-4.055-0.747-5.244-3.031-5.298-6.504c-0.049-3.169,0.106-6.343,0.239-9.512c0.066-1.563-0.099-2.893-1.936-3.29
	c-5.904-1.277-11.805-2.569-17.716-3.818c-1.087-0.23-2.288,0.042-2.24,1.33c0.149,4.021-0.981,8.094-0.117,12.235
	c2.642-0.839,2.869-3.892,5.406-4.022c0.022,1.259-0.13,2.551,0.111,3.766c0.28,1.408,1.459,2.066,2.836,2.225
	c0.7,0.08,1.518,0.09,1.858-0.703c0.515-1.2-0.467-1.857-1.15-2.529c-2.153-2.119-0.673-3.26,1.143-4.225
	c1.044-0.554,3.184-0.398,2.608-2.035c-0.59-1.681-2.397-0.771-3.684-0.249C67.235,141.947,66.829,141.9,66.638,141.18z
	 M152.582,99.636c-4.03,1.325-5.041,4.067-4.584,8.168c0.481,4.315,1.709,8.66,0.688,13.626c-1.194-1.579-1.353-2.935-1.51-4.341
	c-0.193-1.713-0.429-3.439-0.851-5.107c-1.418-5.604-4.563-7.006-9.527-4.205c-1.039,0.586-1.168-0.226-1.604-0.604
	c-0.636-0.552-1.197-1.799-1.979-1.442c-3.869,1.768-5.044-1.242-6.632-3.53c-0.997-1.434-1.765-2.084-3.163-0.229
	c-4.329,5.746-8.922,11.294-13.195,17.081c-3.388,4.588-5.706,9.701-5.284,15.599c0.304,4.244,4.126,3.027,6.542,3.782
	c2.394,0.748,3.302-0.813,3.539-3.015c0.311-2.89,0.826-5.735,2.792-8.448c0,3.558-0.052,6.643,0.021,9.725
	c0.038,1.611,0.297,3.146,2.328,3.614c4.335,0.999,8.898-2.066,9.7-6.448c0.53-2.9,0.403-6.087,3.299-9.118
	c-0.254,3.425-0.549,5.975-0.601,8.53c-0.05,2.427,0.986,4.053,3.716,3.137c5.294-1.776,10.557-3.61,15.97-5.046
	c3.049-0.809,4.445-2.966,2.739-6.319c-0.808-1.587-2.105-3.168-1.43-5.269c1.703,0.265,2.196,1.759,2.958,2.877
	c1.348,1.981,1.161,5.613,3.495,6.044c2.246,0.415,4.887-1.249,7.342-2.037c1.229-0.394,2.42-0.9,3.646-1.302
	c1.809-0.593,2.246-1.501,1.749-3.529c-1.487-6.069-4.316-11.204-9.211-15.144c2.107-0.309,3.946,0.269,5.542,1.663
	c0.33,2.64,1.852,3.982,4.468,4.337c5.565,0.755,11.137,1.486,16.667,2.452c2.599,0.454,3.508-1.051,4.646-2.825
	c9.096-14.17,17.679-28.648,26.038-43.259c4.434-7.745,8.82-15.516,13.186-23.299c1.41-2.515,1.526-4.044-2.295-4.217
	c-12.228-0.552-24.432-1.615-36.659-2.178c-23.017-1.06-46.078-1.399-69.013-3.798c-5.058-0.529-6.84,2.659-8.759,5.982
	c-9.858,17.066-19.652,34.171-29.449,51.274c-0.784,1.37-1.409,2.829-2.132,4.235c-1.021,1.982-0.271,2.926,1.789,3.203
	c9.56,1.286,19.118,2.579,28.672,3.898c1.336,0.185,2.945,0.461,3.079-1.259c0.155-1.988-1.82-1.371-2.927-1.537
	c-7.402-1.104-14.82-2.099-22.228-3.168c-4.438-0.641-4.863-1.437-2.775-5.167c9.56-17.072,19.237-34.081,28.617-51.25
	c1.781-3.259,3.88-3.881,7.214-3.608c11.911,0.979,23.833,1.84,35.762,2.538c20.991,1.227,41.992,2.277,62.985,3.458
	c4.051,0.228,4.518,1.259,2.474,4.821c-10.023,17.47-20.326,34.773-31.004,51.85c-0.567,0.907-0.828,2.246-2.336,2.192
	c0.269-0.947,0.349-2.008,0.837-2.825c7.744-12.946,15.437-25.927,23.379-38.75c3.134-5.061,3.309-5.165-2.812-5.707
	c-13.183-1.167-26.363-2.379-39.562-3.352c-15.212-1.121-30.442-1.974-45.661-3.018c-2.742-0.188-4.545,0.627-5.944,3.147
	c-7.61,13.704-15.322,27.353-23.098,40.963c-1.523,2.666-1.023,3.887,1.994,4.287c4.422,0.585,8.843,1.192,13.236,1.954
	c1.582,0.274,2.888,0.316,3.669-1.27c1.05-2.133-1.146-2.199-2.055-3.061c-1.694-1.605-5.118-2.271-3.1-5.841
	c0.707,0.432,0.935-0.356,1.4-0.54c2.578-1.019,5.42-3.716,7.698-2.582c3.324,1.655,3.403-1.459,5.021-1.98
	c1.972-0.634,3.226,3.084,5.659,1.751c1.09-0.596,1.869-1.753,2.796-2.649c1.643-1.589,3.744-2.23,5.444-0.718
	c3.335,2.969,6.39,2.746,9.622,0.091c0.843-0.691,1.597-0.618,2.074,0.381c0.427,0.891,0.139,2.216-0.683,2.112
	c-3.562-0.449-7.004,4.019-10.667,0.117c-1.291-1.373-3.577-1.575-4.666-0.03c-3.261,4.624-9.129,0.827-12.629,4.25
	c-3.125-2.689-5.557,0.286-9.077,0.798c5.062,4.449,9.595,8.051,16.217,7.111c0.235-1.653-0.78-2.982-1.217-4.452
	c-0.261-0.883-0.605-1.676,0.496-2.15c0.995-0.428,1.74,0.162,2.146,0.924c0.393,0.736,0.488,1.636,0.688,2.47
	c0.46,1.93-0.185,4.457,3.247,4.466c3.065,0.009,4.877-1.296,5.877-4.042c0.394-1.079,0.73-2.187,1.233-3.212
	c0.317-0.649,1.008-1.216,1.756-0.855c0.775,0.375,0.569,1.205,0.345,1.9c-0.418,1.294-1.925,2.271-1.145,3.953
	c3.325-1.478,6.459-3.22,8.872-5.974c2.092-2.387,2.653-5.061,1.026-7.966c-1.557-2.78-4.019-2.29-6.47-1.753
	c-3.259,0.715-6.163,0.373-8.228-2.626c3.262,1.23,6.472,1.404,9.973,0.616c4.207-0.949,6.266,1.106,6.838,5.453
	c0.637,4.843-1.371,8.252-5.245,10.832C152.798,96.311,151.38,97.431,152.582,99.636z M185.241,156.789
	c-0.063,0-0.127-0.001-0.19-0.001c0-7.354-0.091-14.71,0.042-22.062c0.058-3.192-0.958-4.221-4.089-3.124
	c-13.293,4.653-26.6,9.271-39.931,13.813c-2.615,0.892-3.404,2.437-3.33,5.146c0.323,11.814,0.169,23.649,0.769,35.446
	c0.251,4.94-1.305,9.712-0.541,14.624c0.326,2.091,0.789,3.142,3.216,2.005c13.406-6.281,26.835-12.514,40.319-18.624
	c2.779-1.259,3.827-3.053,3.775-6.019C185.158,170.928,185.241,163.857,185.241,156.789z M125.914,185.714c-0.074,0-0.147,0-0.22,0
	c0,10.812-0.012,21.624,0.005,32.436c0.007,4.718,0.038,4.729,4.497,2.728c20.71-9.294,41.246-18.949,61.56-29.087
	c2.92-1.457,3.9-3.21,3.896-6.26c-0.015-9.511,0.148-19.021,0.257-28.531c0.108-9.505,0.274-19.011,0.3-28.516
	c0.003-1.137,1.056-3.095-1.45-3.249c-3.342-0.205-5.852,2.267-5.858,5.745c-0.032,16.425-0.124,32.849-0.049,49.272
	c0.013,2.679-0.828,4.174-3.305,5.286c-15.195,6.825-30.363,13.715-45.46,20.754c-3.372,1.572-4.081,0.298-4.119-2.712
	c-0.075-5.908-0.223-11.813-0.315-17.72c-0.192-12.097-0.335-24.195-0.61-36.29c-0.021-0.989,0.919-2.735-1.255-3.001
	c-4.325-0.529-7.839,2.39-7.858,6.721C125.883,164.098,125.914,174.906,125.914,185.714z M132.726,46.583
	c25.888,1.743,50.592,3.39,75.294,5.085c4.154,0.285,8.298,0.741,12.439,1.184c3.54,0.378,5.38-2.214,5.68-4.697
	c0.343-2.846-2.842-1.502-4.294-1.613c-10.189-0.777-20.401-1.25-30.603-1.858c-21.264-1.269-42.528-2.516-63.784-3.901
	c-2.871-0.187-4.491,0.805-5.858,3.226c-8.977,15.896-18.068,31.727-27.063,47.613c-0.551,0.973-2.119,2.116-0.643,3.342
	c1.212,1.007,2.842,1.576,4.46,1.035c1.349-0.451,1.601-1.941,2.21-3.044c7.365-13.334,14.798-26.632,22.009-40.049
	C125.1,48.205,127.811,44.552,132.726,46.583z M15.016,121.959c1.348,1.081,1.735,1.589,2.238,1.767
	c6.133,2.159,12.584,2.981,18.893,4.403c27.365,6.169,55.083,10.724,82.218,17.957c2.899,0.772,5.824,1.205,8.898,0.034
	c19.084-7.267,38.607-13.255,57.954-19.756c3.134-1.052,6.246-2.169,9.351-3.303c1.131-0.413,2.185-1.108,1.894-2.497
	c-0.272-1.303-1.477-1.658-2.652-1.821c-1.155-0.161-2.229,0-3.335,0.543c-16.201,7.949-33.568,12.701-50.511,18.654
	c-10.725,3.771-20.587,5.018-32.146,2.028c-21.279-5.503-43.188-8.555-64.795-12.823c-5.302-1.047-10.812-1.48-15.876-4.146
	c11.877-1.923,23.337-5.204,34.952-7.804c9.813-2.198,19.767-3.846,29.132-7.726c0.868-0.36,2.206-0.452,1.838-1.806
	c-0.3-1.101-1.463-1.309-2.513-1.219c-0.856,0.073-1.732,0.214-2.543,0.489c-15.714,5.315-32.259,7.074-48.237,11.274
	C31.897,118.278,23.904,119.91,15.016,121.959z M82.913,114.176c-2.699,1.652-6.105,1.942-9.436,2.618
	c-3.763,0.765-4.338,2.408-1.751,5.251c1.972,2.167,2.506,3.614-0.466,5.25c-1.615,0.889-2.691,2.358,0.268,2.948
	c9.148,1.824,18.315,3.557,27.481,5.293c0.766,0.146,1.957,0.511,1.97-0.799c0.024-2.265,0.598-5.57-1.163-6.492
	c-4.653-2.435-2.431-4.976-1.011-7.794c0.823-1.635,1.931-3.309-0.064-4.969c-2.165-1.802-4.931-3.863-7.308-2.381
	C88.661,114.832,86.257,115.173,82.913,114.176z M55.284,139.283c0.83-2.148-0.877-2.826-2.787-3.545
	c-5.813-2.183-11.896-3.196-17.948-4.397c-8.63-1.712-8.499-1.774-8.511,7.092c-0.004,3.452,1.24,5.377,4.639,6.048
	c4.787,0.943,9.556,1.982,14.318,3.045C54.153,149.567,54.665,149.193,55.284,139.283z M109.988,154.585
	c0-0.861-0.174-1.768,0.03-2.577c0.942-3.758-0.979-4.905-4.312-5.549c-6.041-1.166-12.012-2.703-18-4.136
	c-2.884-0.69-4.473,0.155-4.257,3.33c0.165,2.429,0.748,4.896,0.485,7.271c-0.351,3.171,1.391,4.082,3.834,4.574
	c4.915,0.988,9.879,1.753,14.755,2.901C110.001,162.16,109.977,162.265,109.988,154.585z M222.831,96.572
	c-0.346-0.646-0.554-1.389-1.028-1.861c-2.237-2.222-4.561-4.356-6.828-6.546c-1.338-1.292-2.256-0.764-3.055,0.601
	c-1.52,2.599-3.092,5.167-4.571,7.787c-4.786,8.475-4.704,8.415,2,15.492c1.665,1.757,2.717,1.805,3.961-0.102
	c2.979-4.563,5.935-9.141,8.873-13.729C222.48,97.748,222.601,97.169,222.831,96.572z M98.474,105.142
	c-0.65,0.01-2.463-0.271-2.999,1.306c-0.705,2.075,0.914,3.584,2.365,4.718c3.473,2.711,6.04,5.477,2.716,10.028
	c-0.437,0.598-0.317,1.682-0.27,2.531c0.038,0.668,0.093,1.509,0.976,1.727c0.886,0.219,1.322-0.49,1.665-1.076
	c3.053-5.228,6.302-10.285,10.7-14.546c1.354-1.312,0.993-2.277-1.146-2.824C108.119,105.889,103.645,105.848,98.474,105.142z
	 M244.216,58.735c0.174-3.319-1.951-5.591-3.699-8.018c-3.92-5.439-3.958-5.441-7.341,0.479c-1.216,2.127-2.551,4.394-0.653,6.754
	c1.797,2.234,3.756,4.347,5.762,6.399c1.724,1.763,3.292,1.454,4.436-0.745C243.516,62.076,244.255,60.525,244.216,58.735z
	 M209.887,116.684c0.081-1.585-6.344-9.4-7.73-9.452c-0.269-0.01-0.638,0.043-0.801,0.217c-2.24,2.399-4.696,4.732-4.848,8.292
	c-0.07,1.682,6.223,8.773,7.667,8.887c0.375,0.03,0.901-0.083,1.137-0.336C207.384,122.064,208.702,119.373,209.887,116.684z
	 M125.856,98.385c6.397,6.58,16.946,7.05,22.374,0.799C140.77,101.597,133.752,100.561,125.856,98.385z M72.186,151.813
	c-0.173,0.941-0.387,2.221-0.651,3.486c-0.124,0.598-0.164,1.127,0.427,1.493c0.69,0.426,1.079-0.17,1.457-0.518
	c2.677-2.463,2.463-7.398-0.415-9.517c-0.679-0.499-1.569-1.155-2.326-0.581c-0.922,0.699-0.284,1.505,0.369,2.141
	C71.937,149.183,72.186,150.281,72.186,151.813z"/>
<path fill-rule="evenodd" clip-rule="evenodd" fill="#2FA8DB" d="M8.921,160.133l-0.231,0.093c0-5.773,0-11.546,0-17.318
	C9.876,148.634,9.405,154.384,8.921,160.133z"/>
<path fill-rule="evenodd" clip-rule="evenodd" fill="#2FA8DB" d="M169.079,108.351c-1.596-1.394-3.435-1.972-5.542-1.663
	c-4.433-1.137-7.643-4.175-10.955-7.052c-1.202-2.205,0.216-3.325,1.805-4.383c3.874-2.58,5.882-5.989,5.245-10.832
	c-0.572-4.347-2.631-6.402-6.838-5.453c-3.501,0.789-6.711,0.615-9.975-0.616c-0.002,0,0.092,0.115,0.092,0.115
	c-2.06-3.111-4.398-1.427-6.521-0.225c-2.414,1.367-4.441,3.525-7.54,3.312c-6.998-1.203-11.852,2.379-12.869,8
	c-2.019,3.57,1.405,4.236,3.1,5.841c0.909,0.862,3.105,0.927,2.055,3.061c-0.781,1.586-2.087,1.544-3.669,1.27
	c-4.393-0.762-8.814-1.369-13.236-1.954c-3.017-0.399-3.517-1.621-1.994-4.287c7.776-13.61,15.488-27.259,23.098-40.963
	c1.399-2.52,3.202-3.335,5.944-3.147c15.219,1.044,30.449,1.897,45.661,3.018c13.198,0.973,26.379,2.185,39.562,3.352
	c6.12,0.542,5.945,0.646,2.812,5.707c-7.942,12.823-15.635,25.804-23.379,38.75c-0.488,0.816-0.568,1.878-0.838,2.825
	c-0.631,1.588-1.014,3.345-1.956,4.718c-1.065,1.55-2.023,3.488-4.653,3.109C182.031,109.925,175.551,109.174,169.079,108.351z"/>
<path fill-rule="evenodd" clip-rule="evenodd" fill="#F1F1F1" d="M54.429,152.463c-2.74,1.288-2.313,4.237-3.229,6.437
	c-0.734,1.762-1.364,2.103-3.052,1.257c-6.656-3.332-14.122-3.753-21.157-5.737c-2.369-0.669-3.319,0.885-3.32,2.771
	c-0.005,7.771-0.154,15.566,0.428,23.302c0.293,3.897,4.218,3.082,6.982,3.384c2.635,0.818,5.271,1.638,7.906,2.457
	c10.762,4.296,21.984,7.172,33.021,10.609c13.154,4.1,26.195,8.572,39.537,12.071c2.059,0.54,2.795,0.463,2.827-1.906
	c0.119-8.919,0.457-17.836,0.611-26.756c0.073-4.214-2.37-7.178-7.534-7.992c-9.658-1.522-19.24-3.397-28.849-5.16
	c-2.329-0.428-3.057-0.877-1.986-3.18c1.085-2.335,0.981-4.57-0.539-6.93c-1.495-2.32,0.284-4.679,0.873-6.971
	c1.139-4.435-3.223-6.48-4.338-9.982c-0.479-1.502-2.795-1.021-4.339-0.603c-0.792,0.214-1.658,0.537-1.633,1.646l0.086-0.037
	c-2.841,0.298-3.062,2.157-2.628,4.409l0.062-0.116c-2.538,0.131-2.764,3.184-5.406,4.022c-0.865-4.142,0.266-8.214,0.117-12.235
	c-0.048-1.288,1.153-1.561,2.24-1.33c5.911,1.249,11.812,2.541,17.716,3.818c1.837,0.397,2.002,1.728,1.936,3.29
	c-0.133,3.169-0.288,6.343-0.239,9.512c0.054,3.473,1.243,5.757,5.298,6.504c7.347,1.354,14.569,3.38,21.847,5.106
	c5.886,1.397,6.648,0.812,6.669-4.979c0.009-2.308-0.11-4.636,0.164-6.915c0.192-1.603-1.512-4.348,2.278-4.284
	c4.434,0.074,7.055,1.675,7.061,4.865c0.015,8.368-0.073,16.735-0.086,25.103c-0.022,13.842,0.043,27.682-0.501,41.521
	c-0.138,3.49-1.171,4.145-4.34,3.075c-33.23-11.211-66.53-22.21-100.102-32.362c-2.244-0.679-2.818-1.831-2.921-3.998
	c-0.899-19.018-1.089-38.047-1.173-57.081c-0.011-2.403,0.939-2.992,3.115-2.762c5.677,0.601,6.555,1.662,5.954,7.425
	c-0.18,1.719-0.391,3.452-0.343,5.171c0.104,3.719,1.661,6.144,5.689,6.91c7.492,1.428,14.926,3.162,22.377,4.801
	c1.158,0.254,2.809-0.105,2.819,1.901L54.429,152.463z"/>
<path fill-rule="evenodd" clip-rule="evenodd" fill="#2FA8DB" d="M185.241,156.789c0,7.068-0.083,14.139,0.04,21.205
	c0.052,2.966-0.996,4.76-3.775,6.019c-13.484,6.11-26.913,12.343-40.319,18.624c-2.427,1.137-2.89,0.086-3.216-2.005
	c-0.764-4.912,0.792-9.684,0.541-14.624c-0.6-11.797-0.445-23.632-0.769-35.446c-0.074-2.71,0.715-4.255,3.33-5.146
	c13.331-4.542,26.638-9.159,39.931-13.813c3.131-1.097,4.146-0.068,4.089,3.124c-0.133,7.352-0.042,14.707-0.042,22.062
	C185.114,156.788,185.178,156.789,185.241,156.789z M177.663,163.632c0.263-1.973,0.499-3.947,0.79-5.915
	c0.619-4.176-4.894-4.614-5.207-8.432c-0.045-0.549-2.85-0.103-4.413,0.293c-6.088,1.54-12.12,3.232-17.938,5.624
	c-0.528,0.045-1.056,0.091-1.585,0.138c1.479,4.606-1.011,8.948-0.906,13.419c0.108,4.649,3.937,6.896,8.388,5.33
	c5.675-1.997,11.333-4.039,17.013-6.018C175.972,167.315,177.788,166.34,177.663,163.632z"/>
<path fill-rule="evenodd" clip-rule="evenodd" fill="#2FA8DB" d="M38.987,186.333c-2.635-0.819-5.271-1.639-7.906-2.457
	c-3.48-1.524-4.48-4.217-4.263-7.898c0.272-4.591,0.206-9.214,0.019-13.813c-0.119-2.906,1.084-3.546,3.617-2.937
	c5.311,1.275,10.619,2.564,15.952,3.735c2.048,0.449,2.761,1.853,3.219,3.602c2.328,8.876,16.826,12.898,22.216,4.6
	c1.116-1.719,2.572-2.097,4.79-1.527c9.883,2.543,19.847,4.776,29.77,7.166c1.676,0.404,3.359,0.842,3.344,3.223
	c-0.057,8.607-0.023,17.217-0.023,26.262c-14.985-3.708-28.696-8.438-42.534-12.742c-7.681-2.39-15.423-4.583-23.123-6.912
	C42.373,186.121,40.718,185.786,38.987,186.333z"/>
<path fill-rule="evenodd" clip-rule="evenodd" fill="#F1F1F1" d="M125.914,185.714c0-10.808-0.031-21.616,0.015-32.424
	c0.019-4.331,3.533-7.25,7.858-6.721c2.174,0.266,1.233,2.012,1.255,3.001c0.275,12.095,0.418,24.193,0.61,36.29
	c0.093,5.906,0.24,11.812,0.315,17.72c0.038,3.01,0.747,4.284,4.119,2.712c15.097-7.039,30.265-13.929,45.46-20.754
	c2.477-1.112,3.317-2.607,3.305-5.286c-0.075-16.424,0.017-32.848,0.049-49.272c0.007-3.478,2.517-5.95,5.858-5.745
	c2.506,0.154,1.453,2.112,1.45,3.249c-0.025,9.505-0.191,19.011-0.3,28.516c-0.108,9.511-0.271,19.021-0.257,28.531
	c0.004,3.05-0.977,4.803-3.896,6.26c-20.313,10.138-40.85,19.793-61.56,29.087c-4.459,2.001-4.49,1.99-4.497-2.728
	c-0.017-10.812-0.005-21.624-0.005-32.436C125.767,185.714,125.84,185.714,125.914,185.714z"/>
<path fill-rule="evenodd" clip-rule="evenodd" fill="#F1F1F1" d="M152.582,99.636c3.313,2.877,6.522,5.916,10.955,7.052
	c4.895,3.94,7.724,9.075,9.211,15.145c0.497,2.028,0.06,2.936-1.749,3.529c-1.227,0.402-2.418,0.908-3.646,1.302
	c-2.455,0.788-5.096,2.452-7.342,2.037c-2.334-0.431-2.147-4.063-3.495-6.044c-0.762-1.118-1.255-2.612-2.958-2.877
	c-0.676,2.101,0.622,3.682,1.43,5.269c1.706,3.353,0.31,5.51-2.739,6.319c-5.413,1.436-10.676,3.27-15.97,5.046
	c-2.729,0.916-3.766-0.71-3.716-3.137c0.052-2.556,0.347-5.105,0.601-8.53c-2.896,3.031-2.769,6.218-3.299,9.118
	c-0.802,4.382-5.365,7.447-9.7,6.448c-2.031-0.469-2.29-2.003-2.328-3.614c-0.073-3.082-0.021-6.167-0.021-9.725
	c-1.966,2.712-2.481,5.558-2.792,8.448c-0.237,2.202-1.145,3.763-3.539,3.015c-2.417-0.755-6.239,0.462-6.542-3.782
	c-0.422-5.897,1.896-11.011,5.284-15.599c4.272-5.787,8.866-11.335,13.195-17.081c1.397-1.856,2.166-1.206,3.163,0.229
	c1.587,2.289,2.763,5.298,6.632,3.53c0.782-0.357,1.344,0.89,1.979,1.442c0.436,0.378,0.564,1.19,1.604,0.604
	c4.965-2.801,8.109-1.4,9.527,4.205c0.422,1.668,0.657,3.394,0.851,5.107c0.157,1.406,0.315,2.762,1.51,4.341
	c1.021-4.967-0.207-9.311-0.688-13.626C147.541,103.703,148.552,100.961,152.582,99.636z"/>
<path fill-rule="evenodd" clip-rule="evenodd" fill="#F1F1F1" d="M169.079,108.351c6.472,0.823,12.952,1.574,19.408,2.503
	c2.63,0.378,3.588-1.56,4.653-3.109c0.942-1.373,1.325-3.13,1.956-4.718c1.509,0.054,1.77-1.285,2.337-2.192
	c10.678-17.077,20.98-34.38,31.004-51.85c2.044-3.563,1.577-4.593-2.474-4.821c-20.993-1.181-41.994-2.231-62.985-3.458
	c-11.93-0.698-23.852-1.559-35.762-2.538c-3.334-0.273-5.433,0.349-7.214,3.608c-9.38,17.17-19.057,34.178-28.617,51.25
	c-2.088,3.73-1.663,4.526,2.775,5.167c7.408,1.069,14.826,2.063,22.228,3.168c1.107,0.166,3.082-0.451,2.927,1.537
	c-0.134,1.72-1.743,1.444-3.079,1.259c-9.554-1.319-19.113-2.612-28.672-3.898c-2.06-0.277-2.81-1.221-1.789-3.203
	c0.724-1.406,1.349-2.865,2.132-4.235c9.797-17.103,19.591-34.208,29.449-51.274c1.919-3.323,3.701-6.511,8.759-5.982
	c22.935,2.399,45.996,2.738,69.013,3.798c12.228,0.563,24.432,1.625,36.659,2.178c3.821,0.173,3.705,1.702,2.295,4.217
	c-4.365,7.783-8.752,15.554-13.186,23.299c-8.359,14.611-16.942,29.088-26.038,43.259c-1.138,1.774-2.047,3.279-4.646,2.825
	c-5.53-0.966-11.102-1.697-16.667-2.452C170.931,112.333,169.409,110.991,169.079,108.351z"/>
<path fill-rule="evenodd" clip-rule="evenodd" fill="#F1F1F1" d="M132.726,46.583c-4.915-2.03-7.626,1.622-10.153,6.323
	c-7.211,13.417-14.644,26.715-22.009,40.049c-0.609,1.103-0.861,2.593-2.21,3.044c-1.618,0.542-3.248-0.028-4.46-1.035
	c-1.476-1.226,0.091-2.369,0.643-3.342c8.996-15.886,18.086-31.717,27.063-47.613c1.368-2.421,2.987-3.413,5.858-3.226
	c21.256,1.385,42.521,2.632,63.784,3.901c10.201,0.609,20.413,1.082,30.603,1.858c1.452,0.111,4.637-1.233,4.294,1.613
	c-0.3,2.482-2.14,5.075-5.68,4.697c-4.142-0.443-8.285-0.898-12.439-1.184C183.317,49.973,158.613,48.325,132.726,46.583z"/>
<path fill-rule="evenodd" clip-rule="evenodd" fill="#F1F1F1" d="M15.016,121.959c8.888-2.049,16.881-3.681,24.76-5.752
	c15.978-4.2,32.523-5.959,48.237-11.274c0.812-0.274,1.687-0.416,2.543-0.489c1.049-0.09,2.213,0.119,2.513,1.219
	c0.368,1.354-0.97,1.446-1.838,1.806c-9.365,3.88-19.318,5.528-29.132,7.726c-11.615,2.6-23.075,5.88-34.952,7.804
	c5.064,2.666,10.574,3.099,15.876,4.146c21.607,4.269,43.516,7.32,64.795,12.823c11.559,2.989,21.421,1.742,32.146-2.028
	c16.942-5.953,34.31-10.705,50.511-18.654c1.106-0.543,2.18-0.704,3.335-0.543c1.176,0.164,2.38,0.519,2.652,1.821
	c0.291,1.389-0.763,2.084-1.894,2.497c-3.104,1.133-6.217,2.25-9.351,3.303c-19.347,6.501-38.87,12.489-57.954,19.756
	c-3.074,1.171-5.999,0.738-8.898-0.034c-27.136-7.233-54.853-11.788-82.218-17.957c-6.308-1.422-12.76-2.244-18.893-4.403
	C16.75,123.548,16.363,123.041,15.016,121.959z"/>
<path fill-rule="evenodd" clip-rule="evenodd" fill="#F1F1F1" d="M82.913,114.176c3.344,0.997,5.748,0.656,8.52-1.074
	c2.376-1.482,5.143,0.579,7.308,2.381c1.995,1.66,0.887,3.333,0.064,4.969c-1.419,2.819-3.642,5.36,1.011,7.794
	c1.761,0.921,1.188,4.227,1.163,6.492c-0.014,1.31-1.205,0.944-1.97,0.799c-9.166-1.736-18.333-3.469-27.481-5.293
	c-2.959-0.59-1.883-2.059-0.268-2.948c2.972-1.636,2.438-3.083,0.466-5.25c-2.587-2.844-2.012-4.487,1.751-5.251
	C76.808,116.118,80.214,115.828,82.913,114.176z M89.246,126.826c-4.087-0.199-8.174-0.397-12.261-0.596
	C80.993,127.843,84.99,129.208,89.246,126.826z"/>
<path fill-rule="evenodd" clip-rule="evenodd" fill="#F1F1F1" d="M115.982,89.554c1.017-5.621,5.871-9.203,12.869-8.001
	c2.733,1.781,5.123,0.642,7.438-0.91c2.011-1.349,3.964-2.818,6.622-2.177c0,0-0.094-0.114-0.092-0.115
	c2.066,2.999,4.971,3.341,8.229,2.626c2.451-0.537,4.913-1.027,6.47,1.753c1.627,2.905,1.065,5.579-1.026,7.966
	c-2.413,2.754-5.547,4.496-8.872,5.974c-0.78-1.682,0.727-2.659,1.145-3.953c0.225-0.695,0.431-1.525-0.345-1.9
	c-0.748-0.361-1.438,0.206-1.756,0.855c-0.503,1.026-0.84,2.134-1.233,3.212c-1,2.746-2.812,4.051-5.877,4.042
	c-3.432-0.009-2.787-2.536-3.247-4.466c-0.2-0.834-0.296-1.734-0.688-2.47c-0.406-0.763-1.151-1.352-2.146-0.924
	c-1.102,0.474-0.757,1.267-0.496,2.15c0.437,1.47,1.452,2.798,1.217,4.452c-6.622,0.939-11.155-2.662-16.217-7.111
	c3.52-0.512,5.952-3.487,9.077-0.798c3.5-3.423,9.369,0.373,12.629-4.25c1.089-1.545,3.375-1.343,4.666,0.03
	c3.663,3.902,7.105-0.566,10.667-0.117c0.821,0.104,1.109-1.222,0.683-2.112c-0.478-0.999-1.231-1.072-2.074-0.381
	c-3.232,2.654-6.287,2.878-9.622-0.091c-1.7-1.512-3.802-0.871-5.444,0.718c-0.927,0.896-1.706,2.053-2.796,2.649
	c-2.434,1.333-3.688-2.385-5.659-1.751c-1.618,0.521-1.697,3.635-5.021,1.98c-2.278-1.134-5.121,1.563-7.698,2.582
	C116.917,89.198,116.688,89.985,115.982,89.554z"/>
<path fill-rule="evenodd" clip-rule="evenodd" fill="#2FA8DB" d="M55.284,139.283c-0.619,9.91-1.131,10.284-10.288,8.242
	c-4.763-1.063-9.531-2.102-14.318-3.045c-3.399-0.671-4.644-2.596-4.639-6.048c0.012-8.866-0.119-8.804,8.511-7.092
	c6.051,1.201,12.135,2.215,17.948,4.397C54.407,136.457,56.114,137.135,55.284,139.283z"/>
<path fill-rule="evenodd" clip-rule="evenodd" fill="#2FA8DB" d="M109.988,154.585c-0.011,7.68,0.013,7.575-7.464,5.815
	c-4.876-1.148-9.841-1.913-14.755-2.901c-2.443-0.492-4.185-1.403-3.834-4.574c0.263-2.376-0.32-4.843-0.485-7.271
	c-0.215-3.175,1.374-4.021,4.257-3.33c5.989,1.433,11.959,2.97,18,4.136c3.333,0.644,5.254,1.791,4.312,5.549
	C109.814,152.817,109.988,153.724,109.988,154.585z"/>
<path fill-rule="evenodd" clip-rule="evenodd" fill="#F1F1F1" d="M54.324,152.514c4.483-2.163,7.778-0.914,10.249,3.336
	c0.738,1.271,2.429,1.374,3.782,1.844c1.525,0.528,0.521,2.363,1.525,3.488c1.452-0.745,2.314-3.606,4.371-1.74
	c1.672,1.517,0.854,3.497,0.048,5.207c-3.097,6.563-8.948,9.152-16.01,7.261c-3.469-0.929-4.751-3.663-5.309-6.663
	c-0.687-3.691-0.739-7.443,1.408-10.871c0.286-0.455,1.548-1.262,0.048-1.916C54.429,152.463,54.324,152.514,54.324,152.514z
	 M58.052,168.431c1.661-2.875,2.777-4.854,3.944-6.805c0.438-0.731,0.45-1.326-0.262-1.845c-0.639-0.465-1.818-0.601-1.891-0.043
	C59.505,162.328,57.001,164.382,58.052,168.431z"/>
<path fill-rule="evenodd" clip-rule="evenodd" fill="#2FA8DB" d="M222.831,96.572c-0.23,0.598-0.351,1.176-0.648,1.642
	c-2.938,4.588-5.895,9.166-8.873,13.729c-1.244,1.906-2.296,1.858-3.961,0.102c-6.704-7.077-6.786-7.018-2-15.492
	c1.479-2.621,3.052-5.188,4.571-7.787c0.799-1.365,1.717-1.893,3.055-0.601c2.268,2.19,4.591,4.325,6.828,6.546
	C222.277,95.183,222.485,95.926,222.831,96.572z"/>
<path fill-rule="evenodd" clip-rule="evenodd" fill="#2FA8DB" d="M223.456,77.017c-2.116-5.605-0.308-10.943,6.051-17.863
	c10.335,8.844,9.97,19.809-0.799,23.998C226.958,81.106,225.206,79.062,223.456,77.017z"/>
<path fill-rule="evenodd" clip-rule="evenodd" fill="#2FA8DB" d="M98.474,105.142c5.171,0.707,9.645,0.747,14.007,1.863
	c2.139,0.547,2.501,1.512,1.146,2.824c-4.398,4.261-7.647,9.319-10.7,14.546c-0.342,0.586-0.779,1.295-1.665,1.076
	c-0.882-0.218-0.938-1.059-0.976-1.727c-0.047-0.849-0.167-1.933,0.27-2.531c3.324-4.551,0.757-7.317-2.716-10.028
	c-1.451-1.133-3.07-2.643-2.365-4.718C96.011,104.871,97.823,105.151,98.474,105.142z"/>
<path fill-rule="evenodd" clip-rule="evenodd" fill="#F1F1F1" d="M244.219,58.738c0.036,1.787-0.703,3.338-1.499,4.867
	c-1.144,2.199-2.712,2.508-4.436,0.745c-2.006-2.052-3.965-4.165-5.762-6.399c-1.897-2.36-0.563-4.627,0.653-6.754
	c3.383-5.92,3.421-5.918,7.341-0.479C242.265,53.144,244.39,55.416,244.219,58.738z"/>
<path fill-rule="evenodd" clip-rule="evenodd" fill="#F1F1F1" d="M223.456,77.017c1.75,2.045,3.502,4.09,5.252,6.135
	c1.927,3.936-1.083,6.219-3.314,8.228c-2.243,2.019-3.759-0.585-5.271-2.036c-5.53-5.304-5.452-5.618-2.49-10.759
	C219.253,75.773,220.875,75.177,223.456,77.017z"/>
<path fill-rule="evenodd" clip-rule="evenodd" fill="#F1F1F1" d="M209.887,116.684c-1.185,2.689-2.503,5.38-4.575,7.608
	c-0.235,0.253-0.762,0.366-1.137,0.336c-1.444-0.113-7.737-7.205-7.667-8.887c0.151-3.56,2.607-5.893,4.848-8.292
	c0.163-0.174,0.532-0.228,0.801-0.217C203.543,107.284,209.968,115.098,209.887,116.684z"/>
<path fill-rule="evenodd" clip-rule="evenodd" fill="#F1F1F1" d="M125.856,98.385c7.896,2.176,14.913,3.211,22.374,0.799
	C142.803,105.435,132.254,104.965,125.856,98.385z"/>
<path fill-rule="evenodd" clip-rule="evenodd" fill="#F1F1F1" d="M66.638,141.18c0.191,0.721,0.598,0.768,1.242,0.505
	c1.287-0.522,3.094-1.432,3.684,0.249c0.575,1.637-1.564,1.481-2.608,2.035c-1.816,0.965-3.296,2.105-1.143,4.225
	c0.684,0.672,1.665,1.329,1.15,2.529c-0.34,0.793-1.158,0.783-1.858,0.703c-1.377-0.158-2.556-0.816-2.836-2.225
	c-0.242-1.215-0.089-2.507-0.111-3.766l-0.062,0.116c1.178-1.29,2.633-2.415,2.628-4.409L66.638,141.18z"/>
<path fill-rule="evenodd" clip-rule="evenodd" fill="#F1F1F1" d="M72.186,151.813c0-1.531-0.25-2.63-1.138-3.495
	c-0.653-0.636-1.292-1.441-0.369-2.141c0.757-0.574,1.647,0.082,2.326,0.581c2.877,2.118,3.091,7.054,0.415,9.517
	c-0.378,0.348-0.767,0.943-1.457,0.518c-0.591-0.366-0.551-0.896-0.427-1.493C71.799,154.033,72.013,152.754,72.186,151.813z"/>
<path fill-rule="evenodd" clip-rule="evenodd" fill="#2C2B2C" d="M142.911,78.466c-2.658-0.642-4.611,0.828-6.622,2.177
	c-2.315,1.552-4.705,2.69-7.438,0.91c3.099,0.214,5.126-1.944,7.54-3.311C138.513,77.04,140.852,75.355,142.911,78.466z"/>
<path fill-rule="evenodd" clip-rule="evenodd" fill="#2C2B2C" d="M66.724,141.143c0.004,1.994-1.451,3.119-2.628,4.409
	C63.662,143.3,63.883,141.44,66.724,141.143z"/>
<path fill-rule="evenodd" clip-rule="evenodd" fill="#F1F1F1" d="M150.896,155.202c5.817-2.392,11.85-4.084,17.938-5.624
	c1.563-0.396,4.368-0.842,4.413-0.293c0.313,3.817,5.826,4.256,5.207,8.432c-0.291,1.968-0.527,3.942-0.79,5.915
	c-5.598,3.265-11.55,5.645-17.843,7.19c-2.703,0.663-5.561,2.777-8.098,0.239c-2.471-2.471-0.167-5.457,0.023-8.184
	c0.093-1.328,0.569-3.733,2.582-3.14c1.504,0.443,0.935,2.381,0.315,3.758c-0.758,1.682-1.294,3.917,1.282,3.887
	c7.004-0.081,13.831-1.112,18.81-6.936c1.461-1.709,1.57-3.295-0.095-4.916c-1.371-1.333-4.326-0.189-4.795-3.068
	c-0.03-0.188-1.797,0.307-1.27,0.928c3.06,3.599-1.146,2.431-2.352,3.103c4.329,4.405,4.043,5.519-1.659,7.688
	c-0.401,0.153-0.818,0.307-1.24,0.356c-2.378,0.28-5.605,3.131-6.851,0.655c-1.38-2.745,2.681-3.263,4.588-4.493
	c1.71-1.104,2.318-2.637,1.601-4.449c-0.735-1.855-2.459-1.654-4.075-1.467c-1.944,0.227-3.418,1.46-5.061,2.331
	C151.317,158.288,150.6,157.455,150.896,155.202z"/>
<path fill-rule="evenodd" clip-rule="evenodd" fill="#2C2B2C" d="M150.896,155.202c-0.296,2.253,0.422,3.086,2.632,1.912
	c1.643-0.871,3.116-2.104,5.061-2.331c1.616-0.188,3.34-0.389,4.075,1.467c0.718,1.813,0.109,3.345-1.601,4.449
	c-1.907,1.23-5.968,1.748-4.588,4.493c1.245,2.476,4.473-0.375,6.851-0.655c0.422-0.05,0.839-0.203,1.24-0.356
	c5.702-2.169,5.988-3.282,1.659-7.688c1.206-0.672,5.411,0.496,2.352-3.103c-0.527-0.621,1.239-1.115,1.27-0.928
	c0.469,2.879,3.424,1.735,4.795,3.068c1.665,1.621,1.556,3.207,0.095,4.916c-4.979,5.823-11.806,6.854-18.81,6.936
	c-2.576,0.03-2.04-2.205-1.282-3.887c0.619-1.377,1.188-3.314-0.315-3.758c-2.013-0.594-2.489,1.812-2.582,3.14
	c-0.19,2.727-2.494,5.713-0.023,8.184c2.537,2.538,5.395,0.424,8.098-0.239c6.293-1.546,12.245-3.926,17.843-7.19
	c0.125,2.708-1.691,3.684-3.858,4.439c-5.68,1.979-11.338,4.021-17.013,6.018c-4.451,1.565-8.279-0.681-8.388-5.33
	c-0.104-4.471,2.386-8.813,0.906-13.42C149.84,155.293,150.367,155.247,150.896,155.202z"/>
<path fill-rule="evenodd" clip-rule="evenodd" fill="#2C2B2C" d="M89.246,126.826c-4.255,2.382-8.253,1.017-12.261-0.596
	C81.072,126.429,85.159,126.627,89.246,126.826z"/>
<path fill-rule="evenodd" clip-rule="evenodd" fill="#2C2B2C" d="M58.052,168.431c-1.05-4.049,1.453-6.103,1.792-8.692
	c0.073-0.558,1.251-0.422,1.891,0.043c0.712,0.519,0.7,1.113,0.262,1.845C60.829,163.576,59.713,165.556,58.052,168.431z"/>
</svg>
