<?xml version="1.0" encoding="utf-8"?>
<!-- Generator: Adobe Illustrator 16.0.0, SVG Export Plug-In . SVG Version: 6.00 Build 0)  -->
<!DOCTYPE svg PUBLIC "-//W3C//DTD SVG 1.1//EN" "http://www.w3.org/Graphics/SVG/1.1/DTD/svg11.dtd">
<svg version="1.1" id="Layer_1" xmlns="http://www.w3.org/2000/svg" xmlns:xlink="http://www.w3.org/1999/xlink" x="0px" y="0px"
	 width="148.562px" height="148.561px" viewBox="0 0 148.562 148.561" enable-background="new 0 0 148.562 148.561"
	 xml:space="preserve">
<rect x="14.133" y="13.041" fill="#83B1AE" width="121.387" height="121.387"/>
<g>
	<path d="M37.279,71.23l4.8-8.676l4.572,8.808l-1.308,0.264l-1.752-3.444h-3.264l-1.848,3.444L37.279,71.23z M43.111,67.103
		l-1.032-2.124l-1.176,2.124H43.111z"/>
	<path d="M48.104,66.779v0.468h0.024c0.136-0.176,0.316-0.314,0.54-0.414c0.224-0.1,0.476-0.15,0.756-0.15v1.176H49.16
		c-0.384,0-0.656,0.09-0.816,0.27c-0.16,0.18-0.24,0.466-0.24,0.858v2.376l-1.176,0.096v-4.584L48.104,66.779z"/>
	<path d="M49.568,66.827h0.444v-1.452l1.176-0.576v2.028h0.96v1.08h-0.96v1.62c0,0.296,0.068,0.512,0.204,0.648
		c0.136,0.136,0.332,0.204,0.588,0.204h0.168v1.08h-0.252c-0.592,0-1.054-0.124-1.386-0.372c-0.332-0.248-0.498-0.632-0.498-1.152
		v-2.028h-0.444V66.827z"/>
	<path d="M52.388,66.827l1.176-0.144l0.864,2.496l1.056-2.4h0.528l1.056,2.352l0.864-2.448l1.176,0.144l-1.644,4.584h-0.528
		l-1.188-2.496l-1.188,2.496h-0.528L52.388,66.827z"/>
	<path d="M59.582,68.207c0.124-0.296,0.298-0.558,0.522-0.786c0.224-0.228,0.486-0.408,0.786-0.54
		c0.3-0.132,0.622-0.198,0.966-0.198c0.344,0,0.666,0.066,0.966,0.198c0.3,0.132,0.562,0.312,0.786,0.54
		c0.224,0.228,0.398,0.49,0.522,0.786c0.124,0.296,0.186,0.6,0.186,0.912s-0.062,0.616-0.186,0.912s-0.298,0.558-0.522,0.786
		c-0.224,0.228-0.486,0.408-0.786,0.54c-0.3,0.132-0.622,0.198-0.966,0.198c-0.344,0-0.664-0.066-0.96-0.198
		c-0.296-0.132-0.558-0.313-0.786-0.546c-0.228-0.232-0.404-0.494-0.528-0.786c-0.124-0.292-0.186-0.594-0.186-0.906
		S59.458,68.503,59.582,68.207z M62.773,70.091c0.244-0.256,0.366-0.58,0.366-0.972s-0.122-0.716-0.366-0.972
		c-0.244-0.256-0.55-0.384-0.918-0.384c-0.36,0-0.664,0.128-0.912,0.384c-0.248,0.256-0.372,0.58-0.372,0.972
		s0.124,0.716,0.372,0.972c0.248,0.256,0.552,0.384,0.912,0.384C62.223,70.475,62.529,70.347,62.773,70.091z"/>
	<path d="M66.319,66.779v0.468h0.024c0.136-0.176,0.316-0.314,0.54-0.414c0.224-0.1,0.476-0.15,0.756-0.15v1.176h-0.264
		c-0.384,0-0.656,0.09-0.816,0.27c-0.16,0.18-0.24,0.466-0.24,0.858v2.376l-1.176,0.096v-4.584L66.319,66.779z"/>
	<path d="M68.036,62.819l1.176-0.096v6.228l2.376-2.412l0.912,0.708l-1.836,1.86l1.848,1.968l-1.056,0.552l-2.244-2.388v2.124
		l-1.176,0.096V62.819z"/>
	<path d="M75.788,66.827h0.444v-1.452l1.176-0.576v2.028h0.961v1.08h-0.961v1.62c0,0.296,0.068,0.512,0.204,0.648
		c0.136,0.136,0.332,0.204,0.588,0.204h0.169v1.08h-0.253c-0.592,0-1.054-0.124-1.386-0.372c-0.332-0.248-0.498-0.632-0.498-1.152
		v-2.028h-0.444V66.827z"/>
	<path d="M79.13,68.207c0.123-0.296,0.297-0.558,0.521-0.786c0.224-0.228,0.486-0.408,0.786-0.54c0.3-0.132,0.622-0.198,0.966-0.198
		s0.666,0.066,0.966,0.198c0.3,0.132,0.562,0.312,0.786,0.54c0.225,0.228,0.398,0.49,0.521,0.786c0.125,0.296,0.187,0.6,0.187,0.912
		s-0.062,0.616-0.187,0.912c-0.123,0.296-0.297,0.558-0.521,0.786c-0.225,0.228-0.486,0.408-0.786,0.54
		c-0.3,0.132-0.622,0.198-0.966,0.198s-0.664-0.066-0.96-0.198c-0.296-0.132-0.558-0.313-0.786-0.546
		c-0.229-0.232-0.404-0.494-0.527-0.786c-0.125-0.292-0.187-0.594-0.187-0.906S79.005,68.503,79.13,68.207z M82.321,70.091
		c0.244-0.256,0.366-0.58,0.366-0.972s-0.122-0.716-0.366-0.972c-0.244-0.256-0.551-0.384-0.918-0.384
		c-0.359,0-0.664,0.128-0.912,0.384c-0.248,0.256-0.372,0.58-0.372,0.972s0.124,0.716,0.372,0.972
		c0.248,0.256,0.553,0.384,0.912,0.384C81.771,70.475,82.077,70.347,82.321,70.091z"/>
	<path d="M87.812,64.847c0-0.672,0.193-1.206,0.582-1.602c0.388-0.396,0.97-0.626,1.746-0.69v1.176
		c-0.393,0.041-0.682,0.154-0.87,0.342s-0.282,0.478-0.282,0.87v1.884h1.032v1.08h-1.032v3.456l-1.176,0.096V64.847z"/>
	<path d="M90.457,68.207c0.124-0.296,0.298-0.558,0.522-0.786c0.223-0.228,0.485-0.408,0.785-0.54
		c0.301-0.132,0.622-0.198,0.967-0.198c0.344,0,0.666,0.066,0.965,0.198c0.301,0.132,0.563,0.312,0.787,0.54
		c0.224,0.228,0.397,0.49,0.521,0.786c0.124,0.296,0.186,0.6,0.186,0.912s-0.062,0.616-0.186,0.912s-0.298,0.558-0.521,0.786
		c-0.225,0.228-0.486,0.408-0.787,0.54c-0.299,0.132-0.621,0.198-0.965,0.198c-0.345,0-0.664-0.066-0.961-0.198
		c-0.295-0.132-0.558-0.313-0.785-0.546c-0.229-0.232-0.404-0.494-0.528-0.786c-0.124-0.292-0.187-0.594-0.187-0.906
		S90.333,68.503,90.457,68.207z M93.649,70.091c0.244-0.256,0.365-0.58,0.365-0.972s-0.121-0.716-0.365-0.972
		c-0.244-0.256-0.551-0.384-0.918-0.384c-0.36,0-0.664,0.128-0.912,0.384c-0.248,0.256-0.373,0.58-0.373,0.972
		s0.125,0.716,0.373,0.972c0.248,0.256,0.552,0.384,0.912,0.384C93.099,70.475,93.405,70.347,93.649,70.091z"/>
	<path d="M96.019,62.819l1.176-0.096v8.64l-1.176,0.096V62.819z"/>
	<path d="M98.228,62.819l1.176-0.096v8.64l-1.176,0.096V62.819z"/>
	<path d="M100.417,68.207c0.124-0.296,0.298-0.558,0.521-0.786c0.225-0.228,0.486-0.408,0.787-0.54
		c0.299-0.132,0.621-0.198,0.965-0.198s0.666,0.066,0.967,0.198c0.3,0.132,0.562,0.312,0.785,0.54
		c0.225,0.228,0.398,0.49,0.522,0.786c0.124,0.296,0.187,0.6,0.187,0.912s-0.063,0.616-0.187,0.912s-0.298,0.558-0.522,0.786
		c-0.224,0.228-0.485,0.408-0.785,0.54c-0.301,0.132-0.623,0.198-0.967,0.198s-0.664-0.066-0.959-0.198
		c-0.297-0.132-0.559-0.313-0.787-0.546c-0.228-0.232-0.403-0.494-0.527-0.786c-0.124-0.292-0.186-0.594-0.186-0.906
		S100.293,68.503,100.417,68.207z M103.608,70.091c0.244-0.256,0.367-0.58,0.367-0.972s-0.123-0.716-0.367-0.972
		c-0.244-0.256-0.55-0.384-0.918-0.384c-0.359,0-0.664,0.128-0.912,0.384c-0.248,0.256-0.371,0.58-0.371,0.972
		s0.123,0.716,0.371,0.972c0.248,0.256,0.553,0.384,0.912,0.384C103.059,70.475,103.364,70.347,103.608,70.091z"/>
	<path d="M105.438,66.827l1.177-0.144l0.863,2.496l1.057-2.4h0.527l1.057,2.352l0.863-2.448l1.177,0.144l-1.645,4.584h-0.527
		l-1.188-2.496l-1.188,2.496h-0.528L105.438,66.827z"/>
</g>
</svg>
