<?xml version="1.0" encoding="utf-8"?>
<!-- Generator: Adobe Illustrator 16.0.0, SVG Export Plug-In . SVG Version: 6.00 Build 0)  -->
<!DOCTYPE svg PUBLIC "-//W3C//DTD SVG 1.1//EN" "http://www.w3.org/Graphics/SVG/1.1/DTD/svg11.dtd">
<svg version="1.1" id="Layer_1" xmlns="http://www.w3.org/2000/svg" xmlns:xlink="http://www.w3.org/1999/xlink" x="0px" y="0px"
	 width="137.085px" height="287.3px" viewBox="0 0 137.085 287.3" enable-background="new 0 0 137.085 287.3" xml:space="preserve">
<g id="XMLID_671_">
	<g id="XMLID_1111_">
		<g id="XMLID_1145_">
			<path id="XMLID_1331_" fill="#424142" d="M73.485,287.3c-1.101,0-2.2-0.3-3.301-0.8c-1.699-0.9-3-2.4-3.6-4.2l-34.6-106.1
				c-1.2-3.8,0.8-7.9,4.6-9.101l106.1-34.6c1.801-0.6,3.801-0.4,5.5,0.4c1.7,0.899,3,2.399,3.601,4.199l34.6,106.101
				c1.2,3.8-0.8,7.899-4.6,9.1L75.685,286.9C74.985,287.2,74.185,287.3,73.485,287.3z M39.285,174.2l34.399,105.5l105.5-34.4
				l-34.399-105.5L39.285,174.2z"/>
		</g>
		<g id="XMLID_1113_">
			<g id="XMLID_1144_">
				<circle id="XMLID_1348_" fill="#424142" cx="91.585" cy="245.9" r="10.2"/>
			</g>
			<g id="XMLID_1143_">
				<circle id="XMLID_1347_" fill="#424142" cx="73.685" cy="191" r="10.2"/>
			</g>
			<g id="XMLID_1128_">
				<circle id="XMLID_1346_" fill="#424142" cx="144.785" cy="228.5" r="10.2"/>
			</g>
			<g id="XMLID_1127_">
				<circle id="XMLID_1345_" fill="#424142" cx="126.885" cy="173.6" r="10.2"/>
			</g>
		</g>
	</g>
	<g id="XMLID_672_">
		<g id="XMLID_703_">
			<path id="XMLID_1330_" fill="#424142" d="M60.085,164.9l-58.6-77.4c-1.2-1.5-1.7-3.4-1.4-5.3c0.3-1.9,1.3-3.601,2.8-4.8
				l89-67.301c1.5-1.199,3.4-1.6,5.3-1.399c1.9,0.3,3.601,1.3,4.8,2.8l67.301,89c1.199,1.5,1.699,3.4,1.399,5.3
				c-0.3,1.9-1.3,3.601-2.8,4.8l-49.1,37.101l-4.601-6l48.801-36.9l-66.9-88.5l-88.5,66.9l58.4,77.1L60.085,164.9z"/>
		</g>
		<g id="XMLID_680_">
			<g id="XMLID_702_">
				<circle id="XMLID_1344_" fill="#424142" cx="45.485" cy="89.1" r="10.2"/>
			</g>
			<g id="XMLID_684_">
				<circle id="XMLID_1343_" fill="#424142" cx="91.585" cy="54.3" r="10.2"/>
			</g>
			<g id="XMLID_682_">
				<circle id="XMLID_1342_" fill="#424142" cx="79.285" cy="133.8" r="10.2"/>
			</g>
			<g id="XMLID_681_">
				<circle id="XMLID_1341_" fill="#424142" cx="125.385" cy="98.9" r="10.2"/>
			</g>
			<g id="XMLID_704_">
				<circle id="XMLID_1340_" fill="#424142" cx="85.385" cy="95.2" r="10.2"/>
			</g>
		</g>
	</g>
</g>
</svg>
