<?xml version="1.0" encoding="utf-8"?>
<!-- Generator: Adobe Illustrator 16.0.0, SVG Export Plug-In . SVG Version: 6.00 Build 0)  -->
<!DOCTYPE svg PUBLIC "-//W3C//DTD SVG 1.1//EN" "http://www.w3.org/Graphics/SVG/1.1/DTD/svg11.dtd">
<svg version="1.1" id="Layer_1" xmlns="http://www.w3.org/2000/svg" xmlns:xlink="http://www.w3.org/1999/xlink" x="0px" y="0px"
	 width="838.458px" height="825.493px" viewBox="-267.883 -103.46 838.458 825.493"
	 enable-background="new -267.883 -103.46 838.458 825.493" xml:space="preserve">
<g>
	<path id="Shape" fill="#DB0926" d="M76.124,239.418c-32.734,32.726-21.829,54.546-21.829,54.546l-70.954,70.92
		c-5.79,5.786-9.042,13.635-9.042,21.821c0,8.184,3.253,16.033,9.042,21.819l30.114,30.122c5.207,5.206,12.105,8.379,19.446,8.942
		l51.491,3.96c5.042,0.392,9.573,3.225,12.134,7.586l68.574,116.89c11.971,20.354,37.337,28.441,58.88,18.773
		c34.031-15.207,89.003-46.788,124.876-82.662c35.875-35.874,67.482-90.803,82.689-124.86c9.66-21.552,1.553-46.923-18.816-58.88
		l-116.908-68.522c-4.359-2.56-7.193-7.093-7.584-12.135l-3.961-51.49c-0.564-7.342-3.736-14.239-8.943-19.447l-30.105-30.165
		c-5.785-5.791-13.635-9.042-21.819-9.042c-8.185,0-16.034,3.252-21.82,9.042l-70.92,70.912
		C130.668,217.548,108.848,206.686,76.124,239.418z"/>
	<path id="Shape_2_" fill="#FFFFFF" d="M203.513,529.771l-19.345-32.257c-2.18-3.454-2.887-7.637-1.963-11.616
		c0.923-3.979,3.399-7.421,6.877-9.563c25.548-14.86,49.244-32.696,70.59-53.139c20.489-21.418,38.366-45.194,53.255-70.826
		c2.139-3.476,5.578-5.953,9.553-6.879c3.975-0.927,8.156-0.226,11.611,1.947l32.34,19.345c7.447,4.303,10.18,13.711,6.195,21.334
		c-16.762,31.283-37.619,60.192-62.02,85.964c-25.717,24.33-54.556,45.128-85.761,61.851
		C217.233,539.925,207.824,537.209,203.513,529.771z"/>
	<circle id="Oval" fill="#FFFFFF" cx="168.854" cy="332.153" r="84.865"/>
	<g>
		<path id="Shape_9_" d="M-22.636,414.585l30.123,30.123c6.649,6.645,15.457,10.694,24.832,11.417l51.489,3.96
			c2.256,0.184,4.279,1.458,5.418,3.413l68.524,116.907c14.17,24.114,44.222,33.694,69.734,22.229
			c46.784-21.023,89.825-49.538,127.428-84.42c34.883-37.604,63.396-80.646,84.422-127.428
			c11.465-25.535,1.857-55.606-22.291-69.762l-116.906-68.522c-1.955-1.139-3.23-3.163-3.412-5.418l-3.961-51.499
			c-0.725-9.371-4.773-18.175-11.418-24.823l-30.062-30.098c-15.392-15.359-40.313-15.359-55.705,0l-10.334,10.334l-48.513-48.512
			c-9.362-9.354-24.531-9.353-33.894,0.001l-10.932,10.871c-9.353,9.359-9.353,24.526,0,33.886l48.521,48.521l-12.271,12.313
			c-10.096-1.877-31.445-1.288-58.069,25.346c-26.625,26.632-27.231,47.957-25.345,58.026L32.473,303.72l-48.52-48.521
			c-9.36-9.352-24.527-9.352-33.886,0l-10.907,10.906c-9.344,9.366-9.344,24.527-0.001,33.894l48.513,48.513l-10.308,10.342
			C-38.003,374.253-38.003,399.187-22.636,414.585L-22.636,414.585z M103.974,135.187c-2.69-2.695-2.69-7.059,0-9.755l10.905-10.905
			c2.731-2.608,7.031-2.609,9.763,0l48.512,48.513l-9.898,9.906l-10.761,10.761L103.974,135.187z M-0.262,336.454l-48.512-48.513
			c-2.696-2.695-2.696-7.065-0.001-9.762l10.907-10.906c1.293-1.294,3.047-2.021,4.876-2.021c1.83,0,3.584,0.728,4.876,2.021
			l48.521,48.521l-10.76,10.761L-0.262,336.454z M-10.595,370.92l30.396-30.396l18.704-18.696l21.811-21.812
			c2.456-2.583,3.128-6.383,1.708-9.652c-0.299-0.707-7.168-17.611,20.13-44.902c27.299-27.29,44.194-20.429,44.699-20.223
			c3.287,1.643,7.258,0.996,9.854-1.605l21.812-21.812l18.696-18.705l30.396-30.395c8.728-8.696,22.845-8.696,31.572-0.001
			l30.124,30.124c3.764,3.769,6.057,8.759,6.467,14.071l3.961,51.491c0.602,7.827,5.002,14.862,11.775,18.833l116.906,68.531
			c16.646,9.743,23.27,30.468,15.361,48.06c-20.152,44.897-47.486,86.213-80.932,122.316
			c-36.109,33.437-77.43,60.763-122.334,80.905c-17.592,7.9-38.311,1.278-48.06-15.36l-68.531-116.907
			c-3.969-6.772-11.005-11.173-18.833-11.775l-51.481-3.96c-5.314-0.408-10.308-2.702-14.08-6.468l-30.122-30.123
			C-19.278,393.739-19.278,379.64-10.595,370.92L-10.595,370.92z"/>
		<path id="Shape_10_" d="M184.724,469.011c-5.466,3.249-9.361,8.598-10.777,14.797c-1.419,6.182-0.368,12.672,2.928,18.091
			l19.336,32.265c6.721,11.32,21.129,15.396,32.785,9.275c31.835-17.2,61.292-38.474,87.629-63.283
			c24.896-26.404,46.229-55.952,63.455-87.895c6.133-11.677,2.031-26.112-9.328-32.819l-32.314-19.319
			c-3.795-2.279-8.137-3.485-12.563-3.49c-8.287-0.034-15.982,4.293-20.258,11.394c-14.564,25.005-32.006,48.22-51.968,69.171
			C232.773,437.095,209.64,454.484,184.724,469.011L184.724,469.011z M320.259,356.754c0.977-1.536,2.533-2.613,4.316-2.985
			c1.781-0.373,3.637-0.01,5.148,1.007l32.307,19.319c3.5,1.94,4.869,6.283,3.115,9.881c-16.344,30.613-36.723,58.895-60.588,84.088
			c-25.129,23.783-53.323,44.104-83.831,60.425c-0.976,0.549-2.073,0.843-3.191,0.854c-2.76-0.054-5.293-1.537-6.691-3.917
			L191.5,493.169c-1.013-1.629-1.347-3.59-0.931-5.462c0.379-1.68,1.431-3.13,2.909-4.011c26.125-15.254,50.37-33.521,72.235-54.425
			C286.671,407.316,304.978,382.977,320.259,356.754L320.259,356.754z"/>
		<path id="Shape_11_" d="M234.893,398.192c26.712-26.711,34.704-66.884,20.248-101.784c-14.456-34.902-48.512-57.658-86.288-57.658
			s-71.833,22.756-86.288,57.657c-14.457,34.902-6.465,75.074,20.248,101.785C139.308,434.611,198.397,434.611,234.893,398.192z
			 M114.879,278.179c29.803-29.776,78.099-29.763,107.884,0.031s29.786,78.091,0,107.885c-29.785,29.794-78.081,29.81-107.884,0.031
			C85.124,356.296,85.123,308.01,114.879,278.179z"/>
		<path id="Shape_12_" d="M191.253,354.553c9.065-9.061,11.781-22.689,6.878-34.533c-4.902-11.842-16.457-19.563-29.274-19.564
			c-12.817,0-24.371,7.724-29.274,19.564c-4.903,11.843-2.188,25.474,6.879,34.532C158.994,366.521,178.721,366.521,191.253,354.553
			L191.253,354.553z M158.527,321.827c5.778-5.527,14.884-5.527,20.66,0.001c4.184,4.179,5.438,10.467,3.177,15.932
			s-7.593,9.027-13.507,9.028c-5.914,0-11.245-3.564-13.506-9.028C153.089,332.296,154.344,326.006,158.527,321.827L158.527,321.827
			z"/>
	</g>
	<g>
		<path d="M490.747,526.488l-24.654,24.654l-8.861-5.145l18.652-18.652l-14.793-14.793l-13.434,13.435l-6.719-6.718l13.436-13.434
			l-22.654-22.653l7.289-8.433L490.747,526.488z"/>
		<path d="M461.663,555.573l-11.076,11.076c-5.861,5.86-11.684,8.944-17.473,9.255c-5.787,0.309-10.828-1.68-15.115-5.967
			c-3.525-3.526-5.467-7.611-5.822-12.256c-0.357-4.646,1.01-9.136,4.107-13.472l-37.018-5.145l3.932-10.505l42.305,6.86
			l0.143-0.143l-23.01-23.011l7.289-8.433L461.663,555.573z M430.505,540.138l-4.145,4.145c-2.811,2.811-4.299,5.871-4.465,9.183
			c-0.168,3.312,0.988,6.205,3.465,8.682c2.572,2.573,5.539,3.703,8.896,3.396c3.359-0.31,6.373-1.799,9.041-4.467l4.072-4.072
			L430.505,540.138z"/>
		<path d="M425.933,591.305l-25.299,25.298l-8.861-5.146l19.295-19.295l-14.793-14.793l-15.506,15.507l-6.719-6.718l15.508-15.507
			l-15.936-15.936l-21.797,21.796l-4.002-10.004l26.656-26.656L425.933,591.305z"/>
		<path d="M392.845,624.393l-25.297,25.296l-8.861-5.145l19.295-19.295l-14.793-14.793l-15.508,15.508l-6.719-6.718l15.508-15.507
			l-15.936-15.937L318.739,609.6l-4.002-10.006l26.654-26.654L392.845,624.393z"/>
	</g>
	<g>
		<path d="M134.022,20.623l-14.721,14.721c-5.192,5.192-10.742,8.075-16.65,8.647c-5.908,0.57-11.124-1.405-15.65-5.932
			c-4.718-4.718-6.849-10.303-6.396-16.757c0.453-6.457,4.037-13.043,10.755-19.76c1.477-1.478,2.857-2.717,4.145-3.717
			l-20.51-20.509l7.289-8.433L134.022,20.623z M102.506,4.829c-1.618,0.953-3.596,2.597-5.931,4.931
			c-3.43,3.431-5.347,6.92-5.753,10.47c-0.403,3.549,0.798,6.729,3.609,9.54c2.573,2.573,5.586,3.774,9.04,3.609
			c3.455-0.167,6.754-1.822,9.898-4.967l6.359-6.359L102.506,4.829z"/>
		<path d="M51.984,1.899l23.082,80.252l-79.68-25.226l6.217-9.362L32.546,57.64l19.438-19.438L42.48,6.688L51.984,1.899z
			 M41.836,61.213l18.794,6.503l-5.646-19.652L41.836,61.213z"/>
		<path d="M43.98,110.664l-11.076,11.077c-5.86,5.859-11.684,8.944-17.472,9.254c-5.789,0.309-10.827-1.679-15.115-5.967
			c-3.526-3.525-5.467-7.61-5.824-12.256c-0.356-4.645,1.012-9.136,4.109-13.471l-37.018-5.146l3.931-10.504L7.82,90.512
			l0.143-0.143l-23.01-23.011l7.289-8.433L43.98,110.664z M12.823,95.229l-4.145,4.145c-2.811,2.811-4.299,5.872-4.467,9.183
			c-0.166,3.312,0.988,6.205,3.467,8.684c2.572,2.572,5.538,3.702,8.896,3.394c3.358-0.31,6.373-1.798,9.04-4.466l4.073-4.072
			L12.823,95.229z"/>
		<path d="M-72.931,122.099l46.808,5.932l0.143-0.143l-24.797-24.798l7.288-8.433l51.453,51.452l-7.289,8.433l-25.369-25.369
			l-0.143,0.144l5.359,47.38l-10.576,2.43l-4.646-41.377l-42.448-4.86L-72.931,122.099z"/>
		<path d="M-30.411,184.483l-7.29,8.434l-51.452-51.453l7.289-8.433L-30.411,184.483z"/>
		<path d="M-105.087,157.398l7.003-8.146l53.024,53.024l-69.103-1.072l33.516,33.515l-7.005,8.147l-53.667-53.668l69.676,1.645
			L-105.087,157.398z"/>
		<path d="M-148.323,279.242c4.049-0.239,7.79-1.071,11.22-2.5c3.431-1.431,6.55-3.551,9.361-6.361
			c2.478-2.478,4.42-5.349,5.824-8.612c1.405-3.263,2.156-6.705,2.252-10.325c0.095-3.622-0.537-7.183-1.894-10.684
			c-1.357-3.502-3.49-6.706-6.396-9.612s-6.11-5.038-9.611-6.396s-7.063-1.99-10.685-1.895s-7.063,0.847-10.325,2.252
			c-3.264,1.404-6.134,3.347-8.612,5.824c-2.524,2.524-4.573,5.432-6.146,8.718c-1.572,3.287-2.5,6.312-2.787,9.076l11.791,11.791
			l11.147-11.147l6.718,6.718l-18.722,18.723l-22.869-22.868c1.191-6.051,2.787-11.316,4.789-15.793
			c2.001-4.479,5.002-8.718,9.003-12.72c3.622-3.621,7.708-6.422,12.258-8.397c4.549-1.978,9.314-3.025,14.292-3.145
			s9.848,0.774,14.612,2.681c4.765,1.903,9.1,4.811,13.007,8.718c3.906,3.906,6.813,8.241,8.719,13.007
			c1.905,4.764,2.799,9.634,2.681,14.613c-0.119,4.979-1.167,9.743-3.145,14.293c-1.977,4.549-4.777,8.635-8.398,12.256
			c-8.146,8.146-17.531,12.147-28.154,12.005L-148.323,279.242z"/>
	</g>
</g>
</svg>
