<?xml version="1.0" encoding="utf-8"?>
<!-- Generator: Adobe Illustrator 16.0.0, SVG Export Plug-In . SVG Version: 6.00 Build 0)  -->
<!DOCTYPE svg PUBLIC "-//W3C//DTD SVG 1.1//EN" "http://www.w3.org/Graphics/SVG/1.1/DTD/svg11.dtd">
<svg version="1.1" id="Layer_1" xmlns="http://www.w3.org/2000/svg" xmlns:xlink="http://www.w3.org/1999/xlink" x="0px" y="0px"
	 width="2834.65px" height="2834.65px" viewBox="0 0 2834.65 2834.65" enable-background="new 0 0 2834.65 2834.65"
	 xml:space="preserve">
<path fill-rule="evenodd" clip-rule="evenodd" fill="#141416" d="M1524.025,1320.424c37.928-43.638,90.803-44.872,135.792-3.199
	c9.097,8.424,16.854,22.515,31.957,14.682c15.071-7.816,12.942-23.461,11.377-37.388c-8.472-75.37-8.571-75.343-87.51-81.983
	c-24.291-2.044-48.642-3.609-72.834-6.483c-24.063-2.86-47.976-5.574-64.711-27.774c-8.813-11.691-24.114-12.234-38.413-12.754
	c-29.565-1.073-60.142,4.46-83.183-24.258c-11.045-13.762-25.557,0-37.477,6.285c-57.203,30.156-112.475,64.342-177.981,75.503
	c-61.81,10.529-122.457-4.122-183.675-5.776c-97.653-2.642-194.57-18.793-292.541-15.97c-29.039,0.837-55.624,14.439-85.65,13.157
	c-30.867-1.319-47.169-20.639-58.915-42.412c-12.016-22.265-1.476-41.554,16.592-61.211
	c46.991-51.126,107.123-66.522,171.857-71.197c49.746-3.592,55.682-7.457,55.559-57.346c-0.044-17.706,3.455-32.357,18.253-42.524
	c31.639-21.739,41.905-61.027,70.544-85.185c6.223-5.25,11.257-15.232,17.85-16.209c67.507-9.997,87.263-77.171,134.531-111.22
	c18.718-13.479,32.204-33.406,52.462-45.795c16.958-10.365,35.238-16.671,52.019-5.547c19.151,12.696,36.807,28.167,33.563,56.557
	c-2.317,20.29-7.197,39.452-18.899,55.449c-20.28,27.723,1.145,40.962,16.189,58.56c15.693,18.355,28.666,16.08,47.271,3.807
	c31.182-20.574,65.077-34.722,104.095-34.934c28.382-0.15,52.534,5.062,71.266,28.341c6.671,8.294,17.351,22.313,28.379,9.104
	c28.937-34.674,69.939-22.026,105.386-28.472c23.797-4.326,36.906-8.902,41.273-35.689c7.676-47.087,36.612-70.179,84.13-70.248
	c47.702-0.068,95.742-2.177,142.781-5.734c74.71-5.649,129.787,24.347,180.88,71.406
	c134.562,123.947,258.689,258.358,388.313,387.261c76.867,76.443,152.467,154.158,229.111,230.827
	c20.841,20.843,24.248,42.125,3.849,63.709c-90.407,95.674-184.673,186.949-296.97,257.497
	c-52.698,33.105-109.077,51.857-171.766,45.368c-15.762-1.63-25.351,1.559-35.135,14.671
	c-32.873,44.063-74.141,80.524-112.253,119.85c-24.391,25.17-55.682,20.396-85.485,19.736
	c-40.687-0.898-75.928,39.151-66.561,77.643c12.919,53.082,7.967,101.012-36.349,139.76c-21.893,19.146-40.289,42.299-62.227,61.383
	c-35.58,30.945-74.737,53.809-124.49,56.055c-55.415,2.505-102.769,25.822-141.763,65.715c-23.181,23.711-47.233,27.43-72.12,2.023
	c-4.022-4.104-8.984-9.746-13.885-10.153c-83.005-6.894-142.621-62.89-209.648-101.747
	c-122.72-71.146-240.782-149.465-338.465-254.603c-39.124-42.11-32.867-74.218,22.166-92.655
	c55.972-18.752,112.498-35.956,169.206-52.374c26.917-7.792,33.01-19.935,19.893-45.594c-23.465-45.911-8.673-72.752,42.34-79.023
	c30.303-3.725,58.457-5.933,73.521-40.709c10.806-24.945,13.147-44.066-3.199-67.363c-24.9-35.487-20.41-61.105,11.141-92.625
	c10.728-10.718,21.462-21.429,32.139-32.197c21.465-21.649,45.299-25.111,67.66-3.711c29.671,28.399,61.313,33.43,97.936,16.315
	c16.138-7.546,33.666-7.222,51.284-7.43c31.943-0.373,39.517-13.141,26.312-41.15c-12.341-26.186-26.213-46.725-56.304-60.774
	c-50.894-23.759-54.383-60.771-18.086-110.543c21.318-29.237,49.53-46.502,89.594-43.649c52.463,3.739,91.357,56.605,74.444,106.716
	c-10.188,13.701-20.447,27.354-30.543,41.124c-10.662,14.535-2.132,23.998,9.888,30.238c13.308,6.907,19.531-4.238,21.007-13.892
	C1503.715,1350.566,1517.405,1337.303,1524.025,1320.424z M1891.83,1572.115c0.116,2.091,0.68,4.053,1.691,5.888
	c-0.223,1.146-0.52,2.28-0.66,3.435c-11,91.658,9.696,186.143-26.256,275.888c-6.798,16.972,7.057,23.67,25.296,19.483
	c50.505-11.596,124.941-91.959,134.743-142.341c18.161-93.332,26.609-188.005,41.69-281.693
	c9.278-57.657,2.867-116.063,13.438-173.491c4.563-24.804-6.243-35.132-34.496-38.413c-45.45-5.28-92.038,11.015-134.176-0.772
	c-47.299-13.229-94.263,0.789-140.3-10.892c-8.735-2.214-26.021-7.604-26.138,12.136c-0.242,41.974,0.629,83.958,1.302,125.933
	c0.1,6.011,3.117,11.599,9.006,13.595c7.133,2.419,9.74-3.879,13.147-8.51c19.258-26.188,40.347-51.239,38.911-87.021
	c-0.662-16.514,10.94-25.464,25.728-28.243c19.118-3.592,14.303,12.703,17.354,22.761c4.688,15.458,10.711,30.512,15.505,45.945
	c13.544,43.594,6.374,90.192,19.121,133.933c2.15,37.524-6.995,75.613,5.663,112.607L1891.83,1572.115z M1815.913,760.67
	c-37.063-0.003-74.127-0.007-111.189-0.007c-31.729-5.129-62.254,7.139-93.849,6.36c-18.951-0.468-22.59,14.583-25.949,30.891
	c-11.187,54.301-18.332,109.276-31.872,163.28c-13.742,54.824-21.322,111.261-29.955,167.244
	c-1.637,10.618-11.008,28.153,14.565,30.149c170.822,13.335,340.978,38.03,513.084,28.383c13.902-0.779,27.624,0.707,41.561,3.544
	c16.046,3.264,22.949,9.651,25.438,26.735c7.638,52.438,18.451,104.409,26.513,156.792c4.497,29.227,0.328,58.037-16.192,83.429
	c-5.826,8.957-8.83,17.932-11.671,28.184c-18.503,66.827-14.422,136.056-23.939,203.613c-4.699,33.342,9.593,37.166,32.907,35.365
	c28.868-2.229,56.96-9.802,83.148-22.751c123.298-60.955,219.576-155.508,314.311-252.169c16.387-16.723,2.625-24.258-6.603-33.53
	c-191.591-192.543-382.679-385.593-575.588-576.811C1905.719,804.763,1868.276,769.716,1815.913,760.67z M1219.007,1922.576
	c-41.649,30.758-42.213,33.092-12.666,70.455c15.885,20.089,32.815,39.363,49.547,58.765
	c53.45,61.97,96.932,129.706,122.365,208.189c13.728,42.36,15.933,42.876,49.811,10.69c32.046-30.44,68.781-52.316,113.226-55.108
	c78.606-4.941,136.674-44.321,186.81-101.586c29.739-33.967,42.083-68.747,20.724-110.885
	c-14.952-29.497-9.275-52.665,18.755-71.096c48.896-32.151,62.449-82.529,69.838-136.448
	c14.479-105.666,4.863-211.767,6.012-317.646c0.232-21.243-8.596-42.821-14.774-63.795c-2.997-10.181-10.748-16.524-19.917-4.703
	c-17.256,22.251-36.339,46.085-25.82,75.752c27.494,77.53,15.355,158.725,25.26,237.785c3.137,25.03-2.361,47.757-17.573,69.041
	c-32.941,46.089-68.375,90.767-87.796,145.245c-2.912,8.168-10.947,15.085-17.878,21.128c-17.084,14.887-30.218,32.62-35.836,54.314
	c-10.358,40.02-36.923,55.514-76.081,54.909c-11.637-0.178-23.399,0.14-34.92,1.651c-37.703,4.944-63.317-7.584-72.261-46.961
	c-3.77-16.612-28.027-36.957-5.342-48.536c22.193-11.329,31.086,17.577,40.601,33.034c22.925,37.248,54.636,46.428,87.226,18.339
	c45.327-39.063,82.236-84.752,95.677-145.707c11.654-52.855,8.188-61.604-42.742-76.642c-23.144-6.831-18.355-15.348-5.578-27.668
	c25.331-24.425,53.566-21.77,81.522,7.86c23.317,24.716,35.583,24.555,48.809-7.341c12.856-30.997,18.339-65.125-5.078-95.161
	c-16.196-20.775-22.043-38.978-8.008-65.504c21.935-41.451,6.802-90.517-30.118-121.237c-8.824-7.341-16.719-9.5-24.35-1.705
	c-26.145,26.701-49.623,13.793-78.327,1.549c-46.146-19.689-94.423-36.359-147.083-19.955
	c-42.579,13.267-57.873,45.634-67.657,84.293c-2.553,10.092-10.434,21.394-21.718,19.459c-15.745-2.699-12.139-20.252-10.263-28.598
	c9.255-41.109-14.812-39.954-39.11-29.722c-44.004,18.533-80.797,11.592-114.19-21.363c-5.52-5.447-11.767-11.812-21.295-9.016
	c-30.754,9.029-47.329,51.974-28.317,78.063c21.906,30.057,21.417,59.038,4.351,90.79c-11.589,21.564-23.649,42.726-40.368,60.408
	c-9.46,10.003-8.766,17.484-4.809,29.876c14.005,43.881,33.301,84.7,66.444,120.304c-15.188,3.537-25.72,4.744-35.201,8.568
	c-8.387,3.38-24.001-1.193-22.463,15.58c1.169,12.774,13.311,16.158,22.631,18.804
	C1178.81,1916.079,1197.302,1918.438,1219.007,1922.576z M1092.435,713.3c-48.464,31.492-85.465,71.074-119.706,113.1
	c-9.446,11.596-3.141,26.486,6.11,38.516c14.142,18.379,29.192,36.506,37.142,58.539c3.711,10.287,8.872,25.225-1.941,32.012
	c-9.764,6.124-22.269-0.813-31.165-9.442c-19.237-18.663-38.423-37.378-57.777-55.921c-20.556-19.695-36.803-12.238-51.977,7.73
	c-16.555,21.793-5.239,40.443,7.481,56.837c21.028,27.101,48.666,46.239,81.624,57.076c23.444,7.707,15.396,19.083,2.642,29.521
	c-11.179,9.148-24.07,5.792-36.476,2.054c-34.497-10.393-55.125-37.152-76.081-63.826c-7.495-9.542-10.509-29.053-30.269-17.962
	c-16.445,9.234-15.375,23.909-11.336,39.52c11.415,44.134,47.845,59.376,84.608,75.093c8.134,3.479,23.766,4.275,19.651,19.06
	c-2.977,10.684-13.964,13.677-25.181,14.925c-25.16,2.802-49.165-0.588-70.114-14.641c-21.753-14.593-44.749-17.293-69.762-14.002
	c-23.062,3.035-46.882,2.44-69.291,7.884c-45.874,11.148-89.666,27.422-119.043,71.556c30.491,11.603,55.921-2.252,81.86-3.37
	c133.147-5.742,265.251,11.213,397.63,18.704c67.486,3.817,126.397-8.742,187.725-33.632
	c79.393-32.22,130.229-83.313,144.24-168.823c1.487-9.063,5.113-17.778,6.624-26.841c1.1-6.616,2.228-14.189,0.133-20.218
	c-15.823-45.518-72.592-73.063-119.19-58.143c-42.565,13.629-79.509,37.302-113.438,65.784c-7.915,6.647-16.319,11.045-25.242,6.77
	c-10.868-5.205-5.974-16.708-4.729-24.979c1.787-11.875,12.747-23.683-1.859-34.421c-18-13.232-26.541-39.363-54.766-38.881
	c-12.139,0.208-10.53-8.144-8.766-17.238c3.007-15.529,13.219-26.824,20.328-39.988
	C1083.379,764.815,1100.005,745.322,1092.435,713.3z M1315.159,2263.7c6.336-9.866,0.267-13.797-2.382-18.362
	c-77.079-132.781-168.504-255.901-257.001-380.986c-4.303-6.08-7.126-12.447-18.933-9.672
	c-71.891,16.886-142.07,38.971-215.995,63.354C965.088,2068.922,1143.63,2161.103,1315.159,2263.7z M1536.051,867.092
	c-30.815,4.002-59.062,8.886-87.509,10.841c-13.841,0.95-16.038,5.738-17.897,18.362c-8.24,55.894-18.554,111.479-27.6,167.261
	c-8.301,51.157-7.83,50.114,42.166,58.303c25.44,4.166,37.514-2.901,42.514-28.833c7.399-38.372,21.127-75.708,26.339-114.272
	C1519.104,941.427,1537.818,906.646,1536.051,867.092z M1588.527,1333.78c-5.55-0.485-14.114-1.278-19.814,6.097
	c-15.588,20.17-33.287,42.323-30.71,67.458c2.286,22.323,29.981,19.713,47.366,26.343c5.321,2.026,10.947,3.38,16.534,4.552
	c20.112,4.221,49.452,18.318,58.427,10.146c16.708-15.218-9.48-37.172-10.089-58.159
	C1649.147,1352.634,1622.672,1340.369,1588.527,1333.78z M1423.033,1328.325c25.983,1.702,34.452-17.029,36.67-33.936
	c3.072-23.441-12.057-39.75-35.152-44.106c-22.651-4.272-65.422,26.079-61.57,45.361
	C1369.505,1328.322,1402.686,1318.924,1423.033,1328.325z M1046.862,1734.704c17.487,32.579,34.729,64.782,52.063,96.932
	c3.876,7.187,8.356,16.024,18.086,11.527c11.244-5.195,2.026-13.783,0.987-20.902c-3.188-21.854-14.36-41.007-20.942-61.498
	C1088.505,1734.133,1073.745,1727.438,1046.862,1734.704z"/>
<path fill-rule="evenodd" clip-rule="evenodd" fill="#C8C6C5" d="M1524.025,1320.424c-6.62,16.879-20.311,30.143-23.227,49.24
	c-1.476,9.654-7.699,20.799-21.007,13.892c-12.02-6.241-20.55-15.704-9.888-30.238c10.096-13.77,20.355-27.422,30.543-41.124
	C1508.305,1314.936,1516.164,1317.68,1524.025,1320.424z"/>
<path fill-rule="evenodd" clip-rule="evenodd" fill="#0F53A4" d="M1815.913,760.67c52.363,9.046,89.806,44.093,124.719,78.703
	c192.909,191.217,383.997,384.267,575.588,576.811c9.228,9.272,22.989,16.807,6.603,33.53
	c-94.734,96.661-191.013,191.214-314.311,252.169c-26.188,12.949-54.28,20.522-83.148,22.751
	c-23.314,1.801-37.606-2.023-32.907-35.365c9.518-67.558,5.437-136.786,23.939-203.613c2.841-10.252,5.845-19.227,11.671-28.184
	c16.521-25.393,20.689-54.202,16.192-83.429c-8.062-52.384-18.875-104.354-26.513-156.792c-2.488-17.084-9.392-23.472-25.438-26.735
	c-13.937-2.837-27.658-4.323-41.561-3.544c-172.106,9.647-342.262-15.048-513.084-28.383c-25.573-1.996-16.202-19.531-14.565-30.149
	c8.633-55.982,16.213-112.42,29.955-167.244c13.54-54.004,20.686-108.979,31.872-163.28c3.359-16.308,6.998-31.359,25.949-30.891
	c31.595,0.779,62.12-11.49,93.849-6.36C1741.786,769.819,1778.85,769.88,1815.913,760.67z"/>
<path fill-rule="evenodd" clip-rule="evenodd" fill="#FAF9F9" d="M1219.007,1922.576c-21.705-4.139-40.197-6.497-57.934-11.527
	c-9.32-2.646-21.462-6.029-22.631-18.804c-1.538-16.773,14.077-12.2,22.463-15.58c9.48-3.824,20.013-5.031,35.201-8.568
	c-33.143-35.604-52.438-76.423-66.444-120.304c-3.957-12.392-4.651-19.873,4.809-29.876c16.719-17.683,28.779-38.844,40.368-60.408
	c17.067-31.752,17.556-60.733-4.351-90.79c-19.012-26.09-2.437-69.034,28.317-78.063c9.528-2.796,15.775,3.568,21.295,9.016
	c33.393,32.955,70.186,39.896,114.19,21.363c24.298-10.232,48.365-11.388,39.11,29.722c-1.876,8.346-5.481,25.898,10.263,28.598
	c11.285,1.935,19.166-9.367,21.718-19.459c9.784-38.659,25.078-71.026,67.657-84.293c52.66-16.404,100.937,0.266,147.083,19.955
	c28.704,12.244,52.183,25.152,78.327-1.549c7.631-7.795,15.525-5.636,24.35,1.705c36.92,30.721,52.053,79.786,30.118,121.237
	c-14.035,26.526-8.188,44.729,8.008,65.504c23.417,30.036,17.935,64.164,5.078,95.161c-13.226,31.896-25.491,32.057-48.809,7.341
	c-27.956-29.63-56.191-32.285-81.522-7.86c-12.777,12.32-17.565,20.837,5.578,27.668c50.931,15.037,54.396,23.786,42.742,76.642
	c-13.44,60.955-50.35,106.645-95.677,145.707c-32.59,28.089-64.301,18.909-87.226-18.339c-9.515-15.457-18.407-44.363-40.601-33.034
	c-22.686,11.579,1.572,31.924,5.342,48.536c8.943,39.377,34.558,51.905,72.261,46.961c11.521-1.512,23.283-1.829,34.92-1.651
	c39.158,0.604,65.723-14.89,76.081-54.909c5.618-21.694,18.752-39.428,35.836-54.314c6.931-6.043,14.966-12.96,17.878-21.128
	c19.421-54.479,54.854-99.156,87.796-145.245c15.212-21.284,20.71-44.011,17.573-69.041c-9.904-79.061,2.234-160.255-25.26-237.785
	c-10.519-29.667,8.564-53.501,25.82-75.752c9.169-11.821,16.92-5.478,19.917,4.703c6.179,20.974,15.007,42.552,14.774,63.795
	c-1.148,105.879,8.468,211.979-6.012,317.646c-7.389,53.919-20.942,104.297-69.838,136.448
	c-28.03,18.431-33.707,41.599-18.755,71.096c21.359,42.138,9.016,76.918-20.724,110.885
	c-50.136,57.265-108.203,96.645-186.81,101.586c-44.444,2.792-81.18,24.668-113.226,55.108
	c-33.878,32.186-36.083,31.67-49.811-10.69c-25.433-78.483-68.915-146.22-122.365-208.189
	c-16.732-19.401-33.663-38.676-49.547-58.765C1176.793,1955.668,1177.357,1953.334,1219.007,1922.576z M1311.684,1586.581
	c-12.871,15.905-23.137,41.735-39.083,45.922c-56.502,14.828-74.485,70.667-116.463,99.792c-5.194,3.605-11.883,8.652-7.132,16.964
	c5.185,9.074,13.158,7.215,21.408,4.956c13.26-3.63,27.497-11.336,39.848-9.118c30.57,5.495,50.668,2.108,50.706-35.003
	c0.007-7.658,3.937-16.968,13.803-17.316c8.616-0.304,14.467,5.585,17.918,13.817c5.318,12.696,10.687,25.416,16.972,37.644
	c4.392,8.544,5.953,24.515,18.653,20.263c9.853-3.298,17.078-17.973,11.886-29.271
	C1318.542,1688.119,1317.832,1637.885,1311.684,1586.581z M1593.086,1846.983c-1.493,35.881-11.869,55.395-47.828,54.82
	c-18.52-0.297-25.576,18.192-22.572,36.612c2.979,18.26,5.994,36.684,11.359,54.314c3.052,10.027-3.718,28.813,18.353,26.578
	c20.184-2.043,18.324-17.091,19.391-31.096c1.042-13.663-6.391-27.887,12.977-38.525
	C1629.726,1924.979,1632.477,1895.352,1593.086,1846.983z M1352.41,1913.693c13.605-2.617,31.069-8.209,46.851-18.048
	c7.235-4.508,19.453-7.088,14.497-19.634c-5.161-13.048-16.268-6.507-23.923-3.602c-21.91,8.318-44.455,12.419-67.646,13.496
	c-8.188,0.379-18.595-0.783-19.767,9.11c-1.425,12.006,12.836,16.35,19.138,15.875
	C1331.026,1910.177,1338.914,1914.732,1352.41,1913.693z M1303.177,1961.488c44.961,8.769,71.748-15.242,102.929-20.15
	c4.248-0.67,5.687-6.654,4.292-11.749c-1.401-5.12-5.906-9.593-9.706-7.864C1371.938,1934.831,1338.238,1936.495,1303.177,1961.488z
	"/>
<path fill-rule="evenodd" clip-rule="evenodd" fill="#F9F9F8" d="M1092.435,713.3c7.57,32.022-9.056,51.516-20.31,72.353
	c-7.108,13.164-17.32,24.459-20.328,39.988c-1.764,9.094-3.373,17.447,8.766,17.238c28.225-0.482,36.766,25.648,54.766,38.881
	c14.606,10.738,3.646,22.546,1.859,34.421c-1.244,8.271-6.138,19.774,4.729,24.979c8.923,4.275,17.327-0.123,25.242-6.77
	c33.929-28.482,70.873-52.155,113.438-65.784c46.598-14.921,103.367,12.625,119.19,58.143c2.095,6.028,0.967,13.602-0.133,20.218
	c-1.511,9.063-5.137,17.778-6.624,26.841c-14.012,85.51-64.848,136.603-144.24,168.823c-61.327,24.89-120.239,37.449-187.725,33.632
	c-132.378-7.491-264.483-24.446-397.63-18.704c-25.939,1.118-51.369,14.972-81.86,3.37c29.377-44.134,73.169-60.408,119.043-71.556
	c22.409-5.444,46.229-4.85,69.291-7.884c25.013-3.291,48.009-0.591,69.762,14.002c20.949,14.053,44.954,17.443,70.114,14.641
	c11.216-1.248,22.204-4.241,25.181-14.925c4.115-14.784-11.517-15.58-19.651-19.06c-36.763-15.717-73.193-30.959-84.608-75.093
	c-4.04-15.611-5.109-30.286,11.336-39.52c19.76-11.09,22.774,8.42,30.269,17.962c20.957,26.674,41.584,53.433,76.081,63.826
	c12.406,3.739,25.297,7.095,36.476-2.054c12.754-10.438,20.802-21.814-2.642-29.521c-32.958-10.837-60.596-29.975-81.624-57.076
	c-12.72-16.394-24.036-35.043-7.481-56.837c15.174-19.968,31.421-27.426,51.977-7.73c19.354,18.543,38.54,37.258,57.777,55.921
	c8.896,8.629,21.4,15.566,31.165,9.442c10.813-6.787,5.652-21.725,1.941-32.012c-7.949-22.033-23-40.16-37.142-58.539
	c-9.251-12.03-15.557-26.92-6.11-38.516C1006.97,784.374,1043.971,744.792,1092.435,713.3z"/>
<path fill-rule="evenodd" clip-rule="evenodd" fill="#1153A3" d="M1886.737,1459.736c-12.747-43.741-5.577-90.339-19.121-133.933
	c-4.794-15.434-10.816-30.488-15.505-45.945c-3.052-10.058,1.764-26.353-17.354-22.761c-14.787,2.778-26.39,11.729-25.728,28.243
	c1.436,35.781-19.653,60.832-38.911,87.021c-3.407,4.631-6.015,10.929-13.147,8.51c-5.889-1.996-8.906-7.584-9.006-13.595
	c-0.673-41.974-1.544-83.958-1.302-125.933c0.116-19.74,17.402-14.35,26.138-12.136c46.037,11.681,93.001-2.337,140.3,10.892
	c42.138,11.787,88.726-4.508,134.176,0.772c28.253,3.281,39.059,13.609,34.496,38.413c-10.57,57.428-4.159,115.834-13.438,173.491
	c-15.081,93.688-23.529,188.361-41.69,281.693c-9.802,50.382-84.238,130.745-134.743,142.341
	c-18.239,4.187-32.094-2.512-25.296-19.483c35.952-89.745,15.256-184.229,26.256-275.888c0.141-1.154,0.438-2.289,0.66-3.431
	c5.44-3.685,2.987-5.109-1.691-5.892c0,0,0.57,0.229,0.574,0.226C1890.777,1534.789,1900.24,1496.684,1886.737,1459.736z"/>
<path fill-rule="evenodd" clip-rule="evenodd" fill="#1253A3" d="M1315.159,2263.7
	c-171.529-102.598-350.071-194.778-494.312-345.666c73.925-24.384,144.104-46.469,215.995-63.354
	c11.807-2.775,14.63,3.592,18.933,9.672c88.497,125.085,179.923,248.205,257.001,380.986
	C1315.426,2249.903,1321.495,2253.834,1315.159,2263.7z"/>
<path fill-rule="evenodd" clip-rule="evenodd" fill="#F7F7F6" d="M1536.051,867.092c1.768,39.555-16.947,74.335-21.988,111.661
	c-5.212,38.563-18.939,75.9-26.339,114.272c-5,25.932-17.073,33-42.514,28.833c-49.995-8.188-50.467-7.146-42.166-58.303
	c9.046-55.781,19.36-111.367,27.6-167.261c1.859-12.625,4.057-17.413,17.897-18.362
	C1476.989,875.978,1505.235,871.094,1536.051,867.092z"/>
<path fill-rule="evenodd" clip-rule="evenodd" fill="#F4F3F3" d="M1588.527,1333.78c34.145,6.589,60.62,18.854,61.714,56.437
	c0.608,20.987,26.797,42.941,10.089,58.159c-8.975,8.172-38.314-5.926-58.427-10.146c-5.587-1.172-11.213-2.525-16.534-4.552
	c-17.385-6.63-45.08-4.02-47.366-26.343c-2.577-25.136,15.122-47.288,30.71-67.458
	C1574.413,1332.501,1582.978,1333.294,1588.527,1333.78z"/>
<path fill-rule="evenodd" clip-rule="evenodd" fill="#F2F1F0" d="M1423.033,1328.325c-20.348-9.401-53.528-0.003-60.053-32.682
	c-3.852-19.282,38.919-49.633,61.57-45.361c23.096,4.357,38.225,20.666,35.152,44.106
	C1457.485,1311.296,1449.017,1330.027,1423.033,1328.325z"/>
<path fill-rule="evenodd" clip-rule="evenodd" fill="#F2F1F0" d="M1046.862,1734.704c26.882-7.266,41.643-0.571,50.193,26.059
	c6.582,20.491,17.754,39.644,20.942,61.498c1.039,7.119,10.256,15.707-0.987,20.902c-9.73,4.497-14.21-4.341-18.086-11.527
	C1081.591,1799.486,1064.35,1767.283,1046.862,1734.704z"/>
<path fill-rule="evenodd" clip-rule="evenodd" fill="#275CAB" d="M1815.913,760.67c-37.063,9.21-74.127,9.149-111.189-0.007
	C1741.786,760.663,1778.85,760.667,1815.913,760.67z"/>
<path fill-rule="evenodd" clip-rule="evenodd" fill="#275CAB" d="M1886.737,1459.736c13.503,36.947,4.04,75.053,5.667,112.604
	C1879.742,1535.35,1888.888,1497.261,1886.737,1459.736z"/>
<path fill-rule="evenodd" clip-rule="evenodd" fill="#275CAB" d="M1891.83,1572.115c4.679,0.782,7.132,2.207,1.691,5.892
	C1892.51,1576.168,1891.946,1574.206,1891.83,1572.115z"/>
<path fill-rule="evenodd" clip-rule="evenodd" fill="#151616" d="M1311.684,1586.581c6.148,51.304,6.859,101.538,28.516,148.649
	c5.191,11.298-2.033,25.973-11.886,29.271c-12.7,4.252-14.261-11.719-18.653-20.263c-6.285-12.228-11.654-24.947-16.972-37.644
	c-3.451-8.232-9.302-14.121-17.918-13.817c-9.866,0.349-13.796,9.658-13.803,17.316c-0.038,37.111-20.136,40.498-50.706,35.003
	c-12.351-2.218-26.588,5.488-39.848,9.118c-8.25,2.259-16.223,4.118-21.408-4.956c-4.75-8.312,1.938-13.358,7.132-16.964
	c41.978-29.125,59.961-84.964,116.463-99.792C1288.547,1628.316,1298.813,1602.486,1311.684,1586.581z"/>
<path fill-rule="evenodd" clip-rule="evenodd" fill="#181818" d="M1593.086,1846.983c39.391,48.368,36.64,77.995-8.321,102.704
	c-19.367,10.639-11.935,24.862-12.977,38.525c-1.066,14.005,0.793,29.053-19.391,31.096c-22.07,2.235-15.301-16.551-18.353-26.578
	c-5.365-17.631-8.38-36.055-11.359-54.314c-3.004-18.42,4.053-36.909,22.572-36.612
	C1581.217,1902.378,1591.593,1882.864,1593.086,1846.983z"/>
<path fill-rule="evenodd" clip-rule="evenodd" fill="#212222" d="M1352.41,1913.693c-13.496,1.039-21.384-3.517-30.85-2.802
	c-6.302,0.475-20.563-3.869-19.138-15.875c1.172-9.894,11.579-8.731,19.767-9.11c23.191-1.077,45.737-5.178,67.646-13.496
	c7.655-2.905,18.762-9.446,23.923,3.602c4.956,12.546-7.262,15.126-14.497,19.634
	C1383.479,1905.484,1366.015,1911.076,1352.41,1913.693z"/>
<path fill-rule="evenodd" clip-rule="evenodd" fill="#242525" d="M1303.177,1961.488c35.061-24.993,68.761-26.657,97.516-39.764
	c3.8-1.729,8.305,2.744,9.706,7.864c1.394,5.095-0.044,11.079-4.292,11.749C1374.925,1946.246,1348.138,1970.257,1303.177,1961.488z
	"/>
<g>
	<path d="M760.017,2451.504c0.661,11.16,2.956,21.472,6.897,30.93c3.939,9.457,9.787,18.061,17.532,25.807
		c6.833,6.833,14.746,12.185,23.741,16.058c8.998,3.876,18.488,5.941,28.468,6.205c9.983,0.262,19.797-1.479,29.452-5.221
		c9.653-3.742,18.489-9.622,26.498-17.632c8.012-8.012,13.889-16.844,17.631-26.497c3.742-9.655,5.486-19.472,5.222-29.453
		c-0.261-9.982-2.331-19.468-6.206-28.468c-3.874-8.995-9.225-16.907-16.058-23.74c-6.958-6.958-14.972-12.609-24.033-16.939
		c-9.063-4.336-17.398-6.896-25.023-7.685l-32.505,32.505l30.734,30.734l-18.519,18.52l-51.616-51.617l63.043-63.043
		c16.681,3.285,31.195,7.684,43.538,13.201c12.347,5.52,24.034,13.79,35.065,24.821c9.982,9.982,17.702,21.246,23.15,33.788
		c5.449,12.541,8.343,25.678,8.667,39.401c0.33,13.725-2.133,27.153-7.387,40.286c-5.251,13.135-13.264,25.085-24.035,35.856
		c-10.768,10.768-22.718,18.78-35.854,24.034c-13.131,5.252-26.563,7.718-40.289,7.389c-13.721-0.326-26.859-3.219-39.4-8.669
		c-12.541-5.449-23.807-13.166-33.789-23.148c-22.457-22.457-33.489-48.331-33.096-77.62L760.017,2451.504z"/>
	<path d="M732.635,2406.586c-13.264,4.99-26.89,7.253-40.878,6.797c-13.985-0.459-27.449-3.482-40.386-9.063
		c-12.936-5.584-24.265-13.23-33.985-22.951c-9.715-9.716-17.331-21.014-22.85-33.885c-5.513-12.871-8.535-26.333-9.063-40.387
		c-0.523-14.055,1.708-27.713,6.697-40.978c4.993-13.268,12.741-25.151,23.248-35.658c10.51-10.51,22.394-18.257,35.659-23.249
		c13.267-4.989,26.894-7.254,40.88-6.795c13.99,0.46,27.451,3.48,40.386,9.064c12.934,5.584,24.266,13.233,33.981,22.949
		c9.721,9.721,17.335,21.018,22.854,33.885c5.52,12.871,8.54,26.332,9.064,40.387c0.525,14.053-1.707,27.711-6.699,40.977
		c-4.992,13.264-12.737,25.15-23.247,35.66C757.787,2393.846,745.901,2401.592,732.635,2406.586z M763.467,2336.156
		c3.746-9.521,5.549-19.342,5.417-29.453c-0.129-10.115-2.133-19.864-6.006-29.254c-3.874-9.392-9.424-17.698-16.649-24.924
		c-7.22-7.22-15.527-12.77-24.92-16.646c-9.388-3.872-19.142-5.88-29.257-6.01c-10.109-0.13-19.926,1.677-29.451,5.419
		c-9.518,3.741-18.026,9.357-25.512,16.844c-7.486,7.485-13.133,16.024-16.942,25.611c-3.807,9.59-5.614,19.406-5.418,29.449
		c0.197,10.05,2.236,19.771,6.107,29.16c3.876,9.393,9.426,17.7,16.646,24.92c7.226,7.226,15.532,12.775,24.924,16.65
		c9.389,3.873,19.142,5.873,29.253,6.007c10.115,0.128,19.936-1.675,29.453-5.417c9.523-3.745,18.028-9.358,25.514-16.845
		C754.109,2354.184,759.727,2345.676,763.467,2336.156z"/>
	<path d="M470.419,2188.697l40.389,40.389l-25.611,13l-92.002-92.003l19.305-19.306l36.25,36.25l121.75-121.75l23.247,20.093
		L470.419,2188.697z"/>
	<path d="M422.547,2096.498c-13.263,4.99-26.885,7.258-40.876,6.799c-13.987-0.461-27.45-3.484-40.387-9.063
		c-12.935-5.583-24.265-13.23-33.985-22.951c-9.717-9.717-17.333-21.015-22.85-33.885c-5.513-12.87-8.537-26.335-9.063-40.387
		c-0.523-14.056,1.708-27.714,6.696-40.979c4.994-13.267,12.742-25.15,23.249-35.657c10.51-10.51,22.394-18.258,35.658-23.249
		c13.266-4.99,26.894-7.254,40.88-6.796c13.992,0.463,27.453,3.482,40.386,9.064c12.933,5.584,24.265,13.233,33.982,22.951
		c9.721,9.721,17.336,21.019,22.853,33.885c5.518,12.869,8.54,26.331,9.064,40.386c0.525,14.053-1.708,27.711-6.7,40.976
		c-4.987,13.269-12.734,25.152-23.244,35.662C447.702,2083.761,435.817,2091.508,422.547,2096.498z M453.38,2026.07
		c3.746-9.522,5.551-19.342,5.416-29.455c-0.129-10.115-2.132-19.863-6.005-29.253c-3.872-9.391-9.423-17.698-16.648-24.923
		c-7.22-7.22-15.527-12.77-24.921-16.646c-9.389-3.872-19.143-5.881-29.257-6.01c-10.11-0.131-19.927,1.676-29.451,5.42
		c-9.518,3.741-18.027,9.357-25.513,16.843c-7.486,7.486-13.132,16.025-16.941,25.612c-3.809,9.588-5.616,19.405-5.419,29.449
		c0.195,10.048,2.235,19.771,6.107,29.159c3.876,9.395,9.426,17.701,16.646,24.921c7.225,7.225,15.532,12.775,24.922,16.648
		s19.142,5.873,29.252,6.006c10.119,0.131,19.938-1.674,29.455-5.415c9.527-3.741,18.028-9.358,25.514-16.844
		C444.023,2044.097,449.643,2035.592,453.38,2026.07z"/>
</g>
<g>
	<path d="M2296.165,821.382l-23.247-20.093l101.852-101.852c8.146-8.146,16.549-13.658,25.215-16.546
		c8.672-2.896,17.109-3.648,25.318-2.27c8.21,1.382,16.027,4.265,23.443,8.67c7.414,4.401,14.412,9.883,20.979,16.45
		c3.15,3.15,5.185,5.974,6.11,8.47l-19.309,19.309c-2.624-3.158-4.857-5.649-6.699-7.491c-8.796-8.796-18.057-13.662-27.776-14.575
		c-9.719-0.921-19.437,3.478-29.158,13.2L2296.165,821.382z"/>
	<path d="M2405.505,654.519l-221.237,63.633l69.537-219.661l25.813,17.142l-27.78,85.302l53.585,53.585l86.881-26.201
		L2405.505,654.519z M2241.984,626.548l-17.923,51.81l54.172-15.561L2241.984,626.548z"/>
	<path d="M2106.446,631.663l-23.245-20.09l141.843-141.842l23.245,20.089L2106.446,631.663z"/>
	<path d="M2062.715,587.932l-23.249-20.095L2162,445.303l-64.025-64.025l28.375-11.822l77.42,77.42L2062.715,587.932z"/>
</g>
</svg>
