<?xml version="1.0" encoding="utf-8"?>
<!-- Generator: Adobe Illustrator 16.0.0, SVG Export Plug-In . SVG Version: 6.00 Build 0)  -->
<!DOCTYPE svg PUBLIC "-//W3C//DTD SVG 1.1//EN" "http://www.w3.org/Graphics/SVG/1.1/DTD/svg11.dtd">
<svg version="1.1" id="Layer_1" xmlns="http://www.w3.org/2000/svg" xmlns:xlink="http://www.w3.org/1999/xlink" x="0px" y="0px"
	 width="1920px" height="1920px" viewBox="0 0 1920 1920" enable-background="new 0 0 1920 1920" xml:space="preserve">
<g>
	<g>
		<polygon fill="#D02027" points="195.91,1489.171 365.243,1362.171 365.243,1447.466 1389.362,1447.466 1463.721,1365.671 
			1726.25,1365.671 1647.256,1489.171 1726.25,1612.671 1463.721,1612.671 1389.362,1530.876 365.243,1530.876 365.243,1616.171 		
			"/>
		<path d="M1701.59,1379.171l-70.359,110l70.359,110h-231.897l-74.358-81.795H351.743v71.795l-133.333-100l133.333-100v71.795
			h1043.591l74.358-81.795H1701.59 M378.743,1335.171l-43.2,32.4l-133.333,100l-28.8,21.6l28.8,21.6l133.333,100l43.2,32.4v-54
			v-44.795H1383.39l66.324,72.957l8.034,8.838h11.944h231.897h49.32l-26.575-41.549l-61.054-95.451l61.054-95.451l26.575-41.549
			h-49.32h-231.897h-11.944l-8.034,8.838l-66.324,72.957H378.743v-44.795V1335.171L378.743,1335.171z"/>
	</g>
	<g>
		<g>
			<polygon fill="#D02027" points="358.668,964.477 660.602,662.542 717.769,719.708 476.627,960.851 778.453,1262.677 
				955.176,1085.954 836.472,967.25 720.434,1083.288 659.641,1022.495 840.098,842.038 1084.014,1085.954 782.079,1387.888 			"/>
			<path d="M660.602,681.634l38.075,38.075L457.535,960.851l320.918,320.918l195.814-195.814L836.472,948.158l-116.038,116.038
				l-41.701-41.701L840.098,861.13l224.824,224.824l-282.843,282.842L377.76,964.477L660.602,681.634 M660.602,643.45
				l-19.092,19.092L358.668,945.385l-19.092,19.092l19.092,19.092l404.319,404.319l19.092,19.092l19.092-19.092l282.843-282.842
				l19.092-19.092l-19.092-19.092L859.189,842.038l-19.092-19.092l-19.092,19.092l-161.365,161.365l-19.092,19.092l19.092,19.092
				l41.701,41.701l19.092,19.092l19.092-19.092l96.946-96.946l99.612,99.612l-157.631,157.631L495.719,960.851l222.05-222.05
				l19.092-19.092l-19.092-19.092l-38.075-38.075L660.602,643.45L660.602,643.45z"/>
		</g>
		<g>
			<path fill="#D02027" d="M721.686,601.459l299.722-299.722l423.412,423.411l-299.723,299.722L721.686,601.459z M1146.711,908.924
				l182.161-182.162l-309.077-309.078L837.633,599.846L1146.711,908.924z"/>
			<path d="M1021.407,320.829l404.32,404.319l-280.631,280.63L740.777,601.459L1021.407,320.829 M1146.711,928.016l201.253-201.253
				l-328.169-328.169L818.541,599.846L1146.711,928.016 M1021.407,282.646l-19.092,19.092l-280.63,280.63l-19.092,19.092
				l19.092,19.092l404.319,404.319l19.092,19.092l19.092-19.092l280.631-280.63l19.092-19.092l-19.092-19.092l-404.32-404.319
				L1021.407,282.646L1021.407,282.646z M856.725,599.846l163.07-163.07l289.985,289.986l-163.069,163.07L856.725,599.846
				L856.725,599.846z"/>
		</g>
	</g>
</g>
</svg>
