<?xml version="1.0" encoding="utf-8"?>
<!-- Generator: Adobe Illustrator 16.0.0, SVG Export Plug-In . SVG Version: 6.00 Build 0)  -->
<!DOCTYPE svg PUBLIC "-//W3C//DTD SVG 1.1//EN" "http://www.w3.org/Graphics/SVG/1.1/DTD/svg11.dtd">
<svg version="1.1" id="Layer_1" xmlns:svgjs="http://svgjs.com/svgjs"
	 xmlns="http://www.w3.org/2000/svg" xmlns:xlink="http://www.w3.org/1999/xlink" x="0px" y="0px" width="512px" height="512px"
	 viewBox="0 0 512 512" enable-background="new 0 0 512 512" xml:space="preserve">
<g>
	<g>
		<g>
			<path fill="#414042" d="M506.536,364.031c-5.125-2.906-11.625-1.053-14.521,4.094c-5.063,9.031-25.665,14.667-33.354,15.875
				h-10.667v-22.055c37.086-3.516,63.999-24.834,63.999-52.612c0-32.276-72.138-113.078-163.885-116.965l-18.569-37.139
				c-1.813-3.615-5.5-5.896-9.54-5.896V128h181.328c5.896,0,10.667-4.771,10.667-10.667s-4.771-10.667-10.667-10.667h-383.99
				c-5.896,0-10.667,4.771-10.667,10.667S111.442,128,117.338,128h181.328v21.333c-2.832,0-5.541,1.125-7.541,3.125L251.585,192
				H79.404c-4.104-7.036-10.108-12.733-17.374-16.471L41.882,135.23c-2.521-5.073-8.583-7.271-13.771-5.021l-21.667,9.333
				c-5.083,2.188-7.646,7.906-5.896,13.167l10.667,32c0.004,0.01,0.012,0.018,0.016,0.029c-6.901,7.582-11.224,17.557-11.224,28.596
				c0,15.723,8.645,29.329,21.333,36.73v16.603c0,5.896,4.771,10.667,10.667,10.667h10.667c4.04,0,7.728-2.281,9.54-5.896
				l10.274-20.547c6.905-3.66,12.659-9.081,16.667-15.766c35.236,3.104,89.875,12.525,103.993,26.991
				c1.979,3.896,4,7.99,6.063,12.188c19.458,39.365,43.645,88.365,88.122,88.365h63.998V384h-95.996
				c-5.896,0-10.667,4.771-10.667,10.667s4.771,10.667,10.667,10.667l214.807-0.104c3.958-0.553,38.915-6,50.499-26.688
				C513.516,373.406,511.683,366.906,506.536,364.031z M320,288h-21.334v21.333c0,5.896-4.771,10.667-10.666,10.667
				c-5.896,0-10.667-4.771-10.667-10.667V288H256c-5.896,0-10.667-4.771-10.667-10.667s4.771-10.667,10.667-10.667h21.333v-21.333
				c0-5.896,4.771-10.667,10.667-10.667c5.896,0,10.666,4.771,10.666,10.667v21.333H320c5.896,0,10.666,4.771,10.666,10.667
				S325.896,288,320,288z M486.808,298.667H405.08c-14.25,0-26.563-9.167-30.664-22.802l-18.521-61.792
				C423.247,220.906,472.996,273.448,486.808,298.667z M426.664,384h-63.998v-21.333h63.998V384z"/>
		</g>
	</g>
</g>
<rect x="243.5" y="222.5" fill="#414042" width="95" height="111"/>
</svg>
