<?xml version="1.0" encoding="utf-8"?>
<!-- Generator: Adobe Illustrator 16.0.0, SVG Export Plug-In . SVG Version: 6.00 Build 0)  -->
<!DOCTYPE svg PUBLIC "-//W3C//DTD SVG 1.1//EN" "http://www.w3.org/Graphics/SVG/1.1/DTD/svg11.dtd">
<svg version="1.1" id="Layer_1" xmlns="http://www.w3.org/2000/svg" xmlns:xlink="http://www.w3.org/1999/xlink" x="0px" y="0px"
	 width="256px" height="210.5px" viewBox="0 0 256 210.5" enable-background="new 0 0 256 210.5" xml:space="preserve">
<g>
	<polygon fill="#E81E25" points="31.104,207 31.104,65.969 13.671,65.969 128.109,3.263 170.63,30.055 170.63,11.236 
		202.609,11.236 202.609,43.851 242.836,65.969 225.362,65.969 225.362,207 	"/>
	<path fill="#FFFFFF" d="M127.985,7.321l35.413,22.314l10.731,6.762V23.713v-8.977h24.979v27.045v4.14l3.627,1.994l26.47,14.554
		h-0.344h-7v7V203.5H34.604V69.469v-7h-7h-0.262L127.985,7.321 M128.233-0.796L0,69.469h27.604V210.5h201.258V69.469h27.604
		l-50.356-27.688V7.736H167.13v15.977L128.233-0.796L128.233-0.796z"/>
</g>
</svg>
