<?xml version="1.0" encoding="utf-8"?>
<!-- Generator: Adobe Illustrator 16.0.0, SVG Export Plug-In . SVG Version: 6.00 Build 0)  -->
<!DOCTYPE svg PUBLIC "-//W3C//DTD SVG 1.1//EN" "http://www.w3.org/Graphics/SVG/1.1/DTD/svg11.dtd">
<svg version="1.1" id="Layer_2" xmlns="http://www.w3.org/2000/svg" xmlns:xlink="http://www.w3.org/1999/xlink" x="0px" y="0px"
	 width="262.719px" height="61.333px" viewBox="0 0 262.719 61.333" enable-background="new 0 0 262.719 61.333"
	 xml:space="preserve">
<g>
	<path fill="#D1D2D1" d="M229.865,4.75l9.423,5.45l1.501,0.868V9.333V6.787h8v7.797v0.595l0.523,0.284l9.466,5.135h-3.129h-1v1
		v35.116h-49.542V21.597v-1h-1h-3.162L229.865,4.75 M229.879,3.602l-32.84,17.995h7.068v36.116h51.542V21.597h7.069l-12.93-7.014
		V5.787h-10v3.547L229.879,3.602L229.879,3.602z"/>
</g>
<g>
	<path fill="#D1D2D1" d="M164.186,4.75l9.423,5.45l1.501,0.868V9.333V6.787h8v7.797v0.595l0.523,0.284l9.466,5.135h-3.129h-1v1
		v35.116h-49.542V21.597v-1h-1h-3.162L164.186,4.75 M164.199,3.602l-32.84,17.995h7.068v36.116h51.542V21.597h7.069l-12.93-7.014
		V5.787h-10v3.547L164.199,3.602L164.199,3.602z"/>
</g>
<g>
	<path fill="#D1D2D1" d="M98.506,4.75l9.423,5.45l1.5,0.868V9.333V6.787h8v7.797v0.595l0.523,0.284l9.466,5.135h-3.128h-1v1v35.116
		H73.748V21.597v-1h-1h-3.163L98.506,4.75 M98.52,3.602L65.68,21.597h7.068v36.116h51.542V21.597h7.069l-12.93-7.014V5.787h-10
		v3.547L98.52,3.602L98.52,3.602z"/>
</g>
<g>
	<path fill="#D1D2D1" d="M98.453,9.341l7.473,4.322l7.503,4.339v-0.441l2.616,1.419l3.245,1.76v0.859v31.115H77.749V21.598v-0.912
		L98.453,9.341 M98.52,3.603L65.68,21.598h7.069v36.115h51.542V21.598h7.069l-12.93-7.014V5.788h-10v3.547L98.52,3.603L98.52,3.603z
		"/>
</g>
<g>
	<path fill="#D1D2D1" d="M164.133,9.34l7.474,4.322l7.503,4.339V17.56l2.616,1.419l3.244,1.76v0.859v31.115h-41.542V21.597v-0.912
		L164.133,9.34 M164.199,3.602l-32.84,17.995h7.068v36.115h51.542V21.597h7.069l-12.93-7.014V5.787h-10v3.547L164.199,3.602
		L164.199,3.602z"/>
</g>
<g>
	<path fill="#D1D2D1" d="M229.813,9.341l7.474,4.322l7.503,4.339v-0.441l2.616,1.419l3.244,1.76v0.859v31.115h-41.542V21.598v-0.912
		L229.813,9.341 M229.879,3.603l-32.84,17.995h7.068v36.115h51.542V21.598h7.069l-12.93-7.014V5.788h-10v3.547L229.879,3.603
		L229.879,3.603z"/>
</g>
<g>
	<path fill="#D1D2D1" d="M32.773,9.34l7.473,4.322l7.503,4.339V17.56l2.616,1.419l3.245,1.76v0.859v31.115H12.069V21.597v-0.912
		L32.773,9.34 M32.84,3.602L0,21.597h7.069v36.115H58.61V21.597h7.069l-12.93-7.014V5.787h-10v3.547L32.84,3.602L32.84,3.602z"/>
</g>
<g>
	<polygon fill="#39B54A" points="32.84,3.603 0,21.598 7.069,21.598 7.069,57.712 58.61,57.712 58.61,21.598 65.68,21.598 
		52.75,14.584 52.75,5.787 42.75,5.787 42.75,9.334 	"/>
</g>
</svg>
