<?xml version="1.0" encoding="utf-8"?>
<!-- Generator: Adobe Illustrator 16.0.0, SVG Export Plug-In . SVG Version: 6.00 Build 0)  -->
<!DOCTYPE svg PUBLIC "-//W3C//DTD SVG 1.1//EN" "http://www.w3.org/Graphics/SVG/1.1/DTD/svg11.dtd">
<svg version="1.1" id="Layer_1" xmlns="http://www.w3.org/2000/svg" xmlns:xlink="http://www.w3.org/1999/xlink" x="0px" y="0px"
	 width="256px" height="256px" viewBox="0 0 256 256" enable-background="new 0 0 256 256" xml:space="preserve">
<g>
	<rect x="0.462" y="-0.427" fill-rule="evenodd" clip-rule="evenodd" fill="#D6E8D1" width="255.539" height="256.986"/>
	<rect x="69.23" y="-0.112" fill-rule="evenodd" clip-rule="evenodd" width="186.491" height="187.728"/>
	<rect x="74.042" y="-0.46" fill-rule="evenodd" clip-rule="evenodd" fill="#EE9222" width="181.599" height="182.85"/>
	<polygon fill-rule="evenodd" clip-rule="evenodd" fill="#A37355" points="42.276,120.889 42.358,120.798 42.467,120.854 
		42.402,121.003 	"/>
	<path fill-rule="evenodd" clip-rule="evenodd" fill="#A37355" d="M42.775,112.713l-0.09-0.141c0,0,0.09-0.143,0.09-0.14
		C42.991,112.526,42.993,112.619,42.775,112.713z"/>
	<path fill-rule="evenodd" clip-rule="evenodd" fill="#A37355" d="M42.779,109.599l-0.087-0.146c0,0,0.077-0.154,0.077-0.152
		C42.99,109.394,43.004,109.492,42.779,109.599z"/>
	<path fill-rule="evenodd" clip-rule="evenodd" d="M168.639,11.825c-0.29,0.599,0.034,0.969,0.462,1.33
		c7.462,6.299,13.511,13.981,20.397,20.844c3.313,3.302,6.526,6.717,10.301,9.513c1.788,1.323,3.64,2.542,5.862,3.114
		c1.282,0.33,2.168,1.074,2.145,2.686c-0.025,1.65,1.209,2.827,2.142,4.051c3.045,3.997,7.191,6.845,10.797,10.257
		c2.705,2.557,5.284,5.208,9.218,5.871c1.238,0.209,1.709,1.35,1.167,2.427c-0.729,1.451-0.037,2.077,1.006,2.876
		c5.787,4.432,11.35,9.121,15.905,14.868c0.48,0.606,1.11,0.596,1.668,0.878c1.315,0.666,2.665,1.416,2.257,3.353
		c-0.38,1.798-1.507,2.516-3.215,2.312c-0.938-0.113-1.453,0.314-2.127,0.848c-5.153,4.087-9.389,9.07-13.793,13.897
		c-6.066,6.648-13.086,12.307-19.479,18.619c-13.101,12.931-26.846,25.203-39.593,38.503c-0.863,0.901-1.896,1.669-2.94,2.363
		c-1.849,1.232-3.221,2.651-2.739,5.109c0.107,0.548,0.01,1.109-0.536,1.341c-1.926,0.814-3.926,1.444-6.036,1.26
		c-1.26-0.111-1.377-1.188-0.854-2.01c1.246-1.953,0.344-2.938-1.094-4.391c-3.438-3.479-6.518-7.312-9.761-10.986
		c-0.687-0.777-1.427-1.514-2.19-2.218c-2.65-2.438-2.662-2.438-5.793-0.688c-0.904,0.507-1.887,0.841-2.646-0.023
		c-0.748-0.852-0.14-1.815,0.501-2.369c2.167-1.872,1.473-3.353-0.285-5.05c-4.486-4.33-8.868-8.771-13.289-13.169
		c-0.211-0.208-0.426-0.416-0.617-0.644c-0.858-1.02-1.523-2.507-2.611-2.944c-1.252-0.505-2.229,1.142-3.403,1.709
		c-0.808,0.393-1.563,0.515-2.245-0.185c-0.691-0.71-0.179-1.378,0.147-2.025c0.589-1.17,2.254-2.108,1.818-3.366
		c-0.381-1.098-1.83-1.836-2.827-2.709c-4.371-3.826-8.425-7.964-11.975-12.557c-0.969-1.253-1.698-1.418-2.866-0.533
		c-0.413,0.313-0.868,0.573-1.319,0.829c-0.69,0.391-1.421,0.587-2.039-0.075c-0.546-0.587-0.66-1.312-0.329-2.071
		c0.059-0.136,0.135-0.264,0.203-0.396c1.649-3.251,1.628-3.231-0.898-5.847c-3.56-3.686-7.075-7.413-10.629-11.105
		c-1.855-1.927-2.444-1.959-4.303-0.024c-1.041,1.084-2.083,0.794-2.968,0.09c-1.187-0.942,0.113-1.583,0.6-2.119
		c1.328-1.463,1.765-2.869,0.367-4.529c-0.375-0.444-0.663-1.046-0.218-1.632c0.428-0.564,1.059-0.436,1.646-0.35
		c0.292,0.042,0.626,0.072,0.854,0.232c2.626,1.846,4.372,0.439,6.266-1.416c5.622-5.505,10.522-11.704,16.556-16.818
		c11.802-10.008,22.155-21.521,33.195-32.319c7.11-6.954,14.765-13.347,21.411-20.78c0.594-0.664,1.192-1.325,1.8-1.978
		c0.801-0.86,1.044-1.639,0.122-2.674c-0.563-0.633-1.512-1.564-0.448-2.479c0.904-0.779,1.945-1.281,3.187-0.277
		c0.846,0.687,1.921,1.096,2.906,1.606C168.291,10.276,169.188,10.619,168.639,11.825z M171.931,128.836
		c-0.265,0.04-0.44,0.163-0.427,0.463c-0.48,0.124-0.967,0.242-0.877,0.914c-0.296-0.22-0.486-0.008-0.687,0.169
		c-0.228,0.228-0.455,0.455-0.684,0.684c-0.389,0.107-0.978,0.337-0.694,0.714c0.327,0.434,0.638-0.161,0.893-0.434
		c0.248-0.228,0.495-0.453,0.743-0.677c0.292-0.034,0.462-0.163,0.405-0.485c0.529-0.082,0.996-0.224,0.869-0.923
		c0.178-0.038,0.354-0.076,0.532-0.114c-0.044-0.118-0.088-0.236-0.131-0.354c0.177-0.021,0.406,0.019,0.518-0.078
		c0.293-0.249-0.121-0.29-0.177-0.444c0.563,0.608,0.815,0.128,1.078-0.308c0.283-0.025,0.469-0.14,0.426-0.465
		c0.32,0.028,0.486-0.102,0.453-0.439c0.554,0.099,0.813-0.333,1.146-0.633c0.636-0.382,1.274-0.765,1.91-1.147
		c0.414-0.159,0.82-0.337,1.24-0.473c0.471-0.153,0.979-0.557,1.423-0.012c0.414,0.507,0.06,0.98-0.201,1.423
		c-2.5,4.26-6.745,6.805-10.109,10.217c-0.736,0.748-2.008,0.758-2.434-0.387c-0.995-2.676-2.021-1.236-2.954-0.101
		c-3.545,4.314-7.381,8.333-11.622,11.974c-1.578,1.353-2.974,2.905-4.208,4.593c-0.46,0.628-0.888,1.162-0.144,1.922
		c1.07,1.093,1.917,2.449,3.103,3.384c3.802,2.999,7.163,6.423,10.26,10.12c3.076,3.673,3.033,3.653,6.523,0.585
		c1.462-1.285,2.662-2.5,1.652-4.667c-0.297-0.639-0.191-1.496,0.286-2.138c1.651-2.214,1.619-4.668,1.193-7.237
		c-0.216-1.311-0.323-2.681,0.142-3.973c0.414-1.15,0.066-1.884-0.825-2.697c-2.333-2.121-3.946-4.801-5.431-7.557
		c-0.479-0.891-0.424-1.728,0.316-2.438c0.85-0.816,1.663-0.365,2.388,0.204c0.638,0.502,1.258,1.052,1.783,1.668
		c1.827,2.142,3.424,4.466,5.646,6.279c1.343,1.094,1.613,2.84,0.798,4.279c-1.911,3.374-1.087,6.682-0.191,10.415
		c2.522-2.927,5.063-5.49,7.782-7.865c7.498-6.549,15.014-13.073,21.831-20.356c3.76-4.018,7.814-7.724,12.213-11.053
		c3.056-2.312,5.812-4.965,8.452-7.745c5.864-6.177,11.213-12.856,17.702-18.419c1.465-1.255,1.205-1.87-0.016-3.021
		c-4.594-4.332-9.133-8.725-13.612-13.173c-3.39-3.366-3.416-3.509-7.003-0.28c-16.294,14.667-31.287,30.662-46.831,46.095
		c-0.571,0.298-1.056,0.692-1.364,1.272c-0.464,0.158-0.958,0.288-0.831,0.958c-0.379-0.073-0.533,0.069-0.434,0.455
		c-0.363-0.042-0.706-0.066-0.412,0.469c-0.508-0.425-0.732,0.136-1.058,0.316C172.164,128.489,172.047,128.662,171.931,128.836z
		 M128.232,73.976c-2.481-0.386-4.92-1.341-7.464-0.877c-0.025,0.198-0.05,0.396-0.075,0.593c1.771,0.238,3.545,0.477,5.316,0.715
		c4.793,1.406,8.465,3.999,9.466,9.89c2.264-6.706,0.987-8.971-5.044-10.068C129.706,74.098,128.965,74.058,128.232,73.976z
		 M164.157,131.281c0.207-0.316,0.301-0.639,0.039-0.976c-0.133,0.222-0.267,0.443-0.397,0.667
		c-1.207,0.762-2.528,0.861-3.844,0.469c-1.428-0.426-1.884-2.195-0.724-2.952c2.748-1.795,5.16-4.208,8.777-4.417
		c4.234-0.245,7.347-2.544,9.724-5.941c1.798-2.569,3.922-4.823,6.295-6.884c6.901-5.992,13.354-12.466,19.97-18.766
		c6.761-6.437,12.379-14.047,19.937-19.373c-6.257-6.766-12.662-13.396-19.926-19.087c-3.374,4.125-8.042,7.397-11.936,11.477
		c-1.88,1.969-2.053,2.347,0.15,3.921c3.949,2.821,6.942,6.687,10.845,9.553c2.397,1.762,3.605,4.259,3.698,7.291
		c0.037,1.196-0.257,1.958-1.491,2.335c-2.107,0.644-3.943,1.857-5.323,3.521c-1.451,1.751-2.597,1.172-3.846-0.056
		c-1.434-1.411-1.35-2.774,0.086-4.225c0.532-0.536,1.518-0.628,1.678-1.803c-2.315,0.728-4.484,1.556-6.726,2.076
		c-2.498,0.58-4.003-0.78-3.304-3.121c0.644-2.158-0.183-3.125-1.949-3.867c-0.543-0.228-1.062-0.544-1.543-0.887
		c-1.17-0.832-2.476-1.805-1.93-3.394c0.508-1.48,2.1-1.418,3.438-1.438c0.631-0.009,1.416,0.405,1.622-0.592
		c0.291-1.418,1.301-1.887,2.95-1.822c-2.978-2.038-4.06-2.002-6.213,0.093c-4.522,4.402-8.744,9.111-13.566,13.208
		c-2.423,2.059-1.941,4.755,1.05,6.071c3.293,1.449,3.506,2.513,0.934,5.102c-4.604,4.639-9.246,9.243-13.855,13.879
		c-2.15,2.164-2.549,2.169-4.471-0.138c-0.639,0.156-0.921,0.722-1.289,1.168c-0.604,0.732-0.947,1.588-0.303,2.436
		c0.607,0.799,1.472,0.562,2.247,0.248c0.887-0.36,1.745-0.796,2.618-1.195c1.813-0.831,3.563-1.037,5.14,0.519
		c1.575,1.555,1.372,2.512-0.841,2.964c-1.656,0.338-2.803,0.607-1.671,2.649c0.285,0.516,0.258,1.369,0.061,1.961
		c-1.612,4.828-3.553,9.532-4.459,14.602c-0.331,1.857-1.888,2.781-4.14,2.209c-1.925-0.491-4.026-0.511-5.97,0.031
		c-1.588,0.441-2.851,0.181-4.199-0.662c-3.561-2.228-3.534-2.155-6.193,1.139c-0.789,0.979-0.737,1.535,0.11,2.381
		c2.19,2.192,4.247,4.522,6.455,6.699c2.031,2.006,2.979,1.98,5.174,0.13C153.254,143.254,158.738,137.299,164.157,131.281z
		 M146.131,104.362c1.943-2.585,4.246-4.544,6.552-6.491c16.938-14.299,31.735-30.823,47.868-45.958
		c1.022-0.959,0.815-1.444-0.132-2.436c-4.748-4.974-10.175-9.201-15.086-13.98c-1.388-1.35-2.122-1.158-3.393-0.04
		c-4.856,4.271-9.437,8.824-13.984,13.414c-5.955,6.013-11.836,12.102-17.875,18.03c-1.073,1.054-1.603,1.783-0.823,3.139
		c1.069,1.863,0.727,3.41-0.818,4.973c-1.815,1.837-2.162,5.541-1.044,8.158c0.743-2.057,1.521-4.062,2.192-6.1
		c0.704-2.146,2.408-3.526,3.765-5.178c0.381-0.464,0.575-0.992,0.644-1.619c0.218-2.019,0.779-2.334,2.522-1.438
		c0.722,0.372,1.429,0.81,2.051,1.329c0.985,0.821,1.721,0.657,2.703-0.132c3.306-2.657,7.2-4.082,11.3-4.95
		c2.33-0.493,4.684-0.731,7.05-0.033c1.055,0.311,1.485,0.893,1.288,1.944c-0.174,0.935-0.516,1.719-1.688,1.683
		c-0.667-0.021-1.345-0.06-2.004,0.016c-9.303,1.062-17.305,4.435-22.323,12.88c-1.932,3.25-3.613,6.65-5.514,9.919
		c-1.168,2.006-2.738,3.692-4.799,4.863c-1.445,0.821-2.343,0.336-2.505-1.217c-0.27-2.582-0.039-5.025,2.21-6.878
		c1.178-0.969,2.273-2.118,2.163-4.259c-1.111,1.622-2.311,2.721-3.59,3.705c-2.415,1.854-4.361,3.987-5.113,7.055
		c-0.47,1.923-1.938,2.664-3.791,2.881c-1.788,0.208-3.515,0.569-4.751,2.102c-1.073,1.331-2.229,2.567-3.857,3.291
		c-0.571,0.254-1.26,0.745-1.077,1.514c0.145,0.611,0.843,0.847,1.424,0.936c6.937,1.056,7.707,1.884,11.785-4.652
		c0.354-0.566,0.743-1.137,0.949-1.76c0.546-1.657,1.839-2.75,3.326-2.179c1.725,0.663,0.672,2.375,0.24,3.514
		c-1.399,3.687-3.59,6.985-5.36,10.489c-0.991,1.96-2.101,1.95-3.678,0.986c-1.529-0.935-3.088-1.805-4.976-1.662
		c-3.018,0.226-5.909-0.415-8.673-1.502c-3.647-1.437-3.631-1.528-6.337,1.421c-0.801,0.873-1.438,1.896-2.236,2.77
		c-1.002,1.095-0.908,1.944,0.169,2.978c3.514,3.37,7.163,6.639,10.324,10.321c1.41,1.642,1.933,0.962,2.963,0.075
		c5.075-4.365,9.743-9.146,14.441-13.903c1.875-1.897,3.696-3.626,2.572-6.617c-0.098-0.259-0.027-0.591,0-0.886
		c0.149-1.75,0.723-3.325,2.668-3.605C146.007,100.961,145.573,103.005,146.131,104.362z M139.378,71.8
		c1.911-3.901,4.661-6.463,7.741-8.726c3.536-2.596,6.849-5.448,10.061-8.444c7.773-7.249,14.845-15.188,22.492-22.554
		c0.871-0.838,0.783-1.314,0.047-2.147c-4.033-4.566-8.31-8.891-12.746-13.063c-0.646-0.608-0.966-0.866-1.755-0.136
		c-3.105,2.873-6.397,5.55-9.437,8.489c-9.663,9.344-19.147,18.874-28.883,28.139c-9.465,9.006-18.189,18.789-28.418,26.992
		c-3.655,2.932-7.128,6.063-9.867,9.917c-0.493,0.692-0.969,1.259-0.147,2.104c2.067,2.125,3.937,4.436,6.391,6.177
		c1.403,0.996,2.098,1.027,2.837-0.785c2.184-5.354,4.242-10.772,7.075-15.841c1.854-3.315,4.078-6.185,7.891-7.446
		c1.586-0.525,2.77-1.667,3.755-3.024c3.429-4.726,4.387-5.019,9.878-3.165c1.543,0.521,3.095,1.019,4.648,1.51
		c1.015,0.321,2.087,0.399,3.079,0.082C136.168,69.19,137.946,69.507,139.378,71.8z M118.118,99.098c0,0.593-0.038,1.188,0.01,1.777
		c0.055,0.67-0.44,1.676,0.586,1.864c0.827,0.151,1.199-0.728,1.536-1.388c1.241-2.43,1.071-5.03,0.911-7.63
		c-0.036-0.603-0.34-0.948-0.881-1.138c-3.831-1.343-7.612-2.825-11.658-3.496c-1.395-0.232-2.03,0.239-2.606,1.359
		c-1.982,3.852-2.577,8.392-5.768,11.645c-0.094,0.096-0.11,0.272-0.156,0.414c-0.665,2.034,1.239,2.739,2.1,3.963
		c0.41,0.583,1.177,0.765,1.776,0.222c2.41-2.178,4.859-4.322,7.134-6.635c1.19-1.21,0.631-2.291-0.893-2.873
		c-0.899-0.343-1.824-0.631-2.688-1.049c-1.056-0.512-1.933-1.292-1.617-2.601c0.343-1.429,1.592-1.692,2.814-1.626
		c1.176,0.064,2.333,0.441,3.509,0.543C117.347,92.892,118.418,94.062,118.118,99.098z M165.447,92.142
		c-0.318,0.771-0.606,1.441-0.872,2.121c-0.604,1.546-1.677,2.539-3.383,2.311c-2.069-0.275-2.611,0.75-2.576,2.524
		c0.012,0.513-0.086,1.035-0.176,1.544c-0.333,1.856-1.184,2.861-3.204,1.911c-0.674-0.317-1.321-0.638-2.023,0.047
		c-1.695,1.657-3.446,3.256-5.135,4.921c-0.212,0.21-0.322,0.734-0.214,1.008c0.172,0.439,0.596,0.24,0.938,0.078
		c0.529-0.252,1.079-0.465,1.598-0.74c1.462-0.774,2.895-1.351,4.083,0.424c0.443,0.663,0.816,0.379,1.232-0.039
		c3.456-3.468,7.101-6.759,9.986-10.759C167.014,95.679,166.971,93.964,165.447,92.142z M147.903,113.413
		c-1.83,1.225-3.21,2.208-4.653,3.09c-0.927,0.567-0.731,1.044-0.175,1.752c2.77,3.519,6.13,6.414,9.589,9.212
		c0.671,0.542,1.175,0.565,1.528-0.304c1.015-2.498,2.025-4.999,3.164-7.81c-4.099,2.617-4.436,2.636-7.021,0.594
		C147.313,117.561,146.854,116.521,147.903,113.413z M132.264,123.637c-1.794,1.318-3.223,2.347-4.396,3.68
		c-2.508,2.851-2.508,3.57-0.057,6.32c0.344,0.387,0.684,0.777,1.04,1.151c2.729,2.864,3.75,2.812,6.392-0.188
		c0.524-0.597,0.708-1.019,0.196-1.703C133.492,130.284,132.517,127.298,132.264,123.637z M131.449,93.752
		c0.944-2.876,0.484-5.802,0.41-8.72c-0.047-1.853-0.838-3.048-2.515-3.812c-3.177-1.448-6.434-2.635-9.887-3.21
		c-1.093-0.183-2.2-0.304-3.306-0.386c-0.648-0.048-1.278,0.274-1.308,0.938c-0.034,0.738,0.755,0.561,1.199,0.628
		c1.613,0.247,3.242,0.382,4.856,0.623c5.736,0.855,8.326,3.454,9.1,9.236C130.219,90.679,130.637,92.224,131.449,93.752z
		 M147.502,133.112c-4.179-3.115-7.656-6.757-10.338-11c-2.62,5.449,1.222,7.952,4.65,10.728
		C143.627,134.306,145.361,134.416,147.502,133.112z M109.635,83.864c1.901,0.992,3.774,1.368,5.648,1.768
		c4.41,0.941,9.05,1.552,10.406,7.395c1.513-3.999,0.373-6.442-3.095-7.398c-3.276-0.904-6.568-1.751-9.854-2.624
		C111.626,82.709,110.548,82.581,109.635,83.864z M143.474,74.976c-2.343,1.848-3.945,4.019-3.618,7.131
		c0.038,0.355,0,0.821,0.489,0.824c0.224,0.001,0.532-0.269,0.662-0.496C142.336,80.129,143.273,77.683,143.474,74.976z
		 M106.915,110.659c0.136-0.028,0.331-0.007,0.411-0.093c1.555-1.654,3.104-3.313,4.628-4.995c0.198-0.22,0.155-0.579-0.129-0.771
		c-0.302-0.205-0.521,0.001-0.735,0.221c-1.479,1.529-2.975,3.043-4.444,4.583C106.23,110.039,106.037,110.502,106.915,110.659z"/>
	<path fill-rule="evenodd" clip-rule="evenodd" fill="#181817" d="M223.471,47.517c0-5.937,0-11.608,0-18.04
		c-2.754,2.905-5.186,5.448-7.591,8.017c-0.761,0.812-1.431,1.163-2.43,0.268c-0.838-0.751-1.021-1.281-0.139-2.147
		c4.072-4.006,8.095-8.063,12.146-12.09c0.3-0.296,0.577-0.809,1.067-0.663c0.689,0.206,0.4,0.867,0.402,1.332
		c0.019,5.185,0.012,10.371,0.012,15.617c1.55-1.515,3.357-3.275,5.154-5.045c0.687-0.677,1.393-1.342,2.011-2.079
		c1.024-1.221,1.798-0.395,2.628,0.232c1.162,0.877,0.152,1.395-0.354,1.908c-3.968,4.006-7.956,7.992-11.946,11.975
		C224.186,47.047,223.871,47.222,223.471,47.517z"/>
	<path fill-rule="evenodd" clip-rule="evenodd" fill="#181817" d="M86.117,149.333c-0.075-0.811,0.547-0.854,1.002-1.007
		c6.117-2.047,12.24-4.077,18.357-6.124c1.625-0.544,1.576,0.192,1.172,1.392c-1.995,5.9-3.953,11.813-5.941,17.717
		c-0.214,0.636-0.196,1.735-1.302,1.316c-0.937-0.354-2.004-0.887-1.561-2.274c0.498-1.555,1.034-3.096,1.569-4.639
		c0.195-0.563,0.535-1.186,0.066-1.682c-1.529-1.611-3.109-3.176-4.695-4.732c-0.527-0.519-1.114-0.157-1.667,0.029
		c-1.547,0.521-3.109,0.999-4.634,1.574C86.841,151.525,86.699,150.114,86.117,149.333z M102.356,146.228l0.083-0.041l-0.064,0.061
		c-1.567,0.309-3.627,0.46-4.251,1.735c-0.42,0.858,1.53,2.024,2.563,2.921c0.043,0.037,0.134,0.021,0.412,0.055
		C101.519,149.407,102.503,147.994,102.356,146.228z"/>
	<path fill-rule="evenodd" clip-rule="evenodd" fill="#181817" d="M112.777,175.611c-0.177-0.029-0.373-0.004-0.459-0.088
		c-2.214-2.177-4.456-4.328-6.593-6.58c-0.533-0.561,0.234-1.077,0.622-1.466c3.977-3.992,8.013-7.926,11.939-11.968
		c1.098-1.13,1.793-0.48,2.623,0.151c1.285,0.981,0.095,1.529-0.442,2.075c-3.223,3.275-6.455,6.546-9.749,9.749
		c-0.959,0.935-1.057,1.6-0.023,2.517c1.109,0.979,2.129,2.064,3.137,3.15c0.412,0.443,1.319,0.779,0.879,1.568
		C114.333,175.394,113.434,175.368,112.777,175.611z"/>
	<path fill-rule="evenodd" clip-rule="evenodd" fill="#181817" d="M84.841,146.114c-2.732,0.049-5.251-1.812-5.934-4.065
		c-0.251-0.83-0.207-1.478,0.771-1.72c0.811-0.2,1.542-0.737,2.217,0.509c1.541,2.84,2.812,2.976,5.102,0.723
		c2.853-2.808,5.717-5.604,8.468-8.507c1.085-1.148,1.853-0.799,2.79,0.031c1.135,1.005,0.132,1.526-0.458,2.118
		c-2.878,2.885-5.774,5.753-8.652,8.634C87.843,145.141,86.35,146.018,84.841,146.114z"/>
	<path fill-rule="evenodd" clip-rule="evenodd" fill="#181817" d="M224.138,19.63c-0.055,0.75-0.493,1.053-0.857,1.417
		c-3.984,3.972-7.992,7.92-11.922,11.945c-0.958,0.981-1.611,0.925-2.589,0.076c-1.125-0.977-0.322-1.52,0.294-2.138
		c3.918-3.934,7.837-7.865,11.777-11.775c0.482-0.479,0.943-1.296,1.841-0.679C223.219,18.844,223.706,19.285,224.138,19.63z"/>
	<path fill-rule="evenodd" clip-rule="evenodd" fill="#181817" d="M102.722,165.823c-0.674-0.231-1.226-0.721-1.636-1.341
		c-0.391-0.591,0.121-0.964,0.473-1.317c4.082-4.089,8.19-8.147,12.247-12.26c0.991-1.003,1.66-0.412,2.457,0.196
		c1.112,0.85,0.241,1.429-0.282,1.959c-4.013,4.05-8.054,8.075-12.09,12.103C103.582,165.474,103.29,165.833,102.722,165.823z"/>
	<path fill-rule="evenodd" clip-rule="evenodd" fill="#F4F3F3" d="M176.381,124.845c15.544-15.434,30.537-31.428,46.831-46.095
		c3.587-3.229,3.613-3.086,7.003,0.28c4.479,4.449,9.019,8.841,13.612,13.173c1.221,1.152,1.48,1.766,0.016,3.021
		c-6.489,5.563-11.838,12.242-17.702,18.419c-2.641,2.78-5.396,5.433-8.452,7.745c-4.398,3.329-8.453,7.035-12.213,11.053
		c-6.817,7.283-14.333,13.808-21.831,20.356c-2.72,2.375-5.26,4.938-7.782,7.865c-0.896-3.733-1.72-7.041,0.191-10.415
		c0.815-1.439,0.545-3.186-0.798-4.279c-2.222-1.813-3.818-4.138-5.646-6.279c-0.525-0.616-1.146-1.166-1.783-1.668
		c-0.725-0.569-1.538-1.021-2.388-0.204c-0.74,0.71-0.796,1.547-0.316,2.438c1.484,2.756,3.098,5.436,5.431,7.557
		c0.892,0.813,1.239,1.547,0.825,2.697c-0.465,1.292-0.357,2.662-0.142,3.973c0.426,2.569,0.458,5.023-1.193,7.237
		c-0.478,0.642-0.583,1.499-0.286,2.138c1.01,2.167-0.19,3.382-1.652,4.667c-3.49,3.068-3.447,3.088-6.523-0.585
		c-3.097-3.697-6.458-7.121-10.26-10.12c-1.186-0.935-2.032-2.291-3.103-3.384c-0.744-0.76-0.316-1.294,0.144-1.922
		c1.234-1.688,2.63-3.24,4.208-4.593c4.241-3.641,8.077-7.659,11.622-11.974c0.934-1.136,1.959-2.575,2.954,0.101
		c0.426,1.145,1.697,1.135,2.434,0.387c3.364-3.412,7.609-5.957,10.109-10.217c0.261-0.443,0.615-0.916,0.201-1.423
		c-0.443-0.545-0.952-0.141-1.423,0.012c-0.42,0.136-0.826,0.314-1.24,0.473C176.946,125.135,176.664,124.99,176.381,124.845z
		 M207.98,102.325c-0.052-1.561-0.647-2.485-1.922-2.943c-1.502-0.54-1.749,0.726-2.188,1.581c-1.456,2.837-2.787,5.737-4.289,8.547
		c-0.948,1.774-2.095,3.529-4.133,4.188c-4.977,1.605-8.734,4.947-12.351,8.489c-0.646,0.632-1.988,1.199-1.046,2.514
		c0.916,1.278,2.138,1.437,3.552,0.825c1.533-0.663,2.858-1.643,3.945-2.854c2.12-2.363,4.785-3.342,7.854-3.653
		c2.655-0.269,5.304-0.678,7.782-1.768c1.985-0.874,2.101-1.822,0.563-3.248c-0.777-0.721-2.482-0.633-2.396-1.877
		c0.077-1.087,0.976-2.123,1.533-3.169c0.77-1.441,1.607-2.847,2.32-4.314C207.589,103.853,207.772,102.965,207.98,102.325z"/>
	<path fill-rule="evenodd" clip-rule="evenodd" fill="#F4F3F3" d="M146.131,104.362c-0.558-1.357-0.124-3.401-2.257-3.092
		c-1.945,0.28-2.519,1.855-2.668,3.605c-0.027,0.295-0.098,0.626,0,0.886c1.124,2.991-0.697,4.719-2.572,6.617
		c-4.698,4.757-9.366,9.538-14.441,13.903c-1.03,0.887-1.553,1.567-2.963-0.075c-3.161-3.682-6.81-6.951-10.324-10.321
		c-1.078-1.033-1.171-1.882-0.169-2.978c0.799-0.874,1.436-1.897,2.236-2.77c2.706-2.949,2.69-2.857,6.337-1.421
		c2.764,1.088,5.655,1.729,8.673,1.502c1.888-0.143,3.446,0.727,4.976,1.662c1.577,0.963,2.687,0.974,3.678-0.986
		c1.771-3.504,3.961-6.803,5.36-10.489c0.432-1.139,1.484-2.851-0.24-3.514c-1.487-0.572-2.78,0.521-3.326,2.179
		c-0.206,0.624-0.595,1.194-0.949,1.76c-4.078,6.537-4.849,5.708-11.785,4.652c-0.581-0.088-1.279-0.325-1.424-0.936
		c-0.184-0.769,0.505-1.259,1.077-1.514c1.627-0.723,2.784-1.959,3.857-3.291c1.236-1.533,2.963-1.893,4.751-2.102
		c1.854-0.217,3.321-0.958,3.791-2.881c0.752-3.068,2.698-5.201,5.113-7.055c1.279-0.984,2.479-2.083,3.59-3.705
		c0.11,2.141-0.985,3.29-2.163,4.259c-2.249,1.853-2.479,4.296-2.21,6.878c0.162,1.553,1.06,2.038,2.505,1.217
		c2.061-1.171,3.631-2.857,4.799-4.863c1.9-3.269,3.582-6.668,5.514-9.919c5.019-8.445,13.021-11.818,22.323-12.88
		c0.659-0.076,1.337-0.038,2.004-0.016c1.172,0.037,1.514-0.748,1.688-1.683c0.197-1.051-0.233-1.633-1.288-1.944
		c-2.366-0.698-4.72-0.46-7.05,0.033c-4.1,0.868-7.994,2.292-11.3,4.95c-0.982,0.79-1.718,0.954-2.703,0.132
		c-0.622-0.519-1.329-0.957-2.051-1.329c-1.743-0.896-2.305-0.582-2.522,1.438c-0.068,0.627-0.263,1.155-0.644,1.619
		c-1.356,1.652-3.061,3.032-3.765,5.178c-0.671,2.039-1.449,4.043-2.192,6.1c-1.118-2.617-0.771-6.32,1.044-8.158
		c1.545-1.563,1.888-3.11,0.818-4.973c-0.779-1.356-0.25-2.085,0.823-3.139c6.039-5.928,11.92-12.017,17.875-18.03
		c4.548-4.59,9.128-9.143,13.984-13.414c1.271-1.118,2.005-1.31,3.393,0.04c4.911,4.779,10.338,9.006,15.086,13.98
		c0.947,0.992,1.154,1.477,0.132,2.436c-16.133,15.136-30.931,31.66-47.868,45.958C150.377,99.818,148.074,101.777,146.131,104.362z
		 M162.415,78.501c-1.189,0.282-3.298,0.266-3.592,1.843c-0.322,1.724,1.52,2.422,3.11,2.795c0.933,0.219,1.854,0.492,2.766,0.786
		c0.705,0.227,1.083,0.055,1.31-0.685C166.7,80.995,165.033,78.567,162.415,78.501z"/>
	<path fill-rule="evenodd" clip-rule="evenodd" fill="#F4F3F3" d="M139.378,71.8c-1.432-2.293-3.21-2.61-5.358-1.923
		c-0.992,0.318-2.064,0.24-3.079-0.082c-1.554-0.491-3.105-0.989-4.648-1.51c-5.491-1.854-6.449-1.561-9.878,3.165
		c-0.985,1.358-2.169,2.5-3.755,3.024c-3.813,1.262-6.037,4.131-7.891,7.446c-2.833,5.068-4.891,10.487-7.075,15.841
		c-0.739,1.813-1.434,1.781-2.837,0.785c-2.455-1.742-4.324-4.052-6.391-6.177c-0.822-0.845-0.346-1.412,0.147-2.104
		c2.739-3.854,6.212-6.985,9.867-9.917c10.229-8.203,18.954-17.986,28.418-26.992c9.736-9.265,19.22-18.795,28.883-28.139
		c3.039-2.939,6.331-5.616,9.437-8.489c0.789-0.729,1.109-0.472,1.755,0.136c4.437,4.172,8.713,8.497,12.746,13.063
		c0.736,0.833,0.824,1.31-0.047,2.147c-7.647,7.366-14.719,15.306-22.492,22.554c-3.212,2.996-6.524,5.848-10.061,8.444
		C144.039,65.337,141.289,67.899,139.378,71.8z"/>
	<path fill-rule="evenodd" clip-rule="evenodd" fill="#F4F3F3" d="M164.158,131.283c-5.42,6.016-10.904,11.971-17.111,17.202
		c-2.195,1.851-3.143,1.876-5.174-0.13c-2.208-2.177-4.265-4.507-6.455-6.699c-0.848-0.846-0.899-1.401-0.11-2.381
		c2.659-3.294,2.633-3.366,6.193-1.139c1.349,0.843,2.611,1.104,4.199,0.662c1.943-0.542,4.045-0.522,5.97-0.031
		c2.252,0.572,3.809-0.352,4.14-2.209c0.906-5.069,2.847-9.774,4.459-14.602c0.197-0.592,0.225-1.445-0.061-1.961
		c-1.132-2.042,0.015-2.312,1.671-2.649c2.213-0.452,2.416-1.409,0.841-2.964c-1.576-1.556-3.326-1.35-5.14-0.519
		c-0.873,0.399-1.731,0.835-2.618,1.195c-0.775,0.314-1.64,0.551-2.247-0.248c-0.645-0.848-0.301-1.704,0.303-2.436
		c0.368-0.446,0.65-1.012,1.289-1.168c1.922,2.307,2.32,2.302,4.471,0.138c4.609-4.636,9.251-9.24,13.855-13.879
		c2.572-2.589,2.359-3.653-0.934-5.102c-2.991-1.316-3.473-4.012-1.05-6.071c4.822-4.097,9.044-8.806,13.566-13.208
		c2.153-2.095,3.235-2.131,6.213-0.093c-1.649-0.064-2.659,0.404-2.95,1.822c-0.206,0.997-0.991,0.583-1.622,0.592
		c-1.339,0.02-2.931-0.042-3.438,1.438c-0.546,1.589,0.76,2.562,1.93,3.394c0.481,0.343,1,0.659,1.543,0.887
		c1.767,0.742,2.593,1.709,1.949,3.867c-0.699,2.341,0.806,3.701,3.304,3.121c2.241-0.52,4.41-1.348,6.726-2.076
		c-0.16,1.175-1.146,1.267-1.678,1.803c-1.436,1.451-1.52,2.814-0.086,4.225c1.249,1.228,2.395,1.807,3.846,0.056
		c1.38-1.664,3.216-2.878,5.323-3.521c1.234-0.377,1.528-1.139,1.491-2.335c-0.093-3.032-1.301-5.529-3.698-7.291
		c-3.902-2.866-6.896-6.732-10.845-9.553c-2.203-1.575-2.03-1.953-0.15-3.921c3.894-4.08,8.562-7.352,11.936-11.477
		c7.264,5.691,13.669,12.321,19.926,19.087c-7.558,5.326-13.176,12.937-19.937,19.373c-6.616,6.299-13.068,12.773-19.97,18.766
		c-2.373,2.061-4.497,4.315-6.295,6.884c-2.377,3.396-5.489,5.696-9.724,5.941c-3.617,0.21-6.029,2.622-8.777,4.417
		c-1.16,0.757-0.704,2.526,0.724,2.952c1.315,0.393,2.637,0.293,3.844-0.469C163.918,131.075,164.038,131.179,164.158,131.283z
		 M185.839,105.338c0.309-0.027,1.138-0.014,1.928-0.183c2.059-0.437,2.921-1.975,2.326-4.005c-0.687-2.347-2.246-1.137-3.374-0.674
		c-3.051,1.252-5.777,1.011-8.254-1.243c-0.705-0.641-1.521-1.054-2.424-0.535c-1.419,0.817-2.684,1.907-3.64,3.205
		c-0.879,1.194-0.338,2.492,0.699,3.36c1.085,0.908,1.549-0.343,2.043-0.928c0.641-0.756,1.223-0.774,2.128-0.509
		C179.899,104.596,182.564,105.265,185.839,105.338z M182.408,96.663c1.168-0.026,1.879-0.628,2.39-1.506
		c0.575-0.99,0.365-2.098-0.464-2.598c-2.678-1.616-4.459-4.022-6.303-6.425c-0.765-0.996-1.863-1.224-2.878-0.203
		c-0.898,0.903-1.46,1.829-0.373,3.058c1.439,1.625,3.109,2.953,4.922,4.11c0.759,0.484,1.538,0.747,1.176,1.995
		C180.52,96.328,181.622,96.471,182.408,96.663z M174.094,109.611c0.045,2.978,2.088,4.323,4.773,3.109
		c1.602-0.724,2.88-1.853,3.552-3.492c0.333-0.814,1.157-1.761,0.236-2.626c-0.792-0.744-1.808-0.475-2.732-0.113
		c-0.408,0.161-0.889,0.297-1.167,0.6c-0.65,0.706-1.241,0.671-2.128,0.383C174.832,106.89,174.063,107.618,174.094,109.611z
		 M167.919,114.021c0.018,2.465,1.662,3.826,3.551,4.899c0.736,0.418,1.829,1.022,2.51-0.208c0.534-0.964,0.67-1.959-0.381-2.76
		c-1.243-0.95-1.832-2.249-2.066-3.773c-0.108-0.702-0.237-1.562-1.211-1.6c-0.797-0.03-1.409,0.45-1.805,1.104
		C168.094,112.384,167.866,113.167,167.919,114.021z M186.979,87.709c-0.133-1.076-0.313-2.307-1.062-3.373
		c-0.937-1.336-2.031-1.478-3.405-0.613c-1.466,0.922-1.331,1.888-0.313,3.03c0.683,0.766,1.295,1.598,1.977,2.365
		c0.531,0.595,1.11,1.368,2.02,0.913C187.022,89.618,186.978,88.697,186.979,87.709z"/>
	<path fill-rule="evenodd" clip-rule="evenodd" fill="#F4F3F3" d="M118.118,99.098c0.301-5.036-0.771-6.206-5.892-6.649
		c-1.176-0.102-2.333-0.479-3.509-0.543c-1.223-0.066-2.471,0.197-2.814,1.626c-0.315,1.309,0.561,2.089,1.617,2.601
		c0.864,0.418,1.789,0.707,2.688,1.049c1.524,0.582,2.083,1.662,0.893,2.873c-2.275,2.313-4.724,4.457-7.134,6.635
		c-0.6,0.542-1.366,0.361-1.776-0.222c-0.861-1.224-2.765-1.929-2.1-3.963c0.046-0.141,0.062-0.317,0.156-0.414
		c3.191-3.252,3.786-7.793,5.768-11.645c0.576-1.12,1.212-1.591,2.606-1.359c4.046,0.671,7.827,2.153,11.658,3.496
		c0.541,0.19,0.845,0.536,0.881,1.138c0.16,2.6,0.33,5.2-0.911,7.63c-0.336,0.66-0.708,1.539-1.536,1.388
		c-1.026-0.188-0.531-1.193-0.586-1.864C118.08,100.286,118.118,99.69,118.118,99.098z"/>
	<path fill-rule="evenodd" clip-rule="evenodd" fill="#F4F3F3" d="M165.447,92.142c1.523,1.822,1.566,3.537,0.255,5.353
		c-2.886,4-6.53,7.291-9.986,10.759c-0.416,0.418-0.789,0.702-1.232,0.039c-1.188-1.775-2.621-1.199-4.083-0.424
		c-0.519,0.274-1.068,0.487-1.598,0.74c-0.343,0.163-0.767,0.361-0.938-0.078c-0.108-0.274,0.002-0.798,0.214-1.008
		c1.688-1.665,3.439-3.264,5.135-4.921c0.702-0.686,1.35-0.365,2.023-0.047c2.021,0.95,2.871-0.054,3.204-1.911
		c0.09-0.509,0.188-1.031,0.176-1.544c-0.035-1.774,0.507-2.799,2.576-2.524c1.706,0.228,2.779-0.765,3.383-2.311
		C164.841,93.583,165.129,92.913,165.447,92.142z"/>
	<path fill-rule="evenodd" clip-rule="evenodd" fill="#F4F3F3" d="M147.903,113.413c-1.049,3.108-0.591,4.148,2.433,6.535
		c2.585,2.042,2.922,2.023,7.021-0.594c-1.139,2.811-2.149,5.312-3.164,7.81c-0.354,0.869-0.857,0.846-1.528,0.304
		c-3.459-2.799-6.819-5.693-9.589-9.212c-0.557-0.708-0.752-1.185,0.175-1.752C144.693,115.621,146.073,114.638,147.903,113.413z"/>
	<path fill-rule="evenodd" clip-rule="evenodd" fill="#F4F3F3" d="M132.264,123.637c0.253,3.661,1.229,6.647,3.176,9.26
		c0.512,0.685,0.328,1.106-0.196,1.703c-2.642,3-3.663,3.053-6.392,0.188c-0.356-0.374-0.696-0.765-1.04-1.151
		c-2.451-2.75-2.451-3.469,0.057-6.32C129.041,125.984,130.47,124.955,132.264,123.637z"/>
	<path fill-rule="evenodd" clip-rule="evenodd" fill="#F4F3F3" d="M131.449,93.752c-0.813-1.529-1.23-3.074-1.45-4.704
		c-0.773-5.782-3.364-8.381-9.1-9.236c-1.615-0.241-3.244-0.375-4.856-0.623c-0.444-0.067-1.233,0.11-1.199-0.628
		c0.03-0.663,0.66-0.985,1.308-0.938c1.106,0.082,2.213,0.203,3.306,0.386c3.454,0.576,6.71,1.763,9.887,3.21
		c1.677,0.763,2.468,1.959,2.515,3.812C131.934,87.95,132.394,90.876,131.449,93.752z"/>
	<path fill-rule="evenodd" clip-rule="evenodd" fill="#F4F3F3" d="M147.502,133.112c-2.141,1.304-3.875,1.193-5.688-0.272
		c-3.429-2.776-7.271-5.279-4.65-10.728C139.846,126.355,143.323,129.997,147.502,133.112z"/>
	<path fill-rule="evenodd" clip-rule="evenodd" fill="#F4F3F3" d="M109.635,83.864c0.914-1.283,1.991-1.154,3.104-0.859
		c3.287,0.873,6.579,1.72,9.854,2.624c3.468,0.956,4.608,3.399,3.095,7.398c-1.355-5.842-5.996-6.454-10.406-7.395
		C113.409,85.232,111.536,84.856,109.635,83.864z"/>
	<path fill-rule="evenodd" clip-rule="evenodd" fill="#F4F3F3" d="M128.232,73.976c0.733,0.083,1.474,0.122,2.199,0.253
		c6.031,1.097,7.308,3.362,5.044,10.068c-1.001-5.892-4.673-8.484-9.466-9.89C126.649,73.743,127.511,74.223,128.232,73.976z"/>
	<path fill-rule="evenodd" clip-rule="evenodd" fill="#F4F3F3" d="M143.474,74.976c-0.2,2.708-1.138,5.154-2.467,7.459
		c-0.13,0.227-0.438,0.497-0.662,0.496c-0.489-0.002-0.451-0.468-0.489-0.824C139.528,78.995,141.131,76.824,143.474,74.976z"/>
	<path fill-rule="evenodd" clip-rule="evenodd" fill="#D6E8D1" d="M106.915,110.659c-0.878-0.157-0.685-0.621-0.269-1.056
		c1.469-1.54,2.965-3.054,4.444-4.583c0.214-0.22,0.433-0.426,0.735-0.221c0.285,0.192,0.328,0.551,0.129,0.771
		c-1.524,1.682-3.074,3.341-4.628,4.995C107.246,110.652,107.051,110.631,106.915,110.659z"/>
	<path fill-rule="evenodd" clip-rule="evenodd" fill="#D6E8D1" d="M128.232,73.976c-0.721,0.247-1.583-0.233-2.224,0.432
		c-1.771-0.239-3.544-0.478-5.316-0.716c0.025-0.197,0.05-0.395,0.075-0.593C123.312,72.635,125.75,73.59,128.232,73.976z"/>
	<path fill-rule="evenodd" clip-rule="evenodd" fill="#D6E8D1" d="M176.381,124.845c0.283,0.145,0.565,0.29,0.848,0.434
		c-0.636,0.383-1.274,0.765-1.91,1.147c-0.094-0.11-0.196-0.212-0.302-0.309C175.325,125.538,175.81,125.143,176.381,124.845z"/>
	<path fill-rule="evenodd" clip-rule="evenodd" fill="#D6E8D1" d="M174.186,127.076c-0.127-0.67,0.367-0.801,0.831-0.958
		c0.105,0.097,0.208,0.199,0.302,0.309c-0.334,0.299-0.593,0.732-1.146,0.633L174.186,127.076z"/>
	<path fill-rule="evenodd" clip-rule="evenodd" fill="#D6E8D1" d="M169.455,131.346c-0.255,0.272-0.565,0.867-0.893,0.434
		c-0.283-0.377,0.306-0.606,0.694-0.714C169.324,131.159,169.391,131.251,169.455,131.346z"/>
	<path fill-rule="evenodd" clip-rule="evenodd" fill="#D6E8D1" d="M171.472,129.261c0.128,0.699-0.339,0.841-0.868,0.923
		l0.023,0.029c-0.09-0.672,0.396-0.79,0.877-0.914L171.472,129.261z"/>
	<path fill-rule="evenodd" clip-rule="evenodd" fill="#D6E8D1" d="M172.272,128.309c0.335-0.173,0.56-0.734,1.067-0.31l-0.046-0.036
		c-0.264,0.436-0.517,0.916-1.079,0.308L172.272,128.309z"/>
	<path fill-rule="evenodd" clip-rule="evenodd" fill="#D6E8D1" d="M169.257,131.065c0.229-0.229,0.456-0.456,0.684-0.684
		c0.078,0.103,0.165,0.198,0.258,0.287c-0.248,0.224-0.495,0.449-0.743,0.677C169.391,131.251,169.324,131.159,169.257,131.065z"/>
	<path fill-rule="evenodd" clip-rule="evenodd" fill="#F4F3F3" d="M163.799,130.973c0.131-0.224,0.265-0.445,0.397-0.667
		c0.262,0.337,0.168,0.659-0.038,0.978C164.038,131.179,163.918,131.075,163.799,130.973z"/>
	<path fill-rule="evenodd" clip-rule="evenodd" fill="#D6E8D1" d="M173.34,128c-0.294-0.536,0.049-0.511,0.412-0.469
		c-0.001,0-0.033-0.032-0.033-0.032c0.043,0.325-0.143,0.439-0.426,0.465C173.294,127.963,173.34,128,173.34,128z"/>
	<path fill-rule="evenodd" clip-rule="evenodd" fill="#D6E8D1" d="M169.94,130.382c0.2-0.177,0.391-0.389,0.687-0.169l-0.023-0.029
		c0.057,0.322-0.113,0.451-0.405,0.485C170.105,130.58,170.019,130.484,169.94,130.382z"/>
	<path fill-rule="evenodd" clip-rule="evenodd" fill="#D6E8D1" d="M172.215,128.271c0.056,0.155,0.47,0.196,0.177,0.444
		c-0.111,0.097-0.341,0.057-0.516,0.078c0.002,0.002,0.052,0.041,0.052,0.041c0.119-0.172,0.236-0.345,0.351-0.521
		C172.272,128.309,172.215,128.271,172.215,128.271z"/>
	<path fill-rule="evenodd" clip-rule="evenodd" fill="#D6E8D1" d="M171.504,129.299c-0.014-0.3,0.162-0.423,0.425-0.464
		c-0.001-0.001-0.051-0.04-0.053-0.042c0.041,0.117,0.085,0.235,0.129,0.353c-0.179,0.038-0.354,0.076-0.533,0.114L171.504,129.299z
		"/>
	<path fill-rule="evenodd" clip-rule="evenodd" fill="#D6E8D1" d="M174.172,127.06c0.033,0.337-0.133,0.467-0.453,0.439
		c0,0,0.032,0.032,0.033,0.032c-0.1-0.386,0.055-0.528,0.434-0.454L174.172,127.06z"/>
	<path fill-rule="evenodd" clip-rule="evenodd" fill="#EE9222" d="M102.355,146.228c0.148,1.767-0.836,3.18-1.257,4.73
		c-0.278-0.033-0.369-0.018-0.412-0.055c-1.033-0.896-2.982-2.063-2.563-2.921c0.624-1.275,2.684-1.427,4.251-1.735L102.355,146.228
		z"/>
	<polygon fill-rule="evenodd" clip-rule="evenodd" fill="#EE9222" points="102.375,146.247 102.439,146.187 102.356,146.228 	"/>
	<path fill-rule="evenodd" clip-rule="evenodd" fill="#181817" d="M207.98,102.325c-0.208,0.641-0.392,1.528-0.775,2.318
		c-0.713,1.467-1.551,2.873-2.32,4.314c-0.558,1.047-1.456,2.082-1.533,3.169c-0.086,1.244,1.619,1.157,2.396,1.877
		c1.537,1.425,1.422,2.374-0.563,3.248c-2.479,1.09-5.127,1.499-7.782,1.768c-3.068,0.311-5.733,1.29-7.854,3.653
		c-1.087,1.211-2.412,2.191-3.945,2.854c-1.414,0.612-2.636,0.453-3.552-0.825c-0.942-1.315,0.399-1.882,1.046-2.514
		c3.616-3.542,7.374-6.884,12.351-8.489c2.038-0.659,3.185-2.414,4.133-4.188c1.502-2.81,2.833-5.71,4.289-8.547
		c0.439-0.855,0.687-2.121,2.188-1.581C207.333,99.84,207.929,100.764,207.98,102.325z"/>
	<path fill-rule="evenodd" clip-rule="evenodd" fill="#181817" d="M162.415,78.501c2.618,0.066,4.285,2.494,3.594,4.739
		c-0.227,0.74-0.604,0.912-1.31,0.685c-0.911-0.294-1.833-0.567-2.766-0.786c-1.591-0.373-3.433-1.071-3.11-2.795
		C159.117,78.767,161.226,78.783,162.415,78.501z"/>
	<path fill-rule="evenodd" clip-rule="evenodd" fill="#181817" d="M185.839,105.338c-3.274-0.074-5.939-0.743-8.567-1.512
		c-0.905-0.266-1.487-0.248-2.128,0.509c-0.494,0.585-0.958,1.836-2.043,0.928c-1.037-0.868-1.578-2.166-0.699-3.36
		c0.956-1.298,2.221-2.388,3.64-3.205c0.902-0.52,1.719-0.106,2.424,0.535c2.477,2.254,5.203,2.496,8.254,1.243
		c1.128-0.463,2.688-1.672,3.374,0.674c0.595,2.031-0.268,3.569-2.326,4.005C186.977,105.324,186.147,105.312,185.839,105.338z"/>
	<path fill-rule="evenodd" clip-rule="evenodd" fill="#181817" d="M182.408,96.663c-0.786-0.192-1.889-0.335-1.53-1.57
		c0.362-1.248-0.417-1.511-1.176-1.995c-1.813-1.157-3.482-2.484-4.922-4.11c-1.087-1.229-0.525-2.155,0.373-3.058
		c1.015-1.021,2.113-0.793,2.878,0.203c1.844,2.403,3.625,4.809,6.303,6.425c0.829,0.5,1.039,1.608,0.464,2.598
		C184.287,96.035,183.576,96.637,182.408,96.663z"/>
	<path fill-rule="evenodd" clip-rule="evenodd" fill="#181817" d="M174.094,109.611c-0.031-1.993,0.738-2.721,2.534-2.139
		c0.887,0.288,1.478,0.323,2.128-0.383c0.278-0.303,0.759-0.439,1.167-0.6c0.925-0.362,1.94-0.63,2.732,0.113
		c0.921,0.865,0.097,1.812-0.236,2.626c-0.672,1.639-1.95,2.768-3.552,3.492C176.182,113.934,174.139,112.589,174.094,109.611z"/>
	<path fill-rule="evenodd" clip-rule="evenodd" fill="#181817" d="M167.919,114.021c-0.053-0.855,0.175-1.638,0.598-2.338
		c0.396-0.654,1.008-1.134,1.805-1.104c0.974,0.039,1.103,0.898,1.211,1.6c0.234,1.524,0.823,2.824,2.066,3.773
		c1.051,0.801,0.915,1.796,0.381,2.76c-0.681,1.23-1.773,0.626-2.51,0.208C169.581,117.848,167.937,116.486,167.919,114.021z"/>
	<path fill-rule="evenodd" clip-rule="evenodd" fill="#181817" d="M186.979,87.709c-0.002,0.988,0.043,1.909-0.783,2.322
		c-0.909,0.456-1.488-0.317-2.02-0.913c-0.682-0.767-1.294-1.599-1.977-2.365c-1.019-1.142-1.153-2.108,0.313-3.03
		c1.374-0.865,2.469-0.723,3.405,0.613C186.666,85.402,186.847,86.634,186.979,87.709z"/>
	<g>
		<path d="M42.172,73.554l0.232,3.196H27.386c-1.202,0-2.228-0.214-3.081-0.64c-0.851-0.426-1.529-0.993-2.034-1.699
			c-0.503-0.707-0.867-1.496-1.088-2.368c-0.223-0.872-0.334-1.792-0.334-2.76c0-0.465,0.059-0.823,0.174-1.075h2.847
			c-0.039,0.427-0.059,0.775-0.059,1.046c0,1.297,0.324,2.339,0.974,3.123c0.648,0.785,1.69,1.177,3.124,1.177H42.172z"/>
		<path d="M42.172,91.855l0.232,3.195H28.228c-1.298,0-2.422-0.213-3.37-0.639c-0.949-0.427-1.718-0.998-2.309-1.714
			s-1.022-1.52-1.293-2.411c-0.27-0.891-0.406-1.812-0.406-2.76c0-0.949,0.136-1.869,0.406-2.76
			c0.271-0.891,0.703-1.694,1.293-2.411s1.36-1.288,2.309-1.714c0.948-0.426,2.072-0.639,3.37-0.639h13.944l0.232,3.196H29.099
			c-0.987,0-1.83,0.111-2.527,0.334c-0.698,0.223-1.259,0.532-1.685,0.929c-0.426,0.397-0.731,0.852-0.916,1.366
			c-0.185,0.513-0.276,1.079-0.276,1.699c0,0.62,0.091,1.186,0.276,1.7c0.185,0.513,0.49,0.968,0.916,1.365
			c0.426,0.397,0.987,0.707,1.685,0.93c0.697,0.223,1.54,0.334,2.527,0.334H42.172z"/>
		<path d="M37.35,108.21c0.852-0.62,1.5-1.245,1.946-1.874c0.444-0.629,0.668-1.313,0.668-2.048c0-0.911-0.287-1.675-0.858-2.295
			c-0.57-0.62-1.32-0.929-2.25-0.929c-0.872,0-1.588,0.387-2.149,1.162c-0.232,0.31-0.44,0.658-0.625,1.045
			c-0.185,0.387-0.402,0.92-0.654,1.598c-0.348,0.891-0.659,1.612-0.929,2.165c-0.272,0.551-0.634,1.089-1.088,1.612
			c-0.457,0.522-1.023,0.939-1.7,1.25c-0.679,0.31-1.501,0.464-2.47,0.464c-0.87,0-1.695-0.164-2.469-0.493
			c-0.774-0.33-1.457-0.79-2.048-1.38s-1.05-1.283-1.379-2.077c-0.33-0.794-0.495-1.656-0.495-2.585
			c0-2.615,1.171-4.717,3.515-6.304l2.236,2.266c-0.91,0.581-1.622,1.224-2.135,1.932c-0.512,0.707-0.77,1.447-0.77,2.222
			c0,0.91,0.33,1.675,0.988,2.295c0.658,0.62,1.442,0.93,2.354,0.93c0.502,0,0.938-0.102,1.308-0.305
			c0.366-0.203,0.682-0.479,0.944-0.828c0.261-0.348,0.479-0.721,0.653-1.118c0.175-0.397,0.388-0.935,0.639-1.612
			c0.33-0.891,0.625-1.613,0.886-2.164c0.261-0.553,0.615-1.08,1.061-1.583c0.444-0.503,1.016-0.911,1.713-1.22
			c0.697-0.31,1.54-0.464,2.527-0.464c0.853,0,1.646,0.164,2.382,0.494c0.736,0.329,1.381,0.789,1.933,1.38
			c0.552,0.591,0.978,1.283,1.278,2.077c0.3,0.794,0.45,1.636,0.45,2.527c0,1.259-0.295,2.368-0.886,3.327
			c-0.591,0.958-1.408,1.815-2.455,2.57L37.35,108.21z"/>
		<path d="M39.44,116.577v-5.956l2.848,0.93v13.567H39.44v-5.346H21.488l-0.233-3.196H39.44z"/>
	</g>
	<g>
		<path d="M102.269,212.884h3.427l5.869,14.062l6.129-14.062h3.312l-9.44,21.701L102.269,212.884z"/>
		<path d="M121.877,213.002l3.195-0.233v20.916l-3.195,0.233V213.002z"/>
		<path d="M138.232,217.824c-0.62-0.854-1.244-1.501-1.874-1.947c-0.63-0.445-1.312-0.669-2.049-0.669
			c-0.909,0-1.675,0.286-2.294,0.857s-0.93,1.321-0.93,2.252c0,0.871,0.387,1.588,1.162,2.149c0.309,0.233,0.657,0.441,1.046,0.624
			c0.387,0.187,0.92,0.404,1.598,0.653c0.892,0.35,1.611,0.659,2.164,0.931c0.553,0.272,1.089,0.634,1.612,1.089
			c0.522,0.456,0.939,1.021,1.249,1.7c0.31,0.677,0.465,1.5,0.465,2.469c0,0.87-0.165,1.694-0.493,2.47
			c-0.33,0.775-0.79,1.458-1.38,2.047c-0.592,0.593-1.284,1.053-2.078,1.38c-0.794,0.33-1.654,0.495-2.586,0.495
			c-2.613,0-4.716-1.172-6.303-3.516l2.266-2.235c0.581,0.91,1.224,1.621,1.932,2.135c0.707,0.513,1.448,0.768,2.223,0.768
			c0.91,0,1.675-0.327,2.295-0.985c0.619-0.659,0.93-1.444,0.93-2.355c0-0.502-0.103-0.938-0.306-1.305
			c-0.203-0.369-0.479-0.684-0.827-0.944c-0.35-0.263-0.723-0.479-1.119-0.653c-0.398-0.175-0.934-0.389-1.613-0.641
			c-0.89-0.329-1.611-0.624-2.163-0.885c-0.551-0.261-1.079-0.616-1.584-1.062c-0.503-0.446-0.91-1.018-1.22-1.714
			c-0.309-0.697-0.464-1.539-0.464-2.526c0-0.854,0.165-1.646,0.495-2.383c0.328-0.736,0.788-1.38,1.378-1.934
			c0.59-0.55,1.283-0.976,2.078-1.277c0.793-0.301,1.635-0.449,2.526-0.449c1.26,0,2.369,0.294,3.326,0.885
			c0.96,0.591,1.816,1.409,2.57,2.455L138.232,217.824z"/>
		<path d="M142.852,213.002l3.195-0.233v20.916l-3.195,0.233V213.002z"/>
		<path d="M153.048,215.732h-5.955l0.929-2.849h13.567v2.849h-5.346v17.952l-3.195,0.233V215.732z"/>
		<path d="M163.245,213.002l3.195-0.233v20.916l-3.195,0.233V213.002z"/>
		<path d="M172.918,233.685l-3.08,0.233v-21.556l13.827,14.264v-13.624l3.081-0.233v21.816l-13.828-14.495V233.685z"/>
		<path d="M206.471,217.707c-0.871-0.773-1.801-1.364-2.788-1.772c-0.988-0.406-2.054-0.608-3.196-0.608
			c-1.007,0-1.985,0.188-2.934,0.564c-0.95,0.379-1.801,0.927-2.557,1.642c-0.756,0.716-1.352,1.57-1.787,2.558
			s-0.654,2.072-0.654,3.254c0,1.18,0.219,2.266,0.654,3.253s1.031,1.841,1.787,2.558c0.756,0.714,1.606,1.262,2.557,1.641
			c0.948,0.377,1.927,0.565,2.934,0.565c1.026,0,2.033-0.173,3.021-0.522c0.988-0.348,1.792-0.775,2.412-1.277v-4.794h-4.532v-2.731
			h7.611v9.298c-1.473,0.987-2.867,1.732-4.183,2.235c-1.317,0.505-2.79,0.756-4.417,0.756c-1.471,0-2.87-0.262-4.197-0.785
			c-1.327-0.522-2.509-1.278-3.544-2.266s-1.844-2.159-2.425-3.515c-0.581-1.354-0.872-2.827-0.872-4.415s0.291-3.062,0.872-4.416
			c0.581-1.356,1.39-2.528,2.426-3.516c1.034-0.987,2.216-1.743,3.543-2.266c1.327-0.523,2.727-0.784,4.198-0.784
			c3.312,0,6.032,1.093,8.164,3.283L206.471,217.707z"/>
	</g>
</g>
</svg>
