<?xml version="1.0" encoding="utf-8"?>
<!-- Generator: Adobe Illustrator 16.0.0, SVG Export Plug-In . SVG Version: 6.00 Build 0)  -->
<!DOCTYPE svg PUBLIC "-//W3C//DTD SVG 1.1//EN" "http://www.w3.org/Graphics/SVG/1.1/DTD/svg11.dtd">
<svg version="1.1" id="Capa_1" xmlns="http://www.w3.org/2000/svg" xmlns:xlink="http://www.w3.org/1999/xlink" x="0px" y="0px"
	 width="256px" height="256px" viewBox="0 0 256 256" enable-background="new 0 0 256 256" xml:space="preserve">
<rect x="56.5" y="112.5" fill="#FFFFFF" width="123" height="124"/>
<g>
	<g>
		<path d="M218.666,96h-16V74.667C202.666,33.495,169.172,0,128,0S53.333,33.495,53.333,74.667V96h-16
			C34.385,96,32,98.386,32,101.333v133.333C32,246.433,41.567,256,53.333,256h149.333c11.766,0,21.333-9.567,21.333-21.334V101.333
			C224,98.386,221.615,96,218.666,96z M143.969,207.412c0.166,1.504-0.317,3.015-1.328,4.146c-1.01,1.13-2.458,1.776-3.974,1.776
			h-21.333c-1.516,0-2.963-0.646-3.974-1.776c-1.01-1.13-1.495-2.641-1.328-4.146l3.364-30.256
			c-5.463-3.974-8.729-10.26-8.729-17.156c0-11.766,9.567-21.334,21.333-21.334s21.333,9.568,21.333,21.334
			c0,6.896-3.266,13.183-8.729,17.156L143.969,207.412z M170.666,96H85.333V74.667C85.333,51.141,104.474,32,128,32
			c23.525,0,42.666,19.141,42.666,42.667V96z"/>
	</g>
</g>
</svg>
