<?xml version="1.0" encoding="utf-8"?>
<!-- Generator: Adobe Illustrator 16.0.0, SVG Export Plug-In . SVG Version: 6.00 Build 0)  -->
<!DOCTYPE svg PUBLIC "-//W3C//DTD SVG 1.1//EN" "http://www.w3.org/Graphics/SVG/1.1/DTD/svg11.dtd">
<svg version="1.1" id="Capa_1" xmlns="http://www.w3.org/2000/svg" xmlns:xlink="http://www.w3.org/1999/xlink" x="0px" y="0px"
	 width="612.015px" height="612.016px" viewBox="0 0 612.015 612.016" enable-background="new 0 0 612.015 612.016"
	 xml:space="preserve">
<g>
	<g id="_x31__20_">
		<g>
			<path fill="#FFFFFF" d="M595.417,54.357c-22.127-21.841-58.008-21.841-80.117,0l-328.558,324.37
				c-40.24-0.898-95.934,13.35-119.975,92.09C48.388,512.492,0,510.389,0,510.389c100.467,111.464,218.874,48.292,245.917,20.904
				c23.754-24.079,27.177-53.515,24.634-77.059l324.867-320.774C617.546,111.62,617.546,76.199,595.417,54.357z M219.198,504.92
				c-18.819,17.461-102.934,56.382-152.431,18.646c0,0,17.232-13.445,30.276-40.432c31.155-82.757,108.805-70.518,108.805-70.518
				l26.7,26.374C232.816,439.241,252.496,474.051,219.198,504.92z M259.267,412.618c-2.467-2.429-26.699-26.374-26.699-26.374
				l40.068-39.552l26.7,26.374L259.267,412.618z M568.699,107.087L326.035,346.692l-26.7-26.374L542,80.732
				c7.383-7.287,19.336-7.287,26.699,0C576.082,88,576.082,99.819,568.699,107.087z"/>
		</g>
	</g>
</g>
</svg>
