<?xml version="1.0" encoding="utf-8"?>
<!-- Generator: Adobe Illustrator 16.0.0, SVG Export Plug-In . SVG Version: 6.00 Build 0)  -->
<!DOCTYPE svg PUBLIC "-//W3C//DTD SVG 1.1//EN" "http://www.w3.org/Graphics/SVG/1.1/DTD/svg11.dtd">
<svg version="1.1" id="Layer_1" xmlns="http://www.w3.org/2000/svg" xmlns:xlink="http://www.w3.org/1999/xlink" x="0px" y="0px"
	 width="484px" height="484px" viewBox="0 0 484 484" enable-background="new 0 0 484 484" xml:space="preserve">
<path d="M416.773,33.409c-24.395-24.352-63.898-24.352-88.293,0l-22.102,22.223L71.109,290.776l-0.5,0.504
	c-0.121,0.121-0.121,0.25-0.25,0.25c-0.25,0.375-0.625,0.746-0.871,1.121c0,0.125-0.129,0.125-0.129,0.25
	c-0.25,0.375-0.371,0.625-0.625,1c-0.121,0.125-0.121,0.246-0.246,0.375c-0.125,0.375-0.25,0.625-0.379,1
	c0,0.121-0.121,0.121-0.121,0.25L15.788,452.495c-1.531,4.469-0.367,9.418,2.996,12.734c2.363,2.332,5.551,3.637,8.867,3.625
	c1.355-0.023,2.699-0.234,3.996-0.625l156.848-52.324c0.121,0,0.121,0,0.25-0.121c0.395-0.117,0.773-0.285,1.121-0.504
	c0.098-0.012,0.184-0.055,0.254-0.121c0.371-0.25,0.871-0.504,1.246-0.754c0.371-0.246,0.75-0.621,1.125-0.871
	c0.125-0.129,0.246-0.129,0.246-0.25c0.129-0.125,0.379-0.246,0.504-0.5l257.371-257.371c24.352-24.395,24.352-63.898,0-88.289
	L416.773,33.409z M184.499,386.558l-86.914-86.91L315.12,82.112l86.914,86.91L184.499,386.558z M85.343,322.749l75.93,75.926
	L47.257,436.636L85.343,322.749z M433.007,137.929l-13.238,13.363l-86.918-86.918l13.367-13.359
	c14.621-14.609,38.32-14.609,52.945,0l33.965,33.965C447.64,99.667,447.585,123.312,433.007,137.929z"/>
</svg>
