<?xml version="1.0" encoding="utf-8"?>
<!-- Generator: Adobe Illustrator 16.0.0, SVG Export Plug-In . SVG Version: 6.00 Build 0)  -->
<!DOCTYPE svg PUBLIC "-//W3C//DTD SVG 1.1//EN" "http://www.w3.org/Graphics/SVG/1.1/DTD/svg11.dtd">
<svg version="1.1" id="Layer_1" xmlns:svgjs="http://svgjs.com/svgjs"
	 xmlns="http://www.w3.org/2000/svg" xmlns:xlink="http://www.w3.org/1999/xlink" x="0px" y="0px" width="512px" height="228.5px"
	 viewBox="0 283.5 512 228.5" enable-background="new 0 283.5 512 228.5" xml:space="preserve">
<g>
	<path fill="#414042" d="M479.603,401.569l21.893-99.646c0.771-3.512-0.073-7.188-2.3-10.012c-2.228-2.825-5.604-4.502-9.201-4.57
		l-17.471-0.334c-3.912-0.075-7.611,1.758-9.921,4.911l-61.238,83.663l-267.378-5.092c-48.886-0.93-57.099,2.179-68.483,8.216
		c-3.239,1.718-6.297,3.339-12.415,5.115c-18.326,5.313-31.212,11.443-39.384,18.731c-8.057,7.187-9.853,14.114-9.938,18.658
		c-0.111,5.861,3.548,25.129,55.295,26.898l135.715,2.81l132.611,47.954c1.002,0.363,2.057,0.559,3.121,0.578l37.09,0.705
		c4.368,0.084,8.252-2.755,9.502-6.938c1.248-4.186-0.446-8.688-4.143-11.011l-50.887-31.984l175.202-24.517
		c6.215-0.869,10.71-6.374,10.321-12.638c-0.388-6.242-5.505-11.142-11.756-11.262c-0.018-0.001-0.034,0.001-0.051-0.002
		L479.603,401.569z"/>
</g>
</svg>
