<?xml version="1.0" encoding="utf-8"?>
<!-- Generator: Adobe Illustrator 16.0.0, SVG Export Plug-In . SVG Version: 6.00 Build 0)  -->
<!DOCTYPE svg PUBLIC "-//W3C//DTD SVG 1.1//EN" "http://www.w3.org/Graphics/SVG/1.1/DTD/svg11.dtd">
<svg version="1.1" id="Layer_1" xmlns="http://www.w3.org/2000/svg" xmlns:xlink="http://www.w3.org/1999/xlink" x="0px" y="0px"
	 width="256px" height="188.586px" viewBox="0 0 256 188.586" enable-background="new 0 0 256 188.586" xml:space="preserve">
<circle cx="92.587" cy="160.853" r="27.733"/>
<circle cx="199.253" cy="160.853" r="27.733"/>
<polyline points="133.974,141.247 33.28,141.247 33.28,75.093 218.86,75.093 218.86,141.247 133.974,141.247 "/>
<path d="M33.28,141.247c-37.825-37.14,0-66.153,0-66.153H40v66.153"/>
<polyline points="50.347,75.093 29.013,10.24 39.68,0 56.32,0 56.32,75.093 "/>
<polyline points="69.12,75.093 90.453,10.24 79.787,0 63.146,0 63.146,75.093 "/>
<rect x="51.2" width="13.653" height="95.573"/>
<polyline points="37.547,139.523 0,188.586 42.667,188.586 63.146,139.523 "/>
<ellipse cx="189.72" cy="44.77" rx="18.2" ry="32.03"/>
<path d="M189.72,12.74H256V25.6c0,0-59.733,64.853-13.653,107.52v8.127h-29.014"/>
<rect x="189.72" y="55.04" width="21.48" height="29.013"/>
</svg>
