<?xml version="1.0" encoding="utf-8"?>
<!-- Generator: Adobe Illustrator 16.0.0, SVG Export Plug-In . SVG Version: 6.00 Build 0)  -->
<!DOCTYPE svg PUBLIC "-//W3C//DTD SVG 1.1//EN" "http://www.w3.org/Graphics/SVG/1.1/DTD/svg11.dtd">
<svg version="1.1" xmlns="http://www.w3.org/2000/svg" xmlns:xlink="http://www.w3.org/1999/xlink" x="0px" y="0px"
	 width="413.058px" height="326.13px" viewBox="0 0 413.058 326.13" enable-background="new 0 0 413.058 326.13"
	 xml:space="preserve">
<g id="Layer_2">
	<g>
		<path fill="#FCDA00" d="M73,227.296c25,37,95,39,135,41c37,2,101-8,130-32c12-9,16-21,21-34c3-9,5-28,14-31c15-5,29,15,31,26
			c2,9,0,20,0,30c0,55-59,69-105,79c-46,9-95,16-143,14c-41-2-106-19-130-55c-12-18-19-65-8-83c7-11,27-26,36-33c11-9,25-15,38-21
			c6,12,2,40,4,55c1,10,6,16-1,24c-6,8-20,5-25,16"/>
		<g>
			<path fill="#FEDA00" d="M70.841,228.558c11.192,16.189,29.197,25.117,47.554,30.767c20.53,6.317,42.244,8.591,63.591,10.06
				c19.881,1.367,39.677,2.306,59.56,0.475c23.172-2.133,46.462-6.749,68.215-15.128c9.474-3.649,18.686-8.182,26.88-14.214
				c9.468-6.972,15.83-15.496,20.354-26.316c4.143-9.904,6.204-20.025,9.55-30.152c1.442-4.367,3.539-9.301,8.302-10.685
				c5.875-1.707,11.743,2.021,15.859,5.81c9.252,8.518,12.015,19.687,11.585,31.845c-0.429,12.139-0.137,24.825-3.996,36.47
				c-6.298,19.001-23.407,31.134-40.854,39.104c-18.688,8.536-39.127,12.946-59.104,17.295
				c-31.492,6.854-63.935,11.207-96.08,13.295c-49.02,3.185-100.172-1.52-143.62-26.398c-13.9-7.96-27.353-18.827-34.225-33.635
				c-7.355-15.848-9.957-34.943-9.307-52.264c0.271-7.241,1.343-14.977,5.055-21.326c4.455-7.62,12.426-13.772,19.075-19.37
				c6.929-5.835,14.096-11.645,21.522-16.835c10.016-7,21.457-11.812,32.506-16.898c-1.14-0.299-2.28-0.598-3.42-0.896
				c3.82,8.187,3.188,18.483,3.152,27.289c-0.037,9.354-0.44,18.688,0.696,27.996c0.534,4.375,2.15,8.564,2.465,12.964
				c0.395,5.507-4.104,9.971-8.817,11.942c-7.585,3.175-15.41,4.234-19.496,12.285c-1.456,2.868,2.858,5.399,4.317,2.523
				c4.524-8.914,15.417-7.369,22.336-13.2c8.183-6.896,6.678-14.968,4.626-24.265c-2.262-10.248-1.163-21.293-1.122-31.697
				c0.038-9.361,0.203-19.696-3.84-28.361c-0.615-1.318-2.276-1.424-3.42-0.896c-12.779,5.882-26.092,11.474-37.172,20.324
				c-8.595,6.866-17.384,13.438-25.504,20.88c-6.91,6.333-13.08,13.015-15.745,22.161c-2.764,9.48-2.64,19.876-1.901,29.625
				c1.455,19.19,6.129,39.478,18.78,54.464c13.722,16.256,33.922,26.445,53.46,33.879c49.47,18.821,102.422,17.74,154.221,11.447
				c27.387-3.327,54.729-7.994,81.55-14.474c19.398-4.687,39.043-10.603,56.06-21.304c15.872-9.982,27.598-24.899,30.974-43.572
				c0.949-5.253,0.953-10.525,1.112-15.839c0.232-7.749,1.254-15.426,0.477-23.179c-0.956-9.526-6.086-18.271-12.809-24.913
				c-6.19-6.117-15.835-10.152-24.11-5.757c-7.568,4.02-9.553,16.123-11.354,23.532c-2.689,11.058-6.777,22.273-13.27,31.695
				c-6.347,9.211-17.009,15.482-26.85,20.34c-20.834,10.283-44.519,15.354-67.422,18.334c-20.337,2.646-40.404,2.26-60.815,1.122
				c-21.229-1.184-42.528-3.139-63.2-8.318c-19.544-4.896-40.207-13.403-52.062-30.552
				C73.339,223.402,69.002,225.898,70.841,228.558L70.841,228.558z"/>
		</g>
	</g>
	<g>
		<path fill-rule="evenodd" clip-rule="evenodd" fill="#FBD901" d="M96.667,204.295c18.667-2,33.333-11.333,51.333-14
			c16.667-2.667,34-2,51.333-3.333c34-2,65.333-3.334,98.667,4.666c18,4.667,35.333,8.667,52,14.667
			c17.333,6,29.333,25.333,47.333,27.333c8-24,12.667-53.333-6-74.666c-8.666-10.667-10-6-16,2.666c-3.333,6,1.334,5.334-7.333,8
			c-3.333,0.667-7.333,0-10,0c-13.333-0.666-26.667-2.666-39.333-6c2.666,0.667,6,2,8.666,2.667c-16-10.667-44-8-62.666-8
			c-13.334,0-27.334,1.333-40,0c-10-0.667-14.667-5.333-23.333-8.667c-22.667-8-56.667-0.666-79.333,4
			c-21.333,3.334-48.667,8-29.333,37.334"/>
	</g>
	<g>
		<path fill-rule="evenodd" clip-rule="evenodd" fill="#FBD901" d="M102,166.295c1.333-13.333-12-26.667,0.667-36.667
			c12-10,37.333-14.666,52-20c8-2.666,17.333-4.666,26-8c8-2.666,15.333-11.333,1.333-12c-6,0-22,6-28,8
			c-8.667,2.667-16.667,9.334-25.333,12.667c-23.333,9.333-50,16.667-45.333,47.333"/>
		<g>
			<path fill="#FEDA00" d="M104.5,166.295c0.343-5.421-1.11-10.521-2.683-15.655c-1.972-6.434-3.861-12.811,1.398-18.197
				c8.086-8.284,22.222-11.374,32.911-14.523c12.152-3.581,24.241-7.327,36.391-10.917c6.441-1.903,19.384-4.905,19.866-13.63
				c0.47-8.505-14.396-5.898-18.844-4.742c-9.996,2.601-20.668,5.952-29.787,10.835c-6.027,3.228-11.665,6.813-18.055,9.331
				c-4.828,1.902-9.693,3.716-14.466,5.756c-8.614,3.683-17.192,8.041-23.439,15.213c-6.978,8.01-8.268,18.338-6.869,28.526
				c0.437,3.183,5.254,1.823,4.821-1.328c-1.537-11.197,1.53-20.866,10.222-28.207c7.817-6.602,18.184-10.137,27.58-13.782
				c11.605-4.505,21.829-11.714,33.565-15.772c4.678-1.618,9.35-3.248,14.083-4.698c4.77-1.462,10.667-3.627,15.55-1.469
				c3.145,1.391-7.573,6.492-8.483,6.832c-7.385,2.754-15.12,4.496-22.641,6.825c-11.16,3.456-22.476,6.607-33.524,10.409
				c-9.165,3.153-21.335,7.505-26.028,16.717c-4.959,9.733,3.468,21.165,3.521,31.098c-0.029,0.46-0.058,0.919-0.087,1.379
				C99.296,169.517,104.297,169.498,104.5,166.295L104.5,166.295z"/>
		</g>
	</g>
	<g>
		<path fill-rule="evenodd" clip-rule="evenodd" fill="#FBD901" d="M379.333,164.295c-1.333-18-26-28-40-38
			c-12.666-8-42-10.667-48-24c-11.333-25.333,26-2,35.334,2c17.333,8,36,19.333,50.666,32.667c4,4,22,26.666,8.667,30"/>
		<g>
			<path fill="#FEDA00" d="M381.833,164.295c-2.146-20.854-26.342-29.687-41.238-40.159c-7.521-5.287-17.933-7.155-26.504-10.049
				c-9.059-3.057-18.724-6.593-21.857-16.436c-0.634-1.991-1.298-4.369,1.336-4.49c3.182-0.146,6.575,1.336,9.474,2.463
				c6.868,2.67,13.302,6.371,19.88,9.66c11.133,5.568,22.081,11.035,32.508,17.9c9.24,6.084,18.604,12.722,25.221,21.706
				c2.646,3.592,12.72,17.264,4.685,19.661c-3.083,0.919-1.769,5.745,1.328,4.82c16.12-4.808-0.941-26.916-6.936-33.521
				c-8.678-9.562-21.198-16.989-32.207-23.49c-8.657-5.111-17.816-9.164-26.729-13.775c-5.85-3.026-29.075-17.661-33.57-6.624
				c-2.438,5.988,2.623,14.126,6.974,17.848c7.089,6.066,17.057,8.664,25.749,11.445c5.285,1.691,10.632,3.325,15.621,5.785
				c5.219,2.574,10.06,6.346,15.035,9.382c10.358,6.321,24.845,14.403,26.231,27.873C377.16,167.47,382.163,167.501,381.833,164.295
				L381.833,164.295z"/>
		</g>
	</g>
</g>
<g id="Layer_1">
	<path fill-rule="evenodd" clip-rule="evenodd" d="M199.378,326.13c-12.786-0.658-25.583-1.158-38.355-2.019
		c-12.594-0.849-25.148-2.312-37.747-3.053c-17.303-1.018-33.941-4.982-49.766-11.714c-11.088-4.717-21.992-10.205-32.14-16.665
		c-6.057-3.855-10.618-10.14-15.637-15.532c-9.513-10.221-14.549-23.006-17.42-36.137c-3.017-13.796-5.573-28.035-4.006-42.295
		c0.948-8.637,5.577-16.105,10.848-23.044c12.851-16.915,29.1-29.912,47.315-40.444c13.308-7.695,26.866-15.017,40.665-21.787
		c14.025-6.881,28.202-13.649,42.841-19.026c11.673-4.287,24.079-6.698,36.286-9.363c5.691-1.243,9.122-4.67,10.313-9.552
		c2.61-10.692,5.752-8.735,13.654-8.314c11.843,0.63,23.656,1.851,35.48,2.835c13.54,1.127,27.09,2.168,40.604,3.571
		c1.311,0.136,3.096,2.403,3.426,3.945c0.785,3.667,2.615,5.428,6.234,6.546c22.427,6.932,43.623,16.814,62.631,30.465
		c13.525,9.714,26.439,20.624,38.084,32.509c11.391,11.627,17.787,26.367,19.468,43.052c1.529,15.179,1.132,30.296-1.294,45.184
		c-2.783,17.083-7.869,33.729-23.502,43.923c-9.425,6.145-19.496,11.413-29.646,16.313c-21.076,10.174-43.578,15.895-66.4,20.767
		c-25.086,5.354-50.305,8.897-75.974,8.997c-5.315,0.021-10.632,0.003-15.948,0.003C199.385,325.572,199.381,325.851,199.378,326.13
		z M219.547,170.125c-17.556,1.366-33.819,2.086-49.934,4.039c-16.54,2.006-33.151,4.293-49.341,8.114
		c-25.849,6.102-49.287,18.228-71.364,32.747c-9.297,6.113-17.264,13.985-19.296,25.79c-0.899,5.223-1.78,10.559-1.637,15.815
		c0.11,4.074,0.747,8.92,3.061,11.973c3.998,5.275,8.942,10.234,14.443,13.891c14.64,9.732,30.531,17.376,47.725,21.11
		c15.438,3.353,31.198,5.556,46.929,7.132c13.637,1.367,27.465,1.968,41.152,1.443c23.706-0.908,47.393-2.645,71.039-4.619
		c16.143-1.348,32.382-2.758,48.256-5.816c22.483-4.332,44.253-11.469,64.304-22.863c9.594-5.453,19.449-10.831,26.195-20.023
		c5.061-6.894,7.789-19.116,2.348-28.43c-7.264-12.433-17.607-21.254-29.397-28.055c-11.157-6.437-23.452-11.148-35.656-15.464
		c-18.274-6.462-37.196-10.406-56.603-11.96C253.943,173.522,236.15,171.674,219.547,170.125z M186.1,95.96
		c-0.264-0.523-0.528-1.049-0.792-1.573c-0.789,0.065-1.587,0.069-2.364,0.202c-23.075,3.949-44.595,12.75-65.898,21.9
		c-12.815,5.504-25.176,12.191-37.323,19.084c-9.99,5.67-19.715,11.956-28.898,18.848c-7.15,5.365-13.547,11.832-19.776,18.293
		c-3.748,3.889-6.773,8.553-9.701,13.138c-7.005,10.974-5.528,23.245-4.764,35.308c0.244,3.85,1.299,7.648,2.055,11.869
		c1.095-0.76,1.708-0.948,1.848-1.317c5.131-13.483,15.206-22.71,26.73-30.495c14.148-9.56,30.106-15.402,45.902-21.538
		c19.698-7.651,40.346-11.446,61.078-14.642c11.285-1.74,22.754-2.343,34.158-3.238c6.006-0.471,4.798-4.793,4.849-8.4
		c0.057-4.031-2.724-4.433-5.855-4.104c-5.604,0.59-11.213,1.148-16.808,1.818c-7.714,0.924-15.451,1.733-23.118,2.967
		c-11.249,1.809-22.412,4.166-33.675,5.867c-6.723,1.015-13.479-2.918-16.175-8.539c-2.728-5.686-1.348-11.932,3.536-17.301
		c5.957-6.551,13.639-10.217,21.504-13.848c18.784-8.67,37.401-17.67,58.089-21.129C182.624,98.809,184.306,97.052,186.1,95.96z
		 M242.72,77.203c-9.234-0.458-18.174-0.792-27.097-1.375c-8.846-0.578-10.532,1.096-9.406,10.042
		c1.036,8.229,2.071,16.46,3.195,24.678c1.232,9.012,2.598,18.005,3.846,27.014c0.627,4.523,3.391,6.762,7.693,6.945
		c22.271,0.947,44.547,1.841,66.826,2.618c6.479,0.226,7.809-1.384,6.341-7.763c-3.974-17.269-8.107-34.5-12.299-51.718
		c-0.426-1.749-1.675-3.297-2.546-4.945c-4.045,3.663-7.558,6.843-10.898,9.869c1.687,3.071,4.168,6.434,5.41,10.204
		c1.055,3.201,2.552,4.24,5.658,4.169c1.765-0.04,3.543,0.536,5.316,0.835c0.072,0.58,0.145,1.159,0.218,1.739
		c-2.806,1.093-5.63,2.138-8.407,3.297c-1.433,0.599-2.887,1.25-4.145,2.142c-3.572,2.531-6.742,5.893-10.648,7.609
		c-3.639,1.598-5.225,3.178-4.843,7.217c0.415,4.396-0.036,8.797-5.188,12.039c-0.433-5.704-0.865-11.408-1.325-17.475
		c-9.327-2.647-19.606-4.898-21.747-17.524c-5.195,2.86-9.797,3.155-15,0.477c4.02-4.351,8.396-5.659,13.941-4.237
		c1.986-7.703,6.277-13.212,14.086-15.354c7.532-2.065,14.695-0.232,19.898,1.68c4.506-3.498,7.934-6.158,12.26-9.515
		c-7.577-0.688-14.011-1.24-20.438-1.872c-2.727-0.268-3.863,0.917-4.318,3.565c-0.162,0.94-1.831,2.392-2.613,2.275
		c-1.189-0.177-2.48-1.334-3.207-2.423C242.716,80.567,242.94,79.188,242.72,77.203z M294.742,108.683
		c4.514,0.684,8.28,0.537,11.424,1.866c9.74,4.119,19.562,8.231,28.758,13.401c12.283,6.906,24.146,14.596,35.927,22.347
		c7.81,5.138,10.393,12.51,7.507,21.708c-1.5,4.782-3.361,6.4-8.256,5.351c-10.51-2.255-20.936-4.911-31.473-7.021
		c-11.539-2.311-23.168-4.165-34.748-6.271c-4.614-0.838-4.127,3.418-5.457,5.686c-0.141,0.24,2.484,2.301,4,3.235
		c0.779,0.48,1.975,0.222,2.924,0.499c15.273,4.466,30.835,8.162,45.729,13.66c18.094,6.68,32.304,19.406,45.589,33.098
		c1.052,1.083,3.305,2.619,3.855,2.248c1.342-0.904,2.809-2.799,2.822-4.307c0.084-9.123,0.682-18.379-0.594-27.349
		c-2.709-19.063-13.293-34.099-28.271-45.356c-16.262-12.221-33.264-23.568-50.644-34.146c-9.583-5.834-20.604-9.305-30.978-13.84
		c-0.463,0.393-0.926,0.784-1.39,1.176C292.644,99.702,293.82,104.735,294.742,108.683z M191.267,139.761
		c0-0.678,0.156-1.996-0.026-3.266c-0.995-6.91-2.002-13.82-3.138-20.709c-2.137-12.953,0.804-10.867-12.201-8.081
		c-20.683,4.431-39.822,13.458-58.564,23.032c-4.497,2.297-9.107,6.23-11.374,10.599c-3.465,6.677-2.878,8.881,4.957,10.048
		c3.064,0.457,6.334,0.221,9.421-0.263C143.761,147.451,167.159,143.641,191.267,139.761z M296.479,114.58
		c-0.067,1.342-0.235,2.008-0.111,2.611c2.258,10.982,4.455,21.979,6.979,32.898c0.27,1.17,2.381,2.432,3.828,2.729
		c11.972,2.463,24.018,4.567,35.979,7.077c6.467,1.357,12.742,3.704,19.238,4.812c3.566,0.608,8.706,3.034,10.811-1.432
		c2.205-4.681-2.075-8.036-5.536-10.556c-6.261-4.559-12.677-8.941-19.285-12.975C332.102,129.812,315.104,121.309,296.479,114.58z
		 M253.202,118.845c2.108-0.349,4.646-0.475,6.985-1.217c4.592-1.46,7.66-4.557,8.417-9.484c0.628-4.092-0.521-7.83-3.988-10.067
		c-6.181-3.987-13.183-5.618-20.394-4.084c-2.855,0.608-6.142,2.544-7.712,4.893c-1.599,2.39-2.846,7.017-1.595,8.94
		C238.966,114.06,244.915,118.355,253.202,118.845z"/>
	<path fill-rule="evenodd" clip-rule="evenodd" d="M259.067,4.423c-2.787,11.28-5.462,22.15-8.167,33.013
		c-0.518,2.08-0.895,4.261-1.832,6.149c-0.659,1.328-2.158,2.239-3.283,3.336c-0.656-1.252-2.055-2.639-1.857-3.738
		c2.375-13.193,4.875-26.367,7.688-39.471c0.315-1.471,2.759-2.486,4.216-3.712C256.818,1.348,257.805,2.697,259.067,4.423z"/>
	<path fill-rule="evenodd" clip-rule="evenodd" d="M213.777,45.726c-1.069,0.308-2.414,1.167-3.283,0.824
		c-1.064-0.42-2.076-1.716-2.515-2.862c-4.713-12.296-9.38-24.611-13.815-37.009c-0.405-1.132,0.51-3.294,1.515-4.187
		c0.727-0.645,3.251-0.517,3.87,0.208c1.749,2.048,3.495,4.417,4.235,6.953c3.278,11.231,6.202,22.565,9.258,33.86
		C213.172,43.992,213.354,44.458,213.777,45.726z"/>
	<path fill-rule="evenodd" clip-rule="evenodd" d="M152.834,29.375c2.084,0.639,3.748,0.723,4.849,1.553
		c9.334,7.044,18.594,14.189,27.781,21.426c0.817,0.644,0.956,2.15,1.41,3.255c-1.341,0.153-3.06,0.922-3.964,0.366
		c-10.694-6.577-21.307-13.291-31.808-20.171c-1.031-0.675-1.874-2.896-1.542-4.031C149.879,30.675,151.829,30.053,152.834,29.375z"
		/>
	<path fill-rule="evenodd" clip-rule="evenodd" d="M285.662,58.062c-0.526-1.695-1.65-3.499-1.191-4.107
		c7.579-10.031,15.271-19.981,23.226-29.715c0.78-0.955,3.444-0.37,5.233-0.5c-0.02,1.827,0.732,4.314-0.179,5.377
		c-7.759,9.056-15.809,17.864-23.813,26.708C288.303,56.524,287.344,56.931,285.662,58.062z"/>
	<path fill-rule="evenodd" clip-rule="evenodd" d="M353.107,51.881c-8.781,7.568-35.541,19.561-41.131,17.847
		c12.47-6.482,23.97-12.539,35.58-18.374C348.682,50.788,350.494,51.589,353.107,51.881z"/>
	<path fill-rule="evenodd" clip-rule="evenodd" d="M176.742,75.38c-9.992,3.502-37.732,0.084-41.347-4.868
		C138.602,68.942,172.453,72.706,176.742,75.38z"/>
	<path fill-rule="evenodd" clip-rule="evenodd" d="M322.965,87.423c4.836-0.812,9.646-1.862,14.514-2.372
		c5.359-0.562,10.771-0.753,16.162-0.794c1.007-0.008,2.024,1.46,3.037,2.247c-0.831,0.863-1.6,2.401-2.503,2.485
		c-8.882,0.826-17.783,1.485-26.69,1.989c-1.451,0.082-2.959-0.825-4.44-1.275C323.018,88.943,322.992,88.183,322.965,87.423z"/>
	<path fill-rule="evenodd" clip-rule="evenodd" fill="#FFFFFF" d="M242.72,77.203c0.221,1.985-0.004,3.364,0.563,4.214
		c0.727,1.089,2.018,2.246,3.207,2.423c0.782,0.117,2.451-1.335,2.613-2.275c0.455-2.648,1.592-3.833,4.318-3.565
		c6.427,0.632,12.86,1.184,20.438,1.872c-4.326,3.357-7.754,6.018-12.26,9.515c-5.203-1.912-12.366-3.746-19.898-1.68
		c-7.809,2.141-12.1,7.65-14.086,15.354c-5.545-1.422-9.922-0.113-13.941,4.237c5.203,2.679,9.805,2.384,15-0.477
		c2.141,12.626,12.42,14.877,21.747,17.524c0.46,6.066,0.893,11.771,1.325,17.475c5.152-3.242,5.604-7.643,5.188-12.039
		c-0.382-4.039,1.204-5.619,4.843-7.217c3.906-1.717,7.076-5.078,10.648-7.609c1.258-0.892,2.712-1.543,4.145-2.142
		c2.777-1.159,5.602-2.204,8.407-3.297c-0.073-0.58-0.146-1.159-0.218-1.739c-1.773-0.299-3.552-0.875-5.316-0.835
		c-3.106,0.071-4.604-0.968-5.658-4.169c-1.242-3.771-3.724-7.133-5.41-10.204c3.341-3.025,6.854-6.206,10.898-9.869
		c0.871,1.648,2.12,3.196,2.546,4.945c4.191,17.218,8.325,34.449,12.299,51.718c1.468,6.379,0.138,7.988-6.341,7.763
		c-22.279-0.777-44.555-1.671-66.826-2.618c-4.303-0.184-7.066-2.422-7.693-6.945c-1.248-9.009-2.613-18.002-3.846-27.014
		c-1.125-8.218-2.159-16.449-3.195-24.678c-1.126-8.945,0.561-10.62,9.406-10.042C224.546,76.412,233.485,76.745,242.72,77.203z
		 M219.201,138.429c0.672,0.121,1.344,0.242,2.016,0.364c5.385-5.438,13.149-8.357,17.434-16.562
		c-11.37-2.668-13.531,7.181-18.859,11.875C218.967,134.835,219.367,136.954,219.201,138.429z M271.27,120.529
		c-0.443,0.268-1.809,0.65-1.919,1.261c-0.174,0.964,0.156,2.498,0.858,3.064c5,4.032,10.115,7.923,15.293,11.724
		c0.566,0.415,2.035,0.285,2.597-0.182c0.497-0.412,0.735-2.098,0.362-2.448c-4.684-4.395-9.473-8.679-14.32-12.894
		C273.611,120.593,272.554,120.741,271.27,120.529z M228.395,91.288c0.816-0.332,1.633-0.663,2.447-0.995
		c-0.412-2.065-0.122-5.156-1.366-6.009c-4.104-2.813-8.765-4.818-13.212-7.133c-0.449,0.587-0.898,1.175-1.348,1.763
		C219.41,83.039,223.902,87.163,228.395,91.288z"/>
	<path fill-rule="evenodd" clip-rule="evenodd" fill="#FFFFFF" d="M253.202,118.845c-8.287-0.49-14.236-4.785-18.286-11.02
		c-1.251-1.924-0.004-6.551,1.595-8.94c1.57-2.349,4.856-4.284,7.712-4.893c7.211-1.534,14.213,0.097,20.394,4.084
		c3.468,2.237,4.616,5.976,3.988,10.067c-0.757,4.928-3.825,8.024-8.417,9.484C257.848,118.371,255.311,118.497,253.202,118.845z"/>
	<path fill-rule="evenodd" clip-rule="evenodd" d="M226.715,182.17c26.736,0.976,53.125,3.249,79.044,10.195
		c18.428,4.938,36.559,10.657,53.334,19.744c7.312,3.961,14.067,9.301,20.228,14.941c6.269,5.741,8.891,13.591,5.362,21.784
		c-1.821,4.229-5.647,7.622-8.685,11.297c-8.398,10.166-20.189,15.214-31.646,20.721c-2.062,0.99-4.324,1.703-6.573,2.124
		c-2.793,0.522-3.756-1.142-3.902-3.788c-0.25-4.53-0.259-9.16-1.266-13.543c-1.425-6.211-3.619-12.248-5.574-18.33
		c-0.924-2.874-2.541-3.643-5.677-2.425c-11.979,4.651-23.872,9.722-36.196,13.235c-12.338,3.519-25.138,5.439-37.764,7.912
		c-6.6,1.292-13.227,2.842-19.904,3.26c-11.719,0.736-23.485,0.694-35.232,0.97c-0.999,0.023-2.006-0.103-2.997-0.013
		c-16.271,1.477-31.849-2.951-47.63-5.6c-13.923-2.336-27.444-5.836-40.232-12.188c-8.966-4.454-9.876-4.023-10.628,6.053
		c-0.623,8.34,0.657,16.814,0.935,25.234c0.077,2.334,0.422,5.577-0.87,6.785c-1.308,1.223-4.934,1.316-6.772,0.383
		c-7.01-3.557-13.901-7.436-20.463-11.762c-5.096-3.361-9.716-7.471-14.383-11.441c-1.874-1.594-3.456-3.598-4.916-5.602
		c-7.581-10.406-5.217-25.133,4.492-33.674c14.21-12.502,31.026-20.039,48.472-26.297c22.728-8.152,46.186-13.643,70.23-15.922
		C187.189,184.361,206.973,183.485,226.715,182.17z M76.819,220.398c2.438,9.832,8.47,15.482,15.757,18.609
		c9.848,4.229,20.324,7.203,30.757,9.803c12.493,3.111,25.18,5.525,37.867,7.768c19.942,3.525,40.135,4.723,60.233,2.482
		c31.268-3.486,61.877-10.646,91.377-21.484c11.037-4.057,20.832-11.533,31.106-17.596c2.681-1.582,2.927-3.523-0.339-5.022
		c-2.846-1.306-5.608-2.799-8.481-4.038c-16.263-7.02-33.272-11.378-50.786-13.707c-12.336-1.641-24.695-3.412-37.103-4.116
		c-14.114-0.8-28.304-0.9-42.44-0.522c-14.27,0.381-28.705,0.578-42.721,2.926c-17.772,2.979-35.352,7.492-52.711,12.41
		C98.289,211.041,87.792,216.109,76.819,220.398z"/>
	<path fill-rule="evenodd" clip-rule="evenodd" d="M219.201,138.429c0.166-1.476-0.234-3.594,0.59-4.322
		c5.328-4.694,7.489-14.543,18.859-11.875c-4.284,8.204-12.049,11.124-17.434,16.562
		C220.545,138.671,219.873,138.55,219.201,138.429z"/>
	<path fill-rule="evenodd" clip-rule="evenodd" d="M271.27,120.529c1.284,0.212,2.342,0.064,2.871,0.525
		c4.848,4.215,9.637,8.499,14.32,12.894c0.373,0.351,0.135,2.036-0.362,2.448c-0.562,0.467-2.03,0.597-2.597,0.182
		c-5.178-3.801-10.293-7.691-15.293-11.724c-0.702-0.566-1.032-2.101-0.858-3.064C269.461,121.179,270.826,120.796,271.27,120.529z"
		/>
	<path fill-rule="evenodd" clip-rule="evenodd" d="M228.395,91.288c-4.492-4.125-8.984-8.249-13.479-12.374
		c0.449-0.588,0.898-1.176,1.348-1.763c4.447,2.315,9.107,4.32,13.212,7.133c1.244,0.853,0.954,3.943,1.366,6.009
		C230.027,90.625,229.211,90.956,228.395,91.288z"/>
</g>
</svg>
