<?xml version="1.0" encoding="utf-8"?>
<!-- Generator: Adobe Illustrator 16.0.0, SVG Export Plug-In . SVG Version: 6.00 Build 0)  -->
<!DOCTYPE svg PUBLIC "-//W3C//DTD SVG 1.1//EN" "http://www.w3.org/Graphics/SVG/1.1/DTD/svg11.dtd">
<svg version="1.1" id="Bold" xmlns="http://www.w3.org/2000/svg" xmlns:xlink="http://www.w3.org/1999/xlink" x="0px" y="0px"
	 width="512px" height="512px" viewBox="0 0 512 512" enable-background="new 0 0 512 512" xml:space="preserve">
<g>
	<path d="M206.801,465.378c-11.287,0-22.25-4.055-30.872-11.418L37.522,335.313c-9.621-8.2-15.485-19.733-16.47-32.439
		c-0.981-12.669,3.039-24.957,11.32-34.602l36.476-42.568c9.045-10.539,22.202-16.577,36.108-16.577
		c11.318,0,22.29,4.043,30.893,11.386l58.111,49.786L363.481,63.967c9.076-11.027,22.471-17.342,36.758-17.342
		c10.961,0,21.662,3.826,30.134,10.774l43.342,35.599c9.787,8.052,15.87,19.439,17.139,32.074
		c1.238,12.672-2.517,25.031-10.565,34.853L243.588,448.015c-8.199,9.947-19.754,16.039-32.557,17.177
		C209.594,465.316,208.183,465.378,206.801,465.378z"/>
	<path fill="#FFFFFF" d="M400.239,66.125c6.264,0,12.562,2.082,17.769,6.352l43.33,35.59c5.794,4.767,9.364,11.496,10.113,18.954
		c0.729,7.458-1.496,14.749-6.245,20.543L228.521,435.636c-4.822,5.851-11.645,9.459-19.216,10.132
		c-0.841,0.073-1.682,0.11-2.504,0.11c-6.692,0-13.066-2.355-18.207-6.746L50.213,320.508c-5.701-4.859-9.14-11.664-9.72-19.142
		c-0.579-7.477,1.794-14.71,6.673-20.393l36.488-42.582c5.543-6.458,13.399-9.765,21.301-9.765c6.461,0,12.953,2.211,18.234,6.718
		l73.199,62.713L378.547,76.346C384.093,69.609,392.137,66.125,400.239,66.125 M400.24,27.125
		C400.239,27.125,400.239,27.125,400.24,27.125c-20.138,0-39.019,8.905-51.803,24.434l-156.908,190.98l-42.965-36.811l-0.028-0.024
		l-0.028-0.024c-12.13-10.352-27.597-16.053-43.551-16.053c-19.602,0-38.152,8.517-50.896,23.366l-36.508,42.604
		C5.896,269.173,0.226,286.507,1.61,304.378c1.388,17.906,9.656,34.167,23.282,45.792l138.32,118.571l0.027,0.023l0.026,0.022
		c12.149,10.376,27.61,16.091,43.536,16.091c1.945,0,3.926-0.087,5.887-0.257l0.035-0.004l0.035-0.003
		c18.045-1.604,34.332-10.188,45.859-24.173l0.019-0.023l0.02-0.024l236.685-288.071c11.374-13.878,16.664-31.3,14.927-49.092
		l-0.005-0.053l-0.006-0.053c-1.787-17.794-10.36-33.838-24.141-45.174l-43.354-35.61C430.789,32.521,415.696,27.125,400.24,27.125
		L400.24,27.125L400.24,27.125z"/>
</g>
</svg>
