<?xml version="1.0" encoding="utf-8"?>
<!-- Generator: Adobe Illustrator 16.0.0, SVG Export Plug-In . SVG Version: 6.00 Build 0)  -->
<!DOCTYPE svg PUBLIC "-//W3C//DTD SVG 1.1//EN" "http://www.w3.org/Graphics/SVG/1.1/DTD/svg11.dtd">
<svg version="1.1" xmlns="http://www.w3.org/2000/svg" xmlns:xlink="http://www.w3.org/1999/xlink" x="0px" y="0px"
	 width="2834.65px" height="2834.65px" viewBox="0 0 2834.65 2834.65" enable-background="new 0 0 2834.65 2834.65"
	 xml:space="preserve">
<g id="Layer_2">
	<g>
		<path fill="#FFFFFF" d="M106.148,602.778C76.519,895.37,80.222,1195.37,87.63,1487.963c7.407,218.519-7.408,433.333,0,651.852
			c3.703,92.593-7.408,122.223,103.703,114.815c81.482-7.407,162.963-88.89,196.297-159.26
			c48.148-103.703,29.629-233.333,44.444-344.444c18.519-129.63,22.222-255.556,22.222-385.185
			c0-188.889,3.704-362.963-59.259-540.741c-40.741-107.407-144.444-222.222-262.963-229.63"/>
	</g>
	<g>
		<path fill="#FFFFFF" d="M439.481,1073.148c85.185,40.741,211.111,11.111,303.704,7.408c62.963-3.704,125.926-3.704,192.593-7.408
			c96.296-3.704,170.371-33.333,240.741-100c62.963-59.259,96.296-222.222,55.556-303.704
			c-66.667-140.741-225.926-22.222-318.519,3.704c-159.26,44.445-274.074-118.518-288.889-255.555
			c-14.815-151.852,48.147-211.111,200-244.445c81.481-14.814,129.629-7.407,200,37.037c33.333,18.519,88.889,70.371,133.333,55.556
			s66.667-92.593,100-125.926c48.148-40.741,92.593-48.148,155.556-40.741c125.926,18.519,192.593,114.814,322.222,114.814
			c103.704,0,192.593-70.37,296.297-48.148c159.259,33.333,225.926,177.778,181.481,333.333
			c-22.223,74.074-125.926,103.704-192.593,118.519c-100,22.222-174.074-18.519-262.963-22.223
			c-144.444-11.111-192.593,144.445-181.481,259.26c14.814,111.111,107.407,181.481,211.111,211.111
			c155.556,48.148,322.222-14.815,474.073,48.148c92.593,37.037,185.186,77.778,259.26,148.148
			c96.297,88.889,188.889,181.481,218.519,314.814c37.037,140.741,11.11,266.667-7.407,407.408
			c-11.111,88.889,18.518,229.629-81.481,270.37c-100,37.037-233.333,22.222-337.037,22.222c-55.556,0-107.407,7.408-159.26-14.814
			c-151.852-70.37-88.889-222.223-92.593-351.852c-3.703-129.63-107.407-196.297-233.333-140.741
			c-62.963,25.926-88.889,96.296-148.147,122.223c-66.667,33.333-196.297,33.333-266.667,22.222
			c-74.074-11.111-137.037-55.556-200-92.593c-81.481-48.147-148.148-48.147-244.444-48.147
			c-118.519,0-240.741,11.111-359.26,14.814c-48.148,0-122.222,7.407-159.259-25.926c-74.074-59.26-51.852-255.556-51.852-340.741
			c0-111.111,14.815-218.518,25.926-325.926"/>
		<g>
			<path fill="#ED1C24" d="M438.22,1075.307c53.119,24.753,114.037,23.544,171.212,19.38c63.794-4.646,126.961-11.978,190.962-14.18
				c67.741-2.33,137.615,0.34,204.394-12.761c54.853-10.761,104.904-35.77,148.312-70.686
				c18.804-15.125,35.889-31.379,49.174-51.596c12.852-19.558,22.193-41.396,29.775-63.461
				c16.436-47.833,23.822-100.345,18.949-150.776c-4.107-42.512-20.967-86.974-56.282-113.145
				c-32.967-24.431-76.598-20.966-114.151-11.359c-44.468,11.375-85.851,32.34-128.086,49.797
				c-45.553,18.83-92.412,28.194-140.945,14.656c-99.223-27.677-161.816-133.523-180.623-228.84
				c-8.987-45.549-9.67-96.705,5.309-141.075c12.891-38.185,40.878-66.845,75.449-86.437
				c45.182-25.605,99.935-39.413,151.219-44.664c28.168-2.885,56.396-1.493,83.781,5.931c29.311,7.945,55.024,23.388,80.927,38.679
				c37.915,22.383,82.742,67.953,131.069,53.38c19.313-5.823,33.268-23.489,44.296-39.322c14.425-20.71,25.502-43.549,39.204-64.724
				c32.434-50.125,92.121-67.621,149.054-64.552c59.575,3.212,112.509,28.724,163.965,56.838
				c46.89,25.618,93.926,50.586,147.611,57.857c61.067,8.272,118.941-10.743,176.445-28.7c30.363-9.481,61.089-18.085,92.886-20.894
				c31.142-2.751,61.754,2.49,91.33,12.086c49.287,15.992,92.512,47.375,121.45,90.465c28.125,41.879,39.918,92.537,39.615,142.522
				c-0.168,27.758-4.566,55.352-11.577,82.162c-6.575,25.148-21.001,45.116-40.845,61.614
				c-38.83,32.285-90.986,47.308-139.22,58.796c-31.771,7.568-63.4,10.738-96.017,8.493c-31.719-2.183-62.879-9.303-93.933-15.734
				c-50.202-10.396-105.703-21.458-155.276-2.792c-38.536,14.51-66.851,46.317-85.135,82.318
				c-19.647,38.684-28.19,82.73-29.829,125.819c-1.89,49.684,9.337,96.966,36.966,138.701
				c63.774,96.333,187.984,132.929,297.358,138.166c69.484,3.327,139.021-3.288,208.521-0.262
				c35.647,1.552,71.105,6.201,105.57,15.568c33.782,9.181,66.348,24.074,98.416,37.934
				c62.215,26.889,122.752,58.619,175.36,101.757c47.795,39.192,92.937,84.531,133.349,131.248
				c41.086,47.496,75.546,100.762,96.442,160.232c23.849,67.87,32.385,141.125,30.919,212.749
				c-1.506,73.561-13.58,146.466-23.529,219.211c-6.47,47.3-4.653,94.567-7.267,142.11c-2.482,45.174-10.219,95.289-45.896,126.86
				c-21.386,18.925-51.188,25.713-78.392,31.431c-32.592,6.852-66.003,9.416-99.229,10.591
				c-64.015,2.263-127.981-2.542-191.989-2.333c-35.49,0.117-71.022,3.197-106.357-1.563c-32.736-4.409-63.227-17.865-89.133-38.235
				c-81.326-63.945-57.926-177.597-51.329-266.937c3.538-47.918,3.739-96.558-17.675-140.738
				c-18.492-38.151-52.923-65.599-93.998-75.577c-46.714-11.349-100.344,0.923-141.26,24.826
				c-46.128,26.947-71.293,78.159-116.638,106.145c-45.922,28.341-105.902,33.284-158.445,35.292
				c-55.255,2.111-113.567,0.003-166.432-17.434c-64.439-21.256-117.541-64.228-177.593-94.225
				c-51.983-25.967-108.558-33.445-165.991-34.869c-145.199-3.6-289.84,11.733-434.876,14.688
				c-50.36,1.026-111.02,5.048-147.964-35.759c-29.777-32.89-36.692-84.073-40.611-126.378c-6.125-66.121-0.34-132.262,0.24-198.448
				c0.969-110.622,14.522-219.906,25.94-329.784c0.333-3.206-4.67-3.174-5,0c-7.79,74.969-17.17,149.786-22.305,225.006
				c-3.772,55.276-3.526,110.695-5.432,166.05c-1.673,48.626-2.598,97.468,2.415,145.938c4.081,39.463,11.755,84.106,37.056,116.118
				c30.736,38.888,80.83,42.638,126.989,42.682c67.87,0.065,135.717-4.375,203.454-8.122c75.059-4.151,150.062-7.541,225.252-7.374
				c60.835,0.135,121.394,2.635,178.521,25.631c31.204,12.561,59.478,31.334,88.166,48.639
				c28.344,17.097,57.12,33.524,87.658,46.418c50.646,21.383,105.262,26.171,159.705,26.663
				c53.221,0.48,109.331-3.244,159.778-21.451c22.316-8.055,42.09-20.132,59.588-36.102c19.553-17.846,35.906-38.903,54.66-57.552
				c38.968-38.747,96.125-59.303,150.984-55.072c47.802,3.686,88.384,32.103,110.577,74.115
				c24.225,45.86,21.51,99.337,17.57,149.416c-3.734,47.462-10.369,95.18-6.021,142.834c3.952,43.318,20.104,83.511,52.665,113.134
				c19.902,18.105,44.502,31.43,70.135,39.272c31.555,9.654,65.266,9.366,97.906,8.576c64.776-1.567,129.367,2.079,194.132,2.089
				c62.361,0.01,126.526-3.767,185.638-25.236c90.072-32.717,78.461-155.658,80.541-231.565
				c1.738-63.479,15.452-126.473,22.447-189.522c7.791-70.232,9.707-140.983-1.825-210.918
				c-10.456-63.402-30.603-123.929-64.191-178.84c-31.229-51.054-71.929-95.722-114.415-137.557
				c-45.807-45.106-92.729-87.623-148.183-120.641c-56.164-33.441-117.775-60.327-179.162-82.642
				c-132.713-48.243-276.956-6.565-413.255-31.051c-110.918-19.926-225.69-86.177-251.42-203.65
				c-9.85-44.972-4.239-95.645,8.117-139.537c12.098-42.97,35.166-84.581,72.66-110.206c45.6-31.166,102.364-25.266,153.88-15.979
				c59.758,10.772,118.688,27.716,180.007,19.461c49.108-6.611,100.111-21.53,144.107-44.442
				c20.721-10.791,40.063-24.751,55.107-42.739c15.448-18.469,21.781-40.321,26.712-63.458
				c20.065-94.167-2.49-197.066-79.278-259.743c-39.259-32.044-90.905-51.575-141.355-54.802
				c-61.277-3.92-119.834,21.583-177.589,37.974c-61.031,17.322-121.146,18.911-181.115-3.248
				c-51.109-18.885-96.304-50.575-145.993-72.6c-49.627-21.997-105.72-33.725-159.783-24.014
				c-26.432,4.748-50.458,17.149-71.726,33.223c-18.558,14.025-30.087,34.114-41.59,53.942
				c-12.717,21.92-24.756,44.948-42.695,63.157c-20.292,20.597-45.654,21.259-71.474,11.209
				c-25.657-9.986-47.913-27.628-70.674-42.707c-22.841-15.131-47.038-28.851-72.614-38.771
				c-51.9-20.13-108.81-15.131-161.799-2.137c-42.619,10.452-86.054,25.114-121.201,52.182
				c-67.991,52.361-72.406,147.068-55.644,224.79c19.646,91.1,78.708,184.914,168.702,219.285
				c44.48,16.988,92.522,13.758,136.731-2.144c42.32-15.222,82.289-36.246,124.933-50.702
				c40.743-13.812,88.577-23.483,127.814-0.331c43.116,25.44,58.568,80.888,61.06,127.595
				c2.793,52.345-7.703,106.246-27.311,154.701c-9.038,22.333-20.934,43.987-36.781,62.228
				c-18.795,21.634-43.358,39.727-67.317,55.164c-101.525,65.413-226.356,53.681-341.734,58.506
				c-56.343,2.356-112.117,9.361-168.316,13.454c-54.912,4-113.928,4.774-164.892-18.974
				C437.84,1069.637,435.299,1073.946,438.22,1075.307L438.22,1075.307z"/>
		</g>
	</g>
</g>
<g id="Layer_1">
	<g>
		<g>
			<path fill="#010101" d="M2088.232,997.557h-260.09c-45.742-44.668-98.864-81.618-155.695-109.117l0.005-223.068h114.333
				c60.425,53.161,138.128,83.046,218.401,83.046c183.167,0,332.186-149.018,332.186-332.186
				c0-183.167-149.019-332.185-332.186-332.185c-80.273,0-157.977,29.886-218.401,83.046h-128.013
				C1624.496,70.421,1532.138,1,1423.861,1c-108.271,0-200.634,69.421-234.91,166.093h-128.019
				c-60.419-53.161-138.123-83.046-218.396-83.046c-183.167,0-332.186,149.019-332.186,332.185
				c0,183.168,149.019,332.186,332.186,332.186c80.272,0,157.977-29.885,218.401-83.046h113.784v223.068
				c-56.837,27.499-109.405,64.449-155.147,109.117H499.278V914.51c0-228.958-186.273-415.231-415.231-415.231
				C38.183,499.278,1,536.461,1,582.325v1671.999c0,45.863,37.183,83.047,83.047,83.047c228.958,0,415.231-186.273,415.231-415.232
				v-83.047h520.308c108.625,105.99,253.935,166.094,404.275,166.094c150.342,0,295.651-60.104,404.275-166.094h94.003
				c45.792,0,83.047,37.256,83.047,83.047v332.186c0,45.863,37.183,82.492,83.046,82.492h189.03
				c-87.559,153.543-83.162,145.021-86.634,153.305c-68.464,163.176,51.467,345.527,229.789,345.527
				c137.376,0,249.14-111.764,249.14-249.139c0-43.582-12.629-85.908-23.84-105.484l-82.145-143.654h189.03
				c45.864,0,83.047-37.184,83.047-83.047v-498.277C2835.65,1344.524,2502.845,997.557,2088.232,997.557z M333.186,1922.139
				c0,108.271-69.421,200.635-166.093,234.91V679.6c96.672,34.276,166.093,126.635,166.093,234.91
				C333.186,1037.363,333.186,1793.102,333.186,1922.139z M2420.418,2669.557c-57.7,0-97.546-57.496-78.157-111.26l78.157-136.678
				l78.158,136.678C2517.992,2612.145,2478.024,2669.557,2420.418,2669.557z M2669.558,2171.277h-498.278v-166.092h498.278V2171.277
				z M2669.558,1839.092h-512.563c-34.281-96.66-126.59-166.092-234.855-166.092h-129.314c-23.529,0-45.951,9.982-61.703,27.461
				c-80.538,89.396-189.656,138.631-307.261,138.631s-226.728-49.234-307.266-138.631c-15.745-17.479-38.174-27.461-61.704-27.461
				H499.278v-509.351h555.619c23.529,0,45.953-9.982,61.703-27.461c46.733-51.876,105.298-91.512,169.354-114.62
				c32.919-11.876,54.866-43.118,54.866-78.119V582.325c0-45.864-37.184-83.047-83.047-83.047h-230.753
				c-23.529,0-45.958,9.982-61.709,27.472c-32.282,35.837-75.882,55.575-122.775,55.575c-91.584,0-166.093-74.51-166.093-166.094
				c0-91.583,74.509-166.092,166.093-166.092c46.894,0,90.493,19.737,122.775,55.575c15.746,17.489,38.174,27.472,61.704,27.472
				h230.752c45.864,0,83.047-37.183,83.047-83.046c0-45.792,37.254-83.046,83.046-83.046s83.047,37.255,83.047,83.046
				c0,45.864,37.183,83.046,83.046,83.046h230.753c23.536,0,45.964-9.982,61.709-27.472c32.272-35.837,75.877-55.575,122.771-55.575
				c91.583,0,166.093,74.509,166.093,166.092c0,91.584-74.51,166.094-166.093,166.094c-46.894,0-90.498-19.738-122.771-55.575
				c-15.751-17.489-38.174-27.472-61.709-27.472H1589.96c-45.863,0-83.047,37.183-83.047,83.047l-0.005,361.124
				c0,35.001,21.94,66.243,54.86,78.119c64.063,23.114,122.621,62.744,169.354,114.62c15.746,17.484,38.174,27.461,61.703,27.461
				h295.407c320.543,0,581.325,265.747,581.325,592.397V1839.092z"/>
		</g>
	</g>
</g>
</svg>
