<?xml version="1.0" encoding="utf-8"?>
<!-- Generator: Adobe Illustrator 16.0.0, SVG Export Plug-In . SVG Version: 6.00 Build 0)  -->
<!DOCTYPE svg PUBLIC "-//W3C//DTD SVG 1.1//EN" "http://www.w3.org/Graphics/SVG/1.1/DTD/svg11.dtd">
<svg version="1.1" id="Layer_1" xmlns="http://www.w3.org/2000/svg" xmlns:xlink="http://www.w3.org/1999/xlink" x="0px" y="0px"
	 width="407px" height="407px" viewBox="0 0 407 407" enable-background="new 0 0 407 407" xml:space="preserve">
<g>
	<path fill="#FFFFFF" d="M332.128,283.285H22.585L4.896,235.548H394.04L332.128,283.285z"/>
	<path fill="#FFFFFF" d="M332.128,290.107H22.585c-2.856,0-5.405-1.775-6.396-4.449L-1.5,237.917
		c-0.776-2.097-0.479-4.438,0.796-6.269c1.276-1.83,3.368-2.922,5.601-2.922h389.144c2.919,0,5.514,1.857,6.458,4.615
		c0.938,2.768,0.02,5.822-2.294,7.605l-61.911,47.738C335.098,289.607,333.63,290.107,332.128,290.107z M27.326,276.465h302.476
		l44.227-34.1H14.695L27.326,276.465z"/>
	<path fill="#FFFFFF" d="M357.333,242.365h-40.916c-3.77,0-6.821-3.053-6.821-6.817v-27.28c0-3.767,3.053-6.822,6.821-6.822h40.916
		c3.766,0,6.821,3.056,6.821,6.822v27.28C364.155,239.313,361.099,242.365,357.333,242.365z M323.235,228.727h27.28v-13.639h-27.28
		V228.727z"/>
	<path fill="#FFFFFF" d="M57.261,208.268h225.053v27.28H57.261V208.268z"/>
	<path fill="#FFFFFF" d="M282.314,242.365H57.261c-3.766,0-6.821-3.053-6.821-6.817v-27.28c0-3.767,3.056-6.822,6.821-6.822h225.053
		c3.771,0,6.822,3.056,6.822,6.822v27.28C289.136,239.313,286.084,242.365,282.314,242.365z M64.078,228.727h211.419v-13.639H64.078
		V228.727z"/>
	<path fill="#FFFFFF" d="M145.919,180.989h109.118v27.277H145.919V180.989z"/>
	<path fill="#FFFFFF" d="M255.037,215.088H145.919c-3.766,0-6.821-3.057-6.821-6.82V180.99c0-3.77,3.056-6.821,6.821-6.821h109.118
		c3.766,0,6.82,3.052,6.82,6.821v27.278C261.859,212.031,258.803,215.088,255.037,215.088z M152.74,201.445h95.476v-13.639H152.74
		V201.445z"/>
	<path fill="#FFFFFF" d="M166.379,153.708h68.463v27.281h-68.463V153.708z"/>
	<path fill="#FFFFFF" d="M234.846,187.807h-68.467c-3.766,0-6.817-3.052-6.817-6.817v-27.281c0-3.766,3.052-6.822,6.817-6.822
		h68.467c3.766,0,6.817,3.056,6.817,6.822v27.281C241.663,184.755,238.611,187.807,234.846,187.807z M173.197,174.168h54.828
		v-13.639h-54.828V174.168z"/>
	<path fill="#FFFFFF" d="M111.821,187.807H50.44c-3.766,0-6.817-3.052-6.817-6.817c0-3.77,3.052-6.821,6.817-6.821h61.381
		c3.766,0,6.817,3.052,6.817,6.821C118.638,184.755,115.586,187.807,111.821,187.807z"/>
	<path fill="#FFFFFF" d="M398.254,215.088h-81.837c-3.77,0-6.821-3.057-6.821-6.82c0-3.766,3.053-6.822,6.821-6.822h81.837
		c3.767,0,6.821,3.056,6.821,6.822C405.075,212.031,402.021,215.088,398.254,215.088z"/>
	<path fill="#FFFFFF" d="M77.722,215.088c-3.767,0-6.822-3.057-6.822-6.82V180.99c0-3.77,3.056-6.821,6.822-6.821
		c3.766,0,6.817,3.052,6.817,6.821v27.278C84.539,212.031,81.488,215.088,77.722,215.088z"/>
	<path fill="#FFFFFF" d="M199.467,229.391c-3.738,0-6.786-3.017-6.821-6.759l-1.011-110.441c-0.035-3.766,2.989-6.853,6.755-6.883
		h0.063c3.743,0,6.786,3.012,6.82,6.755l1.016,110.445c0.031,3.766-2.993,6.85-6.759,6.885
		C199.506,229.391,199.487,229.391,199.467,229.391z"/>
	<path fill="#FFFFFF" d="M233.566,161.189h-68.197c-3.766,0-6.821-3.052-6.821-6.817c0-3.766,3.056-6.822,6.821-6.822h68.197
		c3.767,0,6.822,3.056,6.822,6.822C240.389,158.137,237.332,161.189,233.566,161.189z"/>
	<path fill="#FFFFFF" d="M219.928,188.47h-40.921c-3.766,0-6.821-3.056-6.821-6.821c0-3.765,3.056-6.817,6.821-6.817h40.921
		c3.766,0,6.817,3.052,6.817,6.817C226.745,185.414,223.693,188.47,219.928,188.47z"/>
</g>
</svg>
