<?xml version="1.0" encoding="utf-8"?>
<!-- Generator: Adobe Illustrator 16.0.0, SVG Export Plug-In . SVG Version: 6.00 Build 0)  -->
<!DOCTYPE svg PUBLIC "-//W3C//DTD SVG 1.1//EN" "http://www.w3.org/Graphics/SVG/1.1/DTD/svg11.dtd">
<svg version="1.1" id="Layer_1" xmlns="http://www.w3.org/2000/svg" xmlns:xlink="http://www.w3.org/1999/xlink" x="0px" y="0px"
	 width="256px" height="256px" viewBox="0 0 256 256" enable-background="new 0 0 256 256" xml:space="preserve">
<rect x="76.053" y="119.51" fill="none" width="116.443" height="94.295"/>
<text transform="matrix(1 0 0 1 125.9409 128.0303)" font-family="'MyriadPro-Regular'" font-size="12">Car</text>
<g>
	<g>
		<path d="M36.792,155.265c-6.897-0.198-14.389,1.185-18.864,6.921c-4.421,5.666-3.262,13.512-0.572,19.665
			c6.516,14.907,25.365,24.129,40.729,16.786c12.352-5.903,6.896-24.217,1.702-32.979c-6.257-10.554-18.548-18.2-29.462-9.325
			c-2.503,2.035,1.057,5.551,3.535,3.535c14.939-12.146,34.364,21.117,23.918,32.861c-3.936,4.425-12.323,3.699-17.458,2.602
			c-7.025-1.501-12.941-6.17-16.725-12.152c-3.054-4.828-5.153-11.836-2.266-17.164c2.844-5.249,10.233-5.9,15.461-5.75
			C40.018,160.357,40.009,155.357,36.792,155.265L36.792,155.265z"/>
	</g>
</g>
<g>
	<g>
		<path d="M220.69,158.374c-12.228,1.987-23.325,10.273-20.289,23.827c2.411,10.762,15.558,19.464,26.056,19.955
			c12.487,0.585,16.514-15.077,14.964-24.873c-1.859-11.755-10.326-21.546-22.75-21.683c-3.226-0.035-3.223,4.965,0,5
			c9.387,0.103,15.415,7.109,17.524,15.759c1.813,7.437-0.102,20.559-9.738,20.797c-8.071,0.2-16.74-7.026-20.34-13.771
			c-6.102-11.437,6.511-18.663,15.903-20.188C225.196,162.68,223.844,157.862,220.69,158.374L220.69,158.374z"/>
	</g>
</g>
<g>
	<g>
		<path d="M64.98,183.084c23.191-2.222,46.481-2.843,69.747-3.822c24.179-1.019,48.324-3.482,72.535-3.561c0-1.667,0-3.333,0-5
			c-3.355,0.283-6.702,0.333-10.067,0.336c-3.225,0.003-3.225,5.003,0,5c3.365-0.003,6.712-0.053,10.067-0.336
			c3.165-0.267,3.268-5.011,0-5c-23.565,0.076-47.067,2.434-70.599,3.477c-23.91,1.06-47.846,1.623-71.683,3.906
			C61.8,178.389,61.77,183.392,64.98,183.084L64.98,183.084z"/>
	</g>
</g>
<g>
	<g>
		<path d="M45.101,155.226c7.559-5.507,12.622-13.195,18.159-20.582c3.223-4.299,6.786-8.173,9.621-12.766
			c2.814-4.558,4.92-9.545,7.029-14.454c3.228-7.514,5.874-13.224,14.758-13.749c10.243-0.605,20.648,0.154,30.924-0.195
			c12.476-0.424,24.938-1.212,37.408-1.806c5.896-0.281,11.798-0.418,17.694-0.682c6.581-0.294,9.059,2.172,12.071,7.617
			c2.187,3.951,4.914,7.497,7.205,11.382c2.861,4.852,4.928,10.163,7.272,15.271c4.912,10.705,10.468,20.711,12.373,32.496
			c0.514,3.176,5.332,1.823,4.822-1.33c-1.863-11.522-7.038-21.709-12.121-32.087c-2.492-5.087-4.571-10.356-7.201-15.379
			c-2.563-4.896-6.019-9.237-8.698-14.079c-1.852-3.346-3.993-6.397-7.606-7.933c-4.254-1.809-9.563-0.892-14.043-0.753
			c-14.434,0.448-28.847,1.415-43.272,2.049c-11.598,0.51-23.138,0.406-34.736,0.378c-6.303-0.015-12.457,1.383-16.356,6.738
			c-2.757,3.786-4.264,8.297-6.117,12.561c-2.35,5.406-4.999,10.623-8.37,15.468c-3.301,4.745-7.273,9.093-10.696,13.772
			c-3.693,5.049-7.545,10.03-12.643,13.745C39.999,152.787,42.49,157.128,45.101,155.226L45.101,155.226z"/>
	</g>
</g>
</svg>
