<?xml version="1.0" encoding="utf-8"?>
<!-- Generator: Adobe Illustrator 16.0.0, SVG Export Plug-In . SVG Version: 6.00 Build 0)  -->
<!DOCTYPE svg PUBLIC "-//W3C//DTD SVG 1.1//EN" "http://www.w3.org/Graphics/SVG/1.1/DTD/svg11.dtd">
<svg version="1.1" id="Capa_1" xmlns="http://www.w3.org/2000/svg" xmlns:xlink="http://www.w3.org/1999/xlink" x="0px" y="0px"
	 width="256px" height="256px" viewBox="0 0 256 256" enable-background="new 0 0 256 256" xml:space="preserve">
<g>
	<path d="M0.016,105.079l0.257,2.996c0.705,8.243,6.262,15.172,14.152,17.655c13.435,4.226,22.879,16.025,24.061,30.06
		c0.62,7.367,4.619,13.934,10.687,17.903l-13.356,37.669c-2.793,0.578-5.358,1.955-7.422,4.018
		c-2.793,2.795-4.332,6.507-4.332,10.455c0,2.281,1.85,4.13,4.131,4.13h18.542c1.195,0,2.332-0.517,3.116-1.419l32.892-37.793
		l13.202,6.648l1.73,10.812l-1.553,3.107c-6.217,1.251-10.912,6.753-10.912,13.331v1.184c0,2.281,1.849,4.131,4.13,4.131h20.513
		c1.871,0,3.508-1.258,3.991-3.064l7.966-29.807c6.22,0.731,11.803,1.012,16.681,1.012c9.834,0,16.816-1.125,20.495-1.908
		l5.687,8.092c-6.627,2.787-17.98,7.563-18.912,7.957c-5.63,2.381-9.268,7.869-9.268,13.982v0.394c0,2.281,1.85,4.131,4.131,4.131
		h3.359c16.408,0,32.36-4.716,46.131-13.638c6.192-4.012,9.697-11.076,9.148-18.434l-0.068-0.915l32.607,0.913l-0.5,13.012
		c-5.111,1.684-8.811,6.502-8.811,12.17v2.761c0,2.281,1.85,4.131,4.131,4.131h18.541c2.049,0,3.789-1.503,4.086-3.531l6.707-45.761
		c0.275-1.877-0.763-3.699-2.518-4.42l-25.295-10.396c3.148-11.353,1.876-23.584-3.54-34.063l0.153-1.893l12.938-26.428
		c9.416-19.235,6.727-42.366-6.852-58.928c-10.467-12.767-25.937-20.088-42.445-20.088h-9.115c-5.322,0-9.652,4.331-9.652,9.653
		c0,5.323,4.33,9.654,9.652,9.654h8.968c10.362,0,20.09,4.583,26.688,12.574c8.895,10.773,10.45,25.729,3.963,38.102l-8.925,17.022
		c-2.125,0.781-10.141-0.741-16.637-1.976c-7.935-1.507-17.809-3.382-29.836-4.535c-20.333-1.949-37.058-1.219-48.364,2.113
		c-7.092,2.089-14.646,2.569-21.85,1.388c-9.462-1.553-18.319-1.392-21.916-1.234c-4.039-3.281-16.828-13.678-21.422-17.527
		C48.71,80.233,38.593,70.188,37.374,69.01c-1.149-1.11-2.836-1.458-4.33-0.892c-1.494,0.565-2.529,1.941-2.656,3.534
		c-0.006,0.078-0.516,6.372-1.301,11.518c-8.209,0.356-15.102,3.915-15.434,4.088c-1.257,0.658-2.088,1.916-2.201,3.33
		c-0.352,4.395-3.25,8.224-7.384,9.755l-1.374,0.509C0.952,101.497-0.144,103.226,0.016,105.079z"/>
	<path d="M39.78,85.716l-2.576-0.984c0.135-0.864,0.262-1.751,0.379-2.639C38.38,83.255,39.132,84.479,39.78,85.716z"/>
	<path d="M220.615,120.364l-2.754-5.362l8.355-15.936c8.035-15.326,6.107-33.852-4.909-47.196
		c-8.172-9.898-20.222-15.576-33.058-15.576h-8.968c-0.768,0-1.392-0.625-1.392-1.393c0-0.769,0.624-1.393,1.392-1.393h9.116
		c14.023,0,27.165,6.221,36.057,17.065c11.533,14.069,13.818,33.718,5.82,50.059L220.615,120.364z"/>
	<path d="M235.299,219.313c2.221,0,4.043-1.754,4.129-3.972l0.721-18.735l6.009-5.258l-4.564,31.145h-10.631
		C231.544,220.65,233.27,219.313,235.299,219.313z"/>
	<path d="M198.575,189.486l-0.401-5.373c11.101-7.906,19.293-19.354,23.334-32.244c0.278,4.771-0.313,9.598-1.82,14.212
		l-0.543,1.663c-0.672,2.057,0.355,4.281,2.355,5.104l22.628,9.299l-9.541,8.348L198.575,189.486z"/>
	<path d="M171.559,210.354l11.275,1.541c-11.236,6.621-23.916,10.257-36.975,10.574c0.737-1.14,1.811-2.061,3.119-2.615
		C150.127,219.367,167.145,212.211,171.559,210.354z"/>
	<path d="M98.808,219.313c1.564,0,2.994-0.885,3.693-2.283l3.156-6.313c0.387-0.771,0.521-1.646,0.384-2.499l-0.185-1.153
		l4.744-0.029l-3.92,14.668H94.358C95.315,220.263,96.952,219.313,98.808,219.313z"/>
	<polygon points="75.128,186.917 61.775,202.26 50.038,195.967 56.562,177.568 	"/>
	<path d="M42.735,216.563l4.51-12.72l8.968,4.808l-11.36,13.053H33.798c0.137-0.168,0.282-0.328,0.438-0.483
		c1.23-1.229,2.866-1.907,4.607-1.907C40.591,219.313,42.151,218.211,42.735,216.563z"/>
	<path d="M22.024,119.831l0.566-0.822c5.148-7.48,5.218-17.194,0.176-24.748l-0.938-1.406c2.646-0.847,6.203-1.636,9.807-1.409
		l12.164,4.65c4.482,3.812,22.791,18.669,23.607,19.331c0.818,0.665,1.861,0.991,2.912,0.912c0.103-0.008,10.588-0.757,21.633,1.055
		c8.42,1.381,17.245,0.823,25.521-1.615c10.305-3.036,25.949-3.664,45.242-1.813c11.647,1.117,21.314,2.953,29.082,4.427
		c8.987,1.708,15.209,2.888,19.558,2.021l5.138,10.004l-0.599,7.37c-1.339,16.499-10.413,31.75-24.272,40.798
		c-1.261,0.822-1.974,2.266-1.861,3.766l1.264,16.944c0.137,1.829-0.156,3.625-0.807,5.271l-16.875-2.307l-8.542-12.156
		l-1.118-20.123c-0.127-2.278-2.086-4.02-4.354-3.896c-2.277,0.126-4.021,2.075-3.895,4.354l0.992,17.837
		c-5.127,0.996-16.415,2.494-32.461,0.746l2.106-7.883c0.258-0.965,0.158-1.99-0.282-2.887l-10.651-21.697
		c-1.006-2.047-3.48-2.893-5.527-1.887c-2.049,1.006-2.893,3.48-1.889,5.527l9.97,20.307l-4.88,18.26l-8.275,0.051l-3.229-20.182
		c-0.208-1.299-1.021-2.421-2.192-3.021l-14.596-7.496c-2.028-1.041-4.519-0.241-5.562,1.788c-1.041,2.029-0.242,4.519,1.787,5.562
		l12.736,6.539l0.854,5.338l-38.242-19.257c-0.062-0.03-0.123-0.06-0.186-0.088c-5.193-2.298-8.715-7.241-9.191-12.9
		C45.407,139.551,35.914,126.226,22.024,119.831z"/>
	<path d="M8.507,107.429c3.391-1.605,6.205-4.143,8.173-7.237c2.326,4.493,2.03,9.887-0.894,14.133l-1.577,2.292
		C11.007,114.657,8.857,111.292,8.507,107.429z"/>
</g>
</svg>
