<?xml version="1.0" encoding="utf-8"?>
<!-- Generator: Adobe Illustrator 16.0.0, SVG Export Plug-In . SVG Version: 6.00 Build 0)  -->
<!DOCTYPE svg PUBLIC "-//W3C//DTD SVG 1.1//EN" "http://www.w3.org/Graphics/SVG/1.1/DTD/svg11.dtd">
<svg version="1.1" id="Layer_1" xmlns="http://www.w3.org/2000/svg" xmlns:xlink="http://www.w3.org/1999/xlink" x="0px" y="0px"
	 width="256px" height="256px" viewBox="0 0 256 256" enable-background="new 0 0 256 256" xml:space="preserve">
<g>
	<path d="M247.404,103.879c0,0,18.31,49.479-2.473,56.902c0,0-1.455,34.639,4.961,45.523c-9.908,9.896-38.113,0-38.113,0
		s6.436-15.34,0-22.764c0,0-16.328-5.935-24.246-13.853c0,0-46.51,16.329-55.912,0.495c0,0-16.827,6.927-19.299,17.316
		c0,0-2.473,16.22,3.959,23.201c0,0-28.699,10.832-38.595,0c0,0,1.485-37.057,6.927-45.469c0,0,3.958-22.762,0-25.234
		c-3.959-2.474-11.381-10.888-11.381-10.888l-8.411,1.485l-22.762,34.637c0,0-39.584-13.359-42.059-33.15
		c0,0,12.864-23.256,18.802-28.205L17.318,85.57l30.184-29.196l-0.989-10.392c0,0,6.925-12.37,13.854,0
		c6.928,12.372,4.949,15.835,4.949,15.835s31.173,9.399,40.08,21.276c0,0,46.513,9.4,77.686,2.476
		c31.173-6.929,37.113-2.476,37.113-2.476s4.945,1.98,3.955-18.307c0.99-11.382,11.382,0.495,11.382,0.495
		S252.355,79.636,247.404,103.879z"/>
</g>
</svg>
