<?xml version="1.0" encoding="utf-8"?>
<!-- Generator: Adobe Illustrator 16.0.0, SVG Export Plug-In . SVG Version: 6.00 Build 0)  -->
<!DOCTYPE svg PUBLIC "-//W3C//DTD SVG 1.1//EN" "http://www.w3.org/Graphics/SVG/1.1/DTD/svg11.dtd">
<svg version="1.1" id="Layer_1" xmlns="http://www.w3.org/2000/svg" xmlns:xlink="http://www.w3.org/1999/xlink" x="0px" y="0px"
	 width="256px" height="256px" viewBox="0 0 256 256" enable-background="new 0 0 256 256" xml:space="preserve">
<rect x="76.053" y="119.51" fill="none" width="116.443" height="94.295"/>
<text transform="matrix(1 0 0 1 123.6309 128.0303)" font-family="'MyriadPro-Regular'" font-size="12">Dog</text>
<g>
	<g>
		<path d="M65.925,64.147c-4.275,11.58-18.093,13.568-28.293,16.761c-4.02,1.258-7.603,3.552-9.375,7.475
			c-1.835,4.062,0.208,9.483,1.72,13.293c3.264,8.232,8.593,17.265,18.763,15.483c5.315-0.931,10.226-3.188,15.64-3.626
			c1.392-0.112,1.255,0.286,1.027-0.286c0.404,1.015,0.592,2.182,0.853,3.236c0.966,3.896,1.263,7.817,1.242,11.818
			c-0.078,15.091-7.788,28.841-12.071,42.954c-2.65,8.732,2.666,13.983,10.911,15.227c9.294,1.401,20.426,1.758,29.692,0.226
			c4.456-0.736,8.547-2.09,11.675-5.469c3.884-4.197,2.587-10.316,3.325-15.441c1.133-7.881,9.935-7.306,15.829-7.065
			c6.514,0.265,12.785,0.479,19.28,0.018c4.589-0.325,12.626-1.341,14.686,3.967c1.762,4.537,0.789,9.489,3.05,13.973
			c3.355,6.655,14.411,6.084,20.535,5.982c6.159-0.104,16.822-0.279,20.996-5.776c4.834-6.366-1.62-16.946-4.785-22.611
			c-2.174-3.892-4.969-7.576-6.657-11.716c-2.922-7.162,3.81-13.279,9.247-16.583c8.774-5.333,17.734-7.85,22.836-17.463
			c4.43-8.347,6.012-19.162,3.728-28.352c-0.179-0.655-0.394-1.298-0.644-1.929c-0.67-1.83-2.69-2.384-4.179-1.103
			c-8.146,7.009-16.855,13.605-27.047,17.309c-11.595,4.214-22.388,1.625-32.47-4.895c-7.107-4.595-15.135-5.223-23.248-3.608
			c-4.495,0.895-8.921,2.458-13.13,4.247c-2.996,1.273-5.989,2.602-9.255,2.989c-3.015,0.358-6.498-1.001-9.357-1.805
			c-4.514-1.27-8.796-2.218-13.495-2.21c-4.826,0.008-7.057-4.791-8.608-8.73c-3.16-8.022-2.793-17.202-8.122-24.267
			c-3.042-4.033-8.674-10.438-14.04-5.764c-5.664,4.934-7.044,13.025,0.552,16.566c2.903,1.354,5.444-2.956,2.523-4.317
			c-4.156-1.938-2.846-5.081-0.521-7.859c2.122-2.536,4.628,0.872,5.812,2.197c2.879,3.223,4.484,6.689,5.384,10.878
			c1.542,7.178,2.732,15.601,7.568,21.474c5.039,6.12,11.168,4.18,18.228,5.914c4.05,0.995,8.374,2.938,12.602,2.927
			c4.205-0.011,7.916-1.408,11.747-3.036c8.197-3.483,17.447-6.592,26.348-4.258c4.703,1.233,8.56,4.526,12.805,6.737
			c3.81,1.984,8.138,3.309,12.408,3.741c18.149,1.836,33.791-9.457,46.85-20.694c-1.393-0.368-2.785-0.735-4.179-1.103
			c3.536,9.666,0.928,22.804-5.35,30.846c-3.076,3.94-8.133,6.03-12.491,8.193c-4.831,2.398-9.532,4.967-13.258,8.94
			c-7.87,8.394-4.234,17.073,0.91,25.537c2.497,4.108,4.875,8.33,6.579,12.836c1.562,4.129,2.369,7.987-2.333,9.706
			c-7.819,2.858-18.322,2.949-26.37,1.038c-5.232-1.242-5.029-6.925-5.553-11.303c-0.502-4.199-1.944-8.013-5.84-10.081
			c-3.857-2.049-8.998-1.786-13.205-1.606c-6.306,0.27-12.344,0.485-18.681,0.146c-9.783-0.522-21.831,0.188-22.792,12.654
			c-0.407,5.29,0.524,10.741-4.925,13.698c-4.318,2.344-10.161,2.149-14.921,2.164c-4.397,0.014-8.816-0.153-13.21-0.314
			c-3.77-0.138-8.815-0.06-11.87-2.646c-3.431-2.905,0.294-10.105,1.417-13.262c2.207-6.201,4.669-12.3,6.661-18.577
			c3.505-11.046,4.47-22.422,1.669-33.713c-1.819-7.335-8.356-5.586-14.368-3.891c-4.925,1.388-11.083,4.483-15.544,0.505
			c-3.362-2.997-5.515-8.501-6.988-12.598c-2.123-5.906-1.068-9.895,5.109-12.115c4.142-1.489,8.536-2.043,12.676-3.591
			c8.115-3.034,16.006-8.255,19.109-16.662C71.865,62.445,67.032,61.149,65.925,64.147L65.925,64.147z"/>
	</g>
</g>
</svg>
