<?xml version="1.0" encoding="utf-8"?>
<!-- Generator: Adobe Illustrator 16.0.0, SVG Export Plug-In . SVG Version: 6.00 Build 0)  -->
<!DOCTYPE svg PUBLIC "-//W3C//DTD SVG 1.1//EN" "http://www.w3.org/Graphics/SVG/1.1/DTD/svg11.dtd">
<svg version="1.1" id="Capa_1" xmlns="http://www.w3.org/2000/svg" xmlns:xlink="http://www.w3.org/1999/xlink" x="0px" y="0px"
	 width="256px" height="256px" viewBox="0 0 256 256" enable-background="new 0 0 256 256" xml:space="preserve">
<path d="M187.912,113.445c-1.735-1.173-2.088-1.991-2.087-2.143c0.024-0.138,0.462-0.819,2.167-1.624
	c19.244-9.073,30.28-20.241,30.28-30.64c0-8.411-4.443-12.676-13.206-12.676c-2.282,0-4.909,0.266-8.259,0.835
	c-0.422,0.07-0.852,0.106-1.277,0.106c-3.439,0-6.884-2.414-8.569-6.008c-7.518-15.975-23.774-26.298-41.417-26.298
	c-25.214,0-45.728,20.512-45.728,45.724c0,11.746,4.445,22.903,12.512,31.416c1.59,1.683,1.801,2.827,1.69,3.196
	c-0.111,0.369-0.844,0.888-2.231,1.214c-6.358,1.492-12.13,2.727-18.375,2.727c-3.115,0-6.02-0.312-8.88-0.953
	c-1.814-0.407-4.215-1.195-6.996-2.108c-6.43-2.111-14.433-4.738-21.622-4.738c-6.538,0-11.411,2.212-14.484,6.574
	c-6.377,9.054-4.531,27.278,5.643,55.717c12.319,34.431,35.233,47.233,84.545,47.233c7.599,0,15.855-0.295,25.238-0.9
	c16.808-1.084,31.133-6.656,41.429-16.115c10.867-9.984,16.61-23.805,16.61-39.968C214.896,143.69,204.807,124.784,187.912,113.445z
	"/>
</svg>
