<?xml version="1.0" encoding="utf-8"?>
<!-- Generator: Adobe Illustrator 16.0.0, SVG Export Plug-In . SVG Version: 6.00 Build 0)  -->
<!DOCTYPE svg PUBLIC "-//W3C//DTD SVG 1.1//EN" "http://www.w3.org/Graphics/SVG/1.1/DTD/svg11.dtd">
<svg version="1.1" id="Layer_1" xmlns="http://www.w3.org/2000/svg" xmlns:xlink="http://www.w3.org/1999/xlink" x="0px" y="0px"
	 width="256px" height="256px" viewBox="0 0 256 256" enable-background="new 0 0 256 256" xml:space="preserve">
<rect x="76.053" y="119.51" fill="none" width="116.443" height="94.295"/>
<text transform="matrix(1 0 0 1 124.2549 128.0303)" font-family="'MyriadPro-Regular'" font-size="12">Iron</text>
<g>
	<g>
		<path d="M44.174,172.01c27.469,0.685,54.649-3.669,81.897-6.438c13.253-1.347,26.565-1.696,39.819-3.003
			c14-1.38,27.951-3.225,42.042-3.311c3.224-0.02,3.226-5.02,0-5c-13.441,0.082-26.776,1.726-40.127,3.116
			c-13.886,1.445-27.839,1.828-41.734,3.197c-27.269,2.688-54.412,7.122-81.897,6.438C40.948,166.93,40.956,171.93,44.174,172.01
			L44.174,172.01z"/>
	</g>
</g>
<g>
	<g>
		<path d="M83.246,166.906c-7.103-12.847-13.481-26.002-18.445-39.832c-4.063-11.32-8.153-22.889-10.337-34.737
			c-1.074-5.828-0.579-11.102-0.176-16.918c-0.083,1.193-0.473,0.622,1.472-0.143c1.208-0.475,2.633-0.393,3.904-0.419
			c2.496-0.051,5.008,0.247,7.495,0.429c14.827,1.087,30.154,0.055,44.995-0.518c14.796-0.571,29.6-1.141,44.395-0.232
			c10.755,0.661,23.373,1.688,33.028,7.031c4.575,2.532,2.535,9.606,1.768,13.745c-1.1,5.926-2.02,11.87-2.937,17.828
			c-1.126,7.32-2.028,14.702-3.724,21.916c-1.671,7.109-3.585,14.016-3.748,21.366c-0.071,3.227,4.929,3.22,5,0
			c0.166-7.479,2.275-14.53,3.974-21.758c1.842-7.837,2.671-15.981,3.895-23.934c0.85-5.525,1.846-11.002,2.793-16.507
			c0.759-4.406,1.305-9.004-0.487-13.21c-1.351-3.172-5.772-4.75-8.666-5.923c-4.461-1.807-9.326-2.938-14.081-3.628
			c-14.822-2.151-29.562-2.629-44.526-2.272c-15.452,0.369-30.863,1.176-46.324,1.176c-6.321,0-12.623,0.118-18.929-0.348
			c-4.537-0.335-8.73-0.223-12.752,2.081c-2.499,1.431-2.04,7.032-2.19,9.389c-0.387,6.077,0.89,12.335,2.268,18.216
			c2.942,12.557,7.491,25.115,12.235,37.089c4.458,11.249,9.933,22.057,15.783,32.638C80.489,172.252,84.807,169.729,83.246,166.906
			L83.246,166.906z"/>
	</g>
</g>
</svg>
