<?xml version="1.0" encoding="utf-8"?>
<!-- Generator: Adobe Illustrator 16.0.0, SVG Export Plug-In . SVG Version: 6.00 Build 0)  -->
<!DOCTYPE svg PUBLIC "-//W3C//DTD SVG 1.1//EN" "http://www.w3.org/Graphics/SVG/1.1/DTD/svg11.dtd">
<svg version="1.1" id="Layer_1" xmlns="http://www.w3.org/2000/svg" xmlns:xlink="http://www.w3.org/1999/xlink" x="0px" y="0px"
	 width="512px" height="512px" viewBox="0 0 512 512" enable-background="new 0 0 512 512" xml:space="preserve">
<path d="M388.519,148.06c-0.37-6.681-6.136-9.25-6.204-9.321c-0.334-0.167,2.467,1.234-45.075-22.541
	C333.728,93.184,313.817,75.5,289.836,75.5c-26.439,0-47.944,21.505-47.944,47.945v10.689l-41.896,62.844
	c-24.254,36.375-37.072,78.714-37.072,122.436v37.765c0,24.015-12.953,46.331-33.802,58.247c-10.012,5.72-5.927,21.074,5.599,21.074
	h61.701c21.999,0,43.228-5.218,62.393-15.223v3.941c0,6.232,5.048,11.281,11.281,11.281h28.202c6.232,0,11.281-5.049,11.281-11.281
	s-5.049-11.281-11.281-11.281h-16.921v-8.835c35.455-41.809,34.51-40.652,34.78-41.091c1.429-1.812,7.707-15.082,11.331-29.212
	l17.416-67.912c9.103-35.509,8.221-72.103-2.468-106.778c38.053,0,35.259,0.046,36.36-0.105
	C384.686,159.274,388.995,153.763,388.519,148.06L388.519,148.06z"/>
</svg>
