<?xml version="1.0" encoding="utf-8"?>
<!-- Generator: Adobe Illustrator 16.0.0, SVG Export Plug-In . SVG Version: 6.00 Build 0)  -->
<!DOCTYPE svg PUBLIC "-//W3C//DTD SVG 1.1//EN" "http://www.w3.org/Graphics/SVG/1.1/DTD/svg11.dtd">
<svg version="1.1" id="Layer_1" xmlns="http://www.w3.org/2000/svg" xmlns:xlink="http://www.w3.org/1999/xlink" x="0px" y="0px"
	 width="256px" height="256px" viewBox="0 0 256 256" enable-background="new 0 0 256 256" xml:space="preserve">
<rect x="76.053" y="119.51" fill="none" width="116.443" height="94.295"/>
<text transform="matrix(1 0 0 1 113.7192 128.0303)" font-family="'MyriadPro-Regular'" font-size="12">Thimble</text>
<g>
	<g>
		<path d="M70.259,169.936c8.342,8.539,20.269,11.411,31.613,13.567c14.267,2.711,28.763,3.986,43.28,3.252
			c13.189-0.667,26.788-3.064,38.38-9.647c3.759-2.134,8.168-4.516,11.531-7.245c2.854-2.317,2.777-5.206,2.266-8.616
			c-1.394-9.298-6.435-18.238-9.162-27.226c-4.644-15.3-9.535-30.565-13.463-46.069c-1.957-7.729-3.53-15.565-4.54-23.475
			c-0.633-4.952,0.744-9.927-0.16-14.912c-1.407-7.757-14.671-9.714-20.674-10.733c-11.908-2.022-24.743-2.342-36.494,0.672
			c-16.378,4.202-18.928,19.684-21.89,34.126c-2.002,9.764-3.753,19.549-6.938,29.02c-2.862,8.512-5.159,16.775-6.354,25.701
			c-0.83,6.205-0.739,12.493-1.258,18.726c-0.478,5.744-1.122,13.618-5.803,17.646c-2.448,2.106,1.105,5.626,3.535,3.535
			c6.664-5.733,7.02-16.824,7.543-24.91c0.8-12.354,1.854-24.076,5.913-35.915c4.896-14.279,7.328-29.036,10.676-43.721
			c1.473-6.461,3.432-12.773,9.229-16.615c5.313-3.521,12.555-4.172,18.727-4.557c9.644-0.601,19.543,0.214,28.908,2.607
			c3.883,0.992,9.797,2.502,10.257,7.191c0.543,5.531-0.414,10.938,0.366,16.505c2.201,15.698,6.883,30.94,11.413,46.084
			c3.585,11.986,6.999,23.976,11.563,35.623c1.532,3.912,2.984,7.89,3.783,12.024c0.809,4.183-3.653,5.413-6.755,7.139
			c-5.347,2.975-9.996,6.044-15.92,7.953c-6.78,2.185-14.006,3.188-21.073,3.834c-14.262,1.301-28.777,0.143-42.847-2.321
			c-11.269-1.973-23.805-4.27-32.119-12.779C71.539,164.091,68.005,167.629,70.259,169.936L70.259,169.936z"/>
	</g>
</g>
</svg>
