<?xml version="1.0" encoding="utf-8"?>
<!-- Generator: Adobe Illustrator 16.0.0, SVG Export Plug-In . SVG Version: 6.00 Build 0)  -->
<!DOCTYPE svg PUBLIC "-//W3C//DTD SVG 1.1//EN" "http://www.w3.org/Graphics/SVG/1.1/DTD/svg11.dtd">
<svg version="1.1" id="Capa_1" xmlns="http://www.w3.org/2000/svg" xmlns:xlink="http://www.w3.org/1999/xlink" x="0px" y="0px"
	 width="231.807px" height="231.805px" viewBox="0 0 231.807 231.805" enable-background="new 0 0 231.807 231.805"
	 xml:space="preserve">
<g>
	<path fill="#FFFFFF" d="M172.44,163.257c-0.565-3.573-3.922-5.997-7.512-5.515c-9.72,1.313-29.176,3.484-50.16,3.247v-0.019
		c-0.297,0.006-0.593,0.006-0.892,0.009c-0.297-0.003-0.594-0.003-0.896-0.009v0.019c-20.981,0.237-40.439-1.935-50.159-3.247
		c-3.588-0.482-6.945,1.94-7.513,5.514l-1.217,7.629c-0.567,3.573,1.699,7.555,5.135,8.685c26.508,8.745,82.789,8.745,109.298,0
		c3.436-1.134,5.702-5.11,5.133-8.685L172.44,163.257z"/>
	<path fill="#FFFFFF" d="M66.917,134.186c-0.62,0-1.198-0.149-1.722-0.396l-4.063,27.252c0.341,0.011,0.676-0.009,1.022,0.039
		c0.721,0.092,1.513,0.202,2.343,0.311c-0.099-0.346-0.167-0.704-0.167-1.082c0-2.219,1.799-4.021,4.022-4.021
		s4.024,1.804,4.024,4.021c0,0.718-0.204,1.376-0.528,1.953c6.501,0.714,14.596,1.428,23.518,1.806
		c-0.329-0.583-0.528-1.244-0.528-1.959c0-2.224,1.801-4.025,4.022-4.025c2.223,0,4.024,1.803,4.024,4.025
		c0,0.801-0.239,1.543-0.642,2.17c2.494,0.05,5.033,0.068,7.597,0.05v-0.05l3.109,0.021l3.049-0.038v0.067
		c0.328,0.002,0.655,0.002,0.984,0.002c2.974,0,5.899-0.052,8.771-0.131c-0.376-0.611-0.604-1.322-0.604-2.092
		c0-2.223,1.804-4.025,4.025-4.025c2.22,0,4.021,1.804,4.021,4.025c0,0.659-0.172,1.27-0.45,1.815
		c8.519-0.422,16.217-1.117,22.352-1.79c-0.285-0.551-0.457-1.159-0.457-1.825c0-2.218,1.799-4.021,4.025-4.021
		c2.222,0,4.021,1.805,4.021,4.021c0,0.319-0.045,0.624-0.118,0.918c0.377-0.047,0.77-0.098,1.115-0.146
		c1.019-0.139,1.994-0.066,2.937,0.118l-3.178-24.362c-0.246,0.051-0.5,0.076-0.76,0.076c-2.218,0-4.021-1.804-4.021-4.021
		c0-2.127,1.65-3.85,3.741-3.996l-3.021-23.181c-0.238,0.042-0.476,0.072-0.721,0.072c-2.225,0-4.027-1.806-4.027-4.023
		c0-2.109,1.635-3.827,3.706-3.992l-4.893-37.513c-0.778-5.978-6.305-10.828-12.338-10.828H88.689
		c-6.029,0-11.644,4.837-12.532,10.801L70.493,98.23c0.563-0.301,1.197-0.484,1.883-0.484c2.223,0,4.022,1.803,4.022,4.022
		c0,2.218-1.802,4.022-4.022,4.022c-1.105,0-2.109-0.449-2.834-1.166L66.325,126.2c0.192-0.025,0.387-0.059,0.591-0.059
		c2.219,0,4.022,1.8,4.022,4.025C70.937,132.387,69.135,134.186,66.917,134.186z"/>
	<path fill="#FFFFFF" d="M145.277,151.39c-2.226,0-4.023-1.803-4.023-4.029c0-2.217,1.799-4.021,4.023-4.021
		c2.224,0,4.022,1.806,4.022,4.021C149.3,149.587,147.5,151.39,145.277,151.39z"/>
	<path fill="#FFFFFF" d="M145.277,121.627c-2.226,0-4.023-1.804-4.023-4.025c0-2.221,1.799-4.022,4.023-4.022
		c2.224,0,4.022,1.803,4.022,4.022C149.3,119.823,147.5,121.627,145.277,121.627z"/>
	<path fill="#FFFFFF" d="M149.3,87.568c0,2.225-1.8,4.027-4.022,4.027c-2.226,0-4.023-1.803-4.023-4.027
		c0-2.221,1.799-4.022,4.023-4.022C147.5,83.548,149.3,85.353,149.3,87.568z"/>
	<path fill="#FFFFFF" d="M141.257,53.515c2.225,0,4.024,1.803,4.024,4.025c0,2.219-1.801,4.021-4.024,4.021
		s-4.022-1.803-4.022-4.021C137.234,55.315,139.033,53.515,141.257,53.515z"/>
	<path fill="#FFFFFF" d="M135.719,131.805c0,2.223-1.8,4.027-4.024,4.027c-2.22,0-4.021-1.806-4.021-4.027
		c0-2.224,1.798-4.022,4.021-4.022C133.923,127.781,135.719,129.581,135.719,131.805z"/>
	<path fill="#FFFFFF" d="M129.168,67.985c2.219,0,4.021,1.806,4.021,4.023c0,2.224-1.801,4.022-4.021,4.022
		c-2.227,0-4.025-1.799-4.025-4.022C125.145,69.79,126.945,67.985,129.168,67.985z"/>
	<path fill="#FFFFFF" d="M129.168,98.839c2.219,0,4.021,1.803,4.021,4.022c0,2.221-1.801,4.024-4.021,4.024
		c-2.227,0-4.025-1.805-4.025-4.024C125.145,100.641,126.945,98.839,129.168,98.839z"/>
	<path fill="#FFFFFF" d="M113.872,151.39c-2.223,0-4.023-1.803-4.023-4.029c0-2.217,1.801-4.021,4.023-4.021
		c2.224,0,4.022,1.806,4.022,4.021C117.892,149.587,116.093,151.39,113.872,151.39z"/>
	<path fill="#FFFFFF" d="M119.612,117.064c0,2.221-1.801,4.024-4.024,4.024c-2.22,0-4.024-1.805-4.024-4.024
		c0-2.224,1.803-4.025,4.024-4.025C117.81,113.037,119.612,114.84,119.612,117.064z"/>
	<path fill="#FFFFFF" d="M117.892,87.568c0,2.225-1.8,4.027-4.022,4.027c-2.224,0-4.024-1.803-4.024-4.027
		c0-2.221,1.802-4.022,4.024-4.022C116.093,83.548,117.892,85.353,117.892,87.568z"/>
	<path fill="#FFFFFF" d="M112.51,53.515c2.224,0,4.024,1.803,4.024,4.025c0,2.219-1.801,4.021-4.024,4.021
		c-2.219,0-4.023-1.803-4.023-4.021C108.488,55.315,110.292,53.515,112.51,53.515z"/>
	<path fill="#FFFFFF" d="M100.58,136.921c-2.225,0-4.023-1.808-4.023-4.028c0-2.223,1.8-4.021,4.023-4.021
		c2.219,0,4.021,1.799,4.021,4.021C104.598,135.115,102.799,136.921,100.58,136.921z"/>
	<path fill="#FFFFFF" d="M104.313,101.767c0,2.218-1.8,4.022-4.022,4.022c-2.22,0-4.023-1.804-4.023-4.022
		c0-2.221,1.802-4.022,4.023-4.022C102.513,97.746,104.313,99.55,104.313,101.767z"/>
	<path fill="#FFFFFF" d="M98.86,67.985c2.223,0,4.024,1.806,4.024,4.023c0,2.224-1.799,4.022-4.024,4.022
		c-2.222,0-4.022-1.799-4.022-4.022C94.837,69.79,96.637,67.985,98.86,67.985z"/>
	<circle fill="#FFFFFF" cx="85.282" cy="58.63" r="4.024"/>
	<circle fill="#FFFFFF" cx="85.282" cy="86.207" r="4.023"/>
	<circle fill="#FFFFFF" cx="85.282" cy="117.608" r="4.026"/>
	<path fill="#FFFFFF" d="M85.282,142.25c2.223,0,4.023,1.806,4.023,4.021c0,2.226-1.801,4.025-4.023,4.025
		c-2.222,0-4.023-1.803-4.023-4.025C81.259,144.056,83.061,142.25,85.282,142.25z"/>
	<path fill="#FFFFFF" d="M61.131,161.042c0,0,49.395,8.091,105.488,0.155l-10.765-82.484l-81.696-5.074"/>
	<path fill="#FFFFFF" d="M85.282,49.944c0,0,32.543-9.239,59.225,0"/>
</g>
</svg>
