<?xml version="1.0" encoding="utf-8"?>
<!-- Generator: Adobe Illustrator 16.0.0, SVG Export Plug-In . SVG Version: 6.00 Build 0)  -->
<!DOCTYPE svg PUBLIC "-//W3C//DTD SVG 1.1//EN" "http://www.w3.org/Graphics/SVG/1.1/DTD/svg11.dtd">
<svg version="1.1" id="Capa_1" xmlns="http://www.w3.org/2000/svg" xmlns:xlink="http://www.w3.org/1999/xlink" x="0px" y="0px"
	 width="231.807px" height="231.805px" viewBox="0 0 231.807 231.805" enable-background="new 0 0 231.807 231.805"
	 xml:space="preserve">
<g>
	<path d="M172.44,163.257c-0.566-3.573-3.922-5.997-7.512-5.515c-9.72,1.313-29.176,3.485-50.16,3.248v-0.019
		c-0.297,0.006-0.593,0.006-0.892,0.009c-0.297-0.003-0.594-0.003-0.896-0.009v0.019c-20.982,0.237-40.44-1.935-50.159-3.248
		c-3.588-0.482-6.946,1.941-7.513,5.514l-1.217,7.629c-0.567,3.573,1.699,7.555,5.135,8.685c26.508,8.745,82.789,8.745,109.298,0
		c3.435-1.134,5.702-5.111,5.132-8.685L172.44,163.257z"/>
	<path d="M66.917,134.186c-0.62,0-1.198-0.15-1.721-0.396l-4.064,27.252c0.341,0.011,0.676-0.009,1.023,0.039
		c0.72,0.092,1.512,0.202,2.342,0.311c-0.098-0.346-0.167-0.704-0.167-1.082c0-2.219,1.799-4.022,4.023-4.022
		c2.223,0,4.024,1.804,4.024,4.022c0,0.718-0.204,1.376-0.528,1.953c6.501,0.714,14.596,1.428,23.517,1.806
		c-0.329-0.583-0.528-1.245-0.528-1.959c0-2.224,1.801-4.026,4.023-4.026s4.024,1.803,4.024,4.026c0,0.8-0.239,1.543-0.642,2.17
		c2.495,0.049,5.034,0.068,7.597,0.049v-0.049l3.109,0.02l3.049-0.038v0.067c0.328,0.002,0.656,0.002,0.985,0.002
		c2.973,0,5.899-0.051,8.77-0.131c-0.376-0.611-0.603-1.322-0.603-2.091c0-2.223,1.803-4.026,4.025-4.026
		c2.22,0,4.021,1.804,4.021,4.026c0,0.659-0.172,1.269-0.451,1.815c8.519-0.422,16.217-1.117,22.352-1.79
		c-0.285-0.551-0.457-1.159-0.457-1.825c0-2.218,1.799-4.022,4.025-4.022c2.222,0,4.021,1.805,4.021,4.022
		c0,0.319-0.045,0.624-0.118,0.918c0.377-0.047,0.769-0.098,1.115-0.146c1.018-0.138,1.994-0.066,2.936,0.118l-3.177-24.362
		c-0.246,0.051-0.5,0.076-0.76,0.076c-2.218,0-4.021-1.803-4.021-4.021c0-2.127,1.651-3.85,3.742-3.996l-3.021-23.181
		c-0.238,0.042-0.476,0.072-0.721,0.072c-2.224,0-4.027-1.805-4.027-4.023c0-2.109,1.635-3.827,3.706-3.992l-4.893-37.513
		c-0.778-5.978-6.304-10.828-12.337-10.828H88.689c-6.03,0-11.644,4.837-12.533,10.801l-5.663,37.998
		c0.563-0.301,1.198-0.485,1.883-0.485c2.223,0,4.023,1.803,4.023,4.023c0,2.218-1.802,4.022-4.023,4.022
		c-1.105,0-2.109-0.449-2.834-1.166L66.325,126.2c0.193-0.025,0.387-0.058,0.591-0.058c2.219,0,4.023,1.8,4.023,4.025
		C70.937,132.387,69.135,134.186,66.917,134.186z"/>
	<path d="M145.277,151.39c-2.226,0-4.024-1.803-4.024-4.029c0-2.217,1.799-4.022,4.024-4.022c2.223,0,4.022,1.806,4.022,4.022
		C149.3,149.587,147.5,151.39,145.277,151.39z"/>
	<path d="M145.277,121.627c-2.226,0-4.024-1.803-4.024-4.025c0-2.221,1.799-4.023,4.024-4.023c2.223,0,4.022,1.803,4.022,4.023
		C149.3,119.824,147.5,121.627,145.277,121.627z"/>
	<path d="M149.3,87.568c0,2.224-1.8,4.027-4.022,4.027c-2.226,0-4.024-1.803-4.024-4.027c0-2.221,1.799-4.023,4.024-4.023
		C147.5,83.548,149.3,85.353,149.3,87.568z"/>
	<path d="M141.257,53.515c2.225,0,4.024,1.803,4.024,4.025c0,2.219-1.8,4.022-4.024,4.022c-2.224,0-4.022-1.803-4.022-4.022
		C137.234,55.315,139.033,53.515,141.257,53.515z"/>
	<path d="M135.719,131.805c0,2.223-1.8,4.027-4.024,4.027c-2.22,0-4.022-1.805-4.022-4.027c0-2.224,1.798-4.022,4.022-4.022
		C133.923,127.782,135.719,129.581,135.719,131.805z"/>
	<path d="M129.168,67.985c2.219,0,4.022,1.805,4.022,4.023c0,2.224-1.801,4.023-4.022,4.023c-2.226,0-4.025-1.799-4.025-4.023
		C125.145,69.79,126.945,67.985,129.168,67.985z"/>
	<path d="M129.168,98.839c2.219,0,4.022,1.803,4.022,4.023c0,2.22-1.801,4.024-4.022,4.024c-2.226,0-4.025-1.805-4.025-4.024
		C125.145,100.641,126.945,98.839,129.168,98.839z"/>
	<path d="M113.872,151.39c-2.222,0-4.023-1.803-4.023-4.029c0-2.217,1.801-4.022,4.023-4.022c2.224,0,4.023,1.806,4.023,4.022
		C117.892,149.587,116.093,151.39,113.872,151.39z"/>
	<path d="M119.612,117.064c0,2.22-1.801,4.024-4.025,4.024c-2.22,0-4.024-1.805-4.024-4.024c0-2.224,1.802-4.026,4.024-4.026
		C117.81,113.037,119.612,114.84,119.612,117.064z"/>
	<path d="M117.892,87.568c0,2.224-1.8,4.027-4.023,4.027s-4.024-1.803-4.024-4.027c0-2.221,1.802-4.023,4.024-4.023
		C116.093,83.548,117.892,85.353,117.892,87.568z"/>
	<path d="M112.51,53.515c2.224,0,4.024,1.803,4.024,4.025c0,2.219-1.8,4.022-4.024,4.022c-2.219,0-4.023-1.803-4.023-4.022
		C108.488,55.315,110.292,53.515,112.51,53.515z"/>
	<path d="M100.58,136.921c-2.224,0-4.023-1.807-4.023-4.028c0-2.223,1.8-4.021,4.023-4.021c2.219,0,4.021,1.799,4.021,4.021
		C104.598,135.115,102.799,136.921,100.58,136.921z"/>
	<path d="M104.313,101.767c0,2.218-1.8,4.022-4.023,4.022c-2.219,0-4.023-1.803-4.023-4.022c0-2.221,1.802-4.023,4.023-4.023
		C102.513,97.746,104.313,99.55,104.313,101.767z"/>
	<path d="M98.86,67.985c2.222,0,4.024,1.805,4.024,4.023c0,2.224-1.799,4.023-4.024,4.023c-2.222,0-4.023-1.799-4.023-4.023
		C94.837,69.79,96.637,67.985,98.86,67.985z"/>
	<circle cx="85.282" cy="58.63" r="4.024"/>
	<circle cx="85.282" cy="86.207" r="4.023"/>
	<circle cx="85.282" cy="117.608" r="4.026"/>
	<path d="M85.282,142.25c2.223,0,4.024,1.806,4.024,4.021c0,2.225-1.801,4.025-4.024,4.025c-2.221,0-4.023-1.803-4.023-4.025
		C81.259,144.056,83.061,142.25,85.282,142.25z"/>
	<path d="M61.131,161.042c0,0,49.395,8.091,105.488,0.156l-10.764-82.485l-81.697-5.074"/>
	<path d="M85.282,49.944c0,0,32.543-9.24,59.225,0"/>
</g>
</svg>
