<svg id="Layer_1" enable-background="new 0 0 510 510" height="512" viewBox="0 0 510 510" width="512" xmlns="http://www.w3.org/2000/svg"><g id="XMLID_1151_"><path id="XMLID_1094_" d="m150 480c-10.5 5.2-19.5 9.8-30 15-10.5-5.2-19.5-9.8-30-15 0-1.8 0-31 0-30 0-12.4 7.6-23.2 18.5-27.7 19.6-8.1 41.5 6.3 41.5 27.7 0 8.6 15 15 15 15s-15 6.5-15 15z" fill="#00ddc1"/><path id="XMLID_1331_" d="m322.5 390c-20.7 0-37.5 16.8-37.5 37.5 0 8.7-15 26.3-15 26.3s15 17.5 15 26.3c13.1 5.2 24.4 9.8 37.5 15 13.1-5.2 24.4-9.8 37.5-15 0-18.6 0-33.9 0-52.5 0-20.8-16.8-37.6-37.5-37.6z" fill="#009884"/><path id="XMLID_1320_" d="m225 427.5c0-20.7-16.8-37.5-37.5-37.5-20.8 0-37.5 16.9-37.5 37.5v52.5c13.1 5.2 24.4 9.8 37.5 15 13.1-5.2 24.4-9.8 37.5-15 0-8.7 15-26.3 15-26.3s-15-17.5-15-26.2z" fill="#00b9a0"/><path id="XMLID_1329_" d="m225 120v360l15 15 15-15 15-180-15-180-15-15z" fill="#0a617d"/><path id="XMLID_1328_" d="m285 120-15-15-15 15v360l15 15 15-15c0-10.2 0-349.8 0-360z" fill="#08475e"/><path id="XMLID_1326_" d="m130 0c-21.7 16.3-67.2 50.4-80 60 21.7 16.3 67.2 50.4 80 60h125l15-60-15-60c-15.1 0-109.8 0-125 0z" fill="#b0866b"/><path id="XMLID_1323_" d="m360.8 60c1.1-3.3 18.9-56.7 20-60-15.2 0-110.5 0-125.8 0v120h125.8c-1.1-3.3-18.9-56.7-20-60z" fill="#9d6b5d"/><path id="XMLID_1319_" d="m99.2 180c1.1 3.3 18.9 56.7 20 60-1.1 3.3-18.9 56.7-20 60h155.8l15-60-15-60c-8.6 0-147.2 0-155.8 0z" fill="#ff6b6b"/><path id="XMLID_1311_" d="m430 240c-21.7-16.3-67.2-50.4-80-60-5.3 0-89.7 0-95 0v120h95c21.7-16.3 67.2-50.4 80-60z" fill="#c44e46"/><path id="XMLID_1102_" d="m45 480v30h210l15-15-15-15c-11.7 0-198.3 0-210 0z" fill="#d8bb85"/><path id="XMLID_1_" d="m255 480v30h210c0-10.5 0-19.5 0-30-11.7 0-198.3 0-210 0z" fill="#c4a178"/></g></svg>