<?xml version="1.0" encoding="iso-8859-1"?>
<!-- Generator: Adobe Illustrator 19.0.0, SVG Export Plug-In . SVG Version: 6.00 Build 0)  -->
<svg version="1.1" id="Capa_1" xmlns="http://www.w3.org/2000/svg" xmlns:xlink="http://www.w3.org/1999/xlink" x="0px" y="0px"
	 viewBox="0 0 512.001 512.001" style="enable-background:new 0 0 512.001 512.001;" xml:space="preserve">
<g>
	<g>
		<path d="M443.873,23.04C416.337,5.509,384.633-2.264,352.19,0.57c-27.567,2.404-54.211,12.706-76.166,29.286L232.766,2.32
			l-19.021,29.883c-9.256-4.464-22.707-9.639-38.886-12.027c-28.576-4.219-71.418-0.464-113.257,41.378
			c-41.84,41.839-45.594,84.683-41.377,113.257c2.388,16.178,7.563,29.63,12.027,38.886L2.369,232.719l27.535,43.258
			c-16.58,21.954-26.881,48.598-29.286,76.166c-2.829,32.443,4.941,64.147,22.469,91.684c21.102,33.152,53.85,56.102,92.213,64.623
			c10.702,2.377,21.484,3.552,32.188,3.552c15.369,0,30.575-2.431,45.157-7.193l-27.124-61.959
			c-32.245,7.575-67.142-5.467-85.93-34.989c-23.219-36.485-13.238-84.599,22.062-108.952l10.932-85.945l-22.829-35.865
			l-31.983,20.357c-3.025-6.852-6.272-16.148-7.877-27.021c-4.674-31.66,6.4-61.157,32.914-87.67
			c46.477-46.476,93.027-34.79,114.742-25.117L177.143,89.71l33.529,21.342l87.189-10.065
			c24.724-35.93,73.634-46.112,110.726-22.502c30.244,19.256,43.452,55.153,35.32,88.142l60.709,26.576
			C525.17,130.798,501.777,59.898,443.873,23.04z M60.494,228.896c7.114-4.528,16.552-2.432,21.081,4.682s2.432,16.552-4.682,21.081
			c-7.114,4.528-16.553,2.432-21.081-4.682C51.285,242.862,53.38,233.425,60.494,228.896z M249.848,81.369
			c-7.114,4.529-16.552,2.432-21.081-4.682c-4.527-7.115-2.431-16.553,4.683-21.081s16.552-2.432,21.08,4.682
			C259.059,67.403,256.962,76.84,249.848,81.369z"/>
	</g>
</g>
<g>
	<g>
		<path d="M431.482,193.925c-24.843,35.439-73.435,45.372-110.313,21.892c-28.727-18.278-42.091-51.573-36.405-83.129l-66.806,7.712
			c-0.867,19.604,2.126,39.405,8.968,57.898c11.219,30.327,31.603,55.558,58.948,72.963c24.432,15.551,51.749,22.971,78.766,22.971
			c48.661-0.002,96.336-24.078,124.346-68.083c1.173-1.843,2.289-3.704,3.37-5.578L431.482,193.925z"/>
	</g>
</g>
<g>
	<g>
		<path d="M271.31,285.827c-17.405-27.346-42.635-47.73-72.963-58.949c-17.942-6.637-37.118-9.663-56.148-9.046l-8.651,68.009
			c30.894-5.326,63.374,7.848,81.258,35.95c23.192,36.427,13.272,84.449-21.893,108.839l27.139,61.994
			c2.068-1.182,4.123-2.397,6.146-3.685c33.152-21.102,56.102-53.85,64.622-92.214C299.341,358.364,292.411,318.979,271.31,285.827z
			"/>
	</g>
</g>
<g>
</g>
<g>
</g>
<g>
</g>
<g>
</g>
<g>
</g>
<g>
</g>
<g>
</g>
<g>
</g>
<g>
</g>
<g>
</g>
<g>
</g>
<g>
</g>
<g>
</g>
<g>
</g>
<g>
</g>
</svg>
