<?xml version="1.0"?>
<svg xmlns="http://www.w3.org/2000/svg" xmlns:xlink="http://www.w3.org/1999/xlink" xmlns:svgjs="http://svgjs.com/svgjs" version="1.1" width="512" height="512" x="0" y="0" viewBox="0 0 512 512" style="enable-background:new 0 0 512 512" xml:space="preserve" class=""><g>
<g xmlns="http://www.w3.org/2000/svg">
	<g>
		<path d="M506.537,364.031c-5.125-2.906-11.625-1.052-14.521,4.094c-5.063,9.031-25.665,14.667-33.353,15.875h-10.667v-22.055    c37.086-3.516,63.999-24.833,63.999-52.612c0-32.276-72.138-113.078-163.885-116.965l-18.569-37.139    c-1.813-3.615-5.5-5.896-9.54-5.896V128h181.328c5.896,0,10.667-4.771,10.667-10.667c0-5.896-4.771-10.667-10.667-10.667H117.338    c-5.896,0-10.667,4.771-10.667,10.667c0,5.896,4.771,10.667,10.667,10.667h181.329v21.333c-2.833,0-5.542,1.125-7.542,3.125    L251.585,192H79.404c-4.105-7.036-10.109-12.733-17.374-16.471l-20.148-40.299c-2.521-5.073-8.583-7.271-13.771-5.021    l-21.667,9.333c-5.083,2.188-7.646,7.906-5.896,13.167l10.667,32c0.004,0.01,0.012,0.018,0.016,0.029    c-6.902,7.582-11.224,17.557-11.224,28.596c0,15.723,8.645,29.329,21.333,36.73v16.603c0,5.896,4.771,10.667,10.667,10.667h10.667    c4.04,0,7.728-2.281,9.54-5.896l10.275-20.548c6.905-3.66,12.659-9.081,16.667-15.766c35.236,3.104,89.875,12.525,103.993,26.991    c1.979,3.896,4,7.99,6.063,12.188c19.458,39.365,43.645,88.365,88.122,88.365h63.999V384h-95.997    c-5.896,0-10.667,4.771-10.667,10.667s4.771,10.667,10.667,10.667l214.807-0.104c3.958-0.552,38.915-6,50.499-26.688    C513.516,373.406,511.683,366.906,506.537,364.031z M320,288h-21.333v21.333c0,5.896-4.771,10.667-10.667,10.667    c-5.896,0-10.667-4.771-10.667-10.667V288H256c-5.896,0-10.667-4.771-10.667-10.667c0-5.896,4.771-10.667,10.667-10.667h21.333    v-21.333c0-5.896,4.771-10.667,10.667-10.667c5.896,0,10.667,4.771,10.667,10.667v21.333H320c5.896,0,10.667,4.771,10.667,10.667    C330.667,283.229,325.896,288,320,288z M486.808,298.667h-81.727c-14.25,0-26.563-9.167-30.665-22.802l-18.521-61.792    C423.248,220.906,472.997,273.448,486.808,298.667z M426.665,384h-63.999v-21.333h63.999V384z" fill="#414042" data-original="#000000" style="" class=""/>
	</g>
</g>
<g xmlns="http://www.w3.org/2000/svg">
</g>
<g xmlns="http://www.w3.org/2000/svg">
</g>
<g xmlns="http://www.w3.org/2000/svg">
</g>
<g xmlns="http://www.w3.org/2000/svg">
</g>
<g xmlns="http://www.w3.org/2000/svg">
</g>
<g xmlns="http://www.w3.org/2000/svg">
</g>
<g xmlns="http://www.w3.org/2000/svg">
</g>
<g xmlns="http://www.w3.org/2000/svg">
</g>
<g xmlns="http://www.w3.org/2000/svg">
</g>
<g xmlns="http://www.w3.org/2000/svg">
</g>
<g xmlns="http://www.w3.org/2000/svg">
</g>
<g xmlns="http://www.w3.org/2000/svg">
</g>
<g xmlns="http://www.w3.org/2000/svg">
</g>
<g xmlns="http://www.w3.org/2000/svg">
</g>
<g xmlns="http://www.w3.org/2000/svg">
</g>
</g></svg>
