<?xml version="1.0" encoding="iso-8859-1"?>
<!-- Generator: Adobe Illustrator 21.0.0, SVG Export Plug-In . SVG Version: 6.00 Build 0)  -->
<svg xmlns="http://www.w3.org/2000/svg" xmlns:xlink="http://www.w3.org/1999/xlink" version="1.1" id="Capa_1" x="0px" y="0px" viewBox="0 0 512 512" style="enable-background:new 0 0 512 512;" xml:space="preserve" width="512" height="512">
<g>
	<path style="fill:#FFCCBC;" d="M256,285.478c-23.121,0-70.415-26.585-73.241-64.948l-5.359-72.764   c-3.364-45.683,32.792-84.601,78.599-84.601s81.964,38.918,78.6,84.601l-5.359,72.764C326.415,258.893,279.121,285.478,256,285.478   z"/>
	<path style="fill:#FF8A65;" d="M265.452,63.731c25.199,14.605,41.453,42.73,39.148,74.035l-5.359,72.765   c-2.825,38.363-50.12,64.948-73.241,64.948c-0.62,0-1.261-0.023-1.915-0.061c11.632,6.459,23.409,10.061,31.915,10.061   c23.121,0,70.415-26.585,73.241-64.948l5.359-72.765C337.729,105.275,306.666,68.645,265.452,63.731z"/>
	<rect x="32.106" y="46.506" style="fill:#BDBDBD;" width="36.492" height="418.988"/>
	<rect x="140.692" y="46.506" style="fill:#BDBDBD;" width="36.492" height="418.988"/>
	<rect x="334.824" y="46.506" style="fill:#BDBDBD;" width="36.492" height="418.988"/>
	<rect x="443.403" y="46.506" style="fill:#BDBDBD;" width="36.492" height="418.988"/>
	<path style="fill:#757575;" d="M418.696,351.66c0-26.118-21.173-47.291-47.291-47.291h-0.09v161.125h47.381V351.66z"/>
	<rect x="371.315" y="358.077" style="fill:#424242;" width="47.381" height="53.708"/>
	<path style="fill:#E0E0E0;" d="M140.595,304.369c-26.118,0-47.291,21.173-47.291,47.291v113.834h47.388V304.369H140.595z"/>
	<path style="fill:#E0E0E0;" d="M309.633,304.369c0.051,29.664-23.981,53.727-53.633,53.727s-53.683-24.063-53.632-53.727h-25.184   v161.125h157.64V304.369H309.633z"/>
	<path style="fill:#757575;" d="M309.633,304.369c0.025,14.378-5.62,27.43-14.809,37.075v71.32c0,18.076-14.654,32.73-32.73,32.73   h-84.91v20h157.64V304.369H309.633z"/>
	<rect x="177.183" y="358.077" style="fill:#757575;" width="157.64" height="53.708"/>
	<path style="fill:#424242;" d="M294.824,358.077v11.975c0,12.003-9.73,21.733-21.733,21.733h-95.907v20h157.64v-53.708H294.824z"/>
	<rect x="93.304" y="358.077" style="fill:#757575;" width="47.388" height="53.708"/>
	<path style="fill:#FFCCBC;" d="M256,358.096c29.652,0,53.683-24.063,53.633-53.727h-6.728c-3.738,0-6.768-3.03-6.768-6.768v-27.26   c-14.071,9.625-29.609,15.137-40.136,15.137c-10.527,0-26.066-5.512-40.137-15.137v27.26c0,3.738-3.03,6.768-6.768,6.768h-6.728   C202.317,334.033,226.348,358.096,256,358.096z"/>
	<path style="fill:#FF8A65;" d="M302.904,304.369c-3.738,0-6.768-3.03-6.768-6.768v-27.26c-6.318,4.322-12.929,7.806-19.252,10.342   c1.122,2.186,3.394,3.685,6.02,3.685l0,0c3.782,0,6.767,3.305,6.281,7.055c-3.413,26.332-25.924,46.671-53.185,46.671   c-9.674,0-18.74-2.574-26.577-7.055c9.24,16.158,26.63,27.055,46.577,27.055c29.652,0,53.683-24.063,53.633-53.727H302.904z"/>
	<g>
		<path style="fill:#E0E0E0;" d="M504.5,54.006H7.5c-4.142,0-7.5-3.358-7.5-7.5V7.5C0,3.358,3.358,0,7.5,0h497    c4.142,0,7.5,3.358,7.5,7.5v39.006C512,50.648,508.642,54.006,504.5,54.006z"/>
	</g>
	<g>
		<path style="fill:#E0E0E0;" d="M504.5,512H7.5c-4.142,0-7.5-3.358-7.5-7.5v-39.006c0-4.142,3.358-7.5,7.5-7.5h497    c4.142,0,7.5,3.358,7.5,7.5V504.5C512,508.642,508.642,512,504.5,512z"/>
	</g>
</g>















</svg>
