<svg height="512" viewBox="0 0 60 60" width="512" xmlns="http://www.w3.org/2000/svg"><g id="Page-1" fill="none" fill-rule="evenodd"><g id="011---Boardgame-Piece" fill-rule="nonzero" transform="translate(-1 -1)"><path id="Shape" d="m44.127 44.127c3.836-3.835 2.558-6.392 2.558-6.392l8.315-8.311c.678439-.6780097 1.0596182-1.5978459 1.0596182-2.557s-.3811792-1.8789903-1.0596182-2.557l-3.529-3.53c-.6102841-.6100734-1.4186209-.9817877-2.279-1.048l-6.034-.464c-.5908595-.0459582-1.1219025-.3779535-1.422-.889l-8.036-13.698c-1.4027926-2.38517031-4.3754774-3.33298288-6.9-2.2-3.988 1.782-10.43 5.483-14.634 9.687s-7.908 10.641-9.69 14.632c-1.13211642 2.5257661-.18202851 5.4988303 2.205 6.9l13.7 8.03c.5110465.3000975.8430418.8311405.889 1.422l.464 6.034c.0662123.8603791.4379266 1.6687159 1.048 2.279l3.528 3.535c.6780097.678439 1.5978459 1.0596182 2.557 1.0596182s1.8789903-.3811792 2.557-1.0596182l8.311-8.31s2.557 1.273 6.392-2.563z" fill="#f44335"/><path id="Shape" d="m55 24.31-3.529-3.53c-.6102841-.6100734-1.4186209-.9817877-2.279-1.048l-6.034-.464c-.5908595-.0459582-1.1219025-.3779535-1.422-.889l-8.036-13.698c-1.2538475-2.13175024-3.7932763-3.14233503-6.169-2.455 1.332201.38141314 2.4667909 1.26037119 3.169 2.455l8.03 13.7c.3000975.5110465.8311405.8430418 1.422.889l6.034.464c.8603791.0662123 1.6687159.4379266 2.279 1.048l3.535 3.528c.678439.6780097 1.0596182 1.5978459 1.0596182 2.557s-.3811792 1.8789903-1.0596182 2.557l-8.31 8.311s1.278 2.557-2.557 6.392-6.393 2.558-6.393 2.558l-8.316 8.315c-.3064838.3017433-.6644496.5462573-1.057.722 1.3702805.6312149 2.9886218.3432084 4.057-.722l8.311-8.31s2.557 1.278 6.393-2.558 2.557-6.392 2.557-6.392l8.315-8.316c.678439-.6780097 1.0596182-1.5978459 1.0596182-2.557s-.3811792-1.8789903-1.0596182-2.557z" fill="#c81e1e"/><path id="Shape" d="m29.2 10.1 2.267 3.78c.2553693.4048152.3381821.8949666.2299809 1.3612083-.1082011.4662417-.3984232.8698226-.8059809 1.1207917-2.9938303 1.7413192-5.7705591 3.8315865-8.272 6.227-2.401259 2.510113-4.4962339 5.2962518-6.241 8.3-.2506335.4073317-.6536942.697575-1.1194749.8061319-.4657807.108557-.9556301.0264194-1.3605251-.2281319l-3.79-2.267c-.87271146-.5042367-1.19288012-1.6067459-.726-2.5 1.964368-3.6659715 4.4085509-7.0537947 7.268-10.074 3.013679-2.8510816 6.3933382-5.2884716 10.05-7.248.8921715-.4681061 1.9947584-.14967899 2.5.722z" fill="#02a9f4"/><path id="Shape" d="m31.464 13.882-2.264-3.782c-.5045686-.87241307-1.6073149-1.19176839-2.5-.724-.24.133-.486.276-.729.415.0859546.09550901.162633.19897464.229.309l2.267 3.78c.2553693.4048152.3381821.8949666.2299809 1.3612083-.1082011.4662417-.3984232.8698226-.8059809 1.1207917-2.9938303 1.7413192-5.7705591 3.8315865-8.272 6.227-2.401259 2.510113-4.4962339 5.2962518-6.241 8.3-.0414341.0646913-.0872057.1264997-.137.185l.657.393c.404895.2545513.8947444.3366889 1.3605251.2281319.4657807-.1085569.8688414-.3988002 1.1194749-.8061319 1.7447661-3.0037482 3.839741-5.789887 6.241-8.3 2.5014409-2.3954135 5.2781697-4.4856808 8.272-6.227.4065021-.2514482.6957028-.6548765.8033059-1.1205928.107603-.4657164.0246898-.955121-.2303059-1.3594072z" fill="#0377bc"/><path id="Shape" d="m41.57 58.192-1.278 1.278c-.3388091.3395879-.7988006.530432-1.2785.530432s-.9396909-.1908441-1.2785-.530432l-6.393-6.392 3.835-3.836 6.393 6.393c.3390969.3390699.5296019.7989636.5296019 1.2785s-.190505.9394301-.5296019 1.2785z" fill="#ffeb3a"/><path id="Shape" d="m41.57 55.635-6.393-6.393-1.5 1.5 4.893 4.893c.3390969.3390699.5296019.7989636.5296019 1.2785s-.190505.9394301-.5296019 1.2785l-1.057 1.057.222.221c.3388091.3395879.7988006.530432 1.2785.530432s.9396909-.1908441 1.2785-.530432l1.278-1.278c.3390969-.3390699.5296019-.7989636.5296019-1.2785s-.190505-.9394301-.5296019-1.2785z" fill="#fdd834"/><path id="Shape" d="m59.47 40.292-1.278 1.278c-.3390699.3390969-.7989636.5296019-1.2785.5296019s-.9394301-.190505-1.2785-.5296019l-6.393-6.393 3.836-3.835 6.392 6.393c.3395879.3388091.530432.7988006.530432 1.2785s-.1908441.9396909-.530432 1.2785z" fill="#ffeb3a"/><path id="Shape" d="m59.47 37.735-6.392-6.393-1.5 1.5 4.892 4.893c.3395879.3388091.530432.7988006.530432 1.2785s-.1908441.9396909-.530432 1.2785l-1.057 1.057.222.221c.3390699.3390969.7989636.5296019 1.2785.5296019s.9394301-.190505 1.2785-.5296019l1.278-1.278c.3395879-.3388091.530432-.7988006.530432-1.2785s-.1908441-.9396909-.530432-1.2785z" fill="#fdd834"/><circle id="Oval" cx="33.26" cy="33.26" fill="#02a9f4" r="9.945"/><path id="Shape" d="m40.292 26.227c-2.236944-2.2363041-5.4061715-3.2719119-8.532-2.788 4.8570426.7339843 8.4479502 4.9083115 8.4479502 9.8205s-3.5909076 9.0865157-8.4479502 9.8205c4.2485855.6547173 8.4363826-1.496974 10.378019-5.3322292 1.9416363-3.8352552 1.1967202-8.484182-1.846019-11.5207708z" fill="#0377bc"/><circle id="Oval" cx="33.26" cy="33.26" fill="#3f51b5" r="2.712"/><g fill="#000"><path id="Shape" d="m55.7 23.6-3.53-3.53c-.7794261-.7787199-1.8114882-1.2532557-2.91-1.338l-6.034-.464c-.2643372-.0214857-.5014687-.1708599-.635-.4l-8.03-13.7c-1.6605222-2.82598275-5.1823237-3.94863239-8.172-2.605-5.4824778 2.4637602-10.5263697 5.80530061-14.933 9.893-4.08769939 4.4066303-7.4292398 9.4505222-9.893 14.933-1.34374443 2.9922402-.21778638 6.5162475 2.612 8.175l13.7 8.03c.2291401.1335313.3785143.3706628.4.635l.464 6.035c.0849771 1.0981596.5594956 2.1298296 1.338 2.909l3.523 3.527c1.8037998 1.7998973 4.7242002 1.7998973 6.528 0l1.211-1.211 5.685 5.685c1.097151 1.0960805 2.874849 1.0960805 3.972 0l1.281-1.274c1.0959659-1.096808 1.0959659-2.874192 0-3.971l-5.686-5.686 1.438-1.443c1.183.22 3.685.151 6.805-2.97s3.191-5.62 2.97-6.8l1.438-1.438 5.686 5.686c1.096808 1.0959659 2.874192 1.0959659 3.971 0l1.278-1.278c1.0949791-1.0976066 1.0949791-2.8743934 0-3.972l-5.685-5.685 1.208-1.212c1.8007925-1.8046007 1.8007925-4.7263993 0-6.531zm-14.837 32.742c.3152023.3158081.3152023.8271919 0 1.143l-1.278 1.278c-.3200344.3057798-.8239656.3057798-1.144 0l-5.685-5.685 1.16-1.161 1.261-1.261zm12.215-23.586 5.685 5.685c.3158683.3159229.3158683.8280771 0 1.144l-1.278 1.278c-.1515422.1516259-.3571278.2368155-.5715.2368155s-.4199578-.0851896-.5715-.2368155l-5.686-5.686 1.261-1.261zm1.211-4.039-3.562 3.562-2.192 2.191-2.556 2.556c-.2876726.3026637-.3664297.7480353-.2 1.131.035.083.84 2.064-2.359 5.262s-5.179 2.394-5.238 2.37c-.3853051-.1926528-.8506823-.1169031-1.155.188l-2.556 2.556-2.191 2.192-3.562 3.562c-1.0227984 1.0191363-2.6772016 1.0191363-3.7 0l-3.53-3.53c-.4411278-.4417559-.7099457-1.026559-.758-1.649l-.464-6.034c-.0706619-.91732-.5862174-1.7418352-1.38-2.207l-13.7-8.031c-1.9506251-1.1418678-2.72681965-3.5704943-1.8-5.632 2.36146522-5.2615914 5.56480099-10.1030733 9.484-14.334 4.2317515-3.91831489 9.0739091-7.12063744 14.336-9.481 2.0615611-.92583903 4.4895183-.1498584 5.632 1.8l8.031 13.7c.4651648.7937826 1.28968 1.3093381 2.207 1.38l6.033.464c.6227931.0478215 1.2079884.3166567 1.65.758l3.53 3.53c1.0175772 1.0218816 1.0175772 2.6741184 0 3.696z"/><path id="Shape" d="m31.4 17.222c.6406139-.3807413 1.0971136-1.0074797 1.263-1.734.1662583-.7243648.0431905-1.4850172-.343-2.12l-2.266-3.781c-.7876268-1.32664028-2.4760772-1.80434605-3.842-1.087-3.7304446 2.0156947-7.1824772 4.5086612-10.269 7.416-2.9175193 3.0941295-5.4174264 6.5568841-7.436 10.3-.71888798 1.3684165-.23810514 3.0601739 1.093 3.846l3.787 2.264c.444542.2671955.9533375.408566 1.472.409.9711896.0040275 1.8729153-.5030507 2.374-1.335 1.7068844-2.9302859 3.7507817-5.6507836 6.09-8.106 2.4465028-2.3318506 5.1572362-4.3696831 8.077-6.072zm-15.883 13.155c-.114446.1800341-.2967597.3062082-.5055706.3498909s-.4264134.0011701-.6034294-.1178909l-3.786-2.264c-.4102687-.2275046-.570658-.7363562-.365-1.158 1.9152913-3.5874329 4.3032618-6.9016669 7.1-9.854 2.9448969-2.7870751 6.2487572-5.1684508 9.824-7.081.1142163-.0643949.242887-.0987988.374-.1.3233682.0062641.6202596.1800819.784.459l2.267 3.78c.118655.1908609.1577861.4206218.109.64-.0443399.1968294-.1676424.3667771-.341.47-3.0614155 1.7875926-5.9025069 3.9282283-8.465 6.378-2.4558519 2.5727898-4.6011992 5.424974-6.392 8.498z"/><path id="Shape" d="m25.521 25.521c-3.1304145 3.1301849-4.0669693 7.8378875-2.3729383 11.9278523 1.6940311 4.0899647 5.685026 6.7567151 10.1119383 6.7567151s8.4179072-2.6667504 10.1119383-6.7567151c1.694031-4.0899648.7574762-8.7976674-2.3729383-11.9278523-4.2767333-4.2678461-11.2012667-4.2678461-15.478 0zm14.064 14.064c-3.4924825 3.4894357-9.1521919 3.4877892-12.6426435-.003678-3.4904517-3.4914672-3.4904517-9.1511768 0-12.642644 3.4904516-3.4914672 9.150161-3.4931137 12.6426435-.003678 3.4870841 3.4957326 3.4870841 9.1542674 0 12.65z"/><path id="Shape" d="m30.635 30.635c-1.0624896 1.0616908-1.38067 2.6589373-.8061318 4.0467332.5745382 1.3877958 1.9286094 2.2927414 3.4306318 2.2927414s2.8560936-.9049456 3.4306318-2.2927414c.5745382-1.3877959.2563578-2.9850424-.8061318-4.0467332-1.4685936-1.4025464-3.7804064-1.4025464-5.249 0zm3.835 3.835c-.6770167.6477546-1.7439833.6477546-2.421 0-.4903683-.4897423-.6373265-1.2267057-.3723149-1.8670786s.8897719-1.0579687 1.5828149-1.0579687 1.3178033.4175958 1.5828149 1.0579687.1180534 1.3773363-.3723149 1.8670786z"/></g></g></g></svg>