<svg id="Capa_1" enable-background="new 0 0 512 512" height="512" viewBox="0 0 512 512" width="512" xmlns="http://www.w3.org/2000/svg"><g><path d="m106 241c0-2.835 0-45.058 0-47.763-17.422-6.213-30-22.707-30-42.237h30c0 8.276 6.724 15 15 15s15-6.724 15-15-6.724-15-15-15c-24.814 0-45-20.186-45-45 0-19.53 12.578-36.024 30-42.237 0-2.839 0-46.079 0-48.763-59.114 7.458-106 59.863-106 121 0 61.135 46.886 112.542 106 120z"/><path d="m136 193.237v47.763c59.114-7.458 105-58.865 105-120 0-61.137-45.886-113.542-105-121v48.763c17.422 6.213 30 22.707 30 42.237h-30c0-8.276-6.724-15-15-15s-15 6.724-15 15 6.724 15 15 15c24.814 0 45 20.186 45 45 0 19.53-12.578 36.024-30 42.237z"/><path d="m121 451v45l75-75-75-75v45c-33.091 0-60-26.909-60-60v-72.664c-24.051-10.527-45.507-27.356-61-48.16v120.824c0 66.167 54.833 120 121 120z"/><path d="m391 61v-45l-75 75 75 75v-45c33.091 0 60 26.909 60 60v56.367l61 60v-116.367c0-66.167-54.833-120-121-120z"/><path d="m361 421h30v91h-30z"/><path d="m503.211 331-127.211-126.211-126.211 126.211z"/><path d="m241 512h90v-121h90v121h91v-151h-271z"/></g></svg>