<svg id="Layer_1" enable-background="new 0 0 512 512" height="512" viewBox="0 0 512 512" width="512" xmlns="http://www.w3.org/2000/svg"><g><path d="m443.95 102.91c-.526-9.475-8.702-13.12-8.8-13.22-.474-.237 3.499 1.75-63.93-31.97-4.98-32.64-33.22-57.72-67.23-57.72-37.5 0-68 30.5-68 68v15.16l-59.42 89.13c-34.4 51.59-52.58 111.64-52.58 173.65v53.56c0 34.06-18.37 65.71-47.94 82.61-14.2 8.114-8.405 29.89 7.94 29.89h87.51c31.2 0 61.31-7.4 88.49-21.59v5.59c0 8.84 7.16 16 16 16h40c8.84 0 16-7.16 16-16s-7.16-16-16-16h-24v-12.53c50.286-59.297 48.946-57.657 49.33-58.279 2.026-2.569 10.93-21.39 16.07-41.431l24.7-96.319c12.91-50.361 11.66-102.261-3.5-151.441 53.97 0 50.008.066 51.57-.15 8.353-1.034 14.465-8.851 13.79-16.94zm-237.58 122.11c8.28-3.1 17.5 1.091 20.6 9.36 12.375 32.995 26.195 62.561 19.48 109.55-.684 4.79 5.599 7.136 8.25 3.16l15.91-23.859c12.54-18.811 15.63-41.891 8.48-63.341-7.82-23.47-7.07-49.04 2.11-72.01l16.59-41.47-18.6-24.81c-5.3-7.07-3.87-17.1 3.2-22.4s17.1-3.87 22.4 3.2l24 32c3.35 4.47 4.13 10.359 2.06 15.54l-19.93 49.829c-6.38 15.95-6.91 33.711-1.47 50 10.29 30.881 5.84 64.131-12.22 91.211l-15.9 23.859c-8.597 12.888-24.468 18.907-39.26 15.17-18.22-4.55-29.96-22.01-27.3-40.6 5.55-38.885-6.417-63.544-17.76-93.79-3.1-8.279 1.09-17.499 9.36-20.599z"/></g></svg>