<?xml version="1.0" encoding="utf-8"?>
<!-- Generator: Adobe Illustrator 16.0.0, SVG Export Plug-In . SVG Version: 6.00 Build 0)  -->
<!DOCTYPE svg PUBLIC "-//W3C//DTD SVG 1.1//EN" "http://www.w3.org/Graphics/SVG/1.1/DTD/svg11.dtd">
<svg version="1.1" id="Layer_1" xmlns="http://www.w3.org/2000/svg" xmlns:xlink="http://www.w3.org/1999/xlink" x="0px" y="0px"
	 width="256px" height="256px" viewBox="0 0 256 256" enable-background="new 0 0 256 256" xml:space="preserve">
<path fill="#424953" d="M256,183.998c0,11.781-26.43,42.672-128,42.672S0,195.779,0,183.998s57.309-10.672,128-10.672
	C198.688,173.326,256,172.217,256,183.998z"/>
<path fill="#646C77" d="M128,29.33c-50.074,0-90.668,7.164-90.668,16l5.335,143.997c0,0,21.333,10.672,85.333,10.672
	s85.328-10.672,85.328-10.672l5.344-143.997C218.672,36.494,178.078,29.33,128,29.33z"/>
<path fill="#EC5564" d="M214.125,167.998c0,0-22.125,10.672-86.125,10.672s-86.125-10.672-86.125-10.672l0.792,21.328
	c0,0,21.333,10.672,85.333,10.672s85.328-10.672,85.328-10.672L214.125,167.998z"/>
<g opacity="0.2">
	<path fill="#FFFFFF" d="M128,29.33c-1.789,0-3.566,0.012-5.332,0.027C170.258,29.846,208,36.811,208,45.33l-5.328,147.434
		l10.656-3.438l5.345-143.997C218.672,36.494,178.078,29.33,128,29.33z"/>
</g>
<path fill="#59616B" d="M218.672,45.33c0,8.836-40.594,16-90.672,16c-50.074,0-90.668-7.164-90.668-16c0-8.835,40.594-16,90.668-16
	C178.078,29.33,218.672,36.494,218.672,45.33z"/>
</svg>
