<svg id="Capa_1" enable-background="new 0 0 512 512" height="512" viewBox="0 0 512 512" width="512" xmlns="http://www.w3.org/2000/svg"><g><g fill="#596c76"><path d="m168 46v118.44c-44.94-4.98-80-43.19-80-89.44v-14c0-8.28 6.72-15 15-15z"/><path d="m168 167v118.44c-44.94-4.98-80-43.19-80-89.44v-14c0-8.28 6.72-15 15-15z"/><path d="m168 288v118.44c-44.94-4.98-80-43.19-80-89.44v-14c0-8.28 6.72-15 15-15z"/></g><path d="m344 46v118.44c44.94-4.98 80-43.19 80-89.44v-14c0-8.28-6.72-15-15-15z" fill="#465a61"/><path d="m344 167v118.44c44.94-4.98 80-43.19 80-89.44v-14c0-8.28-6.72-15-15-15z" fill="#465a61"/><path d="m344 288v118.44c44.94-4.98 80-43.19 80-89.44v-14c0-8.28-6.72-15-15-15z" fill="#465a61"/><path d="m300.5 446v51c0 8.28-6.72 15-15 15h-60c-8.28 0-15-6.72-15-15v-51z" fill="#596c76"/><path d="m300.5 446v51c0 8.28-6.72 15-15 15h-29.5v-66z" fill="#465a61"/><path d="m330.5 0h-150c-8.284 0-15 6.716-15 15v421c0 8.284 6.716 15 15 15h150c8.284 0 15-6.716 15-15v-421c0-8.284-6.716-15-15-15z" fill="#465a61"/><path d="m345.5 15v421c0 8.28-6.72 15-15 15h-74.5v-451h74.5c8.28 0 15 6.72 15 15z" fill="#2f4247"/><circle cx="256" cy="106.5" fill="#f0373c" r="44.5"/><path d="m300.5 106.5c0 24.54-19.96 44.5-44.5 44.5v-89c24.54 0 44.5 19.96 44.5 44.5z" fill="#d5202a"/><circle cx="256" cy="225.5" fill="#ffca0f" r="44.5"/><path d="m300.5 225.5c0 24.54-19.96 44.5-44.5 44.5v-89c24.54 0 44.5 19.96 44.5 44.5z" fill="#ffb301"/><circle cx="256" cy="345.5" fill="#47e26f" r="44.5"/><path d="m300.5 345.5c0 24.54-19.96 44.5-44.5 44.5v-89c24.54 0 44.5 19.96 44.5 44.5z" fill="#1dbc4a"/></g></svg>