<?xml version="1.0"?>
<svg xmlns="http://www.w3.org/2000/svg" xmlns:xlink="http://www.w3.org/1999/xlink" xmlns:svgjs="http://svgjs.com/svgjs" version="1.1" width="512" height="512" x="0" y="0" viewBox="0 0 512 512" style="enable-background:new 0 0 512 512" xml:space="preserve" class=""><g><g xmlns="http://www.w3.org/2000/svg"><path d="m251.38 279.06 160.76-44.16c11.06-3.03 14.77-16.93 6.63-25.07l-47.69-47.69-43.71 43.7c-5.826 5.846-15.355 5.865-21.21-.01-5.86-5.85-5.85-15.35.01-21.21l43.69-43.7-47.69-47.69c-8.14-8.14-22.04-4.43-25.07 6.63l-44.16 160.76c-3.09 11.25 7.28 21.51 18.44 18.44z" fill="#ffffff" data-original="#000000" style=""/><path d="m411.429 121.792 6.951 6.951c4.336 4.336 11.366 4.336 15.702 0l74.667-74.667c4.336-4.336 4.336-11.366 0-15.702l-35.122-35.122c-4.336-4.336-11.366-4.336-15.702 0l-74.667 74.667c-4.336 4.336-4.336 11.366 0 15.702l6.951 6.95-40.349 40.349 21.22 21.22z" fill="#ffffff" data-original="#000000" style=""/><path d="m10.496 298.39h165.438c5.797 0 10.496-4.699 10.496-10.496v-55.818c0-5.797-4.699-10.496-10.496-10.496h-165.438c-5.797 0-10.496 4.699-10.496 10.496v55.818c0 5.797 4.699 10.496 10.496 10.496z" fill="#ffffff" data-original="#000000" style=""/><path d="m175.934 435.19h-165.438c-5.797 0-10.496 4.699-10.496 10.496v55.818c0 5.797 4.699 10.496 10.496 10.496h165.438c5.797 0 10.496-4.699 10.496-10.496v-55.818c0-5.797-4.699-10.496-10.496-10.496z" fill="#ffffff" data-original="#000000" style=""/><path d="m118.716 328.39c-5.797 0-10.496 4.699-10.496 10.496v55.808c0 5.797 4.699 10.496 10.496 10.496h165.439c5.797 0 10.496-4.699 10.496-10.496v-55.808c0-5.797-4.699-10.496-10.496-10.496z" fill="#ffffff" data-original="#000000" style=""/><path d="m392.364 435.19h-165.438c-5.797 0-10.496 4.699-10.496 10.496v55.818c0 5.797 4.699 10.496 10.496 10.496h165.438c5.797 0 10.496-4.699 10.496-10.496v-55.818c0-5.797-4.699-10.496-10.496-10.496z" fill="#ffffff" data-original="#000000" style=""/><path d="m500.574 328.39h-165.428c-5.797 0-10.496 4.699-10.496 10.496v55.808c0 5.797 4.699 10.496 10.496 10.496h165.428c5.797 0 10.496-4.699 10.496-10.496v-55.808c0-5.797-4.699-10.496-10.496-10.496z" fill="#ffffff" data-original="#000000" style=""/></g></g></svg>
