<?xml version="1.0" encoding="utf-8"?>
<!-- Generator: Adobe Illustrator 16.0.0, SVG Export Plug-In . SVG Version: 6.00 Build 0)  -->
<!DOCTYPE svg PUBLIC "-//W3C//DTD SVG 1.1//EN" "http://www.w3.org/Graphics/SVG/1.1/DTD/svg11.dtd">
<svg version="1.1" id="Layer_1" xmlns="http://www.w3.org/2000/svg" xmlns:xlink="http://www.w3.org/1999/xlink" x="0px" y="0px"
	 width="512px" height="512px" viewBox="0 0 512 512" enable-background="new 0 0 512 512" xml:space="preserve">
<g id="_29-auction">
	<g id="Glyph">
		<path fill="#FFFFFF" d="M0,469.333h298.666V512H0V469.333z"/>
		<path fill="#FFFFFF" d="M256,426.32c0-11.782-9.552-21.334-21.334-21.334H64c-11.782,0-21.334,9.552-21.334,21.334V448H256V426.32
			z"/>
		<path fill="#FFFFFF" d="M290.272,251.898c-9.939,10.594-18.275,22.586-24.741,35.595l175.595,175.595
			c8.33,8.328,21.834,8.328,30.165,0l30.171-30.171c8.331-8.331,8.332-21.838,0.001-30.169c-0.001-0.001-0.001-0.001-0.001-0.002
			L325.866,227.2C312.834,233.609,300.836,241.935,290.272,251.898z"/>
		<path fill="#FFFFFF" d="M184.677,146.304c-16.133,14.972-34.808,26.944-55.146,35.355L239.792,291.92
			c8.485-20.304,20.471-38.96,35.408-55.12c16.134-14.971,34.808-26.945,55.146-35.36L220.08,91.2
			C211.591,111.496,199.609,130.146,184.677,146.304z"/>
		<path fill="#FFFFFF" d="M229.902,40.737l30.165-30.166c8.33-8.33,21.835-8.33,30.165,0l120.661,120.662
			c8.33,8.33,8.33,21.835,0,30.166l-30.165,30.165c-8.33,8.33-21.835,8.33-30.165,0L229.902,70.902
			C221.572,62.572,221.572,49.067,229.902,40.737z"/>
		<path fill="#FFFFFF" d="M48.883,221.721l30.165-30.166c8.33-8.33,21.835-8.33,30.165,0l120.661,120.661
			c8.33,8.33,8.33,21.836,0,30.166l-30.165,30.165c-8.33,8.33-21.835,8.33-30.165,0L48.883,251.887
			C40.553,243.557,40.553,230.051,48.883,221.721z"/>
	</g>
</g>
</svg>
