<?xml version="1.0"?>
<svg xmlns="http://www.w3.org/2000/svg" xmlns:xlink="http://www.w3.org/1999/xlink" xmlns:svgjs="http://svgjs.com/svgjs" version="1.1" width="512" height="512" x="0" y="0" viewBox="0 0 512 512" style="enable-background:new 0 0 512 512" xml:space="preserve" class=""><g><path xmlns="http://www.w3.org/2000/svg" d="m0 15v151c0 8.289062 6.710938 15 15 15h90v31h60v-31h90c8.289062 0 15-6.710938 15-15v-151c0-8.289062-6.710938-15-15-15h-240c-8.289062 0-15 6.710938-15 15zm79.394531 65.394531c5.859375-5.859375 15.351563-5.859375 21.210938 0l19.394531 19.394531 49.394531-49.394531c5.859375-5.859375 15.351563-5.859375 21.210938 0s5.859375 15.351563 0 21.210938l-60 60c-2.929688 2.929687-6.765625 4.394531-10.605469 4.394531-3.835938 0-7.675781-1.464844-10.605469-4.394531l-30-30c-5.859375-5.859375-5.859375-15.351563 0-21.210938zm0 0" fill="#ffffff" data-original="#000000" style="" class=""/><path xmlns="http://www.w3.org/2000/svg" d="m22.5 287h37.5v-45h-37.5c-12.425781 0-22.5 10.074219-22.5 22.5s10.074219 22.5 22.5 22.5zm0 0" fill="#ffffff" data-original="#000000" style="" class=""/><path xmlns="http://www.w3.org/2000/svg" d="m82.5 512h45c12.425781 0 22.5-10.074219 22.5-22.5s-10.074219-22.5-22.5-22.5h-45c-12.425781 0-22.5 10.074219-22.5 22.5s10.074219 22.5 22.5 22.5zm0 0" fill="#ffffff" data-original="#000000" style="" class=""/><path xmlns="http://www.w3.org/2000/svg" d="m52.5 437h45c12.425781 0 22.5-10.074219 22.5-22.5s-10.074219-22.5-22.5-22.5h-45c-12.425781 0-22.5 10.074219-22.5 22.5s10.074219 22.5 22.5 22.5zm0 0" fill="#ffffff" data-original="#000000" style="" class=""/><path xmlns="http://www.w3.org/2000/svg" d="m22.5 362h37.5v-45h-37.5c-12.425781 0-22.5 10.074219-22.5 22.5s10.074219 22.5 22.5 22.5zm0 0" fill="#ffffff" data-original="#000000" style="" class=""/><path xmlns="http://www.w3.org/2000/svg" d="m192.898438 512c22.5 0 45.902343-6 71.703124-18 16.796876-7.800781 35.398438-12 54-12h56.398438c8.402344 0 15-6.601562 15-15v-150c0-8.402344-6.597656-15-15-15h-47.699219c-23.101562 0-45.300781-9-61.800781-25.5-22.199219-22.199219-51.601562-34.5-82.800781-34.5h-77.699219c-8.402344 0-15 6.597656-15 15v90c0 8.398438 6.597656 15 15 15 24.902344 0 45-20.101562 45-45 0-8.402344 6.597656-15 15-15s15 6.597656 15 15c0 41.421875 33.578125 75 75 75 8.285156 0 15 6.714844 15 15s-6.714844 15-15 15c-40.789062 0-75.753906-23.503906-93.140625-57.480469-6.34375 7.484375-13.632813 14.148438-22.421875 18.734375 6.546875 8.753906 10.5625 19.5 10.5625 31.246094 0 9.175781-2.574219 17.675781-6.726562 25.1875 21.210937 6.746094 36.726562 26.398438 36.726562 49.8125 0 8.082031-1.988281 15.652344-5.265625 22.5zm0 0" fill="#ffffff" data-original="#000000" style="" class=""/></g></svg>
