<?xml version="1.0" encoding="utf-8"?>
<!-- Generator: Adobe Illustrator 16.0.0, SVG Export Plug-In . SVG Version: 6.00 Build 0)  -->
<!DOCTYPE svg PUBLIC "-//W3C//DTD SVG 1.1//EN" "http://www.w3.org/Graphics/SVG/1.1/DTD/svg11.dtd">
<svg version="1.1" id="Capa_1" xmlns="http://www.w3.org/2000/svg" xmlns:xlink="http://www.w3.org/1999/xlink" x="0px" y="0px"
	 width="1920px" height="1920px" viewBox="0 0 1920 1920" enable-background="new 0 0 1920 1920" xml:space="preserve">
<g>
	<g>
		<path fill="#FFFFFF" d="M1765.256,592.706l-618.72-567.881C1126.211,8.569,1101.934,0,1076.336,0
			c-25.594,0-49.928,8.569-70.249,24.825L387.431,591.012c-48.487,38.722-56.527,109.447-17.58,158.077
			c38.599,48.337,109.41,56.568,158.077,17.58l548.408-506.19l548.527,507.941c45.273,36.458,121.162,28.594,157.969-17.688
			C1821.723,702.304,1813.792,631.47,1765.256,592.706z"/>
	</g>
</g>
<g>
	<g>
		<path fill="#FFFFFF" d="M1638.787,0.165h-224.981c-31.087,0-56.246,25.155-56.246,56.246v8.873l337.47,311.257V56.411
			C1695.033,25.32,1669.879,0.165,1638.787,0.165z"/>
	</g>
</g>
<g>
	<g>
		<path fill="#FFFFFF" d="M176.415,903.836H56.426c-31.087,0-56.246,25.155-56.246,56.246v903.672
			c0,31.088,25.155,56.246,56.246,56.246h119.989c93.045,0,168.734-75.689,168.734-168.735v-678.693
			C345.15,979.526,269.464,903.836,176.415,903.836z"/>
	</g>
</g>
<g>
	<g>
		<path fill="#FFFFFF" d="M1873.897,1037.7c-46.125-33.746-110.242-26.996-148.488,14.625l-303.724,377.966
			c-21.375,22.496-61.871,35.996-83.242,35.996H851.355c-31.5,0-56.246-24.742-56.246-56.246s24.742-56.246,56.246-56.246
			c251.978,0,169.86,0,449.963,0c61.871,0,112.488-50.621,112.488-112.488c0-61.871-50.621-112.489-112.488-112.489
			c-264.15,0-12.188,0-294.724,0c-28.031,0-42.012-17.778-64.121-37.125c-33.747-30.367-71.993-52.867-111.364-68.617
			c-121.897-49.777-262.751-34.714-373.466,42.281c0,204.802,0,509.974,0,742.151h843.679c105.742,0,206.984-50.621,269.981-134.989
			l326.22-476.209C1934.64,1146.813,1924.515,1074.821,1873.897,1037.7z"/>
	</g>
</g>
<g>
	<g>
		<path fill="#FFFFFF" d="M1076.227,413.67L570.131,880.838V896.1c37.129-8.554,74.974-14.344,113.696-14.344
			c65.531,0,129.353,12.525,189.772,37.186c11.914,4.766,22.598,11.509,33.997,17.119v-88.467c0-31.088,25.155-56.246,56.247-56.246
			h224.98c31.088,0,56.246,25.155,56.246,56.246v168.735h56.25c90.244,0,168.24,53.389,204.053,130.229l77.172-96.033v-168.35
			L1076.227,413.67z"/>
	</g>
</g>
<g>
	<g>
		<polygon fill="#FFFFFF" points="1020.09,903.836 1020.09,1010.216 1026.847,1016.329 1132.582,1016.329 1132.582,903.836 		"/>
	</g>
</g>
</svg>
