<?xml version="1.0" encoding="utf-8"?>
<!-- Generator: Adobe Illustrator 16.0.0, SVG Export Plug-In . SVG Version: 6.00 Build 0)  -->
<!DOCTYPE svg PUBLIC "-//W3C//DTD SVG 1.1//EN" "http://www.w3.org/Graphics/SVG/1.1/DTD/svg11.dtd">
<svg version="1.1" id="Layer_1" xmlns="http://www.w3.org/2000/svg" xmlns:xlink="http://www.w3.org/1999/xlink" x="0px" y="0px"
	 width="512px" height="512px" viewBox="0 0 512 512" enable-background="new 0 0 512 512" xml:space="preserve">
<g id="_11-dice">
	<g id="Glyph">
		<path fill="#FFFFFF" d="M259.661,175.4c10.759-10.809,24.234-18.516,39.006-22.31V42.667C298.667,19.102,279.564,0,256,0H64
			C40.436,0,21.333,19.102,21.333,42.667v192c0,23.564,19.103,42.667,42.667,42.667h93.728L259.661,175.4z M213.333,64
			c11.782,0,21.333,9.552,21.333,21.334c0,11.781-9.551,21.333-21.333,21.333c-11.782,0-21.333-9.552-21.333-21.333
			C192,73.552,201.551,64,213.333,64z M213.333,149.334c11.782,0,21.333,9.551,21.333,21.333S225.115,192,213.333,192
			C201.551,192,192,182.449,192,170.667S201.551,149.334,213.333,149.334z M106.667,64C118.449,64,128,73.552,128,85.334
			c0,11.781-9.551,21.333-21.333,21.333c-11.782,0-21.333-9.552-21.333-21.333C85.333,73.552,94.885,64,106.667,64z
			 M106.667,213.334c-11.782,0-21.333-9.552-21.333-21.334s9.551-21.333,21.333-21.333c11.782,0,21.333,9.551,21.333,21.333
			S118.449,213.334,106.667,213.334z"/>
		<path fill="#FFFFFF" d="M470.848,296.08L361.686,186.915c-3.609-3.621-7.842-6.563-12.493-8.686
			c-27.017-12.248-55.585-6.61-74.446,12.267L165.581,299.648c-3.621,3.609-6.563,7.841-8.685,12.493
			c-12.248,27.016-6.611,55.584,12.267,74.445l109.163,109.166c3.609,3.621,7.841,6.563,12.493,8.685
			c27.017,12.248,55.584,6.611,74.445-12.267L474.43,383.008c3.621-3.609,6.563-7.841,8.685-12.493
			C495.353,343.51,489.715,314.933,470.848,296.08L470.848,296.08z M320,362.667c-11.782,0-21.333-9.552-21.333-21.333
			c0-11.782,9.551-21.334,21.333-21.334s21.333,9.552,21.333,21.334C341.333,353.115,331.782,362.667,320,362.667z"/>
	</g>
</g>
</svg>
