<?xml version="1.0" encoding="utf-8"?>
<!-- Generator: Adobe Illustrator 16.0.0, SVG Export Plug-In . SVG Version: 6.00 Build 0)  -->
<!DOCTYPE svg PUBLIC "-//W3C//DTD SVG 1.1//EN" "http://www.w3.org/Graphics/SVG/1.1/DTD/svg11.dtd">
<svg version="1.1" id="Capa_1" xmlns="http://www.w3.org/2000/svg" xmlns:xlink="http://www.w3.org/1999/xlink" x="0px" y="0px"
	 width="579px" height="579px" viewBox="0 0 579 579" enable-background="new 0 0 579 579" xml:space="preserve">
<rect x="118.432" y="57.271" transform="matrix(0.8926 -0.4509 0.4509 0.8926 -101.1784 154.3032)" fill="none" stroke="#FFFFFF" stroke-width="30" stroke-miterlimit="10" width="309.635" height="464.451"/>
<g>
	<path fill="#FFFFFF" d="M145.002,176.869c-0.198,80.188,19.438,144.197,98.923,151.873l-7.803,5.141
		c-18.251,6.934-34.702,8.206-50.265,3.896c-3.893-1.077-8.007,0.693-9.902,4.256c-18.685,35.125,12.378,67.896,51.395,80.372
		c2.485,0.794,5.129,0.405,7.234-0.929c16.432-10.418,35.295-24.764,39.043-43.875c23.184,7.012,42.991,6.363,59.01-1.957
		c24.444-12.696,21.672-60.18,40.199-74.982c9.613-6.571,19.693-6.345,33.64,0.743c6.455,3.281,13.851-2.417,12.32-9.497
		c-5.458-25.255-15.773-40.456-30.665-45.18c-17.249-5.471-38.554,3.444-65.077,27.252c-31.474-0.833-99.846-63.839-164.882-104.4
		C152.445,166.012,145.019,170.132,145.002,176.869L145.002,176.869z"/>
	<path fill="#FFFFFF" d="M331.095,245.536l-19.284-75.333c-1.632-6.378-9.555-8.639-14.306-4.078
		c-16.492,15.827-28.206,35.032-32.648,57.739c13.596,9.725,37.507,26.584,53.17,31.688
		C322.477,251.835,326.831,248.498,331.095,245.536z"/>
</g>
</svg>
