<?xml version="1.0" encoding="utf-8"?>
<!-- Generator: Adobe Illustrator 16.0.0, SVG Export Plug-In . SVG Version: 6.00 Build 0)  -->
<!DOCTYPE svg PUBLIC "-//W3C//DTD SVG 1.1//EN" "http://www.w3.org/Graphics/SVG/1.1/DTD/svg11.dtd">
<svg version="1.1" id="Capa_1" xmlns="http://www.w3.org/2000/svg" xmlns:xlink="http://www.w3.org/1999/xlink" x="0px" y="0px"
	 width="512px" height="512px" viewBox="0 0 512 512" enable-background="new 0 0 512 512" xml:space="preserve">
<g>
	<circle fill="#FFFFFF" cx="362" cy="150" r="15"/>
	<circle fill="#FFFFFF" cx="304.068" cy="92.068" r="15"/>
	<circle fill="#FFFFFF" cx="419.926" cy="207.926" r="15"/>
	<path fill="#FFFFFF" d="M467,0H257c-24.813,0-45,20.187-45,45v83.993c-5.748-2.6-12.031-3.979-18.529-3.979
		c-12.02,0-23.321,4.681-31.82,13.181L13.159,286.688c-17.545,17.547-17.545,46.095,0,63.641L161.652,498.82
		c8.499,8.5,19.801,13.181,31.82,13.181s23.32-4.681,31.819-13.181l148.492-148.492c13.584-13.586,16.643-33.764,9.189-50.327H467
		c24.813,0,45-20.187,45-45V45C512,20.187,491.813,0,467,0z M352.57,329.114L204.078,477.606c-2.833,2.833-6.601,4.394-10.606,4.394
		c-4.007,0-7.773-1.561-10.607-4.394L34.372,329.114c-5.85-5.849-5.85-15.365,0-21.214l148.492-148.492
		c2.833-2.833,6.601-4.394,10.607-4.394c4.006,0,7.773,1.561,10.606,4.394L352.57,307.9
		C358.419,313.749,358.419,323.266,352.57,329.114z M482,255c0,8.271-6.729,15-15,15H357.096L242,154.905V45c0-8.271,6.729-15,15-15
		h210c8.271,0,15,6.729,15,15V255z"/>
	<circle fill="#FFFFFF" cx="204.078" cy="244.261" r="15"/>
	<circle fill="#FFFFFF" cx="119.225" cy="329.114" r="15"/>
	<circle fill="#FFFFFF" cx="161.651" cy="286.688" r="15"/>
	<circle fill="#FFFFFF" cx="267.717" cy="307.9" r="15"/>
	<circle fill="#FFFFFF" cx="182.864" cy="392.754" r="15"/>
	<circle fill="#FFFFFF" cx="225.291" cy="350.327" r="15"/>
</g>
</svg>
