<?xml version="1.0" encoding="utf-8"?>
<!-- Generator: Adobe Illustrator 16.0.0, SVG Export Plug-In . SVG Version: 6.00 Build 0)  -->
<!DOCTYPE svg PUBLIC "-//W3C//DTD SVG 1.1//EN" "http://www.w3.org/Graphics/SVG/1.1/DTD/svg11.dtd">
<svg version="1.1" id="Layer_1" xmlns="http://www.w3.org/2000/svg" xmlns:xlink="http://www.w3.org/1999/xlink" x="0px" y="0px"
	 width="1920px" height="1920px" viewBox="0 0 1920 1920" enable-background="new 0 0 1920 1920" xml:space="preserve">
<g>
	<g>
		<rect x="523.635" y="1396.365" fill="#FFFFFF" width="872.727" height="174.543"/>
	</g>
</g>
<g>
	<g>
		<polygon fill="#FFFFFF" points="523.635,1745.456 523.635,1832.727 523.635,1920 1396.365,1920 1396.365,1832.727 
			1396.365,1745.456 		"/>
	</g>
</g>
<g>
	<g>
		<path fill="#FFFFFF" d="M1902.518,501.911L1551.836,34.875C1535.355,12.922,1509.498,0,1482.049,0h-143.865v87.274v87.273v552.728
			c0,48.19-39.075,87.273-87.274,87.273H436.365c-48.198,0-87.273-39.083-87.273-87.273V174.544v-87.27V0H87.274
			C39.075,0,0,39.083,0,87.274V1832.73c0,48.188,39.075,87.27,87.273,87.27h261.817v-87.273v-87.274v-87.273v-349.091
			c0-48.203,39.075-87.274,87.273-87.274h1047.274c48.198,0,87.273,39.067,87.273,87.274v349.091v87.273v87.274V1920h261.817
			c48.194,0,87.271-39.082,87.271-87.273V554.313C1920,535.418,1913.862,517.02,1902.518,501.911z"/>
	</g>
</g>
<g>
	<g>
		<polygon fill="#FFFFFF" points="523.635,0 523.635,87.274 523.635,174.544 523.635,640.001 1163.636,640.001 1163.636,174.544 
			1163.636,87.274 1163.636,0 		"/>
	</g>
</g>
</svg>
