<?xml version="1.0" encoding="utf-8"?>
<!-- Generator: Adobe Illustrator 16.0.0, SVG Export Plug-In . SVG Version: 6.00 Build 0)  -->
<!DOCTYPE svg PUBLIC "-//W3C//DTD SVG 1.1//EN" "http://www.w3.org/Graphics/SVG/1.1/DTD/svg11.dtd">
<svg version="1.1" id="Capa_1" xmlns="http://www.w3.org/2000/svg" xmlns:xlink="http://www.w3.org/1999/xlink" x="0px" y="0px"
	 width="1920px" height="1920px" viewBox="0 0 1920 1920" enable-background="new 0 0 1920 1920" xml:space="preserve">
<g>
	<g>
		<path fill="#FFFFFF" d="M1626,447.69c-5.682,4.878-12.559,8.081-19.999,9.198c-160.8,24.48-276.72-13.68-369.679-44.4
			c-57.199-18.799-106.481-35.119-156.319-35.119c-84.078,0-149.201,42.799-212.159,84.161c-14.641,9.6-28.879,18.96-42.961,27.521
			l-208.48,208.481c-28.561,28.56-35.6,72-17.521,108.078c15.919,31.92,48,51.762,83.682,51.762h31.999
			c21.761,0,42.161-7.2,58.961-20.802c15.281-12.479,32.88-27.12,51.679-42.881c102.479-85.68,185.28-152.959,240.72-173.76
			c4.639-1.759,9.281-2.562,14.082-2.562c9.438,0,18.798,3.36,26.159,9.761l578.16,501.042L1920,1034.73v-770.4L1626,447.69z"/>
	</g>
</g>
<g>
	<g>
		<path fill="#FFFFFF" d="M361.841,1097.37c-26.16,0-50.562,13.038-65.04,34.8l-43.68,65.52
			c-8.562,12.799-13.121,27.919-13.121,43.361v18.162c0,43.199,34.961,78.161,78.161,78.161c26.159,0,50.561-13.039,65.04-34.801
			l43.68-65.52c8.562-12.799,13.121-27.919,13.121-43.361v-18.161C439.998,1132.331,405.041,1097.37,361.841,1097.37z"/>
	</g>
</g>
<g>
	<g>
		<path fill="#FFFFFF" d="M521.838,1177.369h-2.719c-24.641,0-47.76,11.599-62.561,31.278l-80.881,107.921
			C365.52,1330.092,360,1346.49,360,1363.451v15.762c0,43.199,34.961,78.161,78.161,78.161h2.719
			c24.641,0,47.76-11.599,62.561-31.279l80.88-107.921c10.159-13.519,15.68-29.922,15.68-46.879v-15.762
			C600,1212.33,565.038,1177.369,521.838,1177.369z"/>
	</g>
</g>
<g>
	<g>
		<path fill="#FFFFFF" d="M681.84,1257.371h-2.719c-24.642,0-47.76,11.599-62.562,31.279l-80.88,107.921
			c-10.159,13.519-15.679,29.921-15.679,46.879v15.761c0,43.2,34.961,78.162,78.161,78.162h2.719c24.641,0,47.76-11.6,62.562-31.279
			l80.88-107.921c10.158-13.52,15.679-29.922,15.679-46.879v-15.762C760.001,1292.329,725.039,1257.371,681.84,1257.371z"/>
	</g>
</g>
<g>
	<g>
		<path fill="#FFFFFF" d="M841.841,1337.37h-2.719c-24.642,0-47.76,11.599-62.562,31.278l-80.88,107.922
			c-10.159,13.519-15.679,29.921-15.679,46.879v15.761c0,43.2,34.961,78.161,78.161,78.161h2.719
			c24.642,0,47.761-11.599,62.562-31.278l80.88-107.922c10.159-13.519,15.6-30,15.6-46.878v-15.762h0.079
			C919.998,1372.331,885.041,1337.37,841.841,1337.37z"/>
	</g>
</g>
<g>
	<g>
		<path fill="#FFFFFF" d="M1046.88,1576.091l-72.401-61.68c-2.4,3.761-3.521,8.239-6.162,11.839l-51.438,68.562l53.839,49.92
			c17.119,17.04,42.401,16.08,57.521,0.96C1048.158,1625.771,1056.078,1587.611,1046.88,1576.091z"/>
	</g>
</g>
<g>
	<g>
		<path fill="#FFFFFF" d="M1655.921,1214.73l-582.563-510.079c-51.281,28.639-134.16,97.92-196.8,150.318
			c-19.039,16.002-36.882,30.882-52.399,43.519c-31.278,25.52-69.12,38.881-109.519,38.881h-31.999
			c-66.239,0-125.681-36.799-155.279-96c-33.601-66.882-20.562-147.36,32.479-200.4l223.361-220.241
			c11.441-6.96,23.04-14.562,34.8-22.241c-125.441-25.602-268.001-27.36-427.279-2.321c-80.561,13.039-162.078-9.6-224.08-61.2
			L0,262.729v771.919l208.001,86.479l22.241-33.359c29.28-43.999,78.479-70.399,131.599-70.399
			c59.599,0,110.959,33.521,137.921,82.32c6.401-0.881,12.721-2.321,19.279-2.321c61.519,0,113.441,33.521,140.561,82.32
			c6.559-0.882,12.882-2.321,19.44-2.321c61.519,0,113.441,33.521,140.562,82.32c6.479-0.799,12.799-2.321,19.439-2.321h2.802
			c87.198,0,158.16,70.961,158.16,158.159v15.601l100.398,85.361c0.079,0.161,0.24,0.239,0.401,0.401l38.238,32.479
			c22.241,17.76,51.36,28.001,81.041,28.001c33.042,0,59.922-26.88,59.922-59.921c0-17.839-7.92-34.561-21.601-46.002
			l-364.079-303.359c-16.962-14.16-19.279-39.36-5.119-56.321c14.16-16.879,39.359-19.278,56.4-5.04l449.76,374.801
			c12.4,10.241,27.918,15.841,43.998,15.841h11.76c37.999,0,68.802-30.882,68.802-68.802c0-19.999-8.399-38.719-23.28-51.84
			l-442.319-368.562c-16.962-14.16-19.279-39.359-5.04-56.399c14.238-17.04,39.438-19.122,56.321-5.119l440.88,367.361
			c0.72,0.559,1.439,1.2,2.081,1.759l6.559,5.441c12.48,10.48,28.32,16.158,44.562,16.158h10.721
			c38.322,0,69.601-31.278,69.601-69.6C1680,1247.209,1671.281,1228.091,1655.921,1214.73z"/>
	</g>
</g>
</svg>
